<svg id="color_line" height="512" viewBox="0 0 74 74" width="512" xmlns="http://www.w3.org/2000/svg" data-name="color line"><path d="m18.632 38.253a7.451 7.451 0 0 0 5.3-2.2v23.194h-10.75v-23.355a7.443 7.443 0 0 0 5.45 2.361z" fill="#e1e6e9"/><path d="m23.94 36.06v23.19h-3v-21.36a7.463 7.463 0 0 0 3-1.83z" fill="#d5d6db"/><path d="m30.738 18.191-5.776 8.546a7.492 7.492 0 0 0 -6.33-3.478 7.4 7.4 0 0 0 -2.389.391l8.6-11.3a6.494 6.494 0 0 0 5.895 5.841z" fill="#e1e6e9"/><path d="m24.84 12.35a6.6 6.6 0 0 0 1.07 3l-6.09 8a7.751 7.751 0 0 0 -1.19-.09 7.577 7.577 0 0 0 -2.39.39z" fill="#d5d6db"/><path d="m42.7 21.034-7.774-3.905a6.5 6.5 0 0 0 2.9-5.422 4.968 4.968 0 0 0 -.1-1.044l8.056 5.594z" fill="#e1e6e9"/><path d="m45.78 16.26-1.31 2.03-6.9-4.79a6.615 6.615 0 0 0 .25-1.79 5.193 5.193 0 0 0 -.1-1.05z" fill="#d5d6db"/><path d="m9.764 59.247h17.59a6.764 6.764 0 0 1 6.764 6.764v2.794h-31.118v-2.794a6.764 6.764 0 0 1 6.764-6.764z" fill="#9297ab"/><path d="m34.12 66.01v2.8h-31.12v-2.67h28.08v-2.8a6.593 6.593 0 0 0 -1-3.51 6.744 6.744 0 0 1 4.04 6.18z" fill="#84879c"/><path d="m18.632 38.253a7.451 7.451 0 0 0 5.3-2.2v23.194h-10.75v-23.355a7.443 7.443 0 0 0 5.45 2.361z" fill="#e1e6e9"/><path d="m24.436 59.747h-11.753v-25.119l.865.922a6.983 6.983 0 0 0 10.034.153l.854-.86zm-10.753-1h9.753v-21.592a8 8 0 0 1 -9.753-.122z" fill="#323c6b"/><path d="m53.329 22.2 8.1.731 6.1 8.935a2.385 2.385 0 0 0 2.925.841h.005a2.385 2.385 0 0 0 1.228-3.145l-5.304-12.034a2.693 2.693 0 0 0 -2.768-1.591l-12.089 1.373" fill="#e1e6e9"/><path d="m70.45 32.71h-.01a2.6 2.6 0 0 1 -.25.1 2.521 2.521 0 0 0 -.18-.65l-5.29-12.03a2.7 2.7 0 0 0 -2.77-1.59l-9.57 1.08-.85-2.31 12.08-1.37a2.674 2.674 0 0 1 2.77 1.59l5.3 12.03a2.391 2.391 0 0 1 -1.23 3.15z" fill="#d5d6db"/><path d="m37.822 11.707a6.5 6.5 0 0 1 -6.5 6.512c-.2 0-.391-.009-.581-.027a6.494 6.494 0 0 1 -5.894-5.84 5.028 5.028 0 0 1 -.036-.645 6.5 6.5 0 0 1 12.915-1.044 4.968 4.968 0 0 1 .096 1.044z" fill="#9297ab"/><path d="m34.477 11.707a3.159 3.159 0 0 1 -3.161 3.165c-.1 0-.19 0-.283-.013a3.156 3.156 0 0 1 -2.865-2.838 2.444 2.444 0 0 1 -.018-.313 3.159 3.159 0 0 1 6.277-.508 2.414 2.414 0 0 1 .05.507z" fill="#fff"/><path d="m31.317 15.372c-.113 0-.222-.005-.33-.016a3.652 3.652 0 0 1 -3.315-3.288 2.841 2.841 0 0 1 -.02-.361 3.669 3.669 0 0 1 3.665-3.665 3.627 3.627 0 0 1 3.606 3.081 2.737 2.737 0 0 1 .055.584 3.662 3.662 0 0 1 -1.63 3.051 3.623 3.623 0 0 1 -2.031.614zm0-6.33a2.668 2.668 0 0 0 -2.665 2.665 1.991 1.991 0 0 0 .013.249 2.659 2.659 0 0 0 2.413 2.4 2.632 2.632 0 0 0 1.713-.434 2.665 2.665 0 0 0 1.187-2.22 1.927 1.927 0 0 0 -.037-.4 2.642 2.642 0 0 0 -2.624-2.26z" fill="#323c6b"/><path d="m26.133 30.752a7.5 7.5 0 1 1 -9.89-7.1 7.4 7.4 0 0 1 2.389-.391 7.492 7.492 0 0 1 6.33 3.478 7.4 7.4 0 0 1 1.171 4.013z" fill="#9297ab"/><path d="m10.183 52.917a.5.5 0 0 1 -.5-.5v-7.317a.5.5 0 0 1 1 0v7.313a.5.5 0 0 1 -.5.504z" fill="#323c6b"/><path d="m10.183 43.479a.5.5 0 0 1 -.5-.5v-.333a.5.5 0 0 1 1 0v.333a.5.5 0 0 1 -.5.5z" fill="#323c6b"/><path d="m70.876 21.406a.5.5 0 0 1 -.458-.3l-1.977-4.493a4.846 4.846 0 0 0 -2.658-2.564.5.5 0 0 1 .37-.929 5.84 5.84 0 0 1 3.2 3.09l1.977 4.494a.5.5 0 0 1 -.457.7z" fill="#323c6b"/><path d="m72.031 24.031a.5.5 0 0 1 -.458-.3l-.151-.344a.5.5 0 1 1 .916-.4l.151.344a.5.5 0 0 1 -.458.7z" fill="#323c6b"/><path d="m50.892 25.5 3.7 7.239 10.563 2.325a2.385 2.385 0 0 1 1.871 2.4v.006a2.385 2.385 0 0 1 -2.461 2.312l-13.139-.426a2.693 2.693 0 0 1 -2.508-1.976l-3.238-11.733" fill="#e1e6e9"/><path d="m64.642 40.278h-.1l-13.139-.426a3.178 3.178 0 0 1 -2.975-2.342l-3.228-11.731.964-.266 3.236 11.73a2.183 2.183 0 0 0 2.043 1.609l13.139.426a1.885 1.885 0 0 0 1.945-1.828 1.888 1.888 0 0 0 -1.479-1.9l-10.798-2.379-3.8-7.449.891-.455 3.585 7.033 10.333 2.274a2.888 2.888 0 0 1 -.617 5.708z" fill="#323c6b"/><path d="m22.372 30.756a3.732 3.732 0 0 1 -3.734 3.739c-.115 0-.224-.005-.334-.016a3.729 3.729 0 0 1 -3.384-3.353 2.887 2.887 0 0 1 -.021-.37 3.731 3.731 0 0 1 7.415-.6 2.852 2.852 0 0 1 .058.6z" fill="#fff"/><path d="m18.639 35c-.131 0-.255-.006-.38-.018a4.226 4.226 0 0 1 -3.835-3.8 3.277 3.277 0 0 1 -.023-.418 4.243 4.243 0 0 1 4.239-4.239 4.194 4.194 0 0 1 4.17 3.563 3.183 3.183 0 0 1 .063.676 4.237 4.237 0 0 1 -1.886 3.529 4.191 4.191 0 0 1 -2.348.707zm0-7.478a3.243 3.243 0 0 0 -3.239 3.234 2.429 2.429 0 0 0 .017.306 3.232 3.232 0 0 0 2.932 2.919 3.2 3.2 0 0 0 2.081-.527 3.24 3.24 0 0 0 1.443-2.7 2.339 2.339 0 0 0 -.046-.493 3.208 3.208 0 0 0 -3.188-2.744z" fill="#323c6b"/><path d="m69.491 33.408a2.886 2.886 0 0 1 -2.385-1.258l-5.962-8.74-7.86-.71.09-1 8.331.753 6.229 9.129a1.888 1.888 0 0 0 3.287-1.824l-5.295-12.029a2.194 2.194 0 0 0 -2.254-1.3l-12.089 1.377-.113-.993 12.088-1.373a3.173 3.173 0 0 1 3.283 1.886l5.294 12.034a2.884 2.884 0 0 1 -1.485 3.8 2.9 2.9 0 0 1 -1.159.248z" fill="#323c6b"/><path d="m42.875 21.682-8.942-4.492.714-.477a6.011 6.011 0 0 0 2.675-5.006 4.4 4.4 0 0 0 -.089-.938l-.269-1.241 9.5 6.594zm-7.009-4.641 6.656 3.344 2.578-3.993-6.774-4.7v.019a7.006 7.006 0 0 1 -2.46 5.331z" fill="#323c6b"/><circle cx="48.662" cy="21.034" fill="#9297ab" r="5.983" transform="matrix(.552 -.834 .834 .552 4.262 50)"/><path d="m35.71 16.5a6.589 6.589 0 0 0 .53-2.59 4.479 4.479 0 0 0 -.1-1.04 6.483 6.483 0 0 0 -10.79-3.76 6.491 6.491 0 0 1 12.37 1.55 5.193 5.193 0 0 1 .1 1.05 6.446 6.446 0 0 1 -2.11 4.79z" fill="#84879c"/><path d="m26.13 30.75a7.542 7.542 0 0 1 -2.19 5.31.994.994 0 0 1 -.11.1 7.412 7.412 0 0 0 -.45-7.22 7.488 7.488 0 0 0 -8.71-3.09 7.328 7.328 0 0 0 -2.82 1.73 7.488 7.488 0 0 1 13.11-.84 7.334 7.334 0 0 1 1.17 4.01z" fill="#84879c"/><path d="m53.65 24.34a5.969 5.969 0 0 1 -1.04 1.19 5.982 5.982 0 0 0 -9.47-6.79 6.1 6.1 0 0 1 .53-1.01 5.985 5.985 0 0 1 9.98 6.61z" fill="#84879c"/><circle cx="48.662" cy="21.034" fill="#fff" r="2.893" transform="matrix(.552 -.834 .834 .552 4.262 50)"/><g fill="#323c6b"><path d="m48.655 24.428a3.394 3.394 0 1 1 1.88-6.224 3.4 3.4 0 0 1 -1.88 6.224zm.011-5.787a2.392 2.392 0 1 0 1.317.4 2.38 2.38 0 0 0 -1.317-.4z"/><path d="m24.949 27.649-.409-.644a6.964 6.964 0 0 0 -5.908-3.247 6.878 6.878 0 0 0 -2.227.364l-1.555.531 10.369-13.62.123 1.271a5.99 5.99 0 0 0 5.44 5.39l.847.074zm-6.317-4.891a7.954 7.954 0 0 1 6.322 3.1l4.924-7.286a7 7 0 0 1 -5.322-5.015l-7.068 9.285a8.073 8.073 0 0 1 1.144-.083z"/><path d="m24.436 59.747h-11.753v-25.119l.865.922a6.983 6.983 0 0 0 10.034.153l.854-.86zm-10.753-1h9.753v-21.592a8 8 0 0 1 -9.753-.122z"/><path d="m34.618 69.305h-32.118v-3.294a7.273 7.273 0 0 1 7.264-7.264h17.59a7.273 7.273 0 0 1 7.264 7.264zm-31.118-1h30.118v-2.294a6.271 6.271 0 0 0 -6.264-6.264h-17.59a6.271 6.271 0 0 0 -6.264 6.264z"/><path d="m31.319 18.718c-.216 0-.422-.01-.628-.029a6.988 6.988 0 0 1 -6.345-6.29 5.386 5.386 0 0 1 -.039-.693 7.02 7.02 0 0 1 7.012-7.012 6.935 6.935 0 0 1 6.9 5.891 5.309 5.309 0 0 1 .106 1.121 7.008 7.008 0 0 1 -3.125 5.838 6.929 6.929 0 0 1 -3.881 1.174zm0-13.023a6.018 6.018 0 0 0 -6.012 6.012 4.534 4.534 0 0 0 .032.58 6 6 0 0 0 11.982-.58 4.4 4.4 0 0 0 -.089-.938 5.949 5.949 0 0 0 -5.913-5.074z"/><path d="m18.632 38.753a8.012 8.012 0 0 1 -7.993-8 7.987 7.987 0 0 1 5.445-7.576 7.875 7.875 0 0 1 2.548-.417 8 8 0 1 1 0 15.995zm0-14.995a6.878 6.878 0 0 0 -2.227.364 6.991 6.991 0 0 0 -2.859 11.426 6.983 6.983 0 0 0 10.035.155 7 7 0 0 0 -4.949-11.944z"/><path d="m48.648 27.519a6.484 6.484 0 1 1 3.592-11.891 6.486 6.486 0 0 1 -3.591 11.891zm.024-11.969a5.507 5.507 0 0 0 -1.1.112 5.483 5.483 0 1 0 4.119.8 5.446 5.446 0 0 0 -3.018-.913z"/></g><path d="m22.219 61.808a.546.546 0 0 1 .546-.546h5.471a.546.546 0 0 1 0 1.091h-5.472a.546.546 0 0 1 -.545-.545z" fill="#fff"/><path d="m20.041 61.808a.546.546 0 0 1 .546-.546h.286a.546.546 0 0 1 0 1.091h-.286a.546.546 0 0 1 -.546-.545z" fill="#fff"/></svg>