<svg id="color_line" height="512" viewBox="0 0 74 74" width="512" xmlns="http://www.w3.org/2000/svg" data-name="color line"><path d="m51.269 9.607c13.586 2.236 20.953 17.043 15.848 29.83-.367.918-.718 1.843-1.043 2.779a28.4 28.4 0 0 0 -1.839 12.336 15.361 15.361 0 0 0 5.683 10.764l-28.618 5.684c-1-3.042-1.972-6.084-2.975-9.126a3.676 3.676 0 0 0 -.936-1.738 3.92 3.92 0 0 0 -2.639-.536c-1.672.067-3.343.1-4.981.067a7.974 7.974 0 0 1 -3.878-.735c-1.1-.669-2.173-2.541-1.371-3.544a1.853 1.853 0 0 0 0-1.906 13.09 13.09 0 0 1 -.969-1.772c-.3-1.17 1.337-1.538 1.939-1.839-.635.134-2.307-.267-2.44-1.27-.1-.635.435-1.27.368-1.906a2.243 2.243 0 0 0 -1.772-1.805c-.6-.167-1.237-.2-1.872-.368a1.878 1.878 0 0 1 -1.337-1.2 2.363 2.363 0 0 1 .435-1.738c1.1-2.039 2.24-4.078 3.343-6.118a43.358 43.358 0 0 0 1.939-4.68 6.326 6.326 0 0 0 .332-2.546 15.546 15.546 0 0 1 4.308-11.855c4.412-4.722 10.752-7.15 17.8-7.15a28.826 28.826 0 0 1 4.675.372z" fill="#fcd462"/><path d="m69.92 65.32-4.07.81a15.793 15.793 0 0 1 -4.63-9.88 28.257 28.257 0 0 1 1.84-12.34c.32-.94.67-1.86 1.04-2.78 5.1-12.79-2.26-27.59-15.85-29.83a28.706 28.706 0 0 0 -4.68-.37 26.385 26.385 0 0 0 -11.08 2.31 25.166 25.166 0 0 1 14.1-4.01 28.791 28.791 0 0 1 4.68.38c13.58 2.23 20.95 17.04 15.85 29.83-.37.92-.72 1.84-1.05 2.78a28.485 28.485 0 0 0 -1.84 12.33 15.378 15.378 0 0 0 5.69 10.77z" fill="#f7be56"/><path d="m31.818 36.149a15.271 15.271 0 0 1 22.125-18.183l-.5.863a14.272 14.272 0 0 0 -20.68 16.995z" fill="#323c6b"/><path d="m46.238 46.434a15.2 15.2 0 0 1 -8.431-2.541l.554-.833a14.282 14.282 0 0 0 20.85-17.91l.907-.421a15.276 15.276 0 0 1 -13.88 21.7z" fill="#323c6b"/><path d="m46.26 39.92a8.757 8.757 0 1 1 8.757-8.757 8.767 8.767 0 0 1 -8.757 8.757zm0-16.514a7.757 7.757 0 1 0 7.757 7.757 7.766 7.766 0 0 0 -7.757-7.757z" fill="#323c6b"/><circle cx="55.98" cy="20.04" fill="#fe7058" r="2.823"/><path d="m55.98 23.363a3.323 3.323 0 1 1 3.32-3.323 3.327 3.327 0 0 1 -3.32 3.323zm0-5.646a2.323 2.323 0 1 0 2.32 2.323 2.325 2.325 0 0 0 -2.32-2.323z" fill="#323c6b"/><circle cx="35.812" cy="41.809" fill="#27ccbc" r="2.823"/><g fill="#323c6b"><path d="m35.812 45.132a3.323 3.323 0 1 1 3.323-3.323 3.327 3.327 0 0 1 -3.323 3.323zm0-5.646a2.323 2.323 0 1 0 2.323 2.323 2.325 2.325 0 0 0 -2.323-2.323z"/><path d="m12.018 36.631h-1v-10.247h13.412v1h-12.412z"/><path d="m11.519 37.357-4.221-4.475.728-.686 3.492 3.703 3.488-3.703.727.686z"/><path d="m32.989 13.247h-18.418v-10.247h1v9.247h17.418z"/><path d="m11.583 7.437-.727-.687 4.221-4.475 4.214 4.475-.728.686-3.487-3.703z"/><path d="m4.082 18.931h22.453v1h-22.453z"/><path d="m7.834 23.644-4.475-4.221 4.475-4.215.686.728-3.703 3.488 3.704 3.492z"/><path d="m29.625 63.164h-.014l-.631-.021a.5.5 0 0 1 -.48-.519.51.51 0 0 1 .519-.48l.619.02a.5.5 0 0 1 -.013 1z"/><path d="m26.313 62.8a.5.5 0 0 1 -.123-.015 7.6 7.6 0 0 1 -2.115-.859 7.333 7.333 0 0 1 -3.249-4.711.5.5 0 1 1 .984-.175 6.276 6.276 0 0 0 2.783 4.03 6.615 6.615 0 0 0 1.84.745.5.5 0 0 1 -.122.985z"/><path d="m57.5 8.883a.5.5 0 0 1 -.206-.044l-.306-.126a.5.5 0 0 1 .4-.917l.319.132a.5.5 0 0 1 -.207.956z"/><path d="m67.233 17a.5.5 0 0 1 -.411-.215 23.214 23.214 0 0 0 -6.53-6.327.5.5 0 1 1 .541-.841 24.193 24.193 0 0 1 6.81 6.6.5.5 0 0 1 -.41.785z"/><path d="m41.3 71.5a.5.5 0 0 1 -.475-.343q-.752-2.283-1.488-4.566t-1.485-4.561a3.275 3.275 0 0 0 -.789-1.517 3.527 3.527 0 0 0 -2.3-.413c-1.893.076-3.531.1-5.009.067a8.339 8.339 0 0 1 -4.127-.808 4.292 4.292 0 0 1 -1.851-2.67 1.96 1.96 0 0 1 .349-1.613 1.4 1.4 0 0 0 -.057-1.37 7.091 7.091 0 0 0 -.375-.635 5.179 5.179 0 0 1 -.624-1.21 1.545 1.545 0 0 1 .763-1.758 2.9 2.9 0 0 1 -.536-.295 1.674 1.674 0 0 1 -.748-1.14 2.461 2.461 0 0 1 .205-1.212 1.82 1.82 0 0 0 .162-.708 1.777 1.777 0 0 0 -1.4-1.374 7.919 7.919 0 0 0 -.891-.176 9.956 9.956 0 0 1 -.978-.191 2.335 2.335 0 0 1 -1.7-1.579 2.789 2.789 0 0 1 .487-2.092c.548-1.013 1.108-2.034 1.669-3.054s1.119-2.038 1.67-3.056a27.876 27.876 0 0 0 1.445-3.4c.153-.408.307-.818.468-1.229a5.8 5.8 0 0 0 .3-2.316 16.115 16.115 0 0 1 4.44-12.244c4.4-4.713 10.854-7.309 18.162-7.309a29.429 29.429 0 0 1 4.762.381 21.044 21.044 0 0 1 14.927 10.54 23.047 23.047 0 0 1 1.305 19.969c-.364.911-.712 1.829-1.036 2.758a27.706 27.706 0 0 0 -1.813 12.124 14.918 14.918 0 0 0 5.483 10.415.5.5 0 0 1 -.2.892l-28.615 5.683a.477.477 0 0 1 -.1.01zm-6.012-12.411a3.709 3.709 0 0 1 2.417.657 4.107 4.107 0 0 1 1.1 1.977q.75 2.273 1.487 4.56.671 2.071 1.348 4.141l27.137-5.389a16.055 16.055 0 0 1 -5.039-10.435 28.661 28.661 0 0 1 1.862-12.55c.307-.88.651-1.8 1.051-2.8a22.051 22.051 0 0 0 -1.247-19.106 20.051 20.051 0 0 0 -14.216-10.044 28.431 28.431 0 0 0 -4.6-.368c-7.028 0-13.218 2.483-17.431 6.991a15.106 15.106 0 0 0 -4.176 11.467 6.817 6.817 0 0 1 -.354 2.75c-.169.432-.321.837-.472 1.241a29.052 29.052 0 0 1 -1.5 3.518q-.831 1.534-1.675 3.064t-1.67 3.056a1.988 1.988 0 0 0 -.393 1.367 1.392 1.392 0 0 0 1.014.863c.264.068.56.115.851.161a9.154 9.154 0 0 1 1 .2 2.732 2.732 0 0 1 2.137 2.25 2.582 2.582 0 0 1 -.215 1.131 1.7 1.7 0 0 0 -.158.734.7.7 0 0 0 .336.467 2.433 2.433 0 0 0 1.507.391.5.5 0 0 1 .327.937c-.119.059-.273.122-.446.19-.908.36-1.348.626-1.232 1.077a4.431 4.431 0 0 0 .507.948 8.348 8.348 0 0 1 .425.724 2.344 2.344 0 0 1 -.057 2.441.984.984 0 0 0 -.145.814 3.3 3.3 0 0 0 1.382 1.986 7.573 7.573 0 0 0 3.605.663c1.482.03 3.1.009 4.974-.065.186-.004.371-.009.559-.009z"/></g><path d="m29.951 22.506a.65.65 0 0 1 -.57-.962 14.648 14.648 0 0 1 2.15-2.976 17.941 17.941 0 0 1 2.8-2.418.65.65 0 1 1 .747 1.063 16.656 16.656 0 0 0 -2.6 2.242 13.347 13.347 0 0 0 -1.959 2.712.65.65 0 0 1 -.568.339z" fill="#fff"/><path d="m37.542 15.671a.65.65 0 0 1 -.276-1.239c.17-.08.346-.15.522-.22l.1-.038a.65.65 0 1 1 .481 1.207l-.1.039c-.152.061-.3.12-.451.189a.649.649 0 0 1 -.276.062z" fill="#fff"/></svg>