<svg id="color_line" height="512" viewBox="0 0 74 74" width="512" xmlns="http://www.w3.org/2000/svg" data-name="color line"><path d="m3 37s15.222-19.371 34-19.371 34 19.371 34 19.371-15.222 19.371-34 19.371-34-19.371-34-19.371z" fill="#eeefee"/><path d="m71 37s-.91 1.16-2.56 2.91c-2.87-3.42-18.19-20.75-35.11-20.75a31.024 31.024 0 0 0 -10.5 1.93 32.949 32.949 0 0 1 14.17-3.46c18.78 0 34 19.37 34 19.37z" fill="#e1e6e9"/><path d="m22 31.93a15.868 15.868 0 0 1 24.418-7.73l3.911 4.123a15.873 15.873 0 1 1 -29.152 9.237z" fill="#9297ab"/><path d="m49.88 46.33a15.825 15.825 0 0 0 1.53-6.82 15.66 15.66 0 0 0 -2.59-8.68l-3.91-4.12a15.869 15.869 0 0 0 -22.16 3.39 15.847 15.847 0 0 1 23.67-5.9l3.91 4.12a15.839 15.839 0 0 1 -.45 18.01z" fill="#84879c"/><g fill="#323c6b"><path d="m60.584 51.3a.5.5 0 0 1 -.292-.906l.5-.366a.5.5 0 1 1 .59.808l-.5.371a.5.5 0 0 1 -.298.093z"/><path d="m50.25 57.1a.5.5 0 0 1 -.19-.962 48.778 48.778 0 0 0 7.84-4.119.5.5 0 0 1 .541.841 49.769 49.769 0 0 1 -8 4.2.493.493 0 0 1 -.191.04z"/><path d="m12.844 24.137a.5.5 0 0 1 -.3-.9l.6-.44a.5.5 0 0 1 .581.814l-.589.433a.5.5 0 0 1 -.292.093z"/><path d="m16.157 21.87a.5.5 0 0 1 -.268-.922 48.508 48.508 0 0 1 8.874-4.474.5.5 0 1 1 .351.937 47.494 47.494 0 0 0 -8.689 4.382.5.5 0 0 1 -.268.077z"/></g><path d="m37.041 48.247a11.28 11.28 0 1 0 -11.28-11.28 11.3 11.3 0 0 0 11.28 11.28z" fill="#89c5cd"/><path d="m37 56.871c-18.8 0-34.239-19.371-34.393-19.562l-.243-.309.243-.309c.154-.191 15.593-19.562 34.393-19.562s34.239 19.371 34.393 19.562l.243.309-.243.309c-.154.191-15.593 19.562-34.393 19.562zm-33.354-19.871c2.054 2.472 16.335 18.871 33.354 18.871s31.3-16.399 33.354-18.871c-2.054-2.472-16.335-18.871-33.354-18.871s-31.3 16.399-33.354 18.871z" fill="#323c6b"/><path d="m37.042 53.374a16.3 16.3 0 0 1 -16.364-15.8l.846-5.806a16.368 16.368 0 0 1 25.19-7.978l3.978 4.182a16.359 16.359 0 0 1 -13.65 25.4zm-14.556-21.327-.814 5.584a15.379 15.379 0 1 0 28.24-9.038l-3.857-4.053a15.38 15.38 0 0 0 -23.569 7.507z" fill="#323c6b"/><circle cx="48.564" cy="26.078" fill="#fe7058" r="2.848"/><path d="m48.564 29.425a3.348 3.348 0 1 1 3.348-3.348 3.352 3.352 0 0 1 -3.348 3.348zm0-5.7a2.348 2.348 0 1 0 2.348 2.348 2.35 2.35 0 0 0 -2.348-2.343z" fill="#323c6b"/><circle cx="21.715" cy="34.76" fill="#27ccbc" r="2.848"/><path d="m21.715 38.108a3.348 3.348 0 1 1 3.348-3.348 3.352 3.352 0 0 1 -3.348 3.348zm0-5.7a2.348 2.348 0 1 0 2.348 2.348 2.35 2.35 0 0 0 -2.348-2.343z" fill="#323c6b"/><g fill="#eeefee" opacity=".4"><path d="m36.83 25.69-8.27 18.7a7.815 7.815 0 0 1 -.58-.71l7.93-17.93c.3-.03.61-.05.92-.06z"/><path d="m44.17 28.24-8.81 19.88a10.966 10.966 0 0 1 -2.61-.72l9.13-20.61a11.364 11.364 0 0 1 2.29 1.45z"/><path d="m40.24 26.16-9.05 20.44a9.839 9.839 0 0 1 -1.53-1.12l8.72-19.71a11.363 11.363 0 0 1 1.86.39z"/></g><path d="m37.041 48.748a11.78 11.78 0 1 1 11.78-11.78 11.793 11.793 0 0 1 -11.78 11.78zm0-22.56a10.78 10.78 0 1 0 10.78 10.78 10.792 10.792 0 0 0 -10.78-10.78z" fill="#323c6b"/><circle cx="42.869" cy="46.49" fill="#fcd462" r="2.848"/><path d="m42.869 49.837a3.348 3.348 0 1 1 3.348-3.348 3.352 3.352 0 0 1 -3.348 3.348zm0-5.7a2.348 2.348 0 1 0 2.348 2.348 2.35 2.35 0 0 0 -2.348-2.343z" fill="#323c6b"/></svg>