<svg id="color_line" height="512" viewBox="0 0 74 74" width="512" xmlns="http://www.w3.org/2000/svg" data-name="color line"><path d="m71 44.42v8.59a4.163 4.163 0 0 1 -4.16 4.16h-59.68a4.163 4.163 0 0 1 -4.16-4.16v-8.59z" fill="#e1e6e9"/><path d="m71 9.42v35h-68v-35a4.163 4.163 0 0 1 4.16-4.16h59.68a4.163 4.163 0 0 1 4.16 4.16z" fill="#89c5cd"/><path d="m71 9.42v35h-68v-35a4.163 4.163 0 0 1 4.16-4.16h59.68a4.163 4.163 0 0 1 4.16 4.16z" fill="#89c5cd"/><path d="m71 44.42v8.59a4.163 4.163 0 0 1 -4.16 4.16h-3a4.163 4.163 0 0 0 4.16-4.16v-8.59z" fill="#d5d6db"/><path d="m71 9.42v35h-3v-35a4.163 4.163 0 0 0 -4.16-4.16h3a4.163 4.163 0 0 1 4.16 4.16z" fill="#6eaaad"/><path d="m47.882 65.185-1.54-8.023h-18.684l-1.549 8.023z" fill="#eeefee"/><path d="m47.88 65.19h-2.96l-1.54-8.03h2.96z" fill="#e1e6e9"/><path d="m53.036 70.063h-32.072a4.869 4.869 0 0 1 4.869-4.869h22.334a4.869 4.869 0 0 1 4.869 4.869z" fill="#e1e6e9"/><path d="m53.04 70.06h-3.25a4.87 4.87 0 0 0 -4.87-4.87h3.25a4.87 4.87 0 0 1 4.87 4.87z" fill="#d5d6db"/><circle cx="37" cy="50.713" fill="#27ccbc" r="2.007"/><path d="m37 53.22a2.507 2.507 0 1 1 2.507-2.507 2.51 2.51 0 0 1 -2.507 2.507zm0-4.014a1.507 1.507 0 1 0 1.507 1.507 1.509 1.509 0 0 0 -1.507-1.507z" fill="#323c6b"/><path d="m62.458 60.665h-8.145a.5.5 0 0 1 0-1h8.146a.5.5 0 0 1 0 1z" fill="#323c6b"/><path d="m52.317 60.665h-.229a.5.5 0 0 1 0-1h.229a.5.5 0 0 1 0 1z" fill="#323c6b"/><path d="m.546 7.188a.5.5 0 0 1 -.462-.688 7.646 7.646 0 0 1 7.076-4.736.5.5 0 0 1 0 1 6.647 6.647 0 0 0 -6.152 4.115.5.5 0 0 1 -.462.309z" fill="#323c6b"/><path d="m10 2.764h-.417a.5.5 0 0 1 0-1h.417a.5.5 0 0 1 0 1z" fill="#323c6b"/><path d="m66.84 57.67h-59.68a4.665 4.665 0 0 1 -4.66-4.66v-9.09h69v9.09a4.665 4.665 0 0 1 -4.66 4.66zm-63.34-12.75v8.09a3.664 3.664 0 0 0 3.66 3.66h59.68a3.664 3.664 0 0 0 3.66-3.66v-8.09z" fill="#323c6b"/><path d="m53.536 70.563h-33.072v-.5a5.375 5.375 0 0 1 5.369-5.369h22.334a5.375 5.375 0 0 1 5.369 5.369zm-32.044-1h31.016a4.376 4.376 0 0 0 -4.341-3.869h-22.334a4.376 4.376 0 0 0 -4.341 3.869z" fill="#323c6b"/><path d="m48.487 65.686h-22.987l1.741-9.023h19.51zm-21.772-1h20.561l-1.348-7.023h-17.857z" fill="#323c6b"/><g fill="#eeefee" opacity=".4"><path d="m38.81 5.26-17.33 39.16h-1.37l17.34-39.16z"/><path d="m51.62 5.26-17.34 39.16h-4.43l17.33-39.16z"/><path d="m44.27 5.26-17.34 39.16h-3.05l17.33-39.16z"/></g><g fill="#323c6b"><path d="m71.5 44.92h-69v-35.5a4.665 4.665 0 0 1 4.66-4.66h59.68a4.665 4.665 0 0 1 4.66 4.66zm-68-1h67v-34.5a3.664 3.664 0 0 0 -3.66-3.66h-59.68a3.664 3.664 0 0 0 -3.66 3.66z"/><path d="m20.57 22.746a3.938 3.938 0 0 1 -3.934-3.934v-4.834a3.934 3.934 0 1 1 7.867 0v4.834a3.938 3.938 0 0 1 -3.933 3.934zm0-11.7a2.937 2.937 0 0 0 -2.934 2.934v4.834a2.934 2.934 0 0 0 5.867 0v-4.836a2.937 2.937 0 0 0 -2.933-2.934z"/><path d="m27.901 10.544h1v11.701h-1z"/><path d="m50.174 10.544h1v11.701h-1z"/><path d="m50.174 27.125h1v11.701h-1z"/><path d="m56.363 10.544h1v11.701h-1z"/><path d="m36.442 22.746a3.938 3.938 0 0 1 -3.934-3.934v-4.834a3.934 3.934 0 1 1 7.867 0v4.834a3.938 3.938 0 0 1 -3.933 3.934zm0-11.7a2.937 2.937 0 0 0 -2.934 2.934v4.834a2.934 2.934 0 0 0 5.867 0v-4.836a2.937 2.937 0 0 0 -2.933-2.934z"/><path d="m43.984 10.544h1v11.701h-1z"/><path d="m42.768 39.326a3.938 3.938 0 0 1 -3.934-3.934v-4.833a3.934 3.934 0 0 1 7.867 0v4.834a3.938 3.938 0 0 1 -3.933 3.933zm0-11.7a2.937 2.937 0 0 0 -2.934 2.934v4.834a2.934 2.934 0 0 0 5.867 0v-4.835a2.937 2.937 0 0 0 -2.933-2.934z"/><path d="m25.07 27.125h1v11.701h-1z"/><path d="m16.637 27.125h1v11.701h-1z"/><path d="m56.363 27.125h1v11.701h-1z"/><path d="m33.503 27.125h1v11.701h-1z"/></g><path d="m14.21 40.9a.726.726 0 0 1 -.726.726h-7.684a.726.726 0 1 1 0-1.452h7.681a.726.726 0 0 1 .729.726z" fill="#fff"/><path d="m17.137 40.9a.726.726 0 0 1 -.726.726h-.381a.726.726 0 0 1 0-1.452h.381a.726.726 0 0 1 .726.726z" fill="#fff"/></svg>