<svg id="color_line" height="512" viewBox="0 0 74 74" width="512" xmlns="http://www.w3.org/2000/svg" data-name="color line"><path d="m65.032 24.827a19.037 19.037 0 0 1 -.41 12.98c-.309.769-.6 1.539-.878 2.325a23.878 23.878 0 0 0 -1.544 10.319 12.842 12.842 0 0 0 4.759 9l-23.931 4.749c-.836-2.542-1.648-5.085-2.484-7.627a3.054 3.054 0 0 0 -.786-1.455 3.28 3.28 0 0 0 -2.208-.452c-1.4.059-2.793.084-4.165.059a6.705 6.705 0 0 1 -3.245-.611c-.92-.56-1.815-2.133-1.146-2.969a1.546 1.546 0 0 0 0-1.589 11.228 11.228 0 0 1 -.811-1.489c-.251-.978 1.121-1.28 1.622-1.53-.535.109-1.932-.226-2.041-1.062-.084-.535.36-1.062.309-1.6a1.9 1.9 0 0 0 -1.489-1.514c-.5-.134-1.029-.167-1.564-.3a1.551 1.551 0 0 1 -1.112-1.012 1.946 1.946 0 0 1 .36-1.447c.92-1.706 1.873-3.412 2.793-5.118a34.74 34.74 0 0 0 1.622-3.914 5.217 5.217 0 0 0 .276-2.133 13.008 13.008 0 0 1 3.6-9.91 18.647 18.647 0 0 1 9.467-5.369" fill="#fcd462"/><path d="m44.75 14.54-2.72-1.38a18.651 18.651 0 0 0 -9.46 5.37 13.131 13.131 0 0 0 -3.65 9.18 18.707 18.707 0 0 1 4.28-6.68 18.681 18.681 0 0 1 9.47-5.37l2.08 1.055z" fill="#f7be56"/><path d="m28.69 30.57c-.05.14-.11.28-.16.42a.09.09 0 0 1 -.01-.05 8.145 8.145 0 0 1 .4-3.23c0 .24.02.48.04.73a5.218 5.218 0 0 1 -.27 2.13z" fill="#f7be56"/><path d="m66.96 59.45-2.8.56a15.291 15.291 0 0 1 -4.96-9.56 24.052 24.052 0 0 1 1.54-10.32c.28-.78.57-1.55.88-2.32a19.055 19.055 0 0 0 .41-12.98l-10.95-5.56v-1.52l13.95 7.08a19.055 19.055 0 0 1 -.41 12.98c-.31.77-.6 1.54-.88 2.32a24.052 24.052 0 0 0 -1.54 10.32 12.873 12.873 0 0 0 4.76 9z" fill="#f7be56"/><path d="m10.319 51.852h-.019a1.194 1.194 0 0 1 -1.085-.943l-1.36-3.755a.359.359 0 0 0 -.3-.232.306.306 0 0 0 -.3.138 4.283 4.283 0 0 0 -.278.548 4.655 4.655 0 0 1 -.412.771 1.6 1.6 0 0 1 -1.841.7 1.912 1.912 0 0 1 -.774-.683l-1.35-1.787.8-.6 1.347 1.781a1.181 1.181 0 0 0 .355.361c.189.076.484-.117.644-.346a3.811 3.811 0 0 0 .319-.608 5.452 5.452 0 0 1 .339-.662 1.319 1.319 0 0 1 1.266-.6 1.351 1.351 0 0 1 1.127.885l1.363 3.754a.943.943 0 0 0 .139.284.337.337 0 0 0 .227-.139 21.049 21.049 0 0 0 1.279-4.47 10.531 10.531 0 0 1 .312-1.286 1.7 1.7 0 0 1 1.583-1.143c1.119.078 2.175 1.808 3.341 3.891a10.718 10.718 0 0 0 .561.945.4.4 0 0 0 .3.1c.183-.023.413-.213.686-.565a3.757 3.757 0 0 0 .307-.565c.266-.553.566-1.18 1.167-1.353.952-.27 1.929.472 2.772 2.089a9.28 9.28 0 0 0 1.541 2.2l-.762.647a10.17 10.17 0 0 1 -1.666-2.381c-.566-1.085-1.19-1.708-1.609-1.591-.17.049-.4.534-.541.824a4.237 4.237 0 0 1 -.417.743 2.19 2.19 0 0 1 -1.354.948 1.411 1.411 0 0 1 -1.075-.333 4.665 4.665 0 0 1 -.781-1.219c-.51-.912-1.866-3.335-2.536-3.381-.243-.031-.486.256-.6.521-.042.106-.156.641-.257 1.112a20.918 20.918 0 0 1 -1.394 4.764 1.25 1.25 0 0 1 -1.064.636z" fill="#323c6b"/><path d="m71 9.8v15.03h-18.63l-7.23 4.69v-4.69h-3.11v-15.03z" fill="#27ccbc"/><path d="m71 9.8v15.03h-3.43v-12.34h-25.54v-2.69z" fill="#21b3a9"/><g fill="#323c6b"><path d="m34.164 58.226a.5.5 0 0 1 0-1h.869a.5.5 0 0 1 0 1z"/><path d="m31.709 58.14h-.052a7.872 7.872 0 0 1 -3.316-1.021 6.7 6.7 0 0 1 -2.914-4 .5.5 0 1 1 .971-.237 5.666 5.666 0 0 0 2.46 3.379 6.82 6.82 0 0 0 2.9.882.5.5 0 0 1 -.05 1z"/><path d="m60.333 7.3h-8.583a.5.5 0 0 1 0-1h8.583a.5.5 0 0 1 0 1z"/><path d="m64.25 7.3h-.583a.5.5 0 0 1 0-1h.583a.5.5 0 0 1 0 1z"/><path d="m48.194 21.249a2.646 2.646 0 0 1 -2.643-2.643v-3.017a2.643 2.643 0 1 1 5.285 0v3.017a2.646 2.646 0 0 1 -2.642 2.643zm0-7.3a1.645 1.645 0 0 0 -1.643 1.643v3.017a1.643 1.643 0 1 0 3.285 0v-3.02a1.645 1.645 0 0 0 -1.642-1.642z"/><path d="m52.581 13.447h1v7.302h-1z"/><path d="m66.48 13.447h1v7.302h-1z"/><path d="m58.1 21.249a2.646 2.646 0 0 1 -2.643-2.643v-3.017a2.643 2.643 0 1 1 5.285 0v3.017a2.646 2.646 0 0 1 -2.642 2.643zm0-7.3a1.645 1.645 0 0 0 -1.643 1.643v3.017a1.643 1.643 0 1 0 3.285 0v-3.02a1.645 1.645 0 0 0 -1.642-1.642z"/><path d="m62.618 13.447h1v7.302h-1z"/><path d="m44.64 30.44v-5.11h-3.11v-16.03h29.97v16.03h-18.981zm-2.11-6.11h3.11v4.27l6.582-4.27h18.278v-14.03h-27.97z"/><path d="m43.028 64.7a.5.5 0 0 1 -.475-.344q-.628-1.908-1.243-3.816t-1.241-3.812a2.674 2.674 0 0 0 -.637-1.232 2.923 2.923 0 0 0 -1.866-.332c-1.507.063-2.878.082-4.189.059a7.17 7.17 0 0 1 -3.493-.682 3.687 3.687 0 0 1 -1.587-2.3 1.72 1.72 0 0 1 .308-1.412 1.083 1.083 0 0 0 -.057-1.053 5.77 5.77 0 0 0 -.315-.537 4.317 4.317 0 0 1 -.526-1.026 1.321 1.321 0 0 1 .552-1.474 2.36 2.36 0 0 1 -.341-.2 1.468 1.468 0 0 1 -.647-1 2.138 2.138 0 0 1 .177-1.058 1.528 1.528 0 0 0 .131-.558c-.042-.542-.612-.937-1.124-1.078a7.411 7.411 0 0 0 -.736-.142c-.269-.043-.541-.087-.815-.156a2.018 2.018 0 0 1 -1.48-1.393 2.359 2.359 0 0 1 .413-1.8c.456-.845.925-1.7 1.394-2.554s.936-1.7 1.395-2.556a22.874 22.874 0 0 0 1.225-2.875c.122-.327.245-.655.373-.983a4.653 4.653 0 0 0 .243-1.9 13.565 13.565 0 0 1 3.737-10.3 19.257 19.257 0 0 1 9.718-5.514.5.5 0 1 1 .23.973 18.261 18.261 0 0 0 -9.217 5.224 12.545 12.545 0 0 0 -3.473 9.522 5.692 5.692 0 0 1 -.3 2.34c-.134.346-.255.67-.376.992a24.02 24.02 0 0 1 -1.28 3c-.461.855-.93 1.709-1.4 2.563s-.936 1.7-1.395 2.556a1.569 1.569 0 0 0 -.318 1.073c.072.335.453.563.789.674.209.051.454.09.694.128a8.316 8.316 0 0 1 .84.165 2.394 2.394 0 0 1 1.858 1.958 2.264 2.264 0 0 1 -.185.978 1.369 1.369 0 0 0 -.129.581.5.5 0 0 0 .239.331 2.018 2.018 0 0 0 1.207.318.5.5 0 0 1 .323.938c-.1.051-.236.1-.386.164-.811.319-1.048.513-.976.795a3.6 3.6 0 0 0 .409.764 6.685 6.685 0 0 1 .366.628 2.034 2.034 0 0 1 -.058 2.122.744.744 0 0 0 -.1.613 2.681 2.681 0 0 0 1.116 1.616 6.349 6.349 0 0 0 3 .537c1.286.023 2.64 0 4.133-.058a3.777 3.777 0 0 1 2.543.563 3.5 3.5 0 0 1 .948 1.694q.624 1.9 1.24 3.809.549 1.7 1.1 3.391l22.464-4.458a13.575 13.575 0 0 1 -4.12-8.666 24.179 24.179 0 0 1 1.564-10.539c.277-.792.573-1.569.886-2.346a18.59 18.59 0 0 0 .4-12.638.5.5 0 0 1 .951-.311 19.6 19.6 0 0 1 -.42 13.32c-.308.764-.6 1.526-.871 2.306a23.214 23.214 0 0 0 -1.518 10.108 12.39 12.39 0 0 0 4.559 8.647.5.5 0 0 1 -.2.893l-23.936 4.75a.48.48 0 0 1 -.095.01z"/></g><path d="m31.206 32.622a.492.492 0 0 1 -.155-.025.5.5 0 0 1 -.32-.631l.106-.328a.5.5 0 1 1 .953.3l-.108.336a.5.5 0 0 1 -.476.348z" fill="#fff"/><path d="m27.972 39.816a.5.5 0 0 1 -.449-.72l.773-1.568c.432-.873.863-1.745 1.286-2.618.067-.14.338-.724.4-.866a.5.5 0 1 1 .918.4c-.063.148-.346.758-.417.905-.425.876-.857 1.751-1.29 2.626l-.771 1.565a.5.5 0 0 1 -.45.276z" fill="#fff"/></svg>