<svg id="color_line" height="512" viewBox="0 0 74 74" width="512" xmlns="http://www.w3.org/2000/svg" data-name="color line"><path d="m54.261 45.755 15.081 15.081a5.656 5.656 0 1 1 -8 8l-15.079-15.083" fill="#9297ab"/><path d="m69.34 60.84-15.08-15.09-.121.121a9.365 9.365 0 0 1 -1.9 3.324l14.441 14.435a5.644 5.644 0 0 1 1.18 6.26 5.234 5.234 0 0 0 1.48-1.06 5.643 5.643 0 0 0 0-7.99z" fill="#84879c"/><path d="m65.344 70.992a6.116 6.116 0 0 1 -4.353-1.8l-15.082-15.086.707-.707 15.084 15.082a5.156 5.156 0 0 0 7.291-7.291l-15.084-15.082.707-.707 15.086 15.082a6.157 6.157 0 0 1 -4.353 10.509z" fill="#323c6b"/><path d="m3 3.4h15.865v15.865h-15.865z" fill="#eeefee"/><path d="m25.664 17.535v-14.131h15.865v11.842" fill="#eeefee"/><path d="m15.714 41.366h-12.714v-15.865h14.8" fill="#eeefee"/><path d="m18.86 3.4v15.86h-3.39v-12.74h-12.47v-3.12z" fill="#e1e6e9"/><path d="m41.53 3.4v11.85l-3.4.49v-9.22h-12.47v-3.12z" fill="#e1e6e9"/><path d="m17.8 25.5-.41 3.12h-14.39v-3.12z" fill="#e1e6e9"/><g fill="#323c6b"><path d="m47.588 15.108a.5.5 0 0 1 -.236-.06c-.245-.131-.5-.251-.745-.372l-.138-.066a.5.5 0 1 1 .436-.9l.137.066c.263.126.526.253.783.392a.5.5 0 0 1 -.236.94z"/><path d="m57 24.243a.5.5 0 0 1 -.433-.25 23.321 23.321 0 0 0 -3.676-4.823 23.818 23.818 0 0 0 -3.134-2.619.5.5 0 0 1 .576-.818 24.826 24.826 0 0 1 3.265 2.73 24.281 24.281 0 0 1 3.834 5.03.5.5 0 0 1 -.433.75z"/><path d="m64.13 74a.464.464 0 0 1 -.069 0 9.182 9.182 0 0 1 -5.271-2.612l-1.77-1.77a.5.5 0 0 1 .707-.707l1.77 1.77a8.192 8.192 0 0 0 4.7 2.329.5.5 0 0 1 -.067 1z"/><path d="m55.343 67.733a.5.5 0 0 1 -.354-.146l-.324-.324a.5.5 0 0 1 .707-.707l.324.324a.5.5 0 0 1 -.354.854z"/></g><circle cx="36.286" cy="35.778" fill="#9297ab" r="21.036" transform="matrix(.707 -.707 .707 .707 -14.671 36.137)"/><path d="m51.16 50.65c-.35.35-.7.68-1.07 1a21.031 21.031 0 0 0 -30.29-28.93 19.6 19.6 0 0 1 1.61-1.82 21.036 21.036 0 0 1 29.75 29.75z" fill="#84879c"/><circle cx="36.286" cy="35.778" fill="#89c5cd" r="15.835" transform="matrix(.707 -.707 .707 .707 -14.671 36.137)"/><path d="m36.286 57.313a21.536 21.536 0 1 1 15.228-36.763 21.536 21.536 0 0 1 -15.228 36.763zm0-42.072a20.536 20.536 0 1 0 14.521 6.015 20.4 20.4 0 0 0 -14.521-6.014z" fill="#323c6b"/><path d="m19.365 19.769h-16.865v-16.869h16.865zm-15.865-1h14.865v-14.869h-14.865z" fill="#323c6b"/><path d="m26.164 17.539h-1v-14.631h16.864v12.342h-1v-11.342h-14.864z" fill="#323c6b"/><path d="m15.715 41.87h-13.215v-16.865h15.3v1h-14.3v14.865h12.215z" fill="#323c6b"/><g fill="#eeefee" opacity=".4"><path d="m37.51 19.99-12.09 27.3c-.11-.11-.22-.21-.33-.32-.15-.15-.29-.3-.43-.45l11.77-26.58c.36 0 .72.02 1.08.05z"/><path d="m46.23 23.45-12.39 27.97a16.22 16.22 0 0 1 -3.18-.84l12.8-28.92a15.765 15.765 0 0 1 2.77 1.79z"/><path d="m41.5 20.82-12.78 28.87a15.305 15.305 0 0 1 -1.9-1.22l12.5-28.24a16.312 16.312 0 0 1 2.18.59z"/></g><path d="m36.286 52.113a16.335 16.335 0 1 1 11.55-27.886 16.335 16.335 0 0 1 -11.55 27.886zm0-31.664a15.324 15.324 0 1 0 10.843 4.484 15.287 15.287 0 0 0 -10.843-4.484z" fill="#323c6b"/><path d="m24.055 49.881a.6.6 0 0 1 -.4-.155l-.223-.2c-.159-.138-.317-.277-.468-.428a18.733 18.733 0 0 1 -4.064-6.055.6.6 0 1 1 1.107-.462 17.524 17.524 0 0 0 3.8 5.671c.132.131.271.251.408.372l.239.211a.6.6 0 0 1 -.4 1.045z" fill="#fff"/><path d="m18.709 41.256a.6.6 0 0 1 -.579-.441c-.039-.145-.074-.291-.106-.437a.6.6 0 0 1 1.172-.26c.028.127.058.254.093.379a.6.6 0 0 1 -.579.759z" fill="#fff"/></svg>