<svg id="color_line" height="512" viewBox="0 0 74 74" width="512" xmlns="http://www.w3.org/2000/svg" data-name="color line"><path d="m34.1 50.421h9.027a2.137 2.137 0 0 0 2.137-2.137v-2.972a2.137 2.137 0 0 0 -2.137-2.137h-10.727a13.733 13.733 0 0 0 -11.58-6.336h-9.934v23.141l27.944 7.295a3.556 3.556 0 0 0 3.024-.523l28.283-20.082a2.05 2.05 0 0 0 .579-2.713l-1.758-2.979a2.05 2.05 0 0 0 -2.6-.831l-21.817 9.729" fill="#eeefee"/><path d="m70.14 46.67-28.29 20.08a3.521 3.521 0 0 1 -3.02.52l-27.94-7.29v-3.03l26.52 6.93a3.553 3.553 0 0 0 3.03-.53l28.28-20.08a2.017 2.017 0 0 0 .82-1.3l1.18 1.99a2.048 2.048 0 0 1 -.58 2.71z" fill="#e1e6e9"/><path d="m34.795 66.565-.619-.083-19.65-5.027 14.06-5.466a3.833 3.833 0 0 1 .45-.151 3.731 3.731 0 0 1 3.056.54 4.166 4.166 0 0 1 1.8 2.89l.9 6.655zm-17-5.307 15.917 4.073-.812-5.931a3.164 3.164 0 0 0 -1.367-2.2 2.736 2.736 0 0 0 -2.226-.407 3.018 3.018 0 0 0 -.344.115z" fill="#323c6b"/><path d="m54.647 45.371h1.001v4.915h-1.001z" fill="#323c6b" transform="matrix(.878 -.479 .479 .878 -16.165 32.227)"/><path d="m63.352 41.434h1.001v3.778h-1.001z" fill="#323c6b" transform="matrix(.872 -.489 .489 .872 -13.033 36.788)"/><path d="m42.14 57.503h1v7.809h-1z" fill="#323c6b" transform="matrix(.832 -.555 .555 .832 -26.908 33.983)"/><path d="m51.05 55.174h.999v4.216h-.999z" fill="#323c6b" transform="matrix(.821 -.571 .571 .821 -23.473 39.667)"/><path d="m39.1 20.02a9.041 9.041 0 0 0 -.12-1.48l3.66-2.92-2.36-4.08-4.15 1.62a9.35 9.35 0 0 0 -3.08-1.94l-.69-4.63h-4.73l-.66 4.4a9.5 9.5 0 0 0 -3.22 1.71l-4.36-1.71-2.36 4.09 3.48 2.78a9.6 9.6 0 0 0 -.25 2.16 8.931 8.931 0 0 0 .12 1.47l-3.66 2.93 2.36 4.09 4.16-1.64a8.994 8.994 0 0 0 3.08 1.94l.69 4.63h4.72l.67-4.4a9.265 9.265 0 0 0 3.21-1.7l4.36 1.7 2.36-4.08-3.48-2.78a9.665 9.665 0 0 0 .25-2.16zm-9.42 4.81a4.81 4.81 0 1 1 4.81-4.81 4.812 4.812 0 0 1 -4.81 4.81z" fill="#bbbbcd"/><path d="m61.55 28.69a6.761 6.761 0 0 0 -.08-1.01l2.48-1.98-1.6-2.77-2.82 1.1a6.182 6.182 0 0 0 -2.09-1.32l-.47-3.14h-3.21l-.45 2.98a6.517 6.517 0 0 0 -2.19 1.17l-2.96-1.17-1.6 2.78 2.36 1.89a6.439 6.439 0 0 0 -.17 1.47 6.628 6.628 0 0 0 .08 1l-2.49 1.98 1.61 2.78 2.82-1.11a6.341 6.341 0 0 0 2.09 1.32l.47 3.14h3.21l.45-2.98a6.625 6.625 0 0 0 2.18-1.16l2.96 1.16 1.61-2.78-2.36-1.89a6.41 6.41 0 0 0 .17-1.46zm-6.4 2.68a2.68 2.68 0 1 1 2.68-2.68 2.68 2.68 0 0 1 -2.68 2.68z" fill="#bbbbcd"/><path d="m40.28 11.54-4.15 1.62a9.35 9.35 0 0 0 -3.08-1.94l-.69-4.63h-4.73l-.34 2.25h3.28l.69 4.63a9.352 9.352 0 0 1 3.08 1.94l4.15-1.62 2.03 3.52 2.12-1.69zm-1.43 10.64a9.665 9.665 0 0 0 .25-2.16c0-.24-.01-.49-.03-.73l-1.88 1.5a9.041 9.041 0 0 1 .12 1.48 9.672 9.672 0 0 1 -.25 2.16l3.48 2.78-.97 1.67.4.16 2.36-4.08zm-15.1-9.48-4.36-1.71-1.39 2.41 3.96 1.55a9.505 9.505 0 0 1 3.22-1.71l.24-1.62a8.843 8.843 0 0 0 -1.67 1.08z" fill="#9297ab"/><path d="m62.35 22.93-2.82 1.1a6.182 6.182 0 0 0 -2.09-1.32l-.47-3.14h-3.21l-.34 2.25h1.76l.47 3.14a6.182 6.182 0 0 1 2.09 1.32l2.82-1.1 1.28 2.21 2.11-1.69zm-.97 7.22a6.41 6.41 0 0 0 .17-1.46 2.088 2.088 0 0 0 -.01-.25l-1.86 1.49a6.761 6.761 0 0 1 .08 1.01 6.417 6.417 0 0 1 -.17 1.46l2.36 1.89-.22.37.4.16 1.61-2.78z" fill="#9297ab"/><g fill="#323c6b"><path d="m5.851 56.625h5.035v1h-5.035z"/><path d="m3 51.112h7.886v1h-7.886z"/><path d="m3 45.121h7.886v1h-7.886z"/><path d="m5.565 39.194h5.32v1h-5.32z"/><path d="m59.375 58.491a.5.5 0 0 1 -.289-.908l.5-.355a.5.5 0 0 1 .578.815l-.5.355a.5.5 0 0 1 -.289.093z"/><path d="m49.625 65.414a.5.5 0 0 1 -.289-.908l7.375-5.237a.5.5 0 0 1 .578.815l-7.375 5.237a.5.5 0 0 1 -.289.093z"/><path d="m24.5 7.75a.545.545 0 0 1 -.075-.005.5.5 0 0 1 -.42-.569l.553-3.658a.5.5 0 0 1 .494-.425h4.26a.5.5 0 0 1 0 1h-3.83l-.488 3.233a.5.5 0 0 1 -.494.424z"/><path d="m32.234 4.092h-.776a.5.5 0 1 1 0-1h.776a.5.5 0 0 1 0 1z"/><path d="m39.8 67.91a4.076 4.076 0 0 1 -1.107-.154l-28.309-7.39v-24.027h10.438a14.164 14.164 0 0 1 11.851 6.336h10.455a2.639 2.639 0 0 1 2.637 2.637v2.972a2.619 2.619 0 0 1 -.052.521l20.44-9.115a2.547 2.547 0 0 1 3.234 1.033l1.759 2.977a2.535 2.535 0 0 1 -.72 3.375l-28.282 20.085a4.035 4.035 0 0 1 -2.344.75zm-28.414-8.316 27.57 7.2a3.048 3.048 0 0 0 2.609-.447l28.283-20.085a1.542 1.542 0 0 0 .438-2.051l-1.759-2.979a1.545 1.545 0 0 0 -1.965-.628l-21.726 9.688a2.627 2.627 0 0 1 -1.708.629h-9.028v-1h9.026a1.639 1.639 0 0 0 1.637-1.637v-2.972a1.639 1.639 0 0 0 -1.637-1.637h-11l-.147-.231a13.17 13.17 0 0 0 -11.158-6.105h-9.435z"/><path d="m32.16 33.94h-5.581l-.711-4.771a9.485 9.485 0 0 1 -2.738-1.718l-4.268 1.682-2.79-4.833 3.771-3.018a9.622 9.622 0 0 1 -.083-1.26 9.975 9.975 0 0 1 .2-1.963l-3.577-2.859 2.789-4.835 4.494 1.763a9.923 9.923 0 0 1 2.855-1.521l.679-4.517h5.592l.711 4.772a9.808 9.808 0 0 1 2.736 1.719l4.26-1.663 2.79 4.825-3.771 3.008a9.654 9.654 0 0 1 .082 1.269 10.169 10.169 0 0 1 -.2 1.962l3.575 2.855-2.791 4.824-4.493-1.752a9.719 9.719 0 0 1 -2.847 1.515zm-4.72-1h3.86l.653-4.29.3-.09a8.75 8.75 0 0 0 3.047-1.609l.226-.183 4.23 1.65 1.93-3.336-3.39-2.707.07-.306a9.229 9.229 0 0 0 .234-2.049 8.552 8.552 0 0 0 -.112-1.4l-.049-.29 3.552-2.83-1.929-3.335-4.046 1.579-.23-.218a8.818 8.818 0 0 0 -2.915-1.837l-.272-.1-.669-4.499h-3.869l-.644 4.288-.3.091a8.952 8.952 0 0 0 -3.05 1.62l-.227.183-4.23-1.659-1.93 3.345 3.391 2.708-.071.307a9.069 9.069 0 0 0 -.237 2.047 8.472 8.472 0 0 0 .113 1.388l.048.289-3.554 2.845 1.93 3.345 4.059-1.6.231.223a8.485 8.485 0 0 0 2.91 1.833l.273.1zm2.239-7.61a5.31 5.31 0 1 1 5.311-5.31 5.316 5.316 0 0 1 -5.31 5.31zm0-9.62a4.31 4.31 0 1 0 4.311 4.31 4.315 4.315 0 0 0 -4.31-4.31z"/><path d="m56.97 38.3h-4.07l-.491-3.285a6.791 6.791 0 0 1 -1.744-1.1l-2.931 1.154-2.044-3.522 2.61-2.072a6.785 6.785 0 0 1 .071-2.057l-2.455-1.966 2.029-3.526 3.1 1.224a6.986 6.986 0 0 1 1.823-.978l.468-3.1h4.064l.491 3.285a6.68 6.68 0 0 1 1.747 1.1l2.929-1.143 2.033 3.509-2.6 2.072a7.046 7.046 0 0 1 .047.8 6.859 6.859 0 0 1 -.117 1.262l2.456 1.967-2.041 3.523-3.1-1.213a7.1 7.1 0 0 1 -1.812.968zm-3.209-1h2.35l.433-2.865.3-.092a6.132 6.132 0 0 0 2.016-1.073l.226-.18 2.826 1.11 1.18-2.036-2.271-1.819.072-.307a5.917 5.917 0 0 0 .156-1.346 6.377 6.377 0 0 0 -.074-.935l-.043-.286 2.368-1.893-1.17-2.025-2.719 1.061-.23-.223a5.665 5.665 0 0 0 -1.923-1.213l-.271-.1-.449-3h-2.348l-.433 2.865-.3.093a5.988 5.988 0 0 0 -2.022 1.08l-.228.184-2.83-1.118-1.17 2.034 2.271 1.818-.071.307a5.98 5.98 0 0 0 -.157 1.357 6.2 6.2 0 0 0 .074.925l.043.286-2.378 1.892 1.178 2.034 2.716-1.069.231.219a5.805 5.805 0 0 0 1.926 1.216l.271.1zm1.39-5.43a3.18 3.18 0 1 1 3.18-3.18 3.184 3.184 0 0 1 -3.181 3.18zm0-5.36a2.18 2.18 0 1 0 2.18 2.18 2.183 2.183 0 0 0 -2.181-2.18z"/></g></svg>