<svg id="color_line" height="512" viewBox="0 0 74 74" width="512" xmlns="http://www.w3.org/2000/svg" data-name="color line"><path d="m23.905 17.533h40.19l3.409 53.467h-47.008z" fill="#27ccbc"/><path d="m67.5 71h-47l.21-3.25h42.98l-3.2-50.22h3.61z" fill="#21b3a9"/><path d="m6.496 71 3.409-53.467h14l-3.409 53.467-6.504-6.504z" fill="#21b3a9"/><path d="m20.5 71.5a.5.5 0 0 1 -.354-.146l-6.175-6.174-7.144 6.2a.5.5 0 0 1 -.827-.412l3.406-53.468a.5.5 0 0 1 .5-.468h14a.5.5 0 0 1 .5.532l-3.406 53.468a.5.5 0 0 1 -.5.468zm-6.5-7.5a.5.5 0 0 1 .354.146l5.722 5.722 3.3-51.831h-13l-3.3 51.806 6.593-5.721a.5.5 0 0 1 .323-.122z" fill="#323c6b"/><path d="m6.496 71h14l-6.504-6.504z" fill="#21b3a9"/><path d="m20.5 71.5h-14a.5.5 0 0 1 -.328-.877l7.5-6.5a.5.5 0 0 1 .682.024l6.5 6.5a.5.5 0 0 1 -.354.854zm-12.661-1h11.45l-5.321-5.321z" fill="#323c6b"/><path d="m41.8 18.033h-24.13a.5.5 0 0 1 -.5-.5v-2.467a12.566 12.566 0 1 1 25.132 0v2.467a.5.5 0 0 1 -.502.5zm-23.632-1h23.132v-1.967a11.566 11.566 0 1 0 -23.132 0z" fill="#323c6b"/><path d="m56.066 27.049a.5.5 0 0 1 -.5-.5v-11.483a11.566 11.566 0 1 0 -23.132 0v11.483a.5.5 0 1 1 -1 0v-11.483a12.566 12.566 0 1 1 25.132 0v11.483a.5.5 0 0 1 -.5.5z" fill="#323c6b"/><rect fill="#fcd462" height="18.426" rx="2.552" width="18.434" x="34.783" y="37.8"/><path d="m50.665 56.726h-13.329a3.056 3.056 0 0 1 -3.053-3.052v-13.322a3.056 3.056 0 0 1 3.053-3.052h13.329a3.055 3.055 0 0 1 3.052 3.052v13.322a3.055 3.055 0 0 1 -3.052 3.052zm-13.329-18.426a2.055 2.055 0 0 0 -2.053 2.052v13.322a2.055 2.055 0 0 0 2.053 2.052h13.329a2.054 2.054 0 0 0 2.052-2.052v-13.322a2.054 2.054 0 0 0 -2.052-2.052z" fill="#323c6b"/><rect fill="#f7be56" height="12.426" rx="1.287" width="12.434" x="37.783" y="40.8"/><g fill="#323c6b"><path d="m56.9 40.725h-3.682a.5.5 0 0 1 0-1h3.682a.5.5 0 0 1 0 1z"/><path d="m58.408 45.189h-5.191a.5.5 0 0 1 0-1h5.191a.5.5 0 0 1 0 1z"/><path d="m58.136 49.65h-4.919a.5.5 0 0 1 0-1h4.919a.5.5 0 0 1 0 1z"/><path d="m56.9 54.3h-3.682a.5.5 0 0 1 0-1h3.682a.5.5 0 0 1 0 1z"/><path d="m34.783 40.725h-3.683a.5.5 0 1 1 0-1h3.684a.5.5 0 0 1 0 1z"/><path d="m34.783 45.189h-5.191a.5.5 0 1 1 0-1h5.191a.5.5 0 0 1 0 1z"/><path d="m34.783 49.65h-4.919a.5.5 0 0 1 0-1h4.919a.5.5 0 0 1 0 1z"/><path d="m34.783 54.3h-3.683a.5.5 0 0 1 0-1h3.684a.5.5 0 1 1 0 1z"/><path d="m37.212 38.3a.5.5 0 0 1 -.5-.5v-3.688a.5.5 0 0 1 1 0v3.688a.5.5 0 0 1 -.5.5z"/><path d="m41.677 38.3a.5.5 0 0 1 -.5-.5v-5.2a.5.5 0 0 1 1 0v5.2a.5.5 0 0 1 -.5.5z"/><path d="m46.138 38.3a.5.5 0 0 1 -.5-.5v-4.923a.5.5 0 0 1 1 0v4.923a.5.5 0 0 1 -.5.5z"/><path d="m50.788 38.3a.5.5 0 0 1 -.5-.5v-3.688a.5.5 0 0 1 1 0v3.688a.5.5 0 0 1 -.5.5z"/><path d="m37.212 60.414a.5.5 0 0 1 -.5-.5v-3.684a.5.5 0 0 1 1 0v3.684a.5.5 0 0 1 -.5.5z"/><path d="m41.677 61.921a.5.5 0 0 1 -.5-.5v-5.192a.5.5 0 0 1 1 0v5.191a.5.5 0 0 1 -.5.501z"/><path d="m46.138 61.648a.5.5 0 0 1 -.5-.5v-4.919a.5.5 0 0 1 1 0v4.919a.5.5 0 0 1 -.5.5z"/><path d="m50.788 60.414a.5.5 0 0 1 -.5-.5v-3.684a.5.5 0 0 1 1 0v3.684a.5.5 0 0 1 -.5.5z"/><path d="m49.248 43.165h-1.81a.5.5 0 0 1 0-1h1.81a.5.5 0 0 1 0 1z"/><path d="m40.562 43.165h-1.81a.5.5 0 1 1 0-1h1.81a.5.5 0 0 1 0 1z"/><path d="m49.248 51.861h-1.81a.5.5 0 0 1 0-1h1.81a.5.5 0 0 1 0 1z"/><path d="m40.562 51.861h-1.81a.5.5 0 0 1 0-1h1.81a.5.5 0 0 1 0 1z"/><path d="m67.5 71.5h-47a.5.5 0 0 1 -.5-.532l3.406-53.468a.5.5 0 0 1 .5-.468h40.189a.5.5 0 0 1 .5.468l3.405 53.468a.5.5 0 0 1 -.5.532zm-46.475-1h45.946l-3.345-52.467h-39.252z"/></g><path d="m10.629 48.9a.606.606 0 0 1 -.553-.655l.624-7.516a.606.606 0 0 1 1.208.1l-.624 7.516a.606.606 0 0 1 -.655.555z" fill="#fff"/><path d="m10.413 51.452a.606.606 0 0 1 -.553-.652l.029-.338a.606.606 0 1 1 1.208.1l-.028.338a.607.607 0 0 1 -.656.552z" fill="#fff"/></svg>