<svg id="color_line" height="512" viewBox="0 0 74 74" width="512" xmlns="http://www.w3.org/2000/svg" data-name="color line"><path d="m11.483 51.932-.009-.465h-.5v-.49l.5-.045h.849l-.403.743-.437-.208z" fill="#323c6b"/><path d="m11.887 51.72-.818-.576a6.265 6.265 0 0 1 3.012-1.953l.334.942a5.481 5.481 0 0 0 -2.528 1.587z" fill="#323c6b"/><path d="m17.365 57.994-.443-.9.222.448-.226-.446a2.924 2.924 0 0 0 1.245-1.713l.952.3a3.891 3.891 0 0 1 -1.75 2.311z" fill="#323c6b"/><path d="m12.333 23.068h-1.35l-.009-.5h.002l-.002-.035h.5v-.465l.008.461.438-.204z" fill="#323c6b"/><rect fill="#27ccbc" height="25.1" rx="2.66" width="25.11" x="24.5" y="24.45"/><path d="m46.95 50.05h-19.79a3.163 3.163 0 0 1 -3.16-3.16v-19.78a3.163 3.163 0 0 1 3.16-3.16h19.79a3.163 3.163 0 0 1 3.16 3.16v19.78a3.163 3.163 0 0 1 -3.16 3.16zm-19.79-25.1a2.162 2.162 0 0 0 -2.16 2.16v19.78a2.162 2.162 0 0 0 2.16 2.16h19.79a2.162 2.162 0 0 0 2.16-2.16v-19.78a2.162 2.162 0 0 0 -2.16-2.16z" fill="#323c6b"/><path d="m49.61 27.11v19.78a2.65 2.65 0 0 1 -2.11 2.6 3.069 3.069 0 0 0 .05-.53v-19.78a2.659 2.659 0 0 0 -2.66-2.66h-19.79a3.3 3.3 0 0 0 -.55.05 2.678 2.678 0 0 1 2.61-2.12h19.79a2.659 2.659 0 0 1 2.66 2.66z" fill="#21b3a9"/><rect fill="#fcd462" height="18.068" rx="1.915" width="18.076" x="28.017" y="27.966"/><path d="m46.09 29.88v14.24a1.9 1.9 0 0 1 -1.91 1.91h-.98v-13.77a1.921 1.921 0 0 0 -1.92-1.92h-13.26v-.46a1.9 1.9 0 0 1 1.91-1.91h14.25a1.9 1.9 0 0 1 1.91 1.91z" fill="#f7be56"/><path d="m24.5 27.11v19.78a2.659 2.659 0 0 0 2.66 2.66h9.84v11.45a6.652 6.652 0 0 1 -6.87 6.39 6.745 6.745 0 0 1 -6.75-5.21h-.23a5.991 5.991 0 0 1 -6.01-4.63c-2.56 2.26-8.73-1.94-5.65-6.12h-.01c-2.37-.7-4.42-4.41-3.61-7.28a7.684 7.684 0 0 1 0-14.3c-.81-2.87 1.24-6.58 3.61-7.28v-.01c-3.08-4.18 3.1-8.37 5.66-6.11a5.991 5.991 0 0 1 6.01-4.63h.23a6.745 6.745 0 0 1 6.75-5.21 6.651 6.651 0 0 1 6.87 6.39v11.45h-9.84a2.659 2.659 0 0 0 -2.66 2.66z" fill="#eeefee"/><path d="m30.13 67.89a7.282 7.282 0 0 1 -7.148-5.212 6.567 6.567 0 0 1 -6.146-4.327c-1.557.77-3.69.1-5.068-1.162a4.371 4.371 0 0 1 -1.034-5.514 7.17 7.17 0 0 1 -3.444-7.244 8.16 8.16 0 0 1 0-14.864 7.169 7.169 0 0 1 3.44-7.242 4.363 4.363 0 0 1 1.025-5.515c1.381-1.265 3.52-1.937 5.081-1.163a6.567 6.567 0 0 1 6.146-4.327 7.282 7.282 0 0 1 7.148-5.21 7.15 7.15 0 0 1 7.37 6.89v11.95h-10.34a2.162 2.162 0 0 0 -2.16 2.16v19.78a2.162 2.162 0 0 0 2.16 2.16h10.34v11.95a7.15 7.15 0 0 1 -7.37 6.89zm-12.67-11.29.17.852a5.506 5.506 0 0 0 5.52 4.229h.641l.08.4a6.24 6.24 0 0 0 6.259 4.809 6.151 6.151 0 0 0 6.37-5.89v-10.95h-9.34a3.163 3.163 0 0 1 -3.16-3.16v-19.78a3.163 3.163 0 0 1 3.16-3.16h9.34v-10.95a6.151 6.151 0 0 0 -6.37-5.89 6.24 6.24 0 0 0 -6.259 4.807l-.08.4h-.641a5.506 5.506 0 0 0 -5.52 4.229l-.17.852-.651-.575c-1.126-1-3.15-.4-4.378.724a3.365 3.365 0 0 0 -.549 4.714l.1.132v.538l-.358.116c-2.032.6-4.021 4.005-3.27 6.665l.118.42-.4.174a7.184 7.184 0 0 0 0 13.383l.4.174-.118.42c-.743 2.631 1.195 5.991 3.2 6.645h.914l-.577.8a3.374 3.374 0 0 0 .551 4.726c1.224 1.121 3.241 1.716 4.366.723z" fill="#323c6b"/><path d="m14.126 24.822a4.77 4.77 0 0 1 -3.087-2.016l.88-.475-.44.237.438-.242a3.838 3.838 0 0 0 2.453 1.525z" fill="#323c6b"/><path d="m19.173 19.416-1-.014a2.881 2.881 0 0 0 -1.273-2.512l.5-.868a3.878 3.878 0 0 1 1.773 3.394z" fill="#323c6b"/><path d="m30.718 19.39h-5.596v-1h4.596v-4.975h1z" fill="#323c6b"/><path d="m18.249 47.288h-1v-6.017h-6.501v-1h7.501z" fill="#323c6b"/><path d="m12.863 34.27h6.295v1h-6.295z" fill="#323c6b"/><path d="m28.871 54.658h1v5.156h-1z" fill="#323c6b"/><circle cx="16.011" cy="25.71" fill="#d5d6db" r="2.256"/><path d="m16.011 28.466a2.756 2.756 0 1 1 2.756-2.756 2.759 2.759 0 0 1 -2.756 2.756zm0-4.512a1.756 1.756 0 1 0 1.756 1.756 1.758 1.758 0 0 0 -1.756-1.756z" fill="#323c6b"/><circle cx="20" cy="53.732" fill="#d5d6db" r="2.256"/><path d="m20 56.489a2.756 2.756 0 1 1 2.756-2.756 2.759 2.759 0 0 1 -2.756 2.756zm0-4.512a1.756 1.756 0 1 0 1.756 1.756 1.758 1.758 0 0 0 -1.756-1.756z" fill="#323c6b"/><path d="m62.526 51.932-.008-.461-.438.204-.413-.743h1.35l.009.5h-.002l.002.035h-.5z" fill="#323c6b"/><path d="m62.113 51.72a5.481 5.481 0 0 0 -2.528-1.586l.334-.942a6.265 6.265 0 0 1 3.012 1.953l-.82.572.41-.286z" fill="#323c6b"/><path d="m56.635 57.994a3.891 3.891 0 0 1 -1.749-2.3l.952-.3a2.924 2.924 0 0 0 1.245 1.706z" fill="#323c6b"/><path d="m62.526 23.068h-.849l.403-.743.437.208v-.465l.009.465.5-.009v.5z" fill="#323c6b"/><path d="m66.13 44.15c.81 2.87-1.24 6.58-3.61 7.28h-.01c3.08 4.18-3.09 8.38-5.65 6.12a5.991 5.991 0 0 1 -6.01 4.63h-.23a6.745 6.745 0 0 1 -6.75 5.21 6.652 6.652 0 0 1 -6.87-6.39v-11.45h9.95a2.659 2.659 0 0 0 2.66-2.66v-19.78a2.659 2.659 0 0 0 -2.66-2.66h-9.95v-11.45a6.651 6.651 0 0 1 6.87-6.39 6.745 6.745 0 0 1 6.75 5.21h.23a5.991 5.991 0 0 1 6.01 4.63c2.56-2.26 8.74 1.93 5.66 6.11v.01c2.37.7 4.42 4.41 3.61 7.28a7.684 7.684 0 0 1 0 14.3z" fill="#eeefee"/><path d="m66.13 44.15c.81 2.87-1.24 6.58-3.61 7.28h-.01c2.27 3.08-.48 6.16-3.1 6.67a3.7 3.7 0 0 0 -.1-4.57h.01c2.37-.7 4.42-4.41 3.61-7.28a7.684 7.684 0 0 0 0-14.3c.81-2.87-1.24-6.58-3.61-7.28v-.01c3.08-4.18-3.1-8.37-5.66-6.11a5.991 5.991 0 0 0 -6.01-4.63h-.23a6.745 6.745 0 0 0 -6.75-5.21 7.169 7.169 0 0 0 -2.19.34 7.024 7.024 0 0 1 5.39-2.44 6.745 6.745 0 0 1 6.75 5.21h.23a5.991 5.991 0 0 1 6.01 4.63c2.56-2.26 8.74 1.93 5.66 6.11v.01c2.37.7 4.42 4.41 3.61 7.28a7.684 7.684 0 0 1 0 14.3z" fill="#e1e6e9"/><path d="m59.874 24.822-.243-.97a3.838 3.838 0 0 0 2.453-1.525l.877.479a4.77 4.77 0 0 1 -3.087 2.016z" fill="#323c6b"/><path d="m54.827 19.416a3.878 3.878 0 0 1 1.781-3.394l.5.868a2.881 2.881 0 0 0 -1.281 2.51z" fill="#323c6b"/><path d="m48.878 19.39h-5.596v-5.975h1v4.975h4.596z" fill="#323c6b"/><path d="m56.751 47.288h-1v-7.017h7.501v1h-6.501z" fill="#323c6b"/><path d="m54.842 34.27h6.295v1h-6.295z" fill="#323c6b"/><path d="m44.129 54.658h1v5.156h-1z" fill="#323c6b"/><circle cx="57.989" cy="25.71" fill="#d5d6db" r="2.256"/><path d="m57.989 28.466a2.756 2.756 0 1 1 2.756-2.756 2.759 2.759 0 0 1 -2.756 2.756zm0-4.512a1.756 1.756 0 1 0 1.756 1.756 1.758 1.758 0 0 0 -1.756-1.756z" fill="#323c6b"/><circle cx="54" cy="53.732" fill="#d5d6db" r="2.256"/><g fill="#323c6b"><path d="m54 56.489a2.756 2.756 0 1 1 2.756-2.756 2.759 2.759 0 0 1 -2.756 2.756zm0-4.512a1.756 1.756 0 1 0 1.756 1.756 1.758 1.758 0 0 0 -1.756-1.756z"/><path d="m18.709 10.453a.5.5 0 0 1 -.235-.942l.161-.09c.1-.061.21-.12.321-.172a.5.5 0 0 1 .421.907c-.084.039-.164.085-.244.131l-.19.107a.5.5 0 0 1 -.234.059z"/><path d="m21.187 9.518a.493.493 0 0 1 -.22-.051.5.5 0 0 1 -.229-.669 10.207 10.207 0 0 1 6.939-5.386.5.5 0 0 1 .227.974 9.213 9.213 0 0 0 -6.269 4.853.5.5 0 0 1 -.448.279z"/><path d="m63 60.25a.5.5 0 0 1 -.284-.912 7.5 7.5 0 0 0 2.46-2.751 6.079 6.079 0 0 0 .593-3.756.5.5 0 0 1 .986-.163 7.072 7.072 0 0 1 -.687 4.37 8.506 8.506 0 0 1 -2.785 3.123.5.5 0 0 1 -.283.089z"/><path d="m58.875 61.667a.5.5 0 0 1 -.018-1 6.532 6.532 0 0 0 .736-.058.5.5 0 0 1 .148.989 7.6 7.6 0 0 1 -.847.067z"/><path d="m43.87 67.89a7.15 7.15 0 0 1 -7.37-6.89v-11.95h10.45a2.162 2.162 0 0 0 2.16-2.16v-19.78a2.162 2.162 0 0 0 -2.16-2.16h-10.45v-11.95a7.15 7.15 0 0 1 7.37-6.89 7.282 7.282 0 0 1 7.148 5.212 6.567 6.567 0 0 1 6.146 4.327c1.559-.774 3.7-.1 5.081 1.163a4.363 4.363 0 0 1 1.025 5.515 7.169 7.169 0 0 1 3.44 7.242 8.16 8.16 0 0 1 0 14.864 7.17 7.17 0 0 1 -3.444 7.244 4.371 4.371 0 0 1 -1.034 5.514c-1.378 1.262-3.51 1.934-5.068 1.162a6.567 6.567 0 0 1 -6.146 4.327 7.282 7.282 0 0 1 -7.148 5.21zm-6.37-17.84v10.95a6.151 6.151 0 0 0 6.37 5.89 6.24 6.24 0 0 0 6.259-4.807l.08-.4h.641a5.506 5.506 0 0 0 5.52-4.229l.17-.852.651.575c1.122.993 3.141.4 4.366-.723a3.374 3.374 0 0 0 .551-4.726l-.587-.8h.924c2.009-.653 3.947-4.014 3.2-6.645l-.118-.42.4-.174a7.184 7.184 0 0 0 0-13.383l-.4-.174.118-.42c.751-2.66-1.238-6.064-3.27-6.665l-.358-.106v-.538l.1-.142a3.365 3.365 0 0 0 -.549-4.714c-1.228-1.124-3.251-1.72-4.378-.724l-.651.575-.17-.852a5.506 5.506 0 0 0 -5.52-4.229h-.641l-.08-.4a6.24 6.24 0 0 0 -6.258-4.807 6.151 6.151 0 0 0 -6.37 5.89v10.95h9.45a3.163 3.163 0 0 1 3.16 3.16v19.78a3.163 3.163 0 0 1 -3.16 3.16z"/><path d="m44.178 46.534h-14.246a2.418 2.418 0 0 1 -2.415-2.415v-14.239a2.418 2.418 0 0 1 2.415-2.415h14.246a2.417 2.417 0 0 1 2.415 2.415v14.24a2.417 2.417 0 0 1 -2.415 2.414zm-14.246-18.068a1.417 1.417 0 0 0 -1.415 1.415v14.239a1.417 1.417 0 0 0 1.415 1.415h14.246a1.416 1.416 0 0 0 1.415-1.415v-14.24a1.416 1.416 0 0 0 -1.415-1.415z"/><path d="m33.836 38.258-.769 2.142h-.989l2.516-6.818h1.154l2.526 6.818h-1.021l-.791-2.145zm2.428-.688-.725-1.963c-.165-.445-.274-.85-.385-1.244h-.021c-.11.4-.231.819-.374 1.234l-.725 1.973z"/><path d="m40.317 33.584v6.816h-.956v-6.816z"/></g></svg>