<svg id="color_line" height="512" viewBox="0 0 74 74" width="512" xmlns="http://www.w3.org/2000/svg" data-name="color line"><circle cx="51.028" cy="22.872" fill="#89c5cd" r="17.344"/><path d="m68.37 22.87a17.321 17.321 0 0 1 -7.49 14.28 17.34 17.34 0 0 0 -22.28-26.37 17.34 17.34 0 0 1 29.77 12.09z" fill="#6eaaad"/><g fill="#323c6b"><path d="m44.2 29.565a41 41 0 0 1 -.524-6.695 41.666 41.666 0 0 1 .545-6.826l.085-.509.505.1a1.223 1.223 0 0 0 1.418-1.173 1.184 1.184 0 0 0 -.9-1.157l-.5-.122.14-.5c1.361-4.863 3.569-7.653 6.057-7.653 2.509 0 4.725 2.821 6.081 7.74l-.964.266c-1.191-4.322-3.152-7.006-5.117-7.006-1.909 0-3.751 2.415-4.969 6.487a2.2 2.2 0 0 1 -.918 4.141 40.979 40.979 0 0 0 -.46 6.212 40.032 40.032 0 0 0 .511 6.531z"/><path d="m51.026 40.717c-2.508 0-4.731-2.841-6.1-7.794l.964-.267c1.223 4.421 3.143 7.061 5.137 7.061 1.922 0 3.839-2.57 5.047-6.736a2.189 2.189 0 0 1 -1-1.655 1.218 1.218 0 0 1 -.009-.179 2.2 2.2 0 0 1 1.871-2.174 40.877 40.877 0 0 0 .441-6.1 39.686 39.686 0 0 0 -.531-6.64l.985-.168a40.649 40.649 0 0 1 .546 6.808 41.55 41.55 0 0 1 -.518 6.666l-.083.511-.508-.1a1.191 1.191 0 0 0 -.433 2.306l.43.159-.121.442c-1.36 4.994-3.591 7.86-6.118 7.86z"/><path d="m35.86 13.962h7.483v1h-7.483z"/><path d="m58.958 13.962h7.241v1h-7.241z"/><path d="m46.732 13.962h8.836v1h-8.836z"/><path d="m46.718 30.785h8.857v1h-8.857z"/><path d="m35.86 30.785h7.49v1h-7.49z"/><path d="m58.951 30.785h7.248v1h-7.248z"/><path d="m33.686 22.37h15.649v1h-15.649z"/><path d="m52.724 22.37h15.649v1h-15.649z"/></g><path d="m46.732 14.462a1.7 1.7 0 0 1 -1.7 1.7 1.6 1.6 0 0 1 -.318-.035 1.7 1.7 0 0 1 .318-3.362 1.622 1.622 0 0 1 .414.055 1.689 1.689 0 0 1 1.286 1.642z" fill="#eeefee"/><path d="m45.034 16.66a2.1 2.1 0 0 1 -.415-.044 2.177 2.177 0 1 1 .415.044zm0-3.4a1.2 1.2 0 1 0 1.2 1.2 1.184 1.184 0 0 0 -.9-1.157 1.143 1.143 0 0 0 -.3-.039z" fill="#323c6b"/><path d="m58.958 31.147a.924.924 0 0 1 -.007.138 1.692 1.692 0 0 1 -1.684 1.553 1.579 1.579 0 0 1 -.6-.117 1.676 1.676 0 0 1 -1.091-1.436.929.929 0 0 1 -.007-.138 1.7 1.7 0 0 1 1.7-1.7.522.522 0 0 1 .1.007 1.689 1.689 0 0 1 1.589 1.693z" fill="#eeefee"/><path d="m57.266 33.338a2.089 2.089 0 0 1 -.789-.154 2.178 2.178 0 0 1 -1.4-1.858 1.218 1.218 0 0 1 -.009-.179 2.2 2.2 0 0 1 2.2-2.2 1.038 1.038 0 0 1 .2.017 2.165 2.165 0 0 1 1.99 2.182 1.409 1.409 0 0 1 -.012.208 2.191 2.191 0 0 1 -2.18 1.984zm.064-3.383a1.187 1.187 0 0 0 -.492 2.3 1.173 1.173 0 0 0 1.614-1.006l.005-.1a1.188 1.188 0 0 0 -1.115-1.192z" fill="#323c6b"/><path d="m46.732 31.14a1.7 1.7 0 0 0 -1.7-1.7 1.6 1.6 0 0 0 -.318.035 1.7 1.7 0 0 0 .318 3.362 1.622 1.622 0 0 0 .414-.055 1.689 1.689 0 0 0 1.286-1.642z" fill="#eeefee"/><path d="m45.034 33.338a2.2 2.2 0 0 1 -.409-4.354 2.106 2.106 0 0 1 .409-.042 2.2 2.2 0 0 1 .532 4.327 2.1 2.1 0 0 1 -.532.069zm0-3.4a1.122 1.122 0 0 0 -.22.024 1.179 1.179 0 1 0 .22-.024z" fill="#323c6b"/><path d="m58.958 14.455a.924.924 0 0 0 -.007-.138 1.692 1.692 0 0 0 -1.684-1.553 1.579 1.579 0 0 0 -.6.117 1.676 1.676 0 0 0 -1.091 1.436.929.929 0 0 0 -.007.138 1.7 1.7 0 0 0 1.7 1.7.522.522 0 0 0 .1-.007 1.689 1.689 0 0 0 1.589-1.693z" fill="#eeefee"/><path d="m57.266 16.653a2.2 2.2 0 0 1 -2.2-2.2 1.409 1.409 0 0 1 .012-.208 2.171 2.171 0 0 1 1.413-1.835 2.059 2.059 0 0 1 .773-.148 2.2 2.2 0 0 1 2.183 2.014 1.254 1.254 0 0 1 .008.177 2.188 2.188 0 0 1 -2.061 2.19.556.556 0 0 1 -.128.01zm0-3.389a1.077 1.077 0 0 0 -.413.081 1.188 1.188 0 0 0 -.78 1.014 1.194 1.194 0 1 0 2.384.1v-.068a1.2 1.2 0 0 0 -1.191-1.127z" fill="#323c6b"/><circle cx="51.028" cy="22.872" fill="#eeefee" r="1.695"/><path d="m51.028 25.067a2.2 2.2 0 1 1 2.2-2.2 2.2 2.2 0 0 1 -2.2 2.2zm0-3.391a1.2 1.2 0 1 0 1.2 1.2 1.2 1.2 0 0 0 -1.2-1.2z" fill="#323c6b"/><path d="m40.878 52.6h7.369a1.744 1.744 0 0 0 1.744-1.744v-2.422a1.744 1.744 0 0 0 -1.744-1.744h-8.755a11.211 11.211 0 0 0 -9.454-5.173h-3.807v18.891l18.507 5.955a2.9 2.9 0 0 0 2.469-.427l23.093-16.394a1.673 1.673 0 0 0 .472-2.215l-1.439-2.427a1.673 1.673 0 0 0 -2.123-.678l-17.81 7.938" fill="#eeefee"/><path d="m70.3 49.54-23.09 16.4a2.932 2.932 0 0 1 -2.47.42l-18.51-5.95v-3.26l17.74 5.71a2.93 2.93 0 0 0 2.47-.43l23.09-16.39a1.718 1.718 0 0 0 .31-.29l.93 1.58a1.677 1.677 0 0 1 -.47 2.21z" fill="#e1e6e9"/><path d="m27.81 60.92s8.94-3.47 9.05-3.5a2.85 2.85 0 0 1 3.44 2.46l.72 5.28z" fill="#bbbbcd"/><path d="m41.623 65.879-15.31-4.915 1.316-.511c8.964-3.479 9.065-3.506 9.1-3.516a3.136 3.136 0 0 1 2.567.455 3.475 3.475 0 0 1 1.5 2.421zm-12.315-5 11.11 3.566-.618-4.498a2.475 2.475 0 0 0 -1.069-1.726 2.143 2.143 0 0 0 -1.75-.317c-.181.065-4.803 1.858-7.674 2.971z" fill="#323c6b"/><path d="m57.559 48.482h1v4.013h-1z" fill="#323c6b" transform="matrix(.878 -.479 .479 .878 -17.082 33.942)"/><path d="m64.665 45.269h1v3.084h-1z" fill="#323c6b" transform="matrix(.872 -.489 .489 .872 -14.572 37.88)"/><path d="m47.349 58.386h1v6.374h-1z" fill="#323c6b" transform="matrix(.832 -.555 .555 .832 -26.122 36.894)"/><path d="m54.622 56.485h1v3.442h-1z" fill="#323c6b" transform="matrix(.821 -.571 .571 .821 -23.359 41.862)"/><path d="m16.835 43.345h9.396v15.576h-9.396z" fill="#bbbbcd"/><path d="m26.731 59.42h-10.4v-16.575h10.4zm-9.4-1h8.4v-14.575h-8.4z" fill="#323c6b"/><path d="m16.835 49.472h9.396v3.322h-9.396z" fill="#9297ab"/><path d="m26.731 53.293h-10.4v-4.321h10.4zm-9.4-1h8.4v-2.321h-8.4z" fill="#323c6b"/><path d="m57.2 3.982a.5.5 0 0 1 -.133-.018c-.146-.04-.294-.075-.442-.109l-.23-.055a.5.5 0 1 1 .236-.972l.221.052c.161.038.322.075.481.119a.5.5 0 0 1 -.132.982z" fill="#323c6b"/><path d="m66.689 10.438a.5.5 0 0 1 -.385-.181 20.078 20.078 0 0 0 -7.2-5.491.5.5 0 1 1 .409-.912 21.066 21.066 0 0 1 7.556 5.766.5.5 0 0 1 -.384.819z" fill="#323c6b"/><path d="m46.218 69.907a.5.5 0 0 1 -.059-1 5.7 5.7 0 0 0 .575-.089.5.5 0 0 1 .218.977c-.223.049-.449.079-.675.106a.493.493 0 0 1 -.059.006z" fill="#323c6b"/><path d="m44.035 69.784a2.351 2.351 0 0 1 -.249-.053l-.11-.033-5.576-1.798a.5.5 0 0 1 .307-.952l5.664 1.821c.034.01.075.016.115.023z" fill="#323c6b"/><path d="m4.5 38.711 13.836 2.182v20.478l-13.836-2.182" fill="#eeefee"/><path d="m18.34 58.14v3.23l-13.84-2.18v-3.23z" fill="#e1e6e9"/><path d="m45.532 66.974a3.42 3.42 0 0 1 -.929-.129l-18.872-6.073v-19.754h4.307a11.656 11.656 0 0 1 9.724 5.172h8.485a2.247 2.247 0 0 1 2.245 2.244v2.426a2.2 2.2 0 0 1 -.017.273l16.531-7.373a2.171 2.171 0 0 1 2.757.881l1.437 2.433a2.16 2.16 0 0 1 -.613 2.876l-23.087 16.394a3.386 3.386 0 0 1 -1.968.63zm-18.8-6.93 18.161 5.843a2.386 2.386 0 0 0 2.025-.358l23.088-16.394a1.167 1.167 0 0 0 .331-1.553l-1.437-2.433a1.174 1.174 0 0 0 -1.489-.476l-17.724 7.9a2.234 2.234 0 0 1 -1.443.526h-7.366v-1h7.369a1.246 1.246 0 0 0 1.245-1.244v-2.421a1.246 1.246 0 0 0 -1.245-1.244h-9.029l-.147-.231a10.663 10.663 0 0 0 -9.032-4.941h-3.308z" fill="#323c6b"/><path d="m18.836 61.956-14.414-2.273.156-.988 13.258 2.091v-19.466l-13.414-2.114.156-.989 14.258 2.249z" fill="#323c6b"/><path d="m51.028 40.715a17.844 17.844 0 1 1 17.844-17.843 17.864 17.864 0 0 1 -17.844 17.843zm0-34.687a16.844 16.844 0 1 0 16.844 16.844 16.863 16.863 0 0 0 -16.844-16.844z" fill="#323c6b"/></svg>