<svg id="color_line" height="512" viewBox="0 0 74 74" width="512" xmlns="http://www.w3.org/2000/svg" data-name="color line"><path d="m16.492 47.359a14.042 14.042 0 0 1 -13.492-13.673c0-7.4 4.648-11.051 9.457-12.9a9.351 9.351 0 0 1 9.1-9.932 11.583 11.583 0 0 1 7.685 2.873 10.191 10.191 0 0 1 8.994-4.952 9.605 9.605 0 0 1 8.264 5.876 8.88 8.88 0 0 1 4.3-1.1c5.558 0 10.544 5.515 10.1 11.26 5.584 0 10.1 5.034 10.1 11.26s-4.516 11.26-10.1 11.26z" fill="#fe7058"/><path d="m67.77 44.32a12.276 12.276 0 0 0 1.36-5.65c0-6.23-4.51-11.26-10.1-11.26.45-5.75-4.54-11.26-10.1-11.26a8.926 8.926 0 0 0 -4.3 1.1 9.608 9.608 0 0 0 -8.27-5.87 10.187 10.187 0 0 0 -8.99 4.95 11.589 11.589 0 0 0 -7.69-2.87 8.9 8.9 0 0 0 -6.28 2.64 9.159 9.159 0 0 1 8.15-5.24 11.589 11.589 0 0 1 7.69 2.87 10.164 10.164 0 0 1 8.99-4.95 9.608 9.608 0 0 1 8.27 5.87 8.927 8.927 0 0 1 4.3-1.1c5.56 0 10.54 5.51 10.1 11.26 5.58 0 10.1 5.03 10.1 11.26a11.823 11.823 0 0 1 -3.23 8.25z" fill="#ea6453"/><path d="m18.948 47.357h1v11.4h-1z" fill="#323c6b"/><path d="m30.264 25.483h-5.505v-5.876h1v4.876h4.505z" fill="#323c6b"/><circle cx="32.479" cy="24.983" fill="#eeefee" r="2.215"/><path d="m32.479 27.7a2.715 2.715 0 1 1 2.715-2.715 2.719 2.719 0 0 1 -2.715 2.715zm0-4.431a1.715 1.715 0 1 0 1.715 1.715 1.717 1.717 0 0 0 -1.715-1.716z" fill="#323c6b"/><path d="m58.248 40.047h-5.876v-1h4.876v-4.505h1z" fill="#323c6b"/><circle cx="57.748" cy="32.327" fill="#eeefee" r="2.215"/><path d="m57.748 35.042a2.716 2.716 0 1 1 2.716-2.715 2.719 2.719 0 0 1 -2.716 2.715zm0-4.431a1.716 1.716 0 1 0 1.716 1.716 1.717 1.717 0 0 0 -1.716-1.716z" fill="#323c6b"/><path d="m19.837 38.793h-5.877v-1h4.877v-4.504h1z" fill="#323c6b"/><circle cx="19.337" cy="31.073" fill="#eeefee" r="2.215"/><path d="m19.337 33.789a2.716 2.716 0 1 1 2.715-2.715 2.719 2.719 0 0 1 -2.715 2.715zm0-4.431a1.716 1.716 0 1 0 1.715 1.716 1.717 1.717 0 0 0 -1.715-1.716z" fill="#323c6b"/><circle cx="19.448" cy="62.004" fill="#27ccbc" r="3.242"/><path d="m19.448 65.746a3.742 3.742 0 1 1 3.742-3.746 3.746 3.746 0 0 1 -3.742 3.746zm0-6.484a2.742 2.742 0 1 0 2.742 2.738 2.745 2.745 0 0 0 -2.742-2.738z" fill="#323c6b"/><path d="m45.016 47.357h1v10.216h-1z" fill="#323c6b"/><circle cx="45.516" cy="60.82" fill="#89c5cd" r="3.242"/><path d="m45.516 64.562a3.742 3.742 0 1 1 3.742-3.742 3.746 3.746 0 0 1 -3.742 3.742zm0-6.484a2.742 2.742 0 1 0 2.742 2.742 2.745 2.745 0 0 0 -2.742-2.742z" fill="#323c6b"/><path d="m58.925 58.075h-5.131v-10.717h1v9.717h4.131z" fill="#323c6b"/><circle cx="62.172" cy="57.575" fill="#e7aa6c" r="3.242"/><path d="m62.172 61.317a3.742 3.742 0 1 1 3.742-3.742 3.746 3.746 0 0 1 -3.742 3.742zm0-6.484a2.742 2.742 0 1 0 2.742 2.742 2.745 2.745 0 0 0 -2.742-2.742z" fill="#323c6b"/><path d="m37.456 68.988h-4.149v-1h3.149v-20.63h1z" fill="#323c6b"/><circle cx="30.06" cy="68.488" fill="#e1e6e9" r="3.242"/><path d="m30.06 72.23a3.742 3.742 0 1 1 3.74-3.742 3.746 3.746 0 0 1 -3.74 3.742zm0-6.484a2.742 2.742 0 1 0 2.74 2.742 2.745 2.745 0 0 0 -2.74-2.742z" fill="#323c6b"/><path d="m46.241 40.003h-1v-4.877h-4.505v-1h5.505z" fill="#323c6b"/><circle cx="38.521" cy="34.627" fill="#eeefee" r="2.215"/><g fill="#323c6b"><path d="m38.521 37.342a2.715 2.715 0 1 1 2.715-2.715 2.719 2.719 0 0 1 -2.715 2.715zm0-4.431a1.715 1.715 0 1 0 1.715 1.715 1.717 1.717 0 0 0 -1.715-1.715z"/><path d="m56.143 26.709-.539-.843a9.812 9.812 0 0 1 5.289-1.566v1a8.811 8.811 0 0 0 -4.75 1.409z"/><path d="m48.214 20.014h-1a11.814 11.814 0 0 0 -1.166-5.144l.9-.437a12.82 12.82 0 0 1 1.266 5.581z"/><path d="m30.275 15.766a10.542 10.542 0 0 0 -1.375-1.712l.71-.7a11.559 11.559 0 0 1 1.5 1.874z"/><path d="m12.335 24.814a16.979 16.979 0 0 1 -.376-4.069l1 .085a16.342 16.342 0 0 0 .349 3.737z"/><path d="m8.463 48.354a.493.493 0 0 1 -.229-.056l-.13-.066c-.149-.076-.3-.152-.443-.234a.5.5 0 0 1 .489-.872c.134.075.271.146.409.215l.133.068a.5.5 0 0 1 -.229.944z"/><path d="m6.129 46.917a.5.5 0 0 1 -.323-.118 18.009 18.009 0 0 1 -5.217-7.343.5.5 0 0 1 .936-.354 17.006 17.006 0 0 0 4.929 6.933.5.5 0 0 1 -.324.881z"/><path d="m60.191 15.365a.5.5 0 0 1 -.367-.16 12.464 12.464 0 0 0 -9.024-4.156.5.5 0 0 1 0-1 13.463 13.463 0 0 1 9.758 4.476.5.5 0 0 1 -.367.84z"/><path d="m61.886 17.583a.5.5 0 0 1 -.418-.225l-.1-.154c-.057-.089-.113-.178-.174-.264a.5.5 0 1 1 .813-.582c.072.1.139.2.2.307l.092.143a.5.5 0 0 1 -.417.775z"/><path d="m16.492 47.858c-7.454 0-13.992-6.622-13.992-14.172 0-6.267 3.177-10.717 9.444-13.234a10.1 10.1 0 0 1 2.756-7.092 9.374 9.374 0 0 1 6.851-3 12.53 12.53 0 0 1 7.59 2.6 10.616 10.616 0 0 1 9.129-4.682 9.98 9.98 0 0 1 8.447 5.7 9.349 9.349 0 0 1 4.083-.928 10.459 10.459 0 0 1 7.557 3.514 11.154 11.154 0 0 1 3.068 7.76c5.6.3 10.075 5.457 10.075 11.746 0 6.484-4.755 11.76-10.6 11.76zm5.06-36.5a8.384 8.384 0 0 0 -6.124 2.691 9.084 9.084 0 0 0 -2.472 6.713l.021.363-.34.131c-6.063 2.327-9.137 6.509-9.137 12.43 0 6.894 6.192 13.172 12.992 13.172l44.408-.03c5.294 0 9.6-4.827 9.6-10.76s-4.307-10.76-9.6-10.76h-.54l.042-.539a10.062 10.062 0 0 0 -2.779-7.527 9.459 9.459 0 0 0 -6.823-3.193 8.383 8.383 0 0 0 -4.062 1.041l-.46.251-.229-.471a9.137 9.137 0 0 0 -7.854-5.6 9.631 9.631 0 0 0 -8.528 4.711l-.335.555-.452-.465c-1.735-1.781-4.999-2.716-7.328-2.716z"/></g><path d="m22.312 44.32a.573.573 0 0 1 .573-.573h7.415a.573.573 0 0 1 0 1.146h-7.415a.573.573 0 0 1 -.573-.573z" fill="#fff"/><path d="m20.026 44.32a.573.573 0 0 1 .573-.573h.3a.573.573 0 0 1 0 1.146h-.3a.573.573 0 0 1 -.573-.573z" fill="#fff"/></svg>