<svg id="color_line" height="512" viewBox="0 0 74 74" width="512" xmlns="http://www.w3.org/2000/svg" data-name="color line"><path d="m37 62.474c0 4.28-3.759 7.744-8.4 7.744a8.263 8.263 0 0 1 -8.181-6 7.356 7.356 0 0 1 -7.026-7.088 6.23 6.23 0 0 1 .737-2.989 7.374 7.374 0 0 1 -7.174-7.088 6.354 6.354 0 0 1 .516-2.536 8.779 8.779 0 0 1 -4.472-7.517 8.994 8.994 0 0 1 6.363-8.378 6.415 6.415 0 0 1 -.221-1.676 7.363 7.363 0 0 1 7.2-7.088 6.256 6.256 0 0 1 -.737-3.012 7.352 7.352 0 0 1 7.026-7.065 8.263 8.263 0 0 1 8.181-6c4.212.219 6.188 3.465 6.188 7.744z" fill="#fe7058"/><g fill="#323c6b"><path d="m28.6 70.719a8.775 8.775 0 0 1 -8.572-6.037 7.78 7.78 0 0 1 -7.134-7.551 6.8 6.8 0 0 1 .485-2.564 7.826 7.826 0 0 1 -6.921-7.512 6.885 6.885 0 0 1 .4-2.331 9.209 9.209 0 0 1 -4.358-7.724 9.469 9.469 0 0 1 6.274-8.7 6.94 6.94 0 0 1 -.133-1.356 7.835 7.835 0 0 1 6.946-7.512 6.883 6.883 0 0 1 -.485-2.587 7.868 7.868 0 0 1 7.134-7.528 8.775 8.775 0 0 1 8.572-6.038c4.2.215 6.691 3.3 6.691 8.244v50.952c.001 4.546-3.992 8.244-8.899 8.244zm2.183-66.438a7.735 7.735 0 0 0 -7.67 5.619l-.087.349-.358.029a6.894 6.894 0 0 0 -6.568 6.569 5.75 5.75 0 0 0 .676 2.773l.374.689-.782.048a6.9 6.9 0 0 0 -6.729 6.588 5.9 5.9 0 0 0 .2 1.545l.124.455-.447.15a8.513 8.513 0 0 0 -6.016 7.905 8.265 8.265 0 0 0 4.226 7.087l.379.225-.176.4a5.832 5.832 0 0 0 -.475 2.337 6.887 6.887 0 0 0 6.705 6.589l.782.049-.374.689a5.694 5.694 0 0 0 -.677 2.75 6.822 6.822 0 0 0 6.566 6.589l.358.029.087.349a7.743 7.743 0 0 0 7.7 5.622c4.357 0 7.9-3.25 7.9-7.244v-50.946c-.001-4.417-2.084-7.058-5.718-7.244z"/><path d="m19.919 22.618c-3.3-.542-4.022-2.511-4.051-2.594l.941-.337c.023.062.6 1.505 3.272 1.945z"/><path d="m13.171 29.1a5.918 5.918 0 0 0 -3.617-.017l-.384-.923a6.786 6.786 0 0 1 4.284-.018z"/><path d="m14.59 54.334-.924-.382a6.811 6.811 0 0 1 3.277-3.128l.446.895a5.963 5.963 0 0 0 -2.799 2.615z"/><path d="m20.5 64.714-.158-.987a5.973 5.973 0 0 0 3.5-2.268l.782.623a6.963 6.963 0 0 1 -4.124 2.632z"/><path d="m27.063 15.5a5.649 5.649 0 0 0 -4.5-5.229l.143-.99a6.671 6.671 0 0 1 5.351 6.119z"/><path d="m8.067 45.058a4.4 4.4 0 0 1 -.68-.045l.165-.986a5.856 5.856 0 0 0 4.435-1.458l.646.764a7.074 7.074 0 0 1 -4.566 1.725z"/></g><circle cx="14.129" cy="41" fill="#e1e6e9" r="2.667"/><path d="m14.129 44.167a3.167 3.167 0 1 1 3.171-3.167 3.17 3.17 0 0 1 -3.171 3.167zm0-5.333a2.167 2.167 0 1 0 2.171 2.166 2.169 2.169 0 0 0 -2.171-2.167z" fill="#323c6b"/><circle cx="27.793" cy="18.104" fill="#e1e6e9" r="2.667"/><path d="m27.793 21.271a3.167 3.167 0 1 1 3.167-3.171 3.17 3.17 0 0 1 -3.167 3.171zm0-5.333a2.167 2.167 0 1 0 2.167 2.162 2.169 2.169 0 0 0 -2.167-2.162z" fill="#323c6b"/><circle cx="25.295" cy="59.337" fill="#e1e6e9" r="2.667"/><path d="m25.3 62.5a3.167 3.167 0 1 1 3.167-3.167 3.171 3.171 0 0 1 -3.167 3.167zm0-5.333a2.167 2.167 0 1 0 2.167 2.167 2.169 2.169 0 0 0 -2.167-2.164z" fill="#323c6b"/><path d="m30.684 42.591h-1v-6.76l-3.503-2.81.626-.78 3.877 3.11z" fill="#323c6b"/><circle cx="24.341" cy="31.086" fill="#e1e6e9" r="2.655"/><path d="m24.341 34.241a3.156 3.156 0 1 1 3.159-3.156 3.159 3.159 0 0 1 -3.159 3.156zm0-5.311a2.156 2.156 0 1 0 2.159 2.155 2.158 2.158 0 0 0 -2.159-2.155z" fill="#323c6b"/><path d="m25.605 49.125h5.468v1h-5.468z" fill="#323c6b"/><path d="m37 62.474c0 4.28 3.759 7.744 8.4 7.744a8.263 8.263 0 0 0 8.181-6 7.356 7.356 0 0 0 7.026-7.088 6.23 6.23 0 0 0 -.737-2.989 7.374 7.374 0 0 0 7.174-7.088 6.354 6.354 0 0 0 -.516-2.536 8.779 8.779 0 0 0 4.472-7.517 8.994 8.994 0 0 0 -6.363-8.378 6.415 6.415 0 0 0 .221-1.676 7.363 7.363 0 0 0 -7.2-7.088 6.256 6.256 0 0 0 .737-3.012 7.352 7.352 0 0 0 -7.026-7.065 8.263 8.263 0 0 0 -8.181-6c-4.212.219-6.188 3.465-6.188 7.744z" fill="#fe7058"/><path d="m60.51 55.97a6.413 6.413 0 0 1 .1 1.16 6.97 6.97 0 0 1 -3.43 5.92 6.716 6.716 0 0 0 .8-3.17 6.276 6.276 0 0 0 -.74-2.99 8.094 8.094 0 0 0 3.27-.92z" fill="#ea6453"/><path d="m66.64 44.82a6.244 6.244 0 0 1 .4 2.23 6.954 6.954 0 0 1 -3.43 5.91 6.646 6.646 0 0 0 .8-3.16 6.391 6.391 0 0 0 -.51-2.53 9.219 9.219 0 0 0 2.74-2.45z" fill="#ea6453"/><path d="m71 37a8.671 8.671 0 0 1 -3.89 7.14 8.3 8.3 0 0 0 1.26-4.39 9 9 0 0 0 -6.36-8.38 6.714 6.714 0 0 0 .22-1.67 7.361 7.361 0 0 0 -7.2-7.09 6.3 6.3 0 0 0 .74-3.01 7.359 7.359 0 0 0 -7.03-7.07 8.259 8.259 0 0 0 -8.18-6 6.7 6.7 0 0 0 -2.68.67 5.868 5.868 0 0 1 5.31-3.42 8.259 8.259 0 0 1 8.18 6 7.359 7.359 0 0 1 7.03 7.07 6.3 6.3 0 0 1 -.74 3.01 7.361 7.361 0 0 1 7.2 7.09 6.714 6.714 0 0 1 -.22 1.67 9 9 0 0 1 6.36 8.38z" fill="#ea6453"/><path d="m54.081 22.618-.162-.986c2.672-.439 3.249-1.883 3.272-1.945l.941.337c-.032.083-.755 2.053-4.051 2.594z" fill="#323c6b"/><path d="m60.829 29.1-.283-.959a6.787 6.787 0 0 1 4.284.018l-.386.923.193-.461-.191.462a5.914 5.914 0 0 0 -3.617.017z" fill="#323c6b"/><path d="m59.41 54.334a5.963 5.963 0 0 0 -2.8-2.616l.446-.895a6.811 6.811 0 0 1 3.277 3.128z" fill="#323c6b"/><path d="m53.5 64.714a6.963 6.963 0 0 1 -4.122-2.632l.782-.623a5.973 5.973 0 0 0 3.5 2.268z" fill="#323c6b"/><path d="m46.937 15.5-.994-.106a6.671 6.671 0 0 1 5.357-6.109l.144.99a5.589 5.589 0 0 0 -4.507 5.225z" fill="#323c6b"/><path d="m65.933 45.058a7.074 7.074 0 0 1 -4.566-1.726l.646-.764a5.907 5.907 0 0 0 4.434 1.458l.166.986a4.412 4.412 0 0 1 -.68.046z" fill="#323c6b"/><circle cx="59.871" cy="41" fill="#e1e6e9" r="2.667"/><path d="m59.871 44.167a3.167 3.167 0 1 1 3.167-3.167 3.17 3.17 0 0 1 -3.167 3.167zm0-5.333a2.167 2.167 0 1 0 2.167 2.166 2.169 2.169 0 0 0 -2.167-2.167z" fill="#323c6b"/><circle cx="46.207" cy="18.104" fill="#e1e6e9" r="2.667"/><path d="m46.207 21.271a3.167 3.167 0 1 1 3.166-3.171 3.17 3.17 0 0 1 -3.166 3.171zm0-5.333a2.167 2.167 0 1 0 2.166 2.162 2.169 2.169 0 0 0 -2.166-2.162z" fill="#323c6b"/><circle cx="48.705" cy="59.337" fill="#e1e6e9" r="2.667"/><path d="m48.7 62.5a3.167 3.167 0 1 1 3.167-3.167 3.17 3.17 0 0 1 -3.167 3.167zm0-5.333a2.167 2.167 0 1 0 2.167 2.167 2.169 2.169 0 0 0 -2.167-2.164z" fill="#323c6b"/><path d="m44.316 42.591h-1v-7.24l3.877-3.11.626.78-3.503 2.81z" fill="#323c6b"/><circle cx="49.659" cy="31.086" fill="#e1e6e9" r="2.655"/><path d="m49.659 34.241a3.156 3.156 0 1 1 3.155-3.156 3.159 3.159 0 0 1 -3.155 3.156zm0-5.311a2.156 2.156 0 1 0 2.155 2.155 2.158 2.158 0 0 0 -2.155-2.155z" fill="#323c6b"/><path d="m42.927 49.125h5.468v1h-5.468z" fill="#323c6b"/><path d="m61.336 16.313a.5.5 0 0 1 -.5-.447 9.576 9.576 0 0 0 -6.584-8.018.5.5 0 0 1 .325-.945 10.564 10.564 0 0 1 7.253 8.857.5.5 0 0 1 -.444.55z" fill="#323c6b"/><path d="m19.615 69.563a.5.5 0 0 1 -.387-.183l-.129-.151c-.087-.1-.174-.2-.252-.308a.5.5 0 1 1 .806-.593c.063.085.132.164.2.244l.148.173a.5.5 0 0 1 -.386.817z" fill="#323c6b"/><path d="m17.208 67.063a.507.507 0 0 1 -.17-.03 10.618 10.618 0 0 1 -7.059-8.66.5.5 0 0 1 .993-.12 9.622 9.622 0 0 0 6.407 7.84.5.5 0 0 1 -.17.97z" fill="#323c6b"/><path d="m45.4 70.719c-4.909 0-8.9-3.7-8.9-8.244v-50.95c0-4.947 2.492-8.029 6.665-8.244a8.783 8.783 0 0 1 8.6 6.037 7.868 7.868 0 0 1 7.135 7.529 6.883 6.883 0 0 1 -.485 2.587 7.835 7.835 0 0 1 6.946 7.512 6.94 6.94 0 0 1 -.133 1.356 9.469 9.469 0 0 1 6.272 8.698 9.209 9.209 0 0 1 -4.353 7.723 6.885 6.885 0 0 1 .4 2.331 7.826 7.826 0 0 1 -6.921 7.512 6.8 6.8 0 0 1 .485 2.564 7.78 7.78 0 0 1 -7.134 7.551 8.775 8.775 0 0 1 -8.577 6.038zm-2.209-66.438c-3.607.186-5.691 2.827-5.691 7.244v50.95c0 3.995 3.545 7.244 7.9 7.244a7.743 7.743 0 0 0 7.7-5.619l.087-.349.358-.029a6.822 6.822 0 0 0 6.566-6.589 5.694 5.694 0 0 0 -.677-2.75l-.374-.689.782-.049a6.887 6.887 0 0 0 6.705-6.589 5.832 5.832 0 0 0 -.475-2.337l-.176-.4.379-.225a8.265 8.265 0 0 0 4.225-7.094 8.513 8.513 0 0 0 -6.022-7.9l-.447-.15.124-.455a5.9 5.9 0 0 0 .2-1.545 6.9 6.9 0 0 0 -6.729-6.588l-.782-.048.374-.689a5.75 5.75 0 0 0 .676-2.773 6.894 6.894 0 0 0 -6.566-6.566l-.358-.029-.083-.357a7.743 7.743 0 0 0 -7.696-5.619z" fill="#323c6b"/><path d="m34.367 24.412a.573.573 0 0 1 .573.573v7.415a.573.573 0 0 1 -1.146 0v-7.416a.573.573 0 0 1 .573-.572z" fill="#fff"/><path d="m34.367 22.125a.573.573 0 0 1 .573.573v.302a.573.573 0 0 1 -1.146 0v-.3a.573.573 0 0 1 .573-.575z" fill="#fff"/></svg>