<svg id="color_line" height="512" viewBox="0 0 74 74" width="512" xmlns="http://www.w3.org/2000/svg" data-name="color line"><path d="m42.988 50.221h6.429l14.844-16.327a1.435 1.435 0 0 1 2.039-.094l3.727 3.435a1.435 1.435 0 0 1 .191 1.895l-16.297 22.596a3.106 3.106 0 0 1 -2.012 1.247l-26.922 4.46-11.994-21.379 4.307-2.414a14.5 14.5 0 0 1 13.98-.156h11.764a1.28 1.28 0 0 1 1.28 1.3l-.056 4.177a1.28 1.28 0 0 1 -1.28 1.262h-12.731" fill="#eeefee"/><path d="m70.21 39.13-16.29 22.6a3.1 3.1 0 0 1 -2.01 1.24l-26.92 4.46-1.5-2.67 26.73-4.43a3.108 3.108 0 0 0 2.01-1.25l16.3-22.59a1.194 1.194 0 0 0 .21-.44l1.28 1.19a1.417 1.417 0 0 1 .19 1.89z" fill="#e1e6e9"/><path d="m26.945 67.109s8.074-9.706 8.182-9.815a3.712 3.712 0 0 1 5.457.606l4.549 6.2z" fill="#e1e6e9"/><path d="m25.7 67.822.859-1.033c3.021-3.631 8.1-9.739 8.21-9.847a3.921 3.921 0 0 1 3.071-1.07 4.389 4.389 0 0 1 3.143 1.728l5.036 6.859zm11.8-10.963a2.9 2.9 0 0 0 -2.026.8c-.152.173-4.436 5.319-7.283 8.741l16.061-2.661-4.067-5.541a3.384 3.384 0 0 0 -2.42-1.325c-.092-.011-.18-.014-.265-.014z" fill="#323c6b"/><path d="m63.895 42.431h1v3.534h-1z" fill="#323c6b" transform="matrix(.654 -.757 .757 .654 -11.151 64.024)"/><path d="m58.028 50.872h1v3.295h-1z" fill="#323c6b" transform="matrix(.654 -.756 .756 .654 -19.48 62.443)"/><path d="m62.526 36.079h1v3.336h-1z" fill="#323c6b" transform="matrix(.669 -.743 .743 .669 -7.2 59.322)"/><path d="m55.712 43.936h1v4.873h-1z" fill="#323c6b" transform="matrix(.663 -.748 .748 .663 -15.775 57.69)"/><path d="m7.682 49.814h12.196v20.218h-12.196z" fill="#bbbbcd" transform="matrix(.872 -.489 .489 .872 -27.568 14.415)"/><path d="m13.22 72.4-10.386-18.5 11.507-6.459 10.386 18.5zm-9.02-18.116 9.4 16.758 9.763-5.481-9.405-16.761z" fill="#323c6b"/><path d="m7.682 57.767h12.196v4.312h-12.196z" fill="#9297ab" transform="matrix(.872 -.489 .489 .872 -27.568 14.415)"/><path d="m9.327 65.468-2.6-4.632 11.507-6.459 2.6 4.632zm-1.238-4.25 1.621 2.888 9.764-5.481-1.622-2.888z" fill="#323c6b"/><path d="m30.165 12.845h14.974a2.014 2.014 0 0 1 2.014 2.014v14.973a2.013 2.013 0 0 1 -2.013 2.013h-14.974a2.014 2.014 0 0 1 -2.014-2.014v-14.973a2.013 2.013 0 0 1 2.013-2.013z" fill="#fcd462"/><path d="m47.15 14.86v14.97a2.01 2.01 0 0 1 -2.01 2.01h-.67v-14.32a2.01 2.01 0 0 0 -2.01-2.01h-14.31v-.65a2.021 2.021 0 0 1 2.02-2.02h14.97a2.019 2.019 0 0 1 2.01 2.02z" fill="#f7be56"/><path d="m20.789 31.596-.902-.432 1.826-3.814h6.445v1h-5.815z" fill="#323c6b"/><path d="m24.34 21.845h3.813v1h-3.813z" fill="#323c6b"/><circle cx="19.465" cy="33.025" fill="#27ccbc" r="1.875"/><path d="m19.465 35.4a2.375 2.375 0 1 1 2.375-2.375 2.378 2.378 0 0 1 -2.375 2.375zm0-3.75a1.375 1.375 0 1 0 1.375 1.375 1.376 1.376 0 0 0 -1.375-1.375z" fill="#323c6b"/><path d="m28.158 17.34h-6.445l-1.826-3.814.902-.432 1.554 3.246h5.815z" fill="#323c6b"/><circle cx="19.465" cy="11.665" fill="#27ccbc" r="1.875"/><path d="m19.465 14.04a2.375 2.375 0 1 1 2.375-2.375 2.378 2.378 0 0 1 -2.375 2.375zm0-3.75a1.375 1.375 0 1 0 1.375 1.375 1.376 1.376 0 0 0 -1.375-1.375z" fill="#323c6b"/><circle cx="22.465" cy="22.345" fill="#27ccbc" r="1.875"/><path d="m22.465 24.72a2.375 2.375 0 1 1 2.375-2.375 2.378 2.378 0 0 1 -2.375 2.375zm0-3.75a1.375 1.375 0 1 0 1.375 1.375 1.376 1.376 0 0 0 -1.375-1.375z" fill="#323c6b"/><path d="m32.647 12.845h-1v-5.815l-3.245-1.554.431-.902 3.814 1.826z" fill="#323c6b"/><path d="m37.153 9.027h1v3.813h-1z" fill="#323c6b"/><circle cx="26.973" cy="4.152" fill="#27ccbc" r="1.875"/><path d="m26.973 6.527a2.375 2.375 0 1 1 2.375-2.375 2.378 2.378 0 0 1 -2.375 2.375zm0-3.75a1.375 1.375 0 1 0 1.375 1.375 1.376 1.376 0 0 0 -1.375-1.375z" fill="#323c6b"/><path d="m43.658 12.845h-1v-6.445l3.814-1.826.431.902-3.245 1.554z" fill="#323c6b"/><path d="m22.745 36.358h10.748v1h-10.748z" fill="#323c6b" transform="matrix(.36 -.933 .933 .36 -16.396 49.803)"/><path d="m37.153 31.853h1v11.632h-1z" fill="#323c6b"/><path d="m47.862 31.265h1v17.274h-1z" fill="#323c6b" transform="matrix(.933 -.36 .36 .933 -11.128 20.104)"/><circle cx="48.333" cy="4.152" fill="#27ccbc" r="1.875"/><path d="m48.333 6.527a2.375 2.375 0 1 1 2.375-2.375 2.378 2.378 0 0 1 -2.375 2.375zm0-3.75a1.375 1.375 0 1 0 1.375 1.375 1.376 1.376 0 0 0 -1.375-1.375z" fill="#323c6b"/><circle cx="37.653" cy="7.152" fill="#27ccbc" r="1.875"/><path d="m37.653 9.527a2.375 2.375 0 1 1 2.375-2.375 2.378 2.378 0 0 1 -2.375 2.375zm0-3.75a1.375 1.375 0 1 0 1.375 1.375 1.376 1.376 0 0 0 -1.375-1.375z" fill="#323c6b"/><path d="m53.598 17.34h-6.445v-1h5.815l1.553-3.246.903.432z" fill="#323c6b"/><path d="m47.158 21.845h3.813v1h-3.813z" fill="#323c6b"/><circle cx="55.845" cy="11.665" fill="#27ccbc" r="1.875"/><path d="m55.845 14.04a2.375 2.375 0 1 1 2.375-2.375 2.378 2.378 0 0 1 -2.375 2.375zm0-3.75a1.375 1.375 0 1 0 1.375 1.375 1.376 1.376 0 0 0 -1.375-1.375z" fill="#323c6b"/><path d="m54.521 31.596-1.553-3.246h-5.815v-1h6.445l1.826 3.814z" fill="#323c6b"/><circle cx="55.845" cy="33.025" fill="#27ccbc" r="1.875"/><path d="m55.845 35.4a2.375 2.375 0 1 1 2.375-2.375 2.378 2.378 0 0 1 -2.375 2.375zm0-3.75a1.375 1.375 0 1 0 1.375 1.375 1.376 1.376 0 0 0 -1.375-1.375z" fill="#323c6b"/><circle cx="52.845" cy="22.345" fill="#27ccbc" r="1.875"/><g fill="#323c6b"><path d="m52.845 24.72a2.375 2.375 0 1 1 2.375-2.375 2.378 2.378 0 0 1 -2.375 2.375zm0-3.75a1.375 1.375 0 1 0 1.375 1.375 1.376 1.376 0 0 0 -1.375-1.375z"/><path d="m32.147 18.648h11.01v1h-11.01z"/><path d="m32.147 25.042h8.061v1h-8.061z"/><path d="m59.2 60.031a.5.5 0 0 1 -.4-.792l.5-.687a.5.5 0 0 1 .811.585l-.5.688a.5.5 0 0 1 -.411.206z"/><path d="m52.4 66.434a.5.5 0 0 1 -.081-.993 5.57 5.57 0 0 0 3.63-2.252l1.113-1.543a.5.5 0 1 1 .812.585l-1.113 1.543a6.565 6.565 0 0 1 -4.279 2.653.469.469 0 0 1 -.082.007z"/><path d="m12.563 43.357a.5.5 0 0 1 -.245-.936l.563-.315a.5.5 0 1 1 .488.872l-.562.315a.5.5 0 0 1 -.244.064z"/><path d="m15.837 41.523a.5.5 0 0 1 -.246-.936 17.9 17.9 0 0 1 7.368-2.271.493.493 0 0 1 .54.457.5.5 0 0 1 -.457.54 16.909 16.909 0 0 0 -6.959 2.146.5.5 0 0 1 -.246.064z"/><path d="m24.723 67.984-12.41-22.122 4.746-2.662a14.91 14.91 0 0 1 14.349-.22h11.636a1.78 1.78 0 0 1 1.779 1.8l-.056 4.177a1.757 1.757 0 0 1 -.181.756h4.614l14.7-16.163a1.922 1.922 0 0 1 1.348-.631 1.9 1.9 0 0 1 1.4.51l3.727 3.435a1.938 1.938 0 0 1 .258 2.555l-16.307 22.6a3.582 3.582 0 0 1 -2.335 1.448zm-11.049-21.738 11.577 20.636 26.576-4.4a2.589 2.589 0 0 0 1.687-1.047l16.295-22.593a.936.936 0 0 0 -.125-1.235l-3.727-3.435a.9.9 0 0 0 -.674-.247.929.929 0 0 0 -.652.305l-14.993 16.491h-19.381v-1h12.73a.783.783 0 0 0 .78-.77l.056-4.177a.779.779 0 0 0 -.779-.79h-11.887l-.111-.06a13.917 13.917 0 0 0 -13.5.151z"/><path d="m45.139 32.345h-14.973a2.516 2.516 0 0 1 -2.513-2.513v-14.975a2.516 2.516 0 0 1 2.513-2.513h14.973a2.516 2.516 0 0 1 2.514 2.513v14.975a2.516 2.516 0 0 1 -2.514 2.513zm-14.973-19a1.515 1.515 0 0 0 -1.513 1.513v14.974a1.515 1.515 0 0 0 1.513 1.513h14.973a1.515 1.515 0 0 0 1.514-1.513v-14.975a1.515 1.515 0 0 0 -1.514-1.513z"/></g><path d="m39.355 28.774a.573.573 0 0 1 -.573.573h-5.982a.573.573 0 1 1 0-1.146h5.984a.573.573 0 0 1 .571.573z" fill="#fff"/><path d="m41.641 28.774a.573.573 0 0 1 -.573.573h-.3a.573.573 0 0 1 0-1.146h.3a.573.573 0 0 1 .573.573z" fill="#fff"/></svg>