<svg id="color_line" height="512" viewBox="0 0 74 74" width="512" xmlns="http://www.w3.org/2000/svg" data-name="color line"><path d="m44.834 3.412c14.956 2.462 23.066 18.763 17.447 32.841-.4 1.011-.79 2.029-1.149 3.06a31.267 31.267 0 0 0 -2.024 13.58c.478 4.564 2.576 9.127 6.257 11.851l-31.504 6.256c-1.1-3.349-2.171-6.7-3.275-10.047a4.047 4.047 0 0 0 -1.03-1.914 4.316 4.316 0 0 0 -2.907-.589c-1.84.074-3.68.11-5.484.074a8.778 8.778 0 0 1 -4.269-.81c-1.215-.736-2.392-2.8-1.509-3.9a2.04 2.04 0 0 0 0-2.1 14.41 14.41 0 0 1 -1.067-1.951c-.331-1.288 1.472-1.693 2.135-2.024-.7.147-2.539-.294-2.687-1.4-.11-.7.478-1.4.4-2.1a2.469 2.469 0 0 0 -1.951-1.987c-.662-.184-1.362-.221-2.061-.4a2.067 2.067 0 0 1 -1.472-1.325 2.6 2.6 0 0 1 .478-1.914c1.215-2.245 2.466-4.49 3.68-6.735a47.733 47.733 0 0 0 2.135-5.152 6.964 6.964 0 0 0 .365-2.8 17.115 17.115 0 0 1 4.742-13.051c4.862-5.202 11.841-7.875 19.597-7.875a31.735 31.735 0 0 1 5.153.412z" fill="#eeefee"/><path d="m65.36 64.74-5.75 1.14a17.972 17.972 0 0 1 -3.88-9.58 31.208 31.208 0 0 1 2.03-13.59c.36-1.03.74-2.04 1.15-3.06 5.62-14.07-2.49-30.37-17.45-32.84a32.248 32.248 0 0 0 -5.15-.41 27.042 27.042 0 0 0 -17.3 5.73 16.271 16.271 0 0 1 1.08-1.26c4.86-5.2 11.84-7.87 19.59-7.87a32.162 32.162 0 0 1 5.15.41c14.96 2.46 23.07 18.77 17.45 32.84-.4 1.01-.79 2.03-1.15 3.06a31.327 31.327 0 0 0 -2.02 13.58c.48 4.57 2.57 9.13 6.25 11.85z" fill="#e1e6e9"/><path d="m54.113 26.613a6.386 6.386 0 0 1 .665 2.843 6.21 6.21 0 0 1 -4.234 5.88l.121 6.872-5.432 1.585-2.311-7.211a4.752 4.752 0 0 1 -3.968-2.214 6.257 6.257 0 0 1 -2.7.6 6.377 6.377 0 0 1 -4.6-1.96 6.531 6.531 0 0 1 -9.868-5.608 6.251 6.251 0 0 1 .956-3.375 4.724 4.724 0 0 1 -.278-1.657 5.308 5.308 0 0 1 3.581-5.033 5.936 5.936 0 0 1 5.65-4.186 4.228 4.228 0 0 1 .786.06 6.242 6.242 0 0 1 9.207-.472 6.157 6.157 0 0 1 2.831-.69 6.072 6.072 0 0 1 5.468 3.424 6.551 6.551 0 0 1 4.126 11.143z" fill="#fe7058"/><path d="m50.56 36.56.1 5.65-1.92.56-.1-5.15a6.1 6.1 0 0 0 1.92-1.06z" fill="#ea6453"/><path d="m54.11 26.61a6.329 6.329 0 0 1 .67 2.85 6.145 6.145 0 0 1 -2.52 4.97 6.045 6.045 0 0 0 .62-2.69 6.319 6.319 0 0 0 -.67-2.84 6.549 6.549 0 0 0 -4.12-11.14 6.061 6.061 0 0 0 -5.47-3.43 6.228 6.228 0 0 0 -2.83.69 6.253 6.253 0 0 0 -9.21.47 5.029 5.029 0 0 0 -.78-.06 5.847 5.847 0 0 0 -3.46 1.13 5.923 5.923 0 0 1 5.35-3.41 4.082 4.082 0 0 1 .79.06 6.247 6.247 0 0 1 4.83-2.28 6.174 6.174 0 0 1 4.38 1.81 6.1 6.1 0 0 1 8.3 2.73 6.558 6.558 0 0 1 6.02 6.53 6.474 6.474 0 0 1 -1.9 4.61z" fill="#ea6453"/><g fill="#323c6b"><path d="m30.074 69.563a.5.5 0 0 1 -.476-.346l-.727-2.228q-.627-1.932-1.26-3.864a.5.5 0 0 1 .951-.312q.633 1.934 1.26 3.867l.727 2.228a.5.5 0 0 1 -.476.654z"/><path d="m25.188 61.995a.5.5 0 0 1 -.014-1l.467-.012h.016a.5.5 0 0 1 .016 1l-.471.012z"/><path d="m66.78 23.417a.5.5 0 0 1 -.494-.427 27.237 27.237 0 0 0 -2.854-8.755.5.5 0 1 1 .885-.466 28.266 28.266 0 0 1 2.959 9.076.5.5 0 0 1 -.422.567.483.483 0 0 1 -.074.005z"/><path d="m67.063 26.667a.5.5 0 0 1 -.5-.486v-.236c0-.126 0-.251-.01-.377a.5.5 0 0 1 .474-.525.481.481 0 0 1 .524.474c.008.137.01.275.012.413v.224a.5.5 0 0 1 -.486.514z"/><path d="m40.755 19.7c-1.555-.945-2.342-2.044-2.337-3.266.008-2.3 2.895-4.055 3.018-4.128l.514.858c-.025.015-2.527 1.539-2.531 3.275 0 .847.622 1.657 1.856 2.407z"/><path d="m35.839 19.81a4.847 4.847 0 0 1 -.607-.039l.125-.992a2.6 2.6 0 0 0 2.009-.459 3.391 3.391 0 0 0 1.062-2.073l1 .1a4.37 4.37 0 0 1 -1.428 2.753 3.348 3.348 0 0 1 -2.161.71z"/><path d="m23.122 24.349-.754-.657a5 5 0 0 1 5.051-1.222l-.254.967a4.044 4.044 0 0 0 -4.043.912z"/><path d="m31.292 33.345a9.6 9.6 0 0 1 -2.2-3.566l.966-.261a8.826 8.826 0 0 0 1.977 3.154z"/><path d="m53.655 26.832a6.527 6.527 0 0 0 -6.682-3.861l-.147-.989a7.636 7.636 0 0 1 7.732 4.418z"/><path d="m39.1 34.847-.295-.956c3.162-.972 3.942-4.557 3.95-4.593l.979.2c-.034.171-.894 4.202-4.634 5.349z"/><path d="m36.613 28.333a4.377 4.377 0 0 1 .949-3.83 4.056 4.056 0 0 1 3.149-.979l-.13.991a3.076 3.076 0 0 0 -2.318.7 3.47 3.47 0 0 0 -.658 2.989z"/><path d="m33.861 71.5a.5.5 0 0 1 -.475-.343c-.561-1.7-1.11-3.4-1.661-5.093q-.8-2.477-1.614-4.955a3.644 3.644 0 0 0 -.883-1.692 3.919 3.919 0 0 0 -2.563-.467c-2.069.083-3.873.107-5.511.074a9.149 9.149 0 0 1 -4.519-.882 4.668 4.668 0 0 1 -2.014-2.906 2.108 2.108 0 0 1 .379-1.736 1.586 1.586 0 0 0 -.057-1.561 7.875 7.875 0 0 0 -.416-.706 5.713 5.713 0 0 1 -.681-1.318 1.671 1.671 0 0 1 .895-1.933 3.255 3.255 0 0 1 -.662-.354 1.8 1.8 0 0 1 -.8-1.221 2.66 2.66 0 0 1 .223-1.312 2.031 2.031 0 0 0 .181-.8 2 2 0 0 0 -1.584-1.557 8.9 8.9 0 0 0 -.985-.195 10.868 10.868 0 0 1 -1.072-.209 2.525 2.525 0 0 1 -1.834-1.7 3.031 3.031 0 0 1 .531-2.267c.606-1.121 1.226-2.248 1.845-3.375s1.228-2.235 1.832-3.352a30.836 30.836 0 0 0 1.584-3.74c.169-.45.338-.9.516-1.355a6.424 6.424 0 0 0 .333-2.573 17.69 17.69 0 0 1 4.875-13.442c4.838-5.178 11.925-8.03 19.957-8.03a32.31 32.31 0 0 1 5.234.419 23.114 23.114 0 0 1 16.397 11.581 25.321 25.321 0 0 1 1.435 21.94c-.44 1.1-.813 2.1-1.141 3.039a30.533 30.533 0 0 0 -2 13.365 16.474 16.474 0 0 0 6.058 11.5.5.5 0 0 1 -.2.892l-31.5 6.256a.48.48 0 0 1 -.103.008zm-6.622-13.562a4.042 4.042 0 0 1 2.631.712 4.47 4.47 0 0 1 1.193 2.15q.814 2.47 1.614 4.953.757 2.333 1.521 4.668l30.019-5.961a17.6 17.6 0 0 1 -5.605-11.517 31.49 31.49 0 0 1 2.05-13.8c.331-.953.71-1.96 1.155-3.079a24.322 24.322 0 0 0 -1.377-21.075 22.121 22.121 0 0 0 -15.687-11.083 31.367 31.367 0 0 0 -5.072-.406c-7.752 0-14.58 2.739-19.227 7.713a16.673 16.673 0 0 0 -4.609 12.662 7.473 7.473 0 0 1 -.389 3.008c-.186.474-.353.921-.52 1.366a31.994 31.994 0 0 1 -1.648 3.865q-.911 1.682-1.837 3.36c-.618 1.126-1.236 2.252-1.846 3.377a2.231 2.231 0 0 0 -.437 1.542 1.584 1.584 0 0 0 1.149.985c.3.077.622.128.944.18a9.88 9.88 0 0 1 1.092.217 2.96 2.96 0 0 1 2.316 2.432 2.814 2.814 0 0 1 -.234 1.225 1.891 1.891 0 0 0 -.176.832.826.826 0 0 0 .391.549 2.743 2.743 0 0 0 1.7.438.5.5 0 0 1 .575.324.5.5 0 0 1 -.248.612c-.13.065-.3.133-.488.208-1.026.408-1.522.712-1.386 1.244a4.951 4.951 0 0 0 .564 1.058 9.051 9.051 0 0 1 .466.793 2.526 2.526 0 0 1 -.057 2.634 1.13 1.13 0 0 0 -.17.936 3.689 3.689 0 0 0 1.547 2.225 8.381 8.381 0 0 0 3.992.737c1.644.035 3.431.009 5.481-.073.204-.006.409-.011.613-.011z"/><path d="m44.905 44.409-2.354-7.342a5.215 5.215 0 0 1 -3.775-2.076 6.855 6.855 0 0 1 -7.2-1.359 7.032 7.032 0 0 1 -10.29-6.232 6.784 6.784 0 0 1 .907-3.436 5.358 5.358 0 0 1 -.229-1.6 5.794 5.794 0 0 1 3.683-5.42 6.392 6.392 0 0 1 6.048-4.3 5.614 5.614 0 0 1 .585.026 6.744 6.744 0 0 1 9.5-.537 6.6 6.6 0 0 1 8.529 2.867 7.084 7.084 0 0 1 6.2 7 7.005 7.005 0 0 1 -1.8 4.706 6.913 6.913 0 0 1 .569 2.747 6.7 6.7 0 0 1 -4.229 6.227l.122 6.9zm-5.766-10.683.237.375a4.226 4.226 0 0 0 3.55 1.981h.361l2.272 7.092 4.6-1.342-.121-6.856.348-.116a5.7 5.7 0 0 0 3.894-5.406 5.879 5.879 0 0 0 -.613-2.62l-.16-.321.252-.254a6.051 6.051 0 0 0 -3.809-10.292l-.286-.022-.125-.259a5.6 5.6 0 0 0 -7.621-2.507l-.322.166-.258-.255a5.743 5.743 0 0 0 -8.469.433l-.188.23-.292-.056a3.679 3.679 0 0 0 -.692-.052 5.47 5.47 0 0 0 -5.172 3.834l-.075.244-.242.082a4.792 4.792 0 0 0 -3.241 4.56 4.222 4.222 0 0 0 .247 1.482l.087.233-.134.21a5.755 5.755 0 0 0 -.878 3.106 6.03 6.03 0 0 0 9.111 5.188l.341-.2.275.285a5.867 5.867 0 0 0 4.239 1.808 5.806 5.806 0 0 0 2.482-.556z"/></g></svg>