<svg id="color_line" height="512" viewBox="0 0 74 74" width="512" xmlns="http://www.w3.org/2000/svg" data-name="color line"><path d="m28.826 58.36h-17.365l3.493-29.607a6.252 6.252 0 0 0 10.137 1.367z" fill="#eeefee"/><path d="m35.162 15.73-8.628 8.429a6.253 6.253 0 0 0 -6.027-4.573 5.074 5.074 0 0 0 -.926.077l10.777-9.773c-.011.176-.022.353-.022.54a5.311 5.311 0 0 0 4.826 5.3z" fill="#eeefee"/><path d="m53.618 10.022a4.895 4.895 0 0 0 .914 2.854l-14.291.264a5.3 5.3 0 0 0 -.837-6.5l15.14.507a4.87 4.87 0 0 0 -.926 2.875z" fill="#eeefee"/><path d="m18.05 31.63-3.16 26.73h-3.43l3.49-29.61a6.339 6.339 0 0 0 3.1 2.88z" fill="#e1e6e9"/><path d="m30.34 10.43a5.3 5.3 0 0 0 .45 2.15l-8.14 7.4a5.889 5.889 0 0 0 -2.14-.39 5.653 5.653 0 0 0 -.93.07l10.78-9.77c-.01.18-.02.35-.02.54z" fill="#e1e6e9"/><path d="m54.54 7.15a4.82 4.82 0 0 0 -.9 2.51l-12.79-.43a5.3 5.3 0 0 0 -1.45-2.59z" fill="#e1e6e9"/><path d="m70.444 31.222-8.044-8.606h-7.757l-8.043 8.606a2.208 2.208 0 0 0 -.242 2.6l4.273 8.269h4.718v-1.291a3.173 3.173 0 1 1 6.347 0v1.291h4.718l4.273-8.269a2.208 2.208 0 0 0 -.243-2.6z" fill="#bbbbcd"/><path d="m70.69 33.82-4.28 8.27h-3.29l4.17-8.07a2.2 2.2 0 0 0 -.24-2.6l-8.04-8.61h-4.55l.18-.19h7.76l8.04 8.6a2.217 2.217 0 0 1 .25 2.6z" fill="#9297ab"/><path d="m61.915 13.57.485 9.046h-7.757l.485-9.068z" fill="#eeefee"/><path d="m61.92 13.57.48 9.05h-2.89v-9.05l-4.38-.01v-.01z" fill="#e1e6e9"/><path d="m67.711 42.1v18.365h-6.005v1.289a3.173 3.173 0 1 1 -6.347 0v-1.289h-6.016v-6.005h1.3a3.174 3.174 0 0 0 3.173-3.173v-.011a3.174 3.174 0 0 0 -3.173-3.176h-1.3v-6h6.005v-1.3a3.173 3.173 0 0 1 6.347 0v1.3z" fill="#fcd462"/><path d="m67.71 42.1v18.36h-2.33v-16.4h-6.02v-1.3a3.175 3.175 0 0 0 -3.79-3.12 3.285 3.285 0 0 1 .7-1.09 3.236 3.236 0 0 1 2.25-.93 3.173 3.173 0 0 1 3.17 3.18v1.3z" fill="#f7be56"/><path d="m10.453 58.36h19.381a7.453 7.453 0 0 1 7.453 7.453v3.079h-34.287v-3.078a7.453 7.453 0 0 1 7.453-7.454z" fill="#bbbbcd"/><g fill="#323c6b"><path d="m37.787 69.393h-35.287v-3.58a7.962 7.962 0 0 1 7.953-7.953h19.381a7.962 7.962 0 0 1 7.953 7.953zm-34.287-1h33.287v-2.58a6.961 6.961 0 0 0 -6.953-6.953h-19.381a6.961 6.961 0 0 0 -6.953 6.953z"/><path d="m71.311 28.256a.5.5 0 0 1 -.365-.159l-5.144-5.5a.5.5 0 1 1 .73-.683l5.144 5.5a.5.5 0 0 1 -.365.841z"/><path d="m73.161 30.415a.493.493 0 0 1 -.419-.23v-.005a4.944 4.944 0 0 0 -.308-.449.5.5 0 1 1 .779-.626 5.846 5.846 0 0 1 .373.54.5.5 0 0 1 -.422.771z"/><path d="m20.75 72.393h-9.781a.5.5 0 0 1 0-1h9.781a.5.5 0 0 1 0 1z"/><path d="m8.5 72.393h-.625a.5.5 0 0 1 0-1h.625a.5.5 0 0 1 0 1z"/></g><path d="m40.991 10.43a5.339 5.339 0 0 1 -5.333 5.322c-.165 0-.331-.011-.5-.022a5.311 5.311 0 0 1 -4.826-5.3c0-.187.011-.364.022-.54a5.33 5.33 0 0 1 10.633.54z" fill="#bbbbcd"/><path d="m35.658 16.251c-.178 0-.354-.011-.53-.023a5.783 5.783 0 0 1 -5.292-5.8c0-.2.011-.386.023-.573a5.827 5.827 0 1 1 5.8 6.4zm0-10.644a4.814 4.814 0 0 0 -4.8 4.333c-.009.148-.02.313-.02.489a4.786 4.786 0 0 0 4.371 4.8c.143.01.3.02.451.02a4.84 4.84 0 0 0 4.152-2.366 4.8 4.8 0 0 0 -.758-5.891 4.836 4.836 0 0 0 -3.396-1.385z" fill="#323c6b"/><path d="m26.777 25.856a6.264 6.264 0 1 1 -7.2-6.192 5.074 5.074 0 0 1 .926-.077 6.253 6.253 0 0 1 6.027 4.573 5.8 5.8 0 0 1 .247 1.696z" fill="#bbbbcd"/><path d="m20.508 32.625a6.766 6.766 0 0 1 -1-13.457 5.435 5.435 0 0 1 1-.083 6.763 6.763 0 0 1 6.509 4.94 6.245 6.245 0 0 1 .261 1.83 6.792 6.792 0 0 1 -6.77 6.77zm0-12.539a4.526 4.526 0 0 0 -.834.069 5.765 5.765 0 1 0 5.049 9.626 5.7 5.7 0 0 0 1.555-3.926 5.28 5.28 0 0 0 -.221-1.55 5.764 5.764 0 0 0 -5.549-4.219z" fill="#323c6b"/><path d="m38.093 10.432a2.43 2.43 0 1 1 -2.432-2.432 2.426 2.426 0 0 1 2.432 2.432z" fill="#fff"/><path d="m35.661 13.359a2.927 2.927 0 0 1 -2.928-2.927 2.9 2.9 0 0 1 .554-1.717 2.93 2.93 0 1 1 2.374 4.644zm0-4.859a1.93 1.93 0 1 0 1.932 1.932 1.934 1.934 0 0 0 -1.932-1.932z" fill="#323c6b"/><path d="m23.556 25.859a3.044 3.044 0 1 1 -3.047-3.047 3.039 3.039 0 0 1 3.047 3.047z" fill="#fff"/><path d="m20.51 29.4a3.539 3.539 0 0 1 -3.54-3.54 3.506 3.506 0 0 1 .67-2.077 3.543 3.543 0 1 1 2.87 5.617zm0-6.086a2.546 2.546 0 0 0 -2.065 4.026 2.544 2.544 0 1 0 2.065-4.026z" fill="#323c6b"/><path d="m29.4 58.86h-18.5l3.749-31.775.75 1.437a5.751 5.751 0 0 0 9.325 1.259l.724-.787zm-17.373-1h16.229l-3.533-26.714a6.754 6.754 0 0 1 -9.432-.981z" fill="#323c6b"/><path d="m26.277 25.108-.226-.817a5.758 5.758 0 0 0 -5.544-4.206 4.526 4.526 0 0 0 -.834.069l-1.733.322 13-11.789-.082 1.235c-.011.166-.021.331-.021.507a4.786 4.786 0 0 0 4.371 4.8l1.081.1zm-5.33-6.008a6.772 6.772 0 0 1 5.8 4.149l7.367-7.2a5.772 5.772 0 0 1 -4.253-5.038z" fill="#323c6b"/><path d="m39.35 13.657.463-.773a4.8 4.8 0 0 0 -.76-5.889l-.908-.9 17.355.583-.554.762a4.422 4.422 0 0 0 -.009 5.146l.55.772zm1.15-6.481a5.8 5.8 0 0 1 .559 5.449l12.607-.233a5.44 5.44 0 0 1 .012-4.774z" fill="#323c6b"/><path d="m62.928 23.116h-8.813l.539-10.07 7.734.025zm-7.758-1h6.7l-.432-8.048-5.84-.019z" fill="#323c6b"/><path d="m63.436 10.022a4.91 4.91 0 1 1 -4.914-4.914 4.9 4.9 0 0 1 4.914 4.914z" fill="#bbbbcd"/><path d="m58.521 15.425a5.4 5.4 0 0 1 -5.4-5.4 5.359 5.359 0 0 1 1.019-3.172 5.409 5.409 0 1 1 4.382 8.573zm0-9.818a4.414 4.414 0 0 0 -3.582 6.978 4.41 4.41 0 1 0 3.582-6.978z" fill="#323c6b"/><path d="m60.622 10.019a2.095 2.095 0 1 1 -2.1-2.1 2.092 2.092 0 0 1 2.1 2.1z" fill="#fff"/><path d="m58.524 12.611a2.59 2.59 0 0 1 -2.592-2.592 2.565 2.565 0 0 1 .49-1.521 2.594 2.594 0 1 1 2.1 4.113zm0-4.189a1.6 1.6 0 0 0 -1.295 2.524 1.6 1.6 0 1 0 1.295-2.524z" fill="#323c6b"/><path d="m66.717 42.591h-5.523v-1.791a2.673 2.673 0 1 0 -5.347 0v1.791h-5.522l-4.412-8.539a2.678 2.678 0 0 1 .313-3.163l8.2-8.772h8.191l8.2 8.772a2.69 2.69 0 0 1 .3 3.191zm-4.522-1h3.913l4.134-8a1.728 1.728 0 0 0 -.167-2.034l-7.891-8.442h-7.325l-7.895 8.447a1.714 1.714 0 0 0 -.179 2l4.148 8.026h3.913v-.788a3.673 3.673 0 1 1 7.347 0z" fill="#323c6b"/><path d="m58.532 65.427a3.677 3.677 0 0 1 -3.673-3.673v-.789h-6.016v-7h1.8a2.679 2.679 0 0 0 0-5.358h-1.8v-7h6v-.8a3.673 3.673 0 1 1 7.347 0v.8h6.017v19.358h-6v.789a3.66 3.66 0 0 1 -3.674 3.673zm-8.689-5.462h6.017v1.789a2.673 2.673 0 1 0 5.347 0v-1.789h6v-17.365h-6.013v-1.8a2.673 2.673 0 1 0 -5.347 0v1.8h-6v5h.8a3.679 3.679 0 0 1 0 7.358h-.8z" fill="#323c6b"/><path d="m25.9 61.083a.726.726 0 0 1 -.726.726h-7.682a.726.726 0 1 1 0-1.452h7.681a.726.726 0 0 1 .727.726z" fill="#fff"/><path d="m28.826 61.083a.726.726 0 0 1 -.726.726h-.38a.726.726 0 1 1 0-1.452h.38a.726.726 0 0 1 .726.726z" fill="#fff"/></svg>