<svg id="color_line" height="512" viewBox="0 0 74 74" width="512" xmlns="http://www.w3.org/2000/svg" data-name="color line"><path d="m32.333 20.813h9.335v2.882h-9.335z" fill="#bbbbcd"/><path d="m42.167 24.195h-10.334v-3.882h10.334zm-9.335-1h8.335v-1.882h-8.334z" fill="#323c6b"/><path d="m20.816 45.581a2.687 2.687 0 0 0 2.684-2.688v-16.277h-1.735a3.636 3.636 0 0 0 -3.636 3.636v12.641a2.687 2.687 0 0 0 2.687 2.688z" fill="#bbbbcd"/><path d="m20.816 46.081a3.191 3.191 0 0 1 -3.187-3.187v-12.642a4.141 4.141 0 0 1 4.136-4.136h2.235v16.778a3.191 3.191 0 0 1 -3.184 3.187zm.949-18.965a3.14 3.14 0 0 0 -3.136 3.136v12.642a2.187 2.187 0 0 0 4.375 0v-15.778z" fill="#323c6b"/><path d="m53.184 45.581a2.687 2.687 0 0 1 -2.684-2.688v-16.277h1.738a3.636 3.636 0 0 1 3.636 3.636v12.641a2.687 2.687 0 0 1 -2.69 2.688z" fill="#9297ab"/><path d="m53.184 46.081a3.191 3.191 0 0 1 -3.184-3.187v-16.778h2.238a4.141 4.141 0 0 1 4.136 4.136v12.642a3.191 3.191 0 0 1 -3.19 3.187zm-2.184-18.965v15.778a2.187 2.187 0 0 0 4.375 0v-12.642a3.14 3.14 0 0 0 -3.136-3.136z" fill="#323c6b"/><rect fill="#eeefee" height="18.063" rx="2.269" width="19.125" x="27.437" y="2.75"/><path d="m27.109 23.695h19.782a3.606 3.606 0 0 1 3.609 3.605v18.6a2.109 2.109 0 0 1 -2.113 2.1h-22.774a2.109 2.109 0 0 1 -2.113-2.1v-18.6a3.606 3.606 0 0 1 3.609-3.605z" fill="#eeefee"/><path d="m46.56 5.02v13.52a2.262 2.262 0 0 1 -2.27 2.27h-.86v-13.26a2.275 2.275 0 0 0 -2.27-2.27h-13.72v-.26a2.268 2.268 0 0 1 2.27-2.27h14.58a2.268 2.268 0 0 1 2.27 2.27z" fill="#e1e6e9"/><path d="m50.5 27.3v18.6a2.108 2.108 0 0 1 -2.11 2.1h-3.32a2.1 2.1 0 0 0 2.1-2.1v-18.6a3.606 3.606 0 0 0 -3.6-3.61h3.32a3.615 3.615 0 0 1 3.61 3.61z" fill="#e1e6e9"/><path d="m24 31.788h-6.371v-1.536a4.141 4.141 0 0 1 4.136-4.136h2.235zm-5.375-1h4.375v-3.672h-1.235a3.14 3.14 0 0 0 -3.136 3.136z" fill="#323c6b"/><path d="m18.129 35.35h5.375v1h-5.375z" fill="#323c6b"/><path d="m18.129 39.805h5.375v1h-5.375z" fill="#323c6b"/><path d="m50.497 35.35h5.375v1h-5.375z" fill="#323c6b"/><path d="m50.497 39.805h5.375v1h-5.375z" fill="#323c6b"/><path d="m56.371 31.788h-6.371v-5.672h2.238a4.141 4.141 0 0 1 4.136 4.136zm-5.375-1h4.375v-.536a3.14 3.14 0 0 0 -3.136-3.136h-1.235z" fill="#323c6b"/><circle cx="33.257" cy="10.218" fill="#d5d6db" r="1.831"/><path d="m33.257 12.55a2.332 2.332 0 1 1 2.332-2.332 2.334 2.334 0 0 1 -2.332 2.332zm0-3.663a1.332 1.332 0 1 0 1.332 1.332 1.333 1.333 0 0 0 -1.332-1.332z" fill="#323c6b"/><circle cx="40.743" cy="10.218" fill="#d5d6db" r="1.831"/><path d="m40.743 12.55a2.332 2.332 0 1 1 2.332-2.332 2.334 2.334 0 0 1 -2.332 2.332zm0-3.663a1.332 1.332 0 1 0 1.332 1.332 1.333 1.333 0 0 0 -1.332-1.332z" fill="#323c6b"/><path d="m34.338 15.73h5.324v1h-5.324z" fill="#323c6b"/><path d="m33.386 48v5.989a3.893 3.893 0 0 0 -5.715 0v-5.989z" fill="#eeefee"/><path d="m30.529 60.556a3.868 3.868 0 0 0 2.857-1.256v7.341a3.322 3.322 0 0 0 -1.061-.171h-3.6a3.347 3.347 0 0 0 -1.052.171v-7.341a3.868 3.868 0 0 0 2.856 1.256z" fill="#eeefee"/><path d="m35.773 69.915v.616h-10.489v-.616a3.439 3.439 0 0 1 1.993-3.123 2.214 2.214 0 0 1 .394-.154 3.347 3.347 0 0 1 1.052-.171h3.6a3.322 3.322 0 0 1 1.061.171 3.133 3.133 0 0 1 .394.154 3.448 3.448 0 0 1 1.995 3.123z" fill="#bbbbcd"/><path d="m36.273 71.031h-11.489v-1.116a3.944 3.944 0 0 1 2.284-3.577 2.621 2.621 0 0 1 .481-.185 3.768 3.768 0 0 1 1.173-.187h3.6a3.792 3.792 0 0 1 1.219.2 3.554 3.554 0 0 1 .447.175 3.964 3.964 0 0 1 2.281 3.576zm-10.489-1h9.489v-.116a2.959 2.959 0 0 0 -1.7-2.669 2.536 2.536 0 0 0 -.331-.129 2.832 2.832 0 0 0 -.913-.149h-3.6a2.862 2.862 0 0 0 -.894.146 1.842 1.842 0 0 0 -.34.133 2.941 2.941 0 0 0 -1.705 2.669z" fill="#323c6b"/><path d="m34.43 56.646a3.908 3.908 0 1 1 -1.044-2.652 3.874 3.874 0 0 1 1.044 2.652z" fill="#bbbbcd"/><path d="m30.528 61.056a4.422 4.422 0 1 1 3.225-1.418 4.373 4.373 0 0 1 -3.225 1.418zm0-7.811a3.407 3.407 0 1 0 2.493 1.091 3.394 3.394 0 0 0 -2.493-1.091z" fill="#323c6b"/><path d="m46.329 48v5.989a3.893 3.893 0 0 0 -5.715 0v-5.989z" fill="#eeefee"/><path d="m43.472 60.556a3.868 3.868 0 0 0 2.857-1.256v7.341a3.322 3.322 0 0 0 -1.061-.171h-3.6a3.347 3.347 0 0 0 -1.052.171v-7.341a3.868 3.868 0 0 0 2.856 1.256z" fill="#eeefee"/><path d="m33.39 48v5.99a3.87 3.87 0 0 0 -2.39-1.22v-4.77z" fill="#e1e6e9"/><path d="m33.39 59.3v7.34a3.409 3.409 0 0 0 -1.06-.17h-1.33v-5.94a3.882 3.882 0 0 0 2.39-1.23z" fill="#e1e6e9"/><path d="m46.33 48v5.99a3.871 3.871 0 0 0 -2.39-1.22v-4.77z" fill="#e1e6e9"/><path d="m46.33 59.3v7.34a3.362 3.362 0 0 0 -1.06-.17h-1.33v-5.94a3.856 3.856 0 0 0 2.39-1.23z" fill="#e1e6e9"/><path d="m48.716 69.915v.616h-10.489v-.616a3.439 3.439 0 0 1 1.993-3.123 2.214 2.214 0 0 1 .394-.154 3.347 3.347 0 0 1 1.052-.171h3.6a3.322 3.322 0 0 1 1.061.171 3.133 3.133 0 0 1 .394.154 3.448 3.448 0 0 1 1.995 3.123z" fill="#bbbbcd"/><path d="m49.216 71.031h-11.489v-1.116a3.944 3.944 0 0 1 2.284-3.577 2.649 2.649 0 0 1 .482-.185 3.782 3.782 0 0 1 1.173-.186h3.6a3.839 3.839 0 0 1 1.219.2 3.554 3.554 0 0 1 .447.175 3.964 3.964 0 0 1 2.281 3.576zm-10.489-1h9.489v-.116a2.959 2.959 0 0 0 -1.7-2.669 2.536 2.536 0 0 0 -.331-.129 2.829 2.829 0 0 0 -.913-.149h-3.6a2.862 2.862 0 0 0 -.894.146 1.835 1.835 0 0 0 -.34.133 2.941 2.941 0 0 0 -1.705 2.669z" fill="#323c6b"/><path d="m47.373 56.646a3.908 3.908 0 1 1 -1.044-2.652 3.874 3.874 0 0 1 1.044 2.652z" fill="#bbbbcd"/><path d="m43.472 61.056a4.423 4.423 0 1 1 3.228-1.418 4.37 4.37 0 0 1 -3.228 1.418zm0-7.811a3.4 3.4 0 1 0 3.4 3.4 3.36 3.36 0 0 0 -.909-2.31 3.4 3.4 0 0 0 -2.491-1.09z" fill="#323c6b"/><circle cx="37" cy="35.85" fill="#bbbbcd" r="6.896"/><path d="m43.9 35.85a6.885 6.885 0 0 1 -2.933 5.641 6.784 6.784 0 0 0 1.053-3.643 6.891 6.891 0 0 0 -10.874-5.63 6.893 6.893 0 0 1 12.754 3.632z" fill="#9297ab"/><g fill="#323c6b"><circle cx="37" cy="35.85" r="2.223"/><path d="m44.293 21.313h-14.586a2.772 2.772 0 0 1 -2.769-2.769v-13.525a2.772 2.772 0 0 1 2.769-2.769h14.586a2.772 2.772 0 0 1 2.769 2.769v13.524a2.772 2.772 0 0 1 -2.769 2.77zm-14.586-18.063a1.771 1.771 0 0 0 -1.769 1.769v13.524a1.771 1.771 0 0 0 1.769 1.769h14.586a1.771 1.771 0 0 0 1.769-1.769v-13.524a1.771 1.771 0 0 0 -1.769-1.769z"/><path d="m48.387 48.5h-22.774a2.612 2.612 0 0 1 -2.613-2.6v-18.6a4.11 4.11 0 0 1 4.106-4.106h19.785a4.11 4.11 0 0 1 4.109 4.106v18.6a2.612 2.612 0 0 1 -2.613 2.6zm-21.278-24.305a3.11 3.11 0 0 0 -3.109 3.105v18.6a1.611 1.611 0 0 0 1.613 1.6h22.774a1.611 1.611 0 0 0 1.613-1.6v-18.6a3.11 3.11 0 0 0 -3.106-3.106z"/><path d="m27.171 55.273v-7.773h6.715v7.768l-.868-.94a3.394 3.394 0 0 0 -4.98 0zm3.357-3.029a4.408 4.408 0 0 1 2.358.686v-4.43h-4.715v4.426a4.405 4.405 0 0 1 2.357-.681z"/><path d="m27.171 67.333v-9.326l.87.954a3.375 3.375 0 0 0 4.976 0l.87-.954v9.326l-.658-.22a2.82 2.82 0 0 0 -.9-.146h-3.6a2.862 2.862 0 0 0 -.894.146zm1-6.966v5.642a3.769 3.769 0 0 1 .552-.041h3.6a3.862 3.862 0 0 1 .561.04v-5.641a4.5 4.5 0 0 1 -4.713 0z"/><path d="m46.829 55.273-.868-.941a3.393 3.393 0 0 0 -4.979 0l-.868.941v-7.773h6.715zm-3.357-3.029a4.405 4.405 0 0 1 2.357.686v-4.43h-4.715v4.426a4.405 4.405 0 0 1 2.358-.681z"/><path d="m46.829 67.333-.658-.22a2.818 2.818 0 0 0 -.9-.146h-3.6a2.862 2.862 0 0 0 -.894.146l-.658.22v-9.327l.87.955a3.375 3.375 0 0 0 4.976 0l.87-.954zm-5.715-6.965v5.641a3.769 3.769 0 0 1 .552-.041h3.6a3.9 3.9 0 0 1 .561.041v-5.642a4.5 4.5 0 0 1 -4.713 0z"/><path d="m37 43.246a7.4 7.4 0 1 1 7.4-7.4 7.4 7.4 0 0 1 -7.4 7.4zm0-13.792a6.4 6.4 0 1 0 6.4 6.4 6.4 6.4 0 0 0 -6.4-6.4z"/></g></svg>