<svg id="color_line" height="512" viewBox="0 0 74 74" width="512" xmlns="http://www.w3.org/2000/svg" data-name="color line"><path d="m37 1.375a10.016 10.016 0 0 0 -10.016 10.016v10.825h20.032v-10.825a10.016 10.016 0 0 0 -10.016-10.016z" fill="#eeefee"/><rect fill="#eeefee" height="24.019" rx="3.606" width="31.551" x="21.225" y="25.586"/><path d="m47.02 11.39v10.83h-3.13v-8.64a10.009 10.009 0 0 0 -14.09-9.14 10.014 10.014 0 0 1 17.22 6.95z" fill="#e1e6e9"/><path d="m52.78 29.19v16.81a3.587 3.587 0 0 1 -3.13 3.56 3.3 3.3 0 0 0 .13-.95v-16.81a3.615 3.615 0 0 0 -3.61-3.61h-24.34a2.6 2.6 0 0 0 -.48.04 3.6 3.6 0 0 1 3.48-2.64h24.34a3.606 3.606 0 0 1 3.61 3.6z" fill="#e1e6e9"/><path d="m30.789 22.216h12.423v3.37h-12.423z" fill="#bbbbcd"/><path d="m43.711 26.085h-13.422v-4.37h13.422zm-12.423-1h11.423v-2.37h-11.422z" fill="#323c6b"/><path d="m18.992 27.471a3.2 3.2 0 1 0 0 6.4h2.232v-6.4z" fill="#bbbbcd"/><path d="m21.725 34.37h-2.732a3.7 3.7 0 1 1 0-7.4h2.732zm-2.732-6.4a2.7 2.7 0 1 0 0 5.4h1.732v-5.4z" fill="#323c6b"/><path d="m26.796 32.119h20.407v4.849h-20.407z" fill="#bbbbcd"/><path d="m47.7 37.468h-21.4v-5.849h21.4zm-20.407-1h19.407v-3.849h-19.4z" fill="#323c6b"/><path d="m30.289 32.119h1v4.849h-1z" fill="#323c6b"/><path d="m34.43 32.119h1v4.849h-1z" fill="#323c6b"/><path d="m38.57 32.119h1v4.849h-1z" fill="#323c6b"/><path d="m42.711 32.119h1v4.849h-1z" fill="#323c6b"/><path d="m14.149 39.828h-1v-7.759a1.9 1.9 0 0 1 1.9-1.9h.746v1h-.746a.9.9 0 0 0 -.9.9z" fill="#323c6b"/><path d="m16.994 42.642h-1a2.345 2.345 0 0 0 -4.69 0h-1a3.345 3.345 0 0 1 6.69 0z" fill="#323c6b"/><path d="m55.008 27.471a3.2 3.2 0 0 1 0 6.4h-2.233v-6.4z" fill="#bbbbcd"/><path d="m55.007 34.37h-2.732v-7.4h2.732a3.7 3.7 0 1 1 0 7.4zm-1.732-1h1.732a2.7 2.7 0 1 0 0-5.4h-1.732z" fill="#323c6b"/><path d="m60.851 39.828h-1v-7.759a.9.9 0 0 0 -.9-.9h-.746v-1h.746a1.9 1.9 0 0 1 1.9 1.9z" fill="#323c6b"/><path d="m63.7 42.642h-1a2.345 2.345 0 0 0 -4.69 0h-1a3.345 3.345 0 0 1 6.69 0z" fill="#323c6b"/><circle cx="37" cy="10.21" fill="#bbbbcd" r="4.316"/><path d="m37 15.025a4.816 4.816 0 1 1 4.816-4.816 4.821 4.821 0 0 1 -4.816 4.816zm0-8.631a3.816 3.816 0 1 0 3.816 3.815 3.82 3.82 0 0 0 -3.816-3.815z" fill="#323c6b"/><path d="m33.987 17.618h6.026v1h-6.026z" fill="#323c6b"/><path d="m36.992 49.6h10.675a0 0 0 0 1 0 0v18.134a3.266 3.266 0 0 1 -3.267 3.266h-4.142a3.266 3.266 0 0 1 -3.266-3.266v-18.134a0 0 0 0 1 0 0z" fill="#eeefee"/><path d="m47.67 49.6v18.13a3.271 3.271 0 0 1 -3.27 3.27h-3a3.271 3.271 0 0 0 3.27-3.27v-18.13z" fill="#e1e6e9"/><path d="m26.333 49.6h10.675a0 0 0 0 1 0 0v18.134a3.266 3.266 0 0 1 -3.266 3.266h-4.142a3.266 3.266 0 0 1 -3.266-3.266v-18.134a0 0 0 0 1 -.001 0z" fill="#eeefee"/><g fill="#323c6b"><path d="m33.743 71.5h-4.143a3.77 3.77 0 0 1 -3.766-3.766v-18.634h11.674v18.634a3.77 3.77 0 0 1 -3.765 3.766zm-6.91-21.4v17.634a2.769 2.769 0 0 0 2.767 2.766h4.144a2.769 2.769 0 0 0 2.766-2.766v-17.634z"/><path d="m26.333 55.75h10.675v1h-10.675z"/><path d="m26.333 62.5h10.675v1h-10.675z"/><path d="m36.975 55.75h10.675v1h-10.675z"/><path d="m36.975 62.5h10.675v1h-10.675z"/><path d="m50.143 12.924a.5.5 0 0 1 -.5-.5v-1.033a12.647 12.647 0 0 0 -2.238-7.191.5.5 0 0 1 .824-.566 13.645 13.645 0 0 1 2.413 7.76v1.033a.5.5 0 0 1 -.499.497z"/><path d="m50.143 15.568a.5.5 0 0 1 -.5-.5v-.633a.5.5 0 0 1 1 0v.633a.5.5 0 0 1 -.5.5z"/><path d="m21.224 52.011a.5.5 0 0 1 -.273-.082 7.375 7.375 0 0 1 -.626-.443.5.5 0 1 1 .632-.775 6.335 6.335 0 0 0 .541.382.5.5 0 0 1 -.274.918z"/><path d="m19.214 49.958a.5.5 0 0 1 -.426-.237 7.074 7.074 0 0 1 -1.063-3.721v-2.937a.5.5 0 0 1 1 0v2.937a6.081 6.081 0 0 0 .915 3.2.5.5 0 0 1 -.163.688.494.494 0 0 1 -.263.07z"/><circle cx="37" cy="10.214" r="1.085"/><path d="m47.516 22.716h-21.032v-11.325a10.516 10.516 0 0 1 21.031 0zm-20.031-1h19.031v-10.325a9.516 9.516 0 0 0 -19.031 0z"/><path d="m49.169 50.1h-24.338a4.11 4.11 0 0 1 -4.106-4.1v-16.809a4.11 4.11 0 0 1 4.106-4.106h24.338a4.11 4.11 0 0 1 4.106 4.106v16.809a4.11 4.11 0 0 1 -4.106 4.1zm-24.338-24.015a3.11 3.11 0 0 0 -3.106 3.106v16.809a3.109 3.109 0 0 0 3.106 3.1h24.338a3.109 3.109 0 0 0 3.106-3.1v-16.809a3.11 3.11 0 0 0 -3.106-3.106z"/><path d="m44.4 71.5h-4.142a3.77 3.77 0 0 1 -3.766-3.766v-18.634h11.675v18.634a3.77 3.77 0 0 1 -3.767 3.766zm-6.908-21.4v17.634a2.769 2.769 0 0 0 2.766 2.766h4.142a2.769 2.769 0 0 0 2.766-2.766v-17.634z"/></g></svg>