<svg id="color_line" height="512" viewBox="0 0 74 74" width="512" xmlns="http://www.w3.org/2000/svg" data-name="color line"><rect fill="#27ccbc" height="64.009" rx="7.188" width="64.009" x="5.009" y="4.907"/><path d="m69.02 12.09v49.64a7.18 7.18 0 0 1 -4.19 6.53 7.1 7.1 0 0 0 .56-2.77v-49.63a7.191 7.191 0 0 0 -7.19-7.19h-49.63a7.013 7.013 0 0 0 -3 .67 7.169 7.169 0 0 1 6.63-4.43h49.63a7.189 7.189 0 0 1 7.19 7.18z" fill="#21b3a9"/><path d="m12.539 12.438h48.948v48.948h-48.948z" fill="#fcd462" transform="matrix(0 -1 1 0 .102 73.925)"/><path d="m61.49 12.44v48.95h-3.63v-45.65h-45.32v-3.3z" fill="#f7be56"/><path d="m27.628 23.81h-5.705v-11.372a.5.5 0 0 1 1 0v10.372h4.705a.5.5 0 0 1 0 1z" fill="#323c6b"/><path d="m50.616 23.543a.5.5 0 0 1 -.5-.5v-4.961h11.372a.5.5 0 0 1 0 1h-10.372v3.961a.5.5 0 0 1 -.5.5z" fill="#323c6b"/><path d="m43.563 61.886a.5.5 0 0 1 -.5-.5v-10.372h-3.8a.5.5 0 0 1 0-1h4.8v11.372a.5.5 0 0 1 -.5.5z" fill="#323c6b"/><path d="m23.912 49.894h-11.372a.5.5 0 1 1 0-1h10.372v-5.346a.5.5 0 0 1 1 0z" fill="#323c6b"/><path d="m61.488 38.3h-23.456v-4.664a.5.5 0 0 1 1 0v3.664h22.456a.5.5 0 0 1 0 1z" fill="#323c6b"/><path d="m52.15 43.135a.5.5 0 0 1 -.5-.5v-4.835a.5.5 0 0 1 1 0v4.838a.5.5 0 0 1 -.5.497z" fill="#323c6b"/><circle cx="50.618" cy="25.918" fill="#eeefee" r="2.877"/><path d="m50.619 29.295a3.377 3.377 0 1 1 3.381-3.377 3.381 3.381 0 0 1 -3.381 3.377zm0-5.754a2.377 2.377 0 1 0 2.381 2.377 2.38 2.38 0 0 0 -2.381-2.377z" fill="#323c6b"/><circle cx="30.507" cy="23.307" fill="#89c5cd" r="2.877"/><path d="m30.506 26.684a3.377 3.377 0 1 1 3.377-3.377 3.381 3.381 0 0 1 -3.377 3.377zm0-5.754a2.377 2.377 0 1 0 2.377 2.377 2.38 2.38 0 0 0 -2.377-2.377z" fill="#323c6b"/><circle cx="38.535" cy="30.762" fill="#fe7058" r="2.877"/><path d="m38.535 34.139a3.377 3.377 0 1 1 3.377-3.377 3.381 3.381 0 0 1 -3.377 3.377zm0-5.754a2.377 2.377 0 1 0 2.377 2.377 2.38 2.38 0 0 0 -2.377-2.377z" fill="#323c6b"/><circle cx="52.153" cy="45.515" fill="#89c5cd" r="2.877"/><path d="m52.153 48.892a3.377 3.377 0 1 1 3.377-3.377 3.381 3.381 0 0 1 -3.377 3.377zm0-5.754a2.377 2.377 0 1 0 2.377 2.377 2.38 2.38 0 0 0 -2.377-2.377z" fill="#323c6b"/><circle cx="36.386" cy="50.517" fill="#eeefee" r="2.877"/><path d="m36.386 53.894a3.377 3.377 0 1 1 3.377-3.377 3.381 3.381 0 0 1 -3.377 3.377zm0-5.754a2.377 2.377 0 1 0 2.377 2.377 2.38 2.38 0 0 0 -2.377-2.377z" fill="#323c6b"/><circle cx="23.409" cy="40.674" fill="#fe7058" r="2.877"/><g fill="#323c6b"><path d="m23.409 44.051a3.377 3.377 0 1 1 3.377-3.377 3.381 3.381 0 0 1 -3.377 3.377zm0-5.754a2.377 2.377 0 1 0 2.377 2.377 2.38 2.38 0 0 0 -2.377-2.374z"/><path d="m71.842 52.434a.5.5 0 0 1 -.5-.5v-.608a.5.5 0 0 1 1 0v.608a.5.5 0 0 1 -.5.5z"/><path d="m2.618 9.369a.5.5 0 0 1 -.478-.648c.073-.236.149-.471.239-.7a.5.5 0 1 1 .932.362c-.081.208-.149.42-.215.634a.5.5 0 0 1 -.478.352z"/><path d="m4.056 6.505a.5.5 0 0 1 -.4-.8 10.132 10.132 0 0 1 8.121-4.125h1.863a.5.5 0 0 1 0 1h-1.866a9.129 9.129 0 0 0 -7.315 3.72.5.5 0 0 1 -.403.205z"/><path d="m71.842 49.767a.5.5 0 0 1 -.5-.5v-8.767a.5.5 0 0 1 1 0v8.766a.5.5 0 0 1 -.5.501z"/><path d="m61.988 61.886h-49.948v-49.948h49.948zm-48.948-1h47.948v-47.948h-47.948z"/><path d="m61.831 69.417h-49.631a7.7 7.7 0 0 1 -7.687-7.687v-49.635a7.7 7.7 0 0 1 7.687-7.688h49.631a7.7 7.7 0 0 1 7.688 7.687v49.635a7.7 7.7 0 0 1 -7.688 7.688zm-49.631-64.01a6.7 6.7 0 0 0 -6.687 6.687v49.635a6.7 6.7 0 0 0 6.687 6.688h49.631a6.7 6.7 0 0 0 6.688-6.687v-49.635a6.7 6.7 0 0 0 -6.687-6.687z"/></g><path d="m20.776 58.336a.615.615 0 0 1 .616-.614l7.956.01a.615.615 0 1 1 0 1.23l-7.956-.01a.615.615 0 0 1 -.616-.616z" fill="#fff"/><path d="m18.3 58.333a.615.615 0 0 1 .616-.614h.322a.615.615 0 1 1 0 1.23h-.322a.615.615 0 0 1 -.616-.616z" fill="#fff"/></svg>