<svg id="color_line" height="512" viewBox="0 0 74 74" width="512" xmlns="http://www.w3.org/2000/svg" data-name="color line"><path d="m20.318 8.958h4.458v5.521h-4.458z" fill="#eeefee"/><path d="m25.276 14.979h-5.458v-6.521h5.458zm-4.458-1h3.458v-4.521h-3.458z" fill="#323c6b"/><path d="m22.547 9.458a.5.5 0 0 1 -.5-.5v-5.958a.5.5 0 0 1 1 0v5.958a.5.5 0 0 1 -.5.5z" fill="#323c6b"/><path d="m34.771 8.958h4.458v5.521h-4.458z" fill="#eeefee"/><path d="m39.729 14.979h-5.458v-6.521h5.458zm-4.458-1h3.458v-4.521h-3.458z" fill="#323c6b"/><path d="m37 9.458a.5.5 0 0 1 -.5-.5v-5.958a.5.5 0 0 1 1 0v5.958a.5.5 0 0 1 -.5.5z" fill="#323c6b"/><path d="m49.224 8.958h4.458v5.521h-4.458z" fill="#eeefee"/><path d="m54.182 14.979h-5.458v-6.521h5.458zm-4.458-1h3.458v-4.521h-3.458z" fill="#323c6b"/><path d="m51.453 9.458a.5.5 0 0 1 -.5-.5v-5.958a.5.5 0 0 1 1 0v5.958a.5.5 0 0 1 -.5.5z" fill="#323c6b"/><path d="m49.224 59.521h4.458v5.521h-4.458z" fill="#eeefee" transform="matrix(-1 0 0 -1 102.906 124.563)"/><path d="m54.182 65.542h-5.458v-6.521h5.458zm-4.458-1h3.458v-4.521h-3.458z" fill="#323c6b"/><path d="m51.453 71.5a.5.5 0 0 1 -.5-.5v-5.958a.5.5 0 0 1 1 0v5.958a.5.5 0 0 1 -.5.5z" fill="#323c6b"/><path d="m34.771 59.521h4.458v5.521h-4.458z" fill="#eeefee" transform="matrix(-1 0 0 -1 74 124.563)"/><path d="m39.729 65.542h-5.458v-6.521h5.458zm-4.458-1h3.458v-4.521h-3.458z" fill="#323c6b"/><path d="m37 71.5a.5.5 0 0 1 -.5-.5v-5.958a.5.5 0 0 1 1 0v5.958a.5.5 0 0 1 -.5.5z" fill="#323c6b"/><path d="m20.318 59.521h4.458v5.521h-4.458z" fill="#eeefee" transform="matrix(-1 0 0 -1 45.094 124.563)"/><path d="m25.276 65.542h-5.458v-6.521h5.458zm-4.458-1h3.458v-4.521h-3.458z" fill="#323c6b"/><path d="m22.547 71.5a.5.5 0 0 1 -.5-.5v-5.958a.5.5 0 0 1 1 0v5.958a.5.5 0 0 1 -.5.5z" fill="#323c6b"/><path d="m9.489 48.693h4.458v5.521h-4.458z" fill="#eeefee" transform="matrix(0 -1 1 0 -39.735 63.172)"/><path d="m14.979 54.182h-6.521v-5.458h6.521zm-5.521-1h4.521v-3.458h-4.521z" fill="#323c6b"/><path d="m8.958 51.953h-5.958a.5.5 0 0 1 0-1h5.958a.5.5 0 1 1 0 1z" fill="#323c6b"/><path d="m9.489 34.239h4.458v5.521h-4.458z" fill="#eeefee" transform="matrix(0 -1 1 0 -25.282 48.718)"/><path d="m14.979 39.729h-6.521v-5.458h6.521zm-5.521-1h4.521v-3.458h-4.521z" fill="#323c6b"/><path d="m8.958 37.5h-5.958a.5.5 0 0 1 0-1h5.958a.5.5 0 1 1 0 1z" fill="#323c6b"/><path d="m9.489 19.786h4.458v5.521h-4.458z" fill="#eeefee" transform="matrix(0 -1 1 0 -10.828 34.265)"/><path d="m14.979 25.276h-6.521v-5.458h6.521zm-5.521-1h4.521v-3.458h-4.521z" fill="#323c6b"/><path d="m8.958 23.047h-5.958a.5.5 0 0 1 0-1h5.958a.5.5 0 1 1 0 1z" fill="#323c6b"/><path d="m60.052 19.786h4.458v5.521h-4.458z" fill="#eeefee" transform="matrix(0 1 -1 0 84.828 -39.735)"/><path d="m65.542 25.276h-6.521v-5.458h6.521zm-5.521-1h4.521v-3.458h-4.521z" fill="#323c6b"/><path d="m71 23.047h-5.958a.5.5 0 0 1 0-1h5.958a.5.5 0 0 1 0 1z" fill="#323c6b"/><path d="m60.052 34.239h4.458v5.521h-4.458z" fill="#eeefee" transform="matrix(0 1 -1 0 99.282 -25.282)"/><path d="m65.542 39.729h-6.521v-5.458h6.521zm-5.521-1h4.521v-3.458h-4.521z" fill="#323c6b"/><path d="m71 37.5h-5.958a.5.5 0 0 1 0-1h5.958a.5.5 0 0 1 0 1z" fill="#323c6b"/><path d="m60.052 48.693h4.458v5.521h-4.458z" fill="#eeefee" transform="matrix(0 1 -1 0 113.735 -10.828)"/><path d="m65.542 54.182h-6.521v-5.458h6.521zm-5.521-1h4.521v-3.458h-4.521z" fill="#323c6b"/><path d="m71 51.953h-5.958a.5.5 0 0 1 0-1h5.958a.5.5 0 0 1 0 1z" fill="#323c6b"/><path d="m14.479 14.479h45.042v45.042h-45.042z" fill="#27ccbc" transform="matrix(0 -1 1 0 0 74)"/><path d="m59.52 14.48v45.04h-3.36v-41.85h-41.68v-3.19z" fill="#21b3a9"/><path d="m51.2 36.3a5.958 5.958 0 0 1 .621 2.653 5.794 5.794 0 0 1 -3.951 5.486l.113 6.412-5.068 1.479-2.162-6.73a4.434 4.434 0 0 1 -3.7-2.066 5.838 5.838 0 0 1 -2.517.564 5.95 5.95 0 0 1 -4.29-1.829 6.094 6.094 0 0 1 -9.211-5.238 5.832 5.832 0 0 1 .892-3.149 4.408 4.408 0 0 1 -.26-1.546 4.952 4.952 0 0 1 3.341-4.7 5.539 5.539 0 0 1 5.272-3.906 3.945 3.945 0 0 1 .734.056 5.824 5.824 0 0 1 8.59-.44 5.745 5.745 0 0 1 2.641-.643 5.665 5.665 0 0 1 5.1 3.195 6.112 6.112 0 0 1 3.855 10.402z" fill="#fe7058"/><path d="m47.88 45.1.1 5.75-2.32.68-.09-4.96a5.653 5.653 0 0 0 2.31-1.47z" fill="#ea6453"/><path d="m51.2 36.3a6.008 6.008 0 0 1 .62 2.65 5.8 5.8 0 0 1 -3.16 5.16 5.778 5.778 0 0 0 .86-3.02 5.917 5.917 0 0 0 -.62-2.66 6.061 6.061 0 0 0 1.78-4.3 6.122 6.122 0 0 0 -5.63-6.09 5.67 5.67 0 0 0 -7.74-2.55 5.807 5.807 0 0 0 -8.59.44 3.6 3.6 0 0 0 -.73-.06 5.586 5.586 0 0 0 -2.45.57 5.52 5.52 0 0 1 4.74-2.7 4.406 4.406 0 0 1 .73.05 5.828 5.828 0 0 1 8.59-.44 5.815 5.815 0 0 1 2.64-.64 5.685 5.685 0 0 1 5.11 3.19 6.117 6.117 0 0 1 3.85 10.4z" fill="#ea6453"/><g fill="#323c6b"><path d="m27.406 46.609a.5.5 0 0 1 -.029-1c.212-.013.424-.025.635-.047a.5.5 0 0 1 .1 1c-.225.023-.451.037-.678.05z"/><path d="m24.875 46.336a.5.5 0 0 1 -.125-.016 9.573 9.573 0 0 1 -6.306-5.229.5.5 0 1 1 .905-.425 8.576 8.576 0 0 0 5.651 4.686.5.5 0 0 1 -.124.984z"/><path d="m48 22.416a.5.5 0 0 1 -.332-.125c-.165-.146-.336-.283-.511-.415a.5.5 0 1 1 .6-.8c.2.147.388.3.572.463a.5.5 0 0 1 -.332.875z"/><path d="m55.609 30.042a.5.5 0 0 1 -.48-.363 8.736 8.736 0 0 0 -5.007-5.64.5.5 0 0 1 .383-.924 9.745 9.745 0 0 1 5.585 6.285.5.5 0 0 1 -.344.618.492.492 0 0 1 -.137.024z"/><path d="m38.973 29.954a.5.5 0 0 1 -.259-.073c-1.462-.888-2.2-1.923-2.2-3.077.008-2.166 2.718-3.812 2.833-3.88a.5.5 0 0 1 .514.858c-.651.392-2.343 1.7-2.347 3.028 0 .778.575 1.523 1.716 2.217a.5.5 0 0 1 -.26.927z"/><path d="m34.145 29.986a4.619 4.619 0 0 1 -.57-.037.5.5 0 0 1 .124-.992 2.391 2.391 0 0 0 1.855-.426 3.158 3.158 0 0 0 .974-1.906.491.491 0 0 1 .544-.451.5.5 0 0 1 .451.544 4.111 4.111 0 0 1 -1.343 2.592 3.16 3.16 0 0 1 -2.035.676z"/><path d="m21.927 34.38a.5.5 0 0 1 -.377-.827 4.7 4.7 0 0 1 4.75-1.153.5.5 0 0 1 -.254.967 3.721 3.721 0 0 0 -3.741.843.5.5 0 0 1 -.378.17z"/><path d="m30.248 42.768a.5.5 0 0 1 -.37-.164 8.976 8.976 0 0 1 -2.063-3.342.5.5 0 0 1 .966-.262 8.216 8.216 0 0 0 1.837 2.93.5.5 0 0 1 -.37.836z"/><path d="m51.19 36.8a.5.5 0 0 1 -.452-.285 6.059 6.059 0 0 0 -6.2-3.584.5.5 0 0 1 -.147-.989 7.166 7.166 0 0 1 7.25 4.143.5.5 0 0 1 -.451.715z"/><path d="m37.053 44.037a.5.5 0 0 1 -.147-.978c2.931-.9 3.655-4.227 3.662-4.26a.5.5 0 0 1 .979.2c-.033.16-.842 3.938-4.348 5.015a.5.5 0 0 1 -.146.023z"/><path d="m35.33 38.346a.5.5 0 0 1 -.5-.437 4.115 4.115 0 0 1 .9-3.6 3.832 3.832 0 0 1 2.967-.923.5.5 0 0 1 -.13.992 2.864 2.864 0 0 0 -2.136.645 3.207 3.207 0 0 0 -.6 2.761.5.5 0 0 1 -.433.56.569.569 0 0 1 -.068.002z"/><path d="m60.021 60.021h-46.042v-46.042h46.042zm-45.042-1h44.042v-44.042h-44.042z"/><path d="m42.582 52.946-2.2-6.86a4.9 4.9 0 0 1 -3.509-1.928 6.428 6.428 0 0 1 -6.711-1.268 6.6 6.6 0 0 1 -9.63-5.856 6.372 6.372 0 0 1 .843-3.21 5.057 5.057 0 0 1 -.211-1.486 5.44 5.44 0 0 1 3.443-5.083 6 6 0 0 1 5.669-4.019c.2 0 .375.007.532.023a6.326 6.326 0 0 1 8.884-.505 6.19 6.19 0 0 1 7.973 2.68 6.645 6.645 0 0 1 5.802 6.566 6.57 6.57 0 0 1 -1.676 4.4 6.486 6.486 0 0 1 .525 2.557 6.279 6.279 0 0 1 -3.944 5.832l.113 6.438zm-5.346-10.052.237.375a3.908 3.908 0 0 0 3.284 1.831h.362l2.118 6.609 4.234-1.236-.112-6.4.348-.116a5.282 5.282 0 0 0 3.609-5.012 5.455 5.455 0 0 0 -.568-2.429l-.16-.32.252-.255a5.612 5.612 0 0 0 -3.533-9.541l-.287-.022-.125-.259a5.191 5.191 0 0 0 -7.064-2.319l-.322.166-.258-.255a5.324 5.324 0 0 0 -7.852.4l-.188.23-.292-.055a3.432 3.432 0 0 0 -.641-.047 5.069 5.069 0 0 0 -4.794 3.554l-.076.244-.242.082a4.438 4.438 0 0 0 -3 4.222 3.924 3.924 0 0 0 .228 1.372l.086.233-.133.21a5.341 5.341 0 0 0 -.813 2.881 5.594 5.594 0 0 0 8.454 4.809l.34-.2.276.285a5.438 5.438 0 0 0 3.93 1.669 5.375 5.375 0 0 0 2.3-.516z"/></g><path d="m27.545 56.4a.574.574 0 0 1 .575-.573l6.866.009a.574.574 0 0 1 0 1.149l-6.866-.009a.574.574 0 0 1 -.575-.576z" fill="#fff"/><path d="m25.23 56.4a.574.574 0 0 1 .575-.573h.3a.574.574 0 0 1 0 1.149h-.3a.574.574 0 0 1 -.575-.576z" fill="#fff"/></svg>