<svg id="color_line" height="512" viewBox="0 0 74 74" width="512" xmlns="http://www.w3.org/2000/svg" data-name="color line"><path d="m61.708 42.977a25.493 25.493 0 0 1 -3.007 7.26l5.6 7.543-6.522 6.52-7.532-5.6a24.851 24.851 0 0 1 -7.27 3.007l-1.362 9.293h-9.215l-1.372-9.3a25.492 25.492 0 0 1 -7.26-3.007l-7.543 5.6-6.525-6.514 5.6-7.543a25.491 25.491 0 0 1 -3.007-7.26l-9.293-1.376v-9.215l9.3-1.372a25.492 25.492 0 0 1 3.007-7.26l-5.607-7.543 6.516-6.516 7.543 5.6a25.494 25.494 0 0 1 7.26-3.007l1.381-9.287h9.219l1.362 9.292a24.851 24.851 0 0 1 7.27 3.007l7.532-5.6 6.527 6.516-5.6 7.543a25.494 25.494 0 0 1 3.007 7.26l9.283 1.367v9.215z" fill="#eeefee"/><path d="m16.22 9.69 7.07 5.26a24.2 24.2 0 0 0 -3.12 1.61l-6.2-4.62z" fill="#e1e6e9"/><path d="m42.98 12.29a24.6 24.6 0 0 1 6.2 2.39l-2.52 1.88a25.047 25.047 0 0 0 -7.27-3.01l-1.37-9.29h-5.81l.19-1.26h9.21z" fill="#e1e6e9"/><path d="m58.7 50.24 5.61 7.54-6.53 6.52-1.34-1 4.28-4.26-5.61-7.54a25.791 25.791 0 0 0 3.01-7.26l3.39-.5a25.628 25.628 0 0 1 -2.81 6.5z" fill="#e1e6e9"/><path d="m71 32.39v9.21l-3.59.53v-8.49l-9.29-1.37a25.548 25.548 0 0 0 -3.01-7.26l5.61-7.54-5.72-5.71 2.78-2.07 6.53 6.52-5.61 7.54a25.55 25.55 0 0 1 3.01 7.26z" fill="#e1e6e9"/><path d="m37 50.42a4.262 4.262 0 0 1 -4.426 4.08 4.353 4.353 0 0 1 -4.31-3.161 3.875 3.875 0 0 1 -3.7-3.734 3.282 3.282 0 0 1 .388-1.575 3.885 3.885 0 0 1 -3.78-3.73 3.347 3.347 0 0 1 .272-1.336 4.625 4.625 0 0 1 -2.356-3.964 4.738 4.738 0 0 1 3.352-4.414 3.379 3.379 0 0 1 -.117-.883 3.879 3.879 0 0 1 3.792-3.734 3.3 3.3 0 0 1 -.388-1.587 3.873 3.873 0 0 1 3.7-3.722 4.353 4.353 0 0 1 4.31-3.161c2.222.115 3.263 1.826 3.263 4.081z" fill="#fe7058"/><path d="m32.574 55a4.873 4.873 0 0 1 -4.7-3.2 4.319 4.319 0 0 1 -3.811-4.2 3.869 3.869 0 0 1 .175-1.167 4.336 4.336 0 0 1 -3.566-4.133 3.9 3.9 0 0 1 .165-1.132 5.066 5.066 0 0 1 -2.249-4.168 5.207 5.207 0 0 1 3.276-4.73 3.906 3.906 0 0 1 -.041-.566 4.34 4.34 0 0 1 3.577-4.142 3.931 3.931 0 0 1 -.175-1.178 4.312 4.312 0 0 1 3.818-4.184 4.872 4.872 0 0 1 4.7-3.2c2.365.121 3.761 1.833 3.761 4.58v26.84a4.768 4.768 0 0 1 -4.93 4.58zm1.139-35a3.835 3.835 0 0 0 -3.8 2.783l-.087.349-.358.029a3.4 3.4 0 0 0 -3.242 3.224 2.8 2.8 0 0 0 .328 1.348l.374.689-.783.048a3.4 3.4 0 0 0 -3.321 3.23 2.874 2.874 0 0 0 .1.752l.124.455-.447.15a4.248 4.248 0 0 0 -3.013 3.943 4.121 4.121 0 0 0 2.11 3.53l.379.225-.176.4a2.839 2.839 0 0 0 -.23 1.137 3.392 3.392 0 0 0 3.311 3.235l.782.049-.374.688a2.772 2.772 0 0 0 -.328 1.336 3.359 3.359 0 0 0 3.238 3.24l.358.029.087.349a3.844 3.844 0 0 0 3.829 2.782 3.769 3.769 0 0 0 3.926-3.58v-26.84c0-1.034-.271-3.451-2.787-3.58z" fill="#323c6b"/><path d="m28.045 29.664a.463.463 0 0 1 -.082-.007 2.751 2.751 0 0 1 -2.319-1.521.5.5 0 0 1 .94-.341c.019.043.306.673 1.542.876a.5.5 0 0 1 -.081.993z" fill="#323c6b"/><path d="m24.521 33.086a.5.5 0 0 1 -.142-.021 2.849 2.849 0 0 0 -1.75-.017.5.5 0 0 1 -.382-.924 3.84 3.84 0 0 1 2.416-.018.5.5 0 0 1 -.142.979z" fill="#323c6b"/><path d="m24.95 46.528a.491.491 0 0 1 -.193-.04.5.5 0 0 1 -.269-.648 3.843 3.843 0 0 1 1.84-1.77.5.5 0 1 1 .446.895 2.879 2.879 0 0 0 -1.363 1.259.5.5 0 0 1 -.461.304z" fill="#323c6b"/><path d="m28.353 51.829a.5.5 0 0 1 -.078-.994 2.76 2.76 0 0 0 1.606-1.052.5.5 0 1 1 .782.623 3.751 3.751 0 0 1 -2.231 1.416.484.484 0 0 1 -.079.007z" fill="#323c6b"/><path d="m32.026 26.147a.5.5 0 0 1 -.5-.447 2.734 2.734 0 0 0 -2.171-2.545.5.5 0 1 1 .143-.99 3.726 3.726 0 0 1 3.023 3.429.5.5 0 0 1 -.444.55z" fill="#323c6b"/><path d="m21.752 41.48a2.572 2.572 0 0 1 -.392-.026.5.5 0 0 1 -.41-.577.5.5 0 0 1 .573-.41 2.863 2.863 0 0 0 2.146-.715.5.5 0 0 1 .646.764 3.974 3.974 0 0 1 -2.563.964z" fill="#323c6b"/><path d="m33.409 38.759a.5.5 0 0 1 -.5-.5v-3.448l-1.757-1.411a.5.5 0 0 1 .626-.78l2.131 1.709v3.927a.5.5 0 0 1 -.5.503z" fill="#323c6b"/><path d="m33.877 42.465h-2.877a.5.5 0 1 1 0-1h2.88a.5.5 0 0 1 0 1z" fill="#323c6b"/><path d="m37 50.42a4.262 4.262 0 0 0 4.426 4.08 4.353 4.353 0 0 0 4.31-3.161 3.875 3.875 0 0 0 3.7-3.734 3.282 3.282 0 0 0 -.388-1.575 3.885 3.885 0 0 0 3.78-3.73 3.347 3.347 0 0 0 -.272-1.336 4.625 4.625 0 0 0 2.356-3.964 4.738 4.738 0 0 0 -3.352-4.414 3.379 3.379 0 0 0 .117-.883 3.879 3.879 0 0 0 -3.792-3.734 3.3 3.3 0 0 0 .388-1.587 3.873 3.873 0 0 0 -3.7-3.722 4.353 4.353 0 0 0 -4.31-3.161c-2.222.115-3.263 1.826-3.263 4.081z" fill="#fe7058"/><g fill="#323c6b"><path d="m41.426 55a4.768 4.768 0 0 1 -4.926-4.58v-26.84c0-2.747 1.4-4.458 3.735-4.579a4.881 4.881 0 0 1 4.72 3.2 4.312 4.312 0 0 1 3.815 4.181 3.931 3.931 0 0 1 -.175 1.178 4.34 4.34 0 0 1 3.581 4.14 3.906 3.906 0 0 1 -.041.566 5.207 5.207 0 0 1 3.277 4.734 5.066 5.066 0 0 1 -2.249 4.165 3.9 3.9 0 0 1 .165 1.132 4.336 4.336 0 0 1 -3.566 4.142 3.869 3.869 0 0 1 .175 1.167 4.319 4.319 0 0 1 -3.815 4.194 4.873 4.873 0 0 1 -4.696 3.2zm-1.165-35c-2.49.129-2.761 2.546-2.761 3.58v26.84a3.769 3.769 0 0 0 3.926 3.58 3.844 3.844 0 0 0 3.825-2.782l.087-.349.358-.029a3.359 3.359 0 0 0 3.241-3.24 2.772 2.772 0 0 0 -.328-1.336l-.374-.688.782-.049a3.392 3.392 0 0 0 3.311-3.227 2.839 2.839 0 0 0 -.23-1.137l-.176-.4.379-.225a4.121 4.121 0 0 0 2.111-3.538 4.248 4.248 0 0 0 -3.012-3.939l-.447-.15.124-.455a2.874 2.874 0 0 0 .1-.752 3.4 3.4 0 0 0 -3.323-3.235l-.783-.048.374-.689a2.8 2.8 0 0 0 .328-1.348 3.4 3.4 0 0 0 -3.242-3.224l-.358-.029-.087-.349a3.843 3.843 0 0 0 -3.825-2.782z"/><path d="m45.955 29.664a.5.5 0 0 1 -.081-.993c1.253-.206 1.531-.85 1.542-.877a.505.505 0 0 1 .643-.284.494.494 0 0 1 .3.626 2.751 2.751 0 0 1 -2.319 1.521.463.463 0 0 1 -.085.007z"/><path d="m51.56 33.086a.5.5 0 0 1 -.189-.037 2.863 2.863 0 0 0 -1.749.017.5.5 0 0 1 -.284-.959 3.836 3.836 0 0 1 2.416.018.5.5 0 0 1 -.193.961z"/><path d="m49.049 46.53a.5.5 0 0 1 -.461-.306 2.877 2.877 0 0 0 -1.363-1.259.5.5 0 1 1 .446-.895 3.843 3.843 0 0 1 1.84 1.77.5.5 0 0 1 -.462.69z"/><path d="m45.75 51.829a.484.484 0 0 1 -.079-.006 3.751 3.751 0 0 1 -2.231-1.416.5.5 0 1 1 .781-.624 2.767 2.767 0 0 0 1.607 1.052.5.5 0 0 1 -.078.994z"/><path d="m41.974 26.147h-.054a.5.5 0 0 1 -.444-.55 3.726 3.726 0 0 1 3.024-3.432.5.5 0 1 1 .143.99 2.722 2.722 0 0 0 -2.173 2.545.5.5 0 0 1 -.496.447z"/><path d="m52.248 41.48a3.971 3.971 0 0 1 -2.564-.964.5.5 0 1 1 .646-.764 2.862 2.862 0 0 0 2.147.715.506.506 0 0 1 .571.414.5.5 0 0 1 -.408.573 2.572 2.572 0 0 1 -.392.026z"/><path d="m40.591 38.759a.5.5 0 0 1 -.5-.5v-3.927l2.131-1.709a.5.5 0 1 1 .626.78l-1.757 1.409v3.448a.5.5 0 0 1 -.5.499z"/><path d="m43 42.465h-2.88a.5.5 0 0 1 0-1h2.88a.5.5 0 0 1 0 1z"/><path d="m31.373 30.383h-.055a.5.5 0 0 1 -.443-.551 2.176 2.176 0 0 0 -1.1-2.134.5.5 0 0 1 .454-.891 3.171 3.171 0 0 1 1.643 3.134.5.5 0 0 1 -.499.442z"/><path d="m42.767 30.383a.5.5 0 0 1 -.5-.446 3.171 3.171 0 0 1 1.647-3.137.5.5 0 0 1 .454.891 2.177 2.177 0 0 0 -1.1 2.135.5.5 0 0 1 -.443.551z"/><path d="m26.284 38.829a.5.5 0 0 1 -.433-.249 2.172 2.172 0 0 0 -2.151-1.066.5.5 0 0 1 -.572-.415.5.5 0 0 1 .41-.572 3.168 3.168 0 0 1 3.18 1.551.5.5 0 0 1 -.432.751z"/><path d="m41.062 48.46a.5.5 0 0 1 -.432-.751 3.171 3.171 0 0 1 3.18-1.55.5.5 0 0 1 -.162.987 2.177 2.177 0 0 0 -2.148 1.065.5.5 0 0 1 -.438.249z"/><path d="m31.465 48.46a.5.5 0 0 1 -.432-.751 3.171 3.171 0 0 1 3.18-1.55.5.5 0 0 1 -.162.987 2.177 2.177 0 0 0 -2.151 1.065.5.5 0 0 1 -.435.249z"/><path d="m46.847 39.049a.505.505 0 0 1 -.076-.006.5.5 0 0 1 -.418-.57 3.17 3.17 0 0 1 2.467-2.536.5.5 0 0 1 .206.979 2.182 2.182 0 0 0 -1.685 1.708.5.5 0 0 1 -.494.425z"/><path d="m15.883 68.907-3.408-3.407a.5.5 0 0 1 .707-.707l2.8 2.8 5.7-4.239a.5.5 0 1 1 .6.8z"/><path d="m11.4 64.338a.5.5 0 0 1 -.354-.146l-.5-.5a.5.5 0 0 1 .707-.707l.5.5a.5.5 0 0 1 -.354.854z"/><path d="m62 10.167a.5.5 0 0 1 -.353-.146l-3.628-3.621-2.97 2.21a.5.5 0 0 1 -.6-.8l3.662-2.724 4.236 4.229a.5.5 0 0 1 -.353.854z"/><path d="m63.771 11.9a.5.5 0 0 1 -.354-.146l-.417-.421a.5.5 0 1 1 .707-.708l.417.417a.5.5 0 0 1 -.354.854z"/><path d="m42.047 71.5h-10.083l-1.387-9.4a25.965 25.965 0 0 1 -6.784-2.81l-7.621 5.663-7.126-7.125 5.663-7.621a25.965 25.965 0 0 1 -2.81-6.784l-9.399-1.387v-10.082l9.4-1.386a25.975 25.975 0 0 1 2.81-6.785l-5.664-7.621 7.126-7.126 7.621 5.664a25.976 25.976 0 0 1 6.784-2.81l1.387-9.39h10.083l1.375 9.387a25.335 25.335 0 0 1 6.8 2.811l7.609-5.662 7.138 7.126-5.669 7.621a25.953 25.953 0 0 1 2.81 6.785l9.39 1.386v10.082l-9.388 1.387a25.976 25.976 0 0 1 -2.81 6.784l5.663 7.621-7.138 7.126-7.609-5.662a25.345 25.345 0 0 1 -6.8 2.811zm-9.219-1h8.355l1.348-9.211.331-.078a24.352 24.352 0 0 0 7.125-2.947l.288-.177 7.458 5.549 5.915-5.906-5.548-7.466.175-.288a24.966 24.966 0 0 0 2.948-7.118l.079-.328 9.2-1.359v-8.354l-9.2-1.358-.079-.328a24.981 24.981 0 0 0 -2.948-7.118l-.175-.288 5.547-7.466-5.915-5.906-7.458 5.547-.288-.177a24.344 24.344 0 0 0 -7.125-2.946l-.33-.078-1.348-9.199h-8.355l-1.359 9.2-.328.079a24.966 24.966 0 0 0 -7.118 2.948l-.288.175-7.467-5.548-5.906 5.906 5.548 7.466-.175.288a24.977 24.977 0 0 0 -2.948 7.118l-.079.328-9.208 1.357v8.355l9.209 1.359.079.328a24.977 24.977 0 0 0 2.948 7.118l.175.288-5.548 7.467 5.906 5.906 7.467-5.548.288.175a24.977 24.977 0 0 0 7.118 2.948l.328.079z"/></g><path d="m34.454 30.191a.574.574 0 0 1 -.573-.575l.009-6.076a.574.574 0 0 1 1.149 0l-.009 6.076a.574.574 0 0 1 -.576.575z" fill="#fff"/><path d="m34.451 32.506a.574.574 0 0 1 -.573-.575v-.3a.574.574 0 1 1 1.149 0v.3a.574.574 0 0 1 -.576.575z" fill="#fff"/></svg>