<svg id="color_line" height="512" viewBox="0 0 74 74" width="512" xmlns="http://www.w3.org/2000/svg" data-name="color line"><path d="m23.45 27.953a6.867 6.867 0 0 1 0-13.734z" fill="#eeefee"/><path d="m23.95 28.453h-.5a7.367 7.367 0 1 1 0-14.734h.5zm-1-13.715a6.367 6.367 0 0 0 0 12.7z" fill="#323c6b"/><path d="m29.828 11.9c4.454-4.26 10.578-6.45 17.334-6.45a28.919 28.919 0 0 1 4.788.38c13.872 2.284 21.398 17.409 16.183 30.47-.371.937-.733 1.884-1.067 2.839a29.068 29.068 0 0 0 -1.874 12.6 15.7 15.7 0 0 0 5.809 11l-29.24 5.811c-1.021-3.109-2.014-6.217-3.034-9.326a3.713 3.713 0 0 0 -.956-1.772 3.981 3.981 0 0 0 -2.7-.547c-1.707.065-3.415.1-5.085.065a8.122 8.122 0 0 1 -3.962-.752c-1.132-.687-2.227-2.6-1.4-3.619a1.9 1.9 0 0 0 0-1.949 13.248 13.248 0 0 1 -.993-1.809c-.306-1.2 1.364-1.568 1.976-1.874-.64.13-2.348-.278-2.487-1.3-.1-.65.445-1.3.371-1.949a2.292 2.292 0 0 0 -1.809-1.847c-.612-.167-1.262-.2-1.912-.371a1.915 1.915 0 0 1 -1.364-1.234 2.433 2.433 0 0 1 .445-1.772c.937-1.745 1.9-3.48 2.849-5.215" fill="#fcd462"/><path d="m66.164 15.25a20.774 20.774 0 0 0 -14.214-9.42 28.952 28.952 0 0 0 -4.79-.38 26.258 26.258 0 0 0 -12.82 3.14 27.733 27.733 0 0 1 8.83-1.39 28.953 28.953 0 0 1 4.79.38 20.658 20.658 0 0 1 12.963 7.67z" fill="#f7be56"/><path d="m65.19 51.74a29.164 29.164 0 0 1 1.88-12.6c.33-.95.69-1.9 1.06-2.84a23.171 23.171 0 0 0 1.65-9.3h-4.117a23.164 23.164 0 0 1 -1.523 11.05c-.37.94-.73 1.89-1.07 2.84a29.156 29.156 0 0 0 -1.87 12.6 16.094 16.094 0 0 0 4.88 10.23l4.92-.98a15.721 15.721 0 0 1 -5.81-11z" fill="#f7be56"/><path d="m66.4 15.611h-22.148v10.95h25.514a23.079 23.079 0 0 0 -3.366-10.95z" fill="#e1e6e9"/><path d="m39.49 15.611h4.76v10.951h-4.76z" fill="#bbbbcd" transform="matrix(-1 0 0 -1 83.74 42.172)"/><path d="m44.75 27.062h-5.76v-11.952h5.76zm-4.76-1h3.76v-9.952h-3.76z" fill="#323c6b"/><path d="m39.49 26.562-17.79 6.833v-24.617l17.79 6.833z" fill="#e1e6e9"/><path d="m69.74 26.38h-4.14a22.934 22.934 0 0 0 -2.51-7.81h-18.84v-2.96h22.15l.1.179a22.926 22.926 0 0 1 3.24 10.591z" fill="#d5d6db"/><path d="m39.49 15.61v2.96l-17.79-6.83v-2.96z" fill="#d5d6db"/><g fill="#323c6b"><path d="m6.211 30.935a.5.5 0 0 1 -.308-.895l7.027-5.477a.5.5 0 0 1 .615.789l-7.026 5.478a.5.5 0 0 1 -.308.105z"/><path d="m8.634 21.586h-5.634a.5.5 0 0 1 0-1h8.908a.5.5 0 1 1 0 1z"/><path d="m13.238 17.713a.5.5 0 0 1 -.308-.105l-7.03-5.476a.5.5 0 0 1 .615-.789l7.027 5.476a.5.5 0 0 1 -.308.895z"/><path d="m60.062 68.472a.5.5 0 0 1 -.1-.99l8.423-1.673a.5.5 0 1 1 .2.98l-8.425 1.673a.483.483 0 0 1 -.098.01z"/><path d="m57.5 69.062a.5.5 0 0 1 -.1-.99l.438-.087a.5.5 0 0 1 .2.98l-.438.087a.489.489 0 0 1 -.1.01z"/><path d="m37.125 4.6a.5.5 0 0 1 -.164-.973l.175-.063c.09-.033.18-.066.271-.1a.5.5 0 1 1 .311.95l-.429.154a.507.507 0 0 1 -.164.032z"/><path d="m40.687 3.626a.5.5 0 0 1 -.1-.989 32.186 32.186 0 0 1 6.576-.686c.705 0 1.438.029 2.373.093a.5.5 0 0 1 .464.533.515.515 0 0 1 -.533.465c-.912-.063-1.623-.091-2.3-.091a31.192 31.192 0 0 0 -6.371.665.5.5 0 0 1 -.109.01z"/><path d="m41.761 69.049a.5.5 0 0 1 -.475-.344q-.769-2.339-1.522-4.678-.753-2.324-1.512-4.648a3.3 3.3 0 0 0 -.806-1.547 3.582 3.582 0 0 0 -2.356-.432c-2.023.077-3.651.1-5.115.065a8.5 8.5 0 0 1 -4.212-.825 4.364 4.364 0 0 1 -1.89-2.729 1.973 1.973 0 0 1 .36-1.631 1.459 1.459 0 0 0 -.059-1.41 7.036 7.036 0 0 0 -.385-.65 5.24 5.24 0 0 1 -.638-1.233 1.561 1.561 0 0 1 .788-1.8 2.957 2.957 0 0 1 -.562-.31 1.693 1.693 0 0 1 -.754-1.148 2.49 2.49 0 0 1 .206-1.23 1.474 1.474 0 0 0 -1.28-2.15 8.684 8.684 0 0 0 -.911-.178c-.328-.052-.661-.106-.994-.191a2.378 2.378 0 0 1 -1.728-1.61 2.861 2.861 0 0 1 .5-2.125c.593-1.1 1.2-2.211 1.809-3.317l1.035-1.888a.5.5 0 0 1 .879.479l-1.039 1.9c-.606 1.1-1.213 2.208-1.809 3.317a2.057 2.057 0 0 0 -.4 1.4 1.434 1.434 0 0 0 1.04.892c.269.067.57.115.868.163a9.669 9.669 0 0 1 1.017.2 2.782 2.782 0 0 1 2.177 2.293 2.61 2.61 0 0 1 -.216 1.155 1.722 1.722 0 0 0 -.16.751.725.725 0 0 0 .344.479 2.522 2.522 0 0 0 1.549.408.5.5 0 0 1 .323.938c-.121.061-.279.124-.456.194-.93.368-1.38.641-1.26 1.11a4.49 4.49 0 0 0 .521.969 8.488 8.488 0 0 1 .436.741 2.383 2.383 0 0 1 -.057 2.484 1 1 0 0 0 -.155.833 3.387 3.387 0 0 0 1.426 2.046 7.616 7.616 0 0 0 3.634.677c1.524.035 3.129.013 5.135-.062a4.382 4.382 0 0 1 3.033.659 4.125 4.125 0 0 1 1.11 2.008q.762 2.317 1.512 4.646.688 2.126 1.383 4.253l27.758-5.514a16.391 16.391 0 0 1 -5.159-10.659 29.341 29.341 0 0 1 1.9-12.819c.336-.961.7-1.914 1.074-2.857a22.545 22.545 0 0 0 -1.274-19.534 20.486 20.486 0 0 0 -14.526-10.266 28.582 28.582 0 0 0 -4.707-.374 24.311 24.311 0 0 0 -16.987 6.31.5.5 0 0 1 -.691-.723 25.3 25.3 0 0 1 17.678-6.586 29.586 29.586 0 0 1 4.871.387 21.477 21.477 0 0 1 15.232 10.757 23.538 23.538 0 0 1 1.336 20.395c-.368.929-.729 1.87-1.061 2.819a28.375 28.375 0 0 0 -1.849 12.384 15.251 15.251 0 0 0 5.61 10.645.5.5 0 0 1 -.2.893l-29.242 5.809a.48.48 0 0 1 -.097.009z"/><path d="m21.2 34.122v-26.072l18.79 7.216v11.64zm1-24.617v23.162l16.79-6.449v-10.264z"/><path d="m70.3 27.061h-26.548v-11.95h22.924l.146.236a23.711 23.711 0 0 1 3.443 11.183zm-25.546-1h24.475a22.283 22.283 0 0 0 -3.111-9.95h-21.366z"/></g><path d="m58.325 29.368a.726.726 0 0 1 -.727.725l-7.681-.012a.726.726 0 0 1 0-1.452l7.681.012a.726.726 0 0 1 .727.727z" fill="#fff"/><path d="m61.252 29.372a.726.726 0 0 1 -.727.725h-.381a.726.726 0 1 1 0-1.452h.381a.726.726 0 0 1 .727.727z" fill="#fff"/></svg>