<svg id="color_line" height="512" viewBox="0 0 74 74" width="512" xmlns="http://www.w3.org/2000/svg" data-name="color line"><path d="m36.48 47.445h-28.414a2.828 2.828 0 0 1 -2.828-2.828v-38.789a2.828 2.828 0 0 1 2.828-2.828h53.479a2.828 2.828 0 0 1 2.828 2.828v38.829" fill="#e1e6e9"/><path d="m64.37 5.83v38.83l-3.39.34v-35.56a2.825 2.825 0 0 0 -2.82-2.83h-52.92v-.78a2.827 2.827 0 0 1 2.83-2.83h53.47a2.827 2.827 0 0 1 2.83 2.83z" fill="#d5d6db"/><path d="m31.7 37.088a12.253 12.253 0 1 1 10.133-12.07 12.2 12.2 0 0 1 -2.715 7.692" fill="#fcd462"/><path d="m41.84 25.02a12.189 12.189 0 0 1 -2.72 7.69l-1.08.64a12.249 12.249 0 0 0 -17.81-16.24 12.254 12.254 0 0 1 21.61 7.91z" fill="#f7be56"/><path d="m35.031 28.5a6.465 6.465 0 1 0 -5.924 2.962" fill="#eeefee"/><g fill="#323c6b"><path d="m29.107 31.963h-.036a6.961 6.961 0 1 1 6.38-3.19.5.5 0 0 1 -.842-.541 5.964 5.964 0 1 0 -5.468 2.734.5.5 0 0 1 -.034 1z"/><path d="m59.032 9.216h-4.314a.5.5 0 0 1 0-1h4.314a.5.5 0 0 1 0 1z"/><path d="m59.032 16.608h-4.314a.5.5 0 0 1 0-1h4.314a.5.5 0 0 1 0 1z"/><path d="m14.893 34.837h-4.315a.5.5 0 0 1 0-1h4.314a.5.5 0 1 1 0 1z"/><path d="m14.893 42.229h-4.315a.5.5 0 0 1 0-1h4.314a.5.5 0 0 1 0 1z"/><path d="m67.373 11.094a.5.5 0 0 1 -.5-.5v-4.766a5.268 5.268 0 0 0 -.611-2.471.5.5 0 1 1 .885-.465 6.332 6.332 0 0 1 .727 2.936v4.766a.5.5 0 0 1 -.501.5z"/><path d="m67.373 13.781a.5.5 0 0 1 -.5-.5v-.281a.5.5 0 0 1 1 0v.281a.5.5 0 0 1 -.5.5z"/><path d="m42.981 69.208a.5.5 0 0 1 -.454-.292l-.144-.312a.5.5 0 1 1 .908-.417l.144.313a.5.5 0 0 1 -.454.708z"/><path d="m41.762 66.563a.5.5 0 0 1 -.454-.291l-.229-.5-5.3-3.286a.5.5 0 0 1 .527-.85l5.559 3.444.356.771a.5.5 0 0 1 -.454.709z"/></g><path d="m58.247 31.374 10.053 21.803.461 7.945-21.419 9.878-3.527-7.648-15.844-9.816a1 1 0 0 1 -.337-1.382l2.53-4.2a1 1 0 0 1 1.382-.337l6.947 4.19-10.087-21.871a1.672 1.672 0 0 1 .813-2.221l2.981-1.375a1.667 1.667 0 0 1 2.217.824l3.667 7.952a1.674 1.674 0 0 1 .82-2.225l2.981-1.375a1.672 1.672 0 0 1 2.217.824l1.153 2.5a1.671 1.671 0 0 1 .817-2.214l2.981-1.375a1.671 1.671 0 0 1 2.214.817l.96 2.082a1.672 1.672 0 0 1 .813-2.221l2.981-1.375a1.674 1.674 0 0 1 2.226.82z" fill="#9297ab"/><path d="m68.76 61.12-21.42 9.88-.06-.14 18.38-8.48-.46-7.94-10.06-21.81a1.7 1.7 0 0 0 -1.5-.98l2.38-1.1a1.679 1.679 0 0 1 2.23.82l10.05 21.81z" fill="#84879c"/><path d="m57.983 36.929a.5.5 0 0 1 -.209-.954l2.14-.987a.5.5 0 1 1 .418.908l-2.14.987a.5.5 0 0 1 -.209.046z" fill="#323c6b"/><path d="m60.229 41.8a.5.5 0 0 1 -.209-.954l2.14-.986a.5.5 0 1 1 .418.908l-2.14.986a.5.5 0 0 1 -.209.046z" fill="#323c6b"/><path d="m30.722 35.225a.5.5 0 0 1 -.209-.954l2.14-.987a.5.5 0 1 1 .418.908l-2.14.987a.5.5 0 0 1 -.209.046z" fill="#323c6b"/><path d="m32.967 40.093a.5.5 0 0 1 -.209-.954l2.14-.987a.5.5 0 1 1 .418.908l-2.14.987a.5.5 0 0 1 -.209.046z" fill="#323c6b"/><path d="m32.389 56.743a.5.5 0 0 1 -.43-.755l1.2-2.026a.5.5 0 0 1 .859.511l-1.2 2.026a.5.5 0 0 1 -.429.244z" fill="#323c6b"/><path d="m37.712 60.091a.5.5 0 0 1 -.43-.755l1.2-2.026a.5.5 0 0 1 .859.511l-1.2 2.026a.5.5 0 0 1 -.429.244z" fill="#323c6b"/><path d="m62.474 46.666a.5.5 0 0 1 -.209-.954l2.14-.987a.5.5 0 1 1 .418.908l-2.14.987a.5.5 0 0 1 -.209.046z" fill="#323c6b"/><circle cx="52.634" cy="52.585" fill="#e1e6e9" r="6.913"/><path d="m59.55 52.58a6.855 6.855 0 0 1 -2.68 5.45 6.818 6.818 0 0 0 1.15-3.81 6.914 6.914 0 0 0 -6.91-6.92 6.844 6.844 0 0 0 -4.21 1.44 6.907 6.907 0 0 1 12.65 3.84z" fill="#d5d6db"/><circle cx="52.634" cy="52.585" fill="#9297ab" r="3.293"/><path d="m52.635 56.377a3.793 3.793 0 1 1 3.793-3.793 3.8 3.8 0 0 1 -3.793 3.793zm0-6.586a2.793 2.793 0 1 0 2.793 2.793 2.8 2.8 0 0 0 -2.793-2.792z" fill="#323c6b"/><path d="m41.752 43.568a.5.5 0 0 1 -.454-.291l-3.667-7.952a.5.5 0 0 1 .908-.419l3.667 7.952a.5.5 0 0 1 -.454.709z" fill="#323c6b"/><path d="m48.968 43.389a.5.5 0 0 1 -.454-.291l-3.714-8.049a.5.5 0 0 1 .908-.419l3.711 8.049a.5.5 0 0 1 -.454.709z" fill="#323c6b"/><path d="m55.878 42.564a.5.5 0 0 1 -.454-.291l-3.667-7.952a.5.5 0 0 1 .908-.419l3.667 7.952a.5.5 0 0 1 -.454.709z" fill="#323c6b"/><path d="m36.479 47.945h-28.414a3.332 3.332 0 0 1 -3.328-3.328v-38.789a3.332 3.332 0 0 1 3.328-3.328h53.48a3.332 3.332 0 0 1 3.328 3.328v38.829a.5.5 0 0 1 -1 0v-38.829a2.331 2.331 0 0 0 -2.328-2.328h-53.48a2.331 2.331 0 0 0 -2.328 2.328v38.789a2.331 2.331 0 0 0 2.328 2.328h28.414a.5.5 0 0 1 0 1z" fill="#323c6b"/><path d="m29.585 37.77a12.752 12.752 0 1 1 9.926-4.746.5.5 0 1 1 -.777-.628 11.722 11.722 0 1 0 -7.116 4.2.5.5 0 0 1 .172.985 12.925 12.925 0 0 1 -2.205.189z" fill="#323c6b"/><path d="m47.342 71.5a.5.5 0 0 1 -.454-.291l-3.463-7.509-15.718-9.739a1.5 1.5 0 0 1 -.5-2.068l2.528-4.193a1.5 1.5 0 0 1 2.072-.5l5.55 3.347-9.405-20.4a2.172 2.172 0 0 1 1.057-2.885l2.982-1.375a2.175 2.175 0 0 1 2.881 1.068l2.9 6.291a2.165 2.165 0 0 1 .924-.807l2.981-1.375a2.172 2.172 0 0 1 2.88 1.068l.388.841a2.152 2.152 0 0 1 .919-.8l2.982-1.373a2.172 2.172 0 0 1 2.877 1.062l.191.416a2.147 2.147 0 0 1 .919-.8l2.981-1.378a2.172 2.172 0 0 1 2.886 1.065l10.055 21.8a.5.5 0 0 1 .045.181l.461 7.945a.5.5 0 0 1 -.29.483l-21.42 9.88a.5.5 0 0 1 -.209.046zm-16.321-23.529a.5.5 0 0 0 -.429.244l-2.528 4.2a.5.5 0 0 0 .166.7l15.85 9.82a.5.5 0 0 1 .19.215l3.317 7.193 20.657-9.526-.437-7.51-10.014-21.724a1.172 1.172 0 0 0 -1.56-.575l-2.982 1.375a1.155 1.155 0 0 0 -.605.657 1.171 1.171 0 0 0 .037.9.5.5 0 0 1 -.908.419l-.96-2.082a1.17 1.17 0 0 0 -1.55-.572l-2.983 1.375a1.169 1.169 0 0 0 -.573 1.546.5.5 0 1 1 -.908.419l-1.153-2.5a1.17 1.17 0 0 0 -.661-.613 1.146 1.146 0 0 0 -.892.034l-2.982 1.375a1.178 1.178 0 0 0 -.575 1.561.5.5 0 0 1 -.908.419l-3.667-7.953a1.172 1.172 0 0 0 -1.555-.579l-2.981 1.375a1.157 1.157 0 0 0 -.6.657 1.171 1.171 0 0 0 .037.9l10.083 21.879a.5.5 0 0 1 -.712.638l-6.947-4.19a.508.508 0 0 0 -.267-.077z" fill="#323c6b"/><path d="m52.635 60a7.413 7.413 0 1 1 7.412-7.413 7.421 7.421 0 0 1 -7.412 7.413zm0-13.825a6.413 6.413 0 1 0 6.412 6.413 6.42 6.42 0 0 0 -6.412-6.416z" fill="#323c6b"/><path d="m59.073 62.073a.726.726 0 0 1 -.363.96l-7 3.158a.726.726 0 0 1 -.6-1.324l7-3.158a.726.726 0 0 1 .963.364z" fill="#fff"/><path d="m61.741 60.87a.726.726 0 0 1 -.363.96l-.347.156a.726.726 0 0 1 -.6-1.324l.347-.156a.726.726 0 0 1 .963.364z" fill="#fff"/></svg>