<svg id="color_line" height="512" viewBox="0 0 74 74" width="512" xmlns="http://www.w3.org/2000/svg" data-name="color line"><path d="m50.227 42.068 18.311 16.2a7.275 7.275 0 1 1 -10.268 10.273l-16.214-18.319" fill="#9297ab"/><circle cx="28.524" cy="28.524" fill="#9297ab" r="25.524" transform="matrix(.707 -.707 .707 .707 -11.815 28.524)"/><path d="m50.227 42.068 18.311 16.2a7.275 7.275 0 1 1 -10.268 10.273l-16.214-18.319" fill="#9297ab"/><path d="m68.87 68.86a7.5 7.5 0 0 1 -1.58 1.2 7.257 7.257 0 0 0 -1.34-9.34l-18.24-16.14 2.52-2.51 18.31 16.2a7.268 7.268 0 0 1 .33 10.59z" fill="#84879c"/><path d="m46.57 46.57c-.57.57-1.17 1.11-1.78 1.61a25.525 25.525 0 0 0 -34.96-37.01c.2-.23.42-.46.65-.69a25.52 25.52 0 0 1 36.09 36.09z" fill="#84879c"/><path d="m6.8 10.8a.5.5 0 0 1 -.4-.806l.15-.207c.073-.1.146-.2.226-.3a.5.5 0 1 1 .777.628c-.066.083-.127.168-.188.254s-.113.16-.174.238a.5.5 0 0 1 -.391.193z" fill="#323c6b"/><path d="m8.466 8.75a.5.5 0 0 1 -.352-.855 28.95 28.95 0 0 1 8.186-5.7.5.5 0 0 1 .422.907 27.955 27.955 0 0 0 -7.9 5.506.5.5 0 0 1 -.356.142z" fill="#323c6b"/><path d="m59.349 73.51a.5.5 0 0 1 -.212-.047 10.673 10.673 0 0 1 -3.486-2.6l-2.051-2.316a.5.5 0 1 1 .748-.663l2.052 2.316a9.692 9.692 0 0 0 3.162 2.357.5.5 0 0 1 -.212.953z" fill="#323c6b"/><path d="m52.508 67.059a.5.5 0 0 1 -.374-.168l-.372-.42a.5.5 0 1 1 .748-.663l.372.42a.5.5 0 0 1 -.374.832z" fill="#323c6b"/><path d="m50.227 42.068 18.311 16.2a7.275 7.275 0 1 1 -10.268 10.273l-16.214-18.319" fill="none"/><path d="m63.731 71.5c-.08 0-.161 0-.241 0a7.716 7.716 0 0 1 -5.59-2.627l-16.218-18.32a.5.5 0 1 1 .748-.663l16.214 18.32a6.728 6.728 0 0 0 4.877 2.29 6.808 6.808 0 0 0 5-1.986 6.766 6.766 0 0 0 -.309-9.862l-18.312-16.21a.5.5 0 0 1 .662-.749l18.307 16.207a7.775 7.775 0 0 1 -5.138 13.6z" fill="#323c6b"/><path d="m28.523 54.536a26.018 26.018 0 1 1 18.4-44.413 26.011 26.011 0 0 1 -18.4 44.413zm0-51.023a25 25 0 1 0 17.695 7.317 24.944 24.944 0 0 0 -17.695-7.317z" fill="#323c6b"/><circle cx="28.524" cy="28.524" fill="#89c5cd" r="19.837" transform="matrix(.707 -.707 .707 .707 -11.815 28.524)"/><g fill="#eeefee" opacity=".4"><path d="m27.258 8.727-11.4 35.057a12.026 12.026 0 0 1 -1-.89l11.059-34.03c.451-.064.891-.108 1.341-.137z"/><path d="m38.51 11.388-11.986 36.877a19.383 19.383 0 0 1 -3.933-.812l12.259-37.728a18.89 18.89 0 0 1 3.66 1.663z"/><path d="m32.307 9.05-12.172 37.45a19.386 19.386 0 0 1 -2.446-1.36l11.839-36.433a20.347 20.347 0 0 1 2.779.343z"/></g><path d="m40.681 27.925a5.1 5.1 0 0 1 .532 2.272 4.962 4.962 0 0 1 -3.384 4.7l-.029 4.557-4.344 1.266-1.718-4.829a3.8 3.8 0 0 1 -3.171-1.769 5 5 0 0 1 -2.156.483 5.1 5.1 0 0 1 -3.674-1.566 5.219 5.219 0 0 1 -7.889-4.486 5 5 0 0 1 .764-2.7 3.775 3.775 0 0 1 -.222-1.324 4.241 4.241 0 0 1 2.862-4.022 4.743 4.743 0 0 1 4.515-3.345 3.378 3.378 0 0 1 .628.048 4.988 4.988 0 0 1 7.357-.377 4.92 4.92 0 0 1 2.262-.551 4.852 4.852 0 0 1 4.37 2.736 5.235 5.235 0 0 1 3.3 8.9z" fill="#fe7058"/><path d="m35.99 36.99a4.954 4.954 0 0 0 1.83-1.1l-.02 3.56-1.83.54z" fill="#ea6453"/><path d="m40.68 27.93a5.025 5.025 0 0 1 .53 2.27 4.954 4.954 0 0 1 -2.31 4.19 4.8 4.8 0 0 0 .48-2.1 5.193 5.193 0 0 0 -.53-2.27 5.246 5.246 0 0 0 -3.3-8.91 4.878 4.878 0 0 0 -6.63-2.18 4.989 4.989 0 0 0 -7.36.38 3.279 3.279 0 0 0 -.63-.05 4.648 4.648 0 0 0 -2.47.7 4.752 4.752 0 0 1 4.31-2.8 3.18 3.18 0 0 1 .62.05 5 5 0 0 1 3.86-1.81 4.934 4.934 0 0 1 3.5 1.44 4.9 4.9 0 0 1 2.26-.55 4.844 4.844 0 0 1 4.37 2.73 5.237 5.237 0 0 1 3.3 8.91z" fill="#ea6453"/><g fill="#323c6b"><path d="m30.214 22.561a.5.5 0 0 1 -.26-.073 3.268 3.268 0 0 1 -1.916-2.7c.007-1.9 2.361-3.325 2.461-3.385a.5.5 0 0 1 .514.858c-.548.33-1.973 1.428-1.975 2.532 0 .639.481 1.257 1.436 1.836a.5.5 0 0 1 -.26.927z"/><path d="m26.079 22.589a4.02 4.02 0 0 1 -.5-.032.5.5 0 0 1 .125-.992 1.99 1.99 0 0 0 1.534-.349 2.616 2.616 0 0 0 .807-1.583.511.511 0 0 1 .545-.451.5.5 0 0 1 .451.544 3.6 3.6 0 0 1 -1.177 2.274 2.771 2.771 0 0 1 -1.785.589z"/><path d="m15.615 26.354a.5.5 0 0 1 -.377-.829 4.093 4.093 0 0 1 4.137-1.007.5.5 0 1 1 -.254.967 3.115 3.115 0 0 0 -3.129.7.5.5 0 0 1 -.377.169z"/><path d="m22.741 33.536a.5.5 0 0 1 -.37-.164 7.77 7.77 0 0 1 -1.783-2.892.5.5 0 0 1 .966-.26 6.993 6.993 0 0 0 1.557 2.48.5.5 0 0 1 -.37.836z"/><path d="m40.676 28.428a.5.5 0 0 1 -.451-.285 5.114 5.114 0 0 0 -5.234-3.03.5.5 0 0 1 -.146-.989 6.207 6.207 0 0 1 6.283 3.588.5.5 0 0 1 -.451.715z"/><path d="m28.569 34.623a.5.5 0 0 1 -.146-.978 5.041 5.041 0 0 0 3.086-3.594.5.5 0 0 1 .98.2 6 6 0 0 1 -3.773 4.35.491.491 0 0 1 -.147.022z"/><path d="m27.093 29.749a.5.5 0 0 1 -.5-.437 3.592 3.592 0 0 1 .788-3.144 3.359 3.359 0 0 1 2.6-.811.5.5 0 0 1 -.13.992 2.363 2.363 0 0 0 -1.77.532 2.682 2.682 0 0 0 -.5 2.3.5.5 0 0 1 -.433.56.571.571 0 0 1 -.055.008z"/><path d="m33.144 41.333-1.765-4.958a4.263 4.263 0 0 1 -2.986-1.633 5.579 5.579 0 0 1 -5.736-1.085 5.72 5.72 0 0 1 -8.308-5.1 5.528 5.528 0 0 1 .717-2.758 4.39 4.39 0 0 1 -.176-1.263 4.731 4.731 0 0 1 2.965-4.408 5.207 5.207 0 0 1 4.912-3.458c.123 0 .27 0 .427.017a5.49 5.49 0 0 1 7.65-.442 5.373 5.373 0 0 1 6.86 2.313 5.764 5.764 0 0 1 4.994 5.69 5.7 5.7 0 0 1 -1.424 3.779 5.609 5.609 0 0 1 .438 2.176 5.451 5.451 0 0 1 -3.387 5.047l-.032 4.585zm-4.391-7.853.237.375a3.275 3.275 0 0 0 2.752 1.537h.35l1.677 4.714 3.531-1.03.032-4.543.338-.114a4.452 4.452 0 0 0 3.043-4.219 4.6 4.6 0 0 0 -.479-2.048l-.16-.32.252-.255a4.707 4.707 0 0 0 1.374-3.335 4.755 4.755 0 0 0 -4.354-4.722l-.286-.022-.125-.259a4.375 4.375 0 0 0 -5.953-1.958l-.322.166-.258-.255a4.489 4.489 0 0 0 -6.619.338l-.188.231-.295-.061a2.87 2.87 0 0 0 -.533-.039 4.271 4.271 0 0 0 -4.037 2.993l-.075.244-.242.082a3.73 3.73 0 0 0 -2.522 3.548 3.3 3.3 0 0 0 .191 1.15l.087.233-.134.21a4.5 4.5 0 0 0 -.686 2.428 4.718 4.718 0 0 0 7.131 4.057l.341-.2.275.285a4.592 4.592 0 0 0 3.315 1.415 4.529 4.529 0 0 0 1.94-.435z"/><path d="m28.523 48.861a20.337 20.337 0 1 1 14.377-34.717 20.337 20.337 0 0 1 -14.377 34.717zm0-39.674a19.337 19.337 0 1 0 13.677 5.664 19.209 19.209 0 0 0 -13.677-5.663z"/></g><path d="m49.991 64.278a.726.726 0 0 1 -1.027 0l-5.432-5.432a.726.726 0 1 1 1.027-1.027l5.432 5.432a.726.726 0 0 1 0 1.027z" fill="#fff"/><path d="m52.06 66.347a.726.726 0 0 1 -1.027 0l-.269-.269a.726.726 0 1 1 1.027-1.027l.269.269a.726.726 0 0 1 0 1.027z" fill="#fff"/><path d="m9.851 41.684a.6.6 0 0 1 -.5-.265 22.953 22.953 0 0 1 -3.177-7.059.6.6 0 0 1 1.162-.3 21.742 21.742 0 0 0 3.011 6.691.6.6 0 0 1 -.5.935z" fill="#fff"/><path d="m6.226 32.142a.6.6 0 0 1 -.594-.519l-.04-.262c-.024-.155-.049-.31-.064-.465a.6.6 0 0 1 1.193-.123c.014.134.035.267.057.4l.044.289a.6.6 0 0 1 -.514.676.661.661 0 0 1 -.082.004z" fill="#fff"/></svg>