<svg id="color_line" height="512" viewBox="0 0 74 74" width="512" xmlns="http://www.w3.org/2000/svg" data-name="color line"><path d="m41.336 46.8 1.119 18.344a5.468 5.468 0 1 1 -10.914 0l1.119-18.353" fill="#9297ab"/><circle cx="37" cy="28.063" fill="#9297ab" r="19.183"/><path d="m37 70.94a5.459 5.459 0 0 1 -2.5-.6 5.459 5.459 0 0 0 4.75-5.76l-1.09-17.78h3.18l1.12 18.34a5.468 5.468 0 0 1 -5.46 5.8z" fill="#84879c"/><path d="m51.72 40.36a19.175 19.175 0 0 0 -31.4-21.75 19.177 19.177 0 1 1 31.4 21.75z" fill="#84879c"/><path d="m12.976 27.563h4.841v1h-4.841z" fill="#323c6b"/><circle cx="10.137" cy="28.063" fill="#27ccbc" r="2.838"/><path d="m10.137 31.4a3.339 3.339 0 1 1 3.338-3.338 3.342 3.342 0 0 1 -3.338 3.338zm0-5.677a2.339 2.339 0 1 0 2.338 2.339 2.341 2.341 0 0 0 -2.338-2.337z" fill="#323c6b"/><path d="m21.027 17.939h-12.677l-2.371-5.051.905-.425 2.102 4.476h12.041z" fill="#323c6b"/><circle cx="5.838" cy="9.895" fill="#fe7058" r="2.838"/><path d="m5.838 13.233a3.339 3.339 0 1 1 3.339-3.333 3.342 3.342 0 0 1 -3.339 3.333zm0-5.677a2.339 2.339 0 1 0 2.339 2.344 2.341 2.341 0 0 0 -2.339-2.344z" fill="#323c6b"/><path d="m6.884 43.664-.905-.425 2.371-5.051h12.677v1h-12.041z" fill="#323c6b"/><circle cx="5.838" cy="46.232" fill="#fcd462" r="2.838"/><path d="m5.838 49.57a3.339 3.339 0 1 1 3.338-3.338 3.342 3.342 0 0 1 -3.338 3.338zm0-5.677a2.339 2.339 0 1 0 2.338 2.339 2.341 2.341 0 0 0 -2.338-2.339z" fill="#323c6b"/><path d="m56.183 27.563h4.841v1h-4.841z" fill="#323c6b"/><circle cx="63.863" cy="28.063" fill="#fe7058" r="2.838"/><path d="m63.863 31.4a3.339 3.339 0 1 1 3.337-3.337 3.342 3.342 0 0 1 -3.337 3.337zm0-5.677a2.339 2.339 0 1 0 2.337 2.34 2.341 2.341 0 0 0 -2.337-2.338z" fill="#323c6b"/><path d="m65.65 17.939h-12.677v-1h12.041l2.102-4.476.905.425z" fill="#323c6b"/><circle cx="68.162" cy="9.895" fill="#fcd462" r="2.838"/><path d="m68.162 13.233a3.339 3.339 0 1 1 3.338-3.333 3.342 3.342 0 0 1 -3.338 3.333zm0-5.677a2.339 2.339 0 1 0 2.338 2.344 2.341 2.341 0 0 0 -2.338-2.344z" fill="#323c6b"/><path d="m67.116 43.664-2.102-4.476h-12.041v-1h12.677l2.371 5.051z" fill="#323c6b"/><circle cx="68.162" cy="46.232" fill="#27ccbc" r="2.838"/><g fill="#323c6b"><path d="m68.162 49.57a3.339 3.339 0 1 1 3.338-3.338 3.342 3.342 0 0 1 -3.338 3.338zm0-5.677a2.339 2.339 0 1 0 2.338 2.339 2.341 2.341 0 0 0 -2.338-2.339z"/><path d="m31.827 72.667a.5.5 0 0 1 -.3-.1 8.853 8.853 0 0 1 -1.051-.937 9.014 9.014 0 0 1 -2.406-5.505.5.5 0 1 1 1-.073 8.01 8.01 0 0 0 2.13 4.888 7.8 7.8 0 0 0 .933.831.5.5 0 0 1 -.306.9z"/><path d="m28.619 64.292h-.031a.5.5 0 0 1 -.469-.529l.041-.667a.516.516 0 0 1 .529-.469.5.5 0 0 1 .469.529l-.041.667a.5.5 0 0 1 -.498.469z"/><path d="m50.718 11.167a.5.5 0 0 1 -.31-.107 21.469 21.469 0 0 0 -8.521-4.117.5.5 0 1 1 .226-.975 22.475 22.475 0 0 1 8.916 4.306.5.5 0 0 1 -.311.893z"/><path d="m52.771 13.143a.5.5 0 0 1 -.387-.183c-.072-.088-.145-.176-.222-.26a.5.5 0 1 1 .738-.675c.089.1.173.2.257.3a.5.5 0 0 1 -.386.817z"/><path d="m37 47.747a19.683 19.683 0 1 1 19.683-19.684 19.705 19.705 0 0 1 -19.683 19.684zm0-38.367a18.683 18.683 0 1 0 18.683 18.683 18.7 18.7 0 0 0 -18.683-18.683z"/><path d="m37 71.444a5.967 5.967 0 0 1 -5.96-6.334l1.119-18.354 1 .061-1.118 18.352a4.968 4.968 0 1 0 9.916 0l-1.12-18.343 1-.061 1.119 18.344a5.959 5.959 0 0 1 -5.956 6.335z"/></g><circle cx="37" cy="28.063" fill="#89c5cd" r="14.397"/><g fill="#eeefee" opacity=".4"><path d="m37.3 13.68-10.75 24.28a12.638 12.638 0 0 1 -.9-1.04l10.28-23.21c.35-.03.71-.04 1.07-.04.1 0 .2 0 .3.01z"/><path d="m47.9 18.65-10.54 23.8c-.12.01-.24.01-.36.01a14.316 14.316 0 0 1 -3.85-.52l11.53-26.05a14.661 14.661 0 0 1 3.22 2.76z"/><path d="m42.31 14.68-11.65 26.31a14 14 0 0 1 -2.39-1.48l11.33-25.6a13.6 13.6 0 0 1 2.71.77z"/></g><path d="m37 42.96a14.9 14.9 0 1 1 14.9-14.9 14.913 14.913 0 0 1 -14.9 14.9zm0-28.793a13.9 13.9 0 1 0 13.9 13.9 13.913 13.913 0 0 0 -13.9-13.9z" fill="#323c6b"/><path d="m38.676 58.345a.615.615 0 0 1 -.642-.587l-.357-6.6a.615.615 0 0 1 1.229-.055l.357 6.6a.615.615 0 0 1 -.587.642z" fill="#fff"/><path d="m38.787 60.822a.615.615 0 0 1 -.642-.587l-.014-.322a.615.615 0 0 1 1.229-.055l.014.322a.615.615 0 0 1 -.587.642z" fill="#fff"/></svg>