<svg id="color_line" height="512" viewBox="0 0 74 74" width="512" xmlns="http://www.w3.org/2000/svg" data-name="color line"><path d="m61.14 12.015h-48.28a4.127 4.127 0 0 0 -4.127 4.127v35.978h56.534v-35.978a4.127 4.127 0 0 0 -4.127-4.127z" fill="#bbbbcd"/><path d="m65.27 16.14v35.98h-3.09v-32.83a4.114 4.114 0 0 0 -4.12-4.12h-48.28a3.826 3.826 0 0 0 -.96.12 4.13 4.13 0 0 1 4.04-3.28h48.28a4.131 4.131 0 0 1 4.13 4.13z" fill="#9297ab"/><path d="m14.531 17.813h44.937v28.509h-44.937z" fill="#eeefee"/><path d="m56.59 17.81h2.88v28.51h-2.88z" fill="#e1e6e9"/><path d="m3 52.12a9.865 9.865 0 0 0 9.865 9.865h48.27a9.865 9.865 0 0 0 9.865-9.865z" fill="#9297ab"/><path d="m61.135 62.485h-48.27a10.377 10.377 0 0 1 -10.365-10.365v-.5h69v.5a10.377 10.377 0 0 1 -10.365 10.365zm-57.622-9.865a9.377 9.377 0 0 0 9.352 8.865h48.27a9.377 9.377 0 0 0 9.352-8.865z" fill="#323c6b"/><path d="m30.313 55.625h13.375v1h-13.375z" fill="#323c6b"/><path d="m31.576 33.133a3.5 3.5 0 0 1 -1.381-6.717 2.59 2.59 0 0 1 -.295-1.209 2.675 2.675 0 0 1 2.677-2.677 2.612 2.612 0 0 1 1.388.393 4.553 4.553 0 0 1 8.356 2.5 3.3 3.3 0 0 1 -.031.491h.031a3.607 3.607 0 0 1 0 7.214z" fill="#89c5cd"/><path d="m45.92 29.52a3.629 3.629 0 0 1 -1.76 3.11 3.487 3.487 0 0 0 .33-1.48 3.615 3.615 0 0 0 -3.61-3.61h-.03a2.632 2.632 0 0 0 .03-.49 4.549 4.549 0 0 0 -8.35-2.5 2.655 2.655 0 0 0 -2.51-.14 2.683 2.683 0 0 1 2.56-1.88 2.584 2.584 0 0 1 1.38.39 4.555 4.555 0 0 1 8.36 2.51 4.15 4.15 0 0 1 -.03.49h.03a3.6 3.6 0 0 1 3.6 3.6z" fill="#6eaaad"/><path d="m49.053 39.404h-1v-2.763h-22.106v2.763h-1v-3.763h24.106z" fill="#323c6b"/><path d="m36.5 33.133h1v6.271h-1z" fill="#323c6b"/><path d="m23.518 39.404h3.858v3.858h-3.858z" fill="#27ccbc"/><path d="m35.071 39.404h3.858v3.858h-3.858z" fill="#fe7058"/><path d="m46.624 39.404h3.858v3.858h-3.858z" fill="#fcd462"/><path d="m27.38 39.4v3.86h-1.53v-2.39h-2.33v-1.47z" fill="#21b3a9"/><path d="m38.93 39.4v3.86h-1.53v-2.39h-2.33v-1.47z" fill="#ea6453"/><path d="m50.48 39.4v3.86h-1.53v-2.39h-2.33v-1.47z" fill="#f7be56"/><g fill="#323c6b"><path d="m58.912 9.515h-.583a.5.5 0 0 1 0-1h.583a.5.5 0 0 1 0 1z"/><path d="m68.089 15.083a.5.5 0 0 1 -.487-.391 6.629 6.629 0 0 0 -6.166-5.151.5.5 0 0 1 -.477-.522.507.507 0 0 1 .522-.477 7.631 7.631 0 0 1 7.1 5.931.5.5 0 0 1 -.488.609z"/><path d="m15.875 65.485h-.531a.5.5 0 0 1 0-1h.531a.5.5 0 0 1 0 1z"/><path d="m12.865 65.485a13.287 13.287 0 0 1 -8.523-3.117.5.5 0 0 1 .643-.766 12.289 12.289 0 0 0 7.881 2.883.5.5 0 1 1 0 1z"/><path d="m65.767 52.62h-57.534v-36.478a4.632 4.632 0 0 1 4.627-4.627h48.28a4.632 4.632 0 0 1 4.627 4.627zm-56.534-1h55.534v-35.478a3.632 3.632 0 0 0 -3.627-3.627h-48.28a3.632 3.632 0 0 0 -3.627 3.627z"/><path d="m59.969 46.822h-45.938v-29.509h45.938zm-44.937-1h43.937v-27.509h-43.938z"/><path d="m42.32 33.633h-10.744a4 4 0 0 1 -2.022-7.453 3.145 3.145 0 0 1 -.154-.973 3.181 3.181 0 0 1 3.177-3.177 3.135 3.135 0 0 1 1.234.251 5.053 5.053 0 0 1 9.009 3.146v.024a4.106 4.106 0 0 1 -.5 8.181zm-9.743-10.6a2.179 2.179 0 0 0 -2.177 2.174 2.084 2.084 0 0 0 .237.977l.252.479-.5.213a3 3 0 0 0 1.185 5.757h10.746a3.107 3.107 0 0 0 0-6.214h-.581l.055-.574a2.721 2.721 0 0 0 .025-.417 4.052 4.052 0 0 0 -7.438-2.23l-.268.408-.415-.257a2.093 2.093 0 0 0 -1.121-.319z"/><path d="m27.876 43.762h-4.857v-4.862h4.858zm-3.858-1h2.858v-2.862h-2.857z"/><path d="m39.429 43.762h-4.858v-4.862h4.858zm-3.858-1h2.858v-2.862h-2.858z"/><path d="m50.981 43.762h-4.857v-4.862h4.858zm-3.858-1h2.858v-2.862h-2.857z"/></g><path d="m18.7 49.142a.615.615 0 0 1 .616-.614l7.956.01a.615.615 0 1 1 0 1.23l-7.956-.01a.615.615 0 0 1 -.616-.616z" fill="#fff"/><path d="m16.224 49.139a.615.615 0 0 1 .616-.614h.322a.615.615 0 1 1 0 1.23h-.322a.615.615 0 0 1 -.616-.616z" fill="#fff"/></svg>