<svg id="color_line" height="512" viewBox="0 0 74 74" width="512" xmlns="http://www.w3.org/2000/svg" data-name="color line"><path d="m37 66.466a29.461 29.461 0 1 1 29.461-29.461 29.495 29.495 0 0 1 -29.461 29.461zm0-57.922a28.461 28.461 0 1 0 28.461 28.461 28.493 28.493 0 0 0 -28.461-28.461z" fill="#323c6b"/><path d="m57.54 55.8v1.63a28.971 28.971 0 0 1 -41.08 0v-1.63a13.821 13.821 0 0 1 13.82-13.81 9.558 9.558 0 0 0 3.02 2.03 9.655 9.655 0 0 0 3.7.74 9.452 9.452 0 0 0 6.72-2.77 13.81 13.81 0 0 1 13.82 13.81z" fill="#89c5cd"/><g fill="#323c6b"><path d="m36.5 3h1v10.089h-1z"/><path d="m36.5 60.911h1v10.089h-1z"/><path d="m60.911 36.5h10.089v1h-10.089z"/><path d="m3 36.5h10.089v1h-10.089z"/></g><rect fill="#89c5cd" height="22.828" rx="9.531" width="19.061" x="27.469" y="18.117"/><path d="m57.54 55.8v1.63a27.327 27.327 0 0 1 -3.37 2.89v-2.52a13.8 13.8 0 0 0 -13.43-13.8 9.5 9.5 0 0 0 2.98-2.01 13.81 13.81 0 0 1 13.82 13.81z" fill="#6eaaad"/><path d="m46.53 27.65v3.76a9.557 9.557 0 0 1 -2.79 6.75 9.724 9.724 0 0 1 -3.66 2.28c.1-.09.19-.19.29-.28a9.557 9.557 0 0 0 2.79-6.75v-3.76a9.528 9.528 0 0 0 -9.53-9.53 9.322 9.322 0 0 0 -3.09.52 9.533 9.533 0 0 1 15.99 7.01z" fill="#6eaaad"/><path d="m37 66.47a29.3 29.3 0 0 1 -20.894-8.687l-.146-.146v-1.837a14.331 14.331 0 0 1 14.32-14.31h.207l.146.146a9 9 0 0 0 2.867 1.924 9.22 9.22 0 0 0 3.5.7 8.938 8.938 0 0 0 6.366-2.623l.146-.146h.207a14.31 14.31 0 0 1 14.321 14.309v1.837l-.146.146a29.3 29.3 0 0 1 -20.894 8.687zm-20.04-9.247a28.472 28.472 0 0 0 40.08 0v-1.423a13.31 13.31 0 0 0 -13.118-13.308 9.931 9.931 0 0 1 -6.922 2.768 9.959 9.959 0 0 1 -6.922-2.768 13.331 13.331 0 0 0 -13.118 13.308z" fill="#323c6b"/><path d="m37 41.445a10.042 10.042 0 0 1 -10.031-10.03v-3.767a10.031 10.031 0 0 1 20.062 0v3.767a10.042 10.042 0 0 1 -10.031 10.03zm0-22.828a9.041 9.041 0 0 0 -9.031 9.031v3.767a9.031 9.031 0 0 0 18.062 0v-3.767a9.041 9.041 0 0 0 -9.031-9.031z" fill="#323c6b"/><path d="m27.96 61.529a.615.615 0 0 1 -.841.222 41.355 41.355 0 0 1 -5.741-3.268.615.615 0 0 1 .622-1.063 31.672 31.672 0 0 0 5.741 3.268.615.615 0 0 1 .219.841z" fill="#fff"/><path d="m30.326 62.577a.615.615 0 0 1 -.8.336l-.3-.122a.615.615 0 1 1 .466-1.138l.3.122a.615.615 0 0 1 .334.802z" fill="#fff"/></svg>