<svg id="color_line" height="512" viewBox="0 0 74 74" width="512" xmlns="http://www.w3.org/2000/svg" data-name="color line"><path d="m4.5 37.47a6.054 6.054 0 0 0 6.032 6.061c.025.033 44.668.091 56.641.106a3.765 3.765 0 0 0 3.827-3.645v-.04a7.941 7.941 0 0 0 -3.319-6.494 6.288 6.288 0 0 0 .606-2.655 6.007 6.007 0 0 0 -4.156-5.686 5.9 5.9 0 0 0 -1.931-4.186 5.976 5.976 0 0 0 .086-1.01 6.67 6.67 0 0 0 -6.667-6.667 6.489 6.489 0 0 0 -2.251.4 9.281 9.281 0 0 0 -8.258-4.989 9.121 9.121 0 0 0 -5.051 1.5 9.795 9.795 0 0 0 -17.144 1.789 5.116 5.116 0 0 0 -5.863-2.179 5.038 5.038 0 0 0 -3.6 4.922 4.116 4.116 0 0 0 .2 1.326 8.492 8.492 0 0 0 -6.956 8.168 7.085 7.085 0 0 0 -1.796 11.056 6.326 6.326 0 0 0 -.4 2.223z" fill="#eeefee"/><path d="m22.46 11.32a9.682 9.682 0 0 0 -2.23 3.3 5.124 5.124 0 0 0 -5.86-2.18c-.17.05-.34.11-.5.17a4.914 4.914 0 0 1 3.18-2.83 5.154 5.154 0 0 1 5.41 1.54z" fill="#e1e6e9"/><path d="m71 39.95v.04a3.7 3.7 0 0 1 -2.8 3.51 3.335 3.335 0 0 0 .11-.84v-.04a7.947 7.947 0 0 0 -3.31-6.5 6.318 6.318 0 0 0 .6-2.65 6.01 6.01 0 0 0 -4.15-5.69 5.9 5.9 0 0 0 -1.94-4.18 5.831 5.831 0 0 0 .09-1.01 6.668 6.668 0 0 0 -6.67-6.67 6.456 6.456 0 0 0 -2.25.4 9.291 9.291 0 0 0 -8.26-4.99 9.17 9.17 0 0 0 -5.05 1.5 9.8 9.8 0 0 0 -13.5-2.64 9.782 9.782 0 0 1 16.19-.02 9.047 9.047 0 0 1 5.05-1.51 9.3 9.3 0 0 1 8.26 5 6.462 6.462 0 0 1 2.25-.41 6.673 6.673 0 0 1 6.66 6.67 6.769 6.769 0 0 1 -.08 1.01 5.929 5.929 0 0 1 1.93 4.19 6 6 0 0 1 4.16 5.68 6.254 6.254 0 0 1 -.61 2.66 7.937 7.937 0 0 1 3.32 6.49z" fill="#e1e6e9"/><path d="m31.619 43.579h-1v-7.961l6.58-5.248.623.782-6.203 4.947z" fill="#323c6b"/><path d="m36.908 62.156h-24.849a5.944 5.944 0 0 1 -4.259-1.766 6.016 6.016 0 0 1 -1.749-4.665 6.172 6.172 0 0 1 6.249-5.607h8.667v-13.49l-3.861-3.144.632-.775 4.229 3.444v14.965h-9.667a5.169 5.169 0 0 0 -5.253 4.675 5.018 5.018 0 0 0 1.459 3.891 4.953 4.953 0 0 0 3.553 1.472h24.849z" fill="#323c6b"/><circle cx="39.72" cy="29.018" fill="#bbbbcd" r="2.812"/><path d="m39.72 32.331a3.313 3.313 0 1 1 3.313-3.313 3.316 3.316 0 0 1 -3.313 3.313zm0-5.625a2.313 2.313 0 1 0 2.313 2.313 2.315 2.315 0 0 0 -2.313-2.313z" fill="#323c6b"/><circle cx="15.251" cy="31.321" fill="#bbbbcd" r="2.812"/><path d="m15.251 34.633a3.313 3.313 0 1 1 3.313-3.312 3.316 3.316 0 0 1 -3.313 3.312zm0-5.625a2.313 2.313 0 1 0 2.313 2.313 2.315 2.315 0 0 0 -2.313-2.313z" fill="#323c6b"/><circle cx="59.13" cy="33.86" fill="#bbbbcd" r="2.812"/><path d="m59.13 37.172a3.313 3.313 0 1 1 3.313-3.312 3.316 3.316 0 0 1 -3.313 3.312zm0-5.625a2.313 2.313 0 1 0 2.313 2.313 2.315 2.315 0 0 0 -2.313-2.313z" fill="#323c6b"/><path d="m24.288 20.579c-3.818-4.494-1.911-8.662-1.828-8.837l.9.427c-.071.152-1.7 3.777 1.685 7.762z" fill="#323c6b"/><circle cx="27.2" cy="21.656" fill="#bbbbcd" r="2.89"/><path d="m27.2 25.046a3.39 3.39 0 1 1 3.39-3.39 3.393 3.393 0 0 1 -3.39 3.39zm0-5.779a2.39 2.39 0 1 0 2.39 2.39 2.392 2.392 0 0 0 -2.39-2.39z" fill="#323c6b"/><circle cx="48.573" cy="22.595" fill="#bbbbcd" r="2.89"/><path d="m48.572 25.985a3.39 3.39 0 1 1 3.39-3.39 3.393 3.393 0 0 1 -3.39 3.39zm0-5.779a2.39 2.39 0 1 0 2.39 2.39 2.392 2.392 0 0 0 -2.39-2.39z" fill="#323c6b"/><path d="m51.4 21.594-.592-.807c3.651-2.68 2.11-6.914 2.094-6.957l.936-.353c.016.051 1.816 4.993-2.438 8.117z" fill="#323c6b"/><path d="m67.334 33.818a5.3 5.3 0 0 0 -5.546-.86l-.381-.925a6.3 6.3 0 0 1 6.614 1.059z" fill="#323c6b"/><path d="m43.365 55.2a6.453 6.453 0 0 0 0 12.907h6.742v-12.907z" fill="#bbbbcd"/><path d="m50.11 65.56v2.55h-6.75a6.455 6.455 0 0 1 -6.45-6.46 5.952 5.952 0 0 1 .13-1.27 6.439 6.439 0 0 0 6.32 5.18z" fill="#9297ab"/><circle cx="44.029" cy="61.656" fill="#fe7058" r="1.878"/><g fill="#323c6b"><path d="m44.029 64.035a2.378 2.378 0 1 1 2.378-2.378 2.381 2.381 0 0 1 -2.378 2.378zm0-3.756a1.378 1.378 0 1 0 1.378 1.378 1.38 1.38 0 0 0 -1.378-1.379z"/><path d="m50.107 65.583h8.33v1h-8.33z"/><path d="m50.107 56.722h8.33v1h-8.33z"/><path d="m42.938 47.1-9.126-.014a.5.5 0 0 1 0-1l9.124.014a.5.5 0 0 1 0 1z"/><path d="m31.313 47.086h-.625a.5.5 0 0 1 0-1h.625a.5.5 0 0 1 0 1z"/><path d="m65.187 19.125a.5.5 0 0 1 -.5-.433 9.206 9.206 0 0 0 -4.654-6.792.5.5 0 0 1 .484-.875 10.211 10.211 0 0 1 5.166 7.532.5.5 0 0 1 -.429.563.532.532 0 0 1 -.067.005z"/><path d="m66.324 22.156a.5.5 0 0 1 -.455-.292l-.069-.154c-.062-.139-.124-.277-.2-.41a.5.5 0 0 1 .879-.478c.084.155.157.316.229.478l.066.146a.5.5 0 0 1 -.454.708z"/><path d="m67.18 44.137h-.006c-46.745-.057-55.064-.067-56.644-.2v.1a6.592 6.592 0 0 1 -6.53-6.567 6.8 6.8 0 0 1 .334-2.109 7.586 7.586 0 0 1 1.871-11.461 9.038 9.038 0 0 1 6.83-8.249 4.961 4.961 0 0 1 -.087-.948 5.508 5.508 0 0 1 3.967-5.4 5.64 5.64 0 0 1 5.9 1.67 10.3 10.3 0 0 1 17.379-1.48 9.648 9.648 0 0 1 4.916-1.328 9.791 9.791 0 0 1 8.49 4.886 7.017 7.017 0 0 1 2.015-.3 7.176 7.176 0 0 1 7.167 7.167 6.322 6.322 0 0 1 -.054.825 6.44 6.44 0 0 1 1.88 4.009 6.472 6.472 0 0 1 4.179 6.048 6.675 6.675 0 0 1 -.492 2.493 8.493 8.493 0 0 1 3.2 6.657 4.26 4.26 0 0 1 -4.315 4.187zm-56.39-1.1c3.175.029 37.825.079 56.385.1h.005a3.251 3.251 0 0 0 3.32-3.148 7.5 7.5 0 0 0 -3.11-6.125l-.338-.241.175-.376a5.778 5.778 0 0 0 .56-2.445 5.479 5.479 0 0 0 -3.811-5.21l-.333-.108-.012-.35a5.43 5.43 0 0 0 -1.769-3.834l-.2-.183.045-.271a5.483 5.483 0 0 0 .08-.928 6.174 6.174 0 0 0 -6.167-6.167 5.968 5.968 0 0 0 -2.075.373l-.414.155-.205-.391a8.8 8.8 0 0 0 -7.816-4.723 8.632 8.632 0 0 0 -4.775 1.418l-.412.272-.277-.409a9.294 9.294 0 0 0 -16.267 1.7l-.379.925-.515-.858a4.6 4.6 0 0 0 -5.3-1.955 4.518 4.518 0 0 0 -3.24 4.441 3.6 3.6 0 0 0 .177 1.169l.181.545-.565.1a8.028 8.028 0 0 0 -6.544 7.687l-.006.291-.256.138a6.585 6.585 0 0 0 -1.661 10.278l.211.227-.108.29a5.8 5.8 0 0 0 -.374 2.046 5.523 5.523 0 0 0 5.537 5.561z"/><path d="m50.607 68.606h-7.242a6.953 6.953 0 1 1 0-13.907h7.242zm-7.242-12.906a5.953 5.953 0 1 0 0 11.907h6.242v-11.907z"/></g></svg>