<svg id="color_line" height="512" viewBox="0 0 74 74" width="512" xmlns="http://www.w3.org/2000/svg" data-name="color line"><path d="m16.741 26.031a18.7 18.7 0 0 1 2.279-11.163c3.238-4.9 7.186-8.534 12.725-10.5s12.533-1.689 18.155.059c17.686 5.923 17.61 26.291 15.669 30.69a39.509 39.509 0 0 1 -3.745 7.716 22.436 22.436 0 0 0 -3.057 13.819c.4 3.953 1.007 7.381 1.905 14.342h-30.572a39.269 39.269 0 0 0 -1.147-7.743 5.007 5.007 0 0 0 -1.388-2.8 4.963 4.963 0 0 0 -2.967-.767c-2.64-.124-5.415.158-8.055.034h-.028a3.1 3.1 0 0 1 -2.5-4.591 4.554 4.554 0 0 0 .215-.43c.65-1.579.384-1.707-1.139-3.207-.406-.384-.429-.7-.3-.936a2.5 2.5 0 0 1 .688-.688.868.868 0 0 0 -.045-1.613c-.316-.248-.688-.474-.812-.857a1.673 1.673 0 0 1 .237-1.207c.6-1.23 1.185-2.459 1.782-3.689a.814.814 0 0 0 .1-.575c-.362-1.082-5.116.024-6.176-.506a1.856 1.856 0 0 1 -.97-1.94c.634-3.97 5.682-10.696 9.146-13.448z" fill="#eeefee"/><path d="m65.57 35.12a39.428 39.428 0 0 1 -3.75 7.71 22.506 22.506 0 0 0 -3.06 13.82c.41 3.96 1.01 7.38 1.91 14.35h-3.49c-.68-5.04-1.17-8-1.51-11.34a22.423 22.423 0 0 1 3.06-13.82 39.789 39.789 0 0 0 3.74-7.72c1.94-4.4 2.02-24.77-15.67-30.69-5.61-1.75-12.62-2.03-18.15-.05a22.507 22.507 0 0 0 -6.87 3.86 23.329 23.329 0 0 1 9.96-6.87c5.53-1.97 12.54-1.69 18.16.06 17.68 5.92 17.61 26.29 15.67 30.69z" fill="#e1e6e9"/><path d="m40 43.591a4.692 4.692 0 0 1 -4.873 4.492 4.793 4.793 0 0 1 -4.744-3.483 4.267 4.267 0 0 1 -4.075-4.111 3.614 3.614 0 0 1 .427-1.734 4.278 4.278 0 0 1 -4.161-4.111 3.685 3.685 0 0 1 .3-1.471 5.092 5.092 0 0 1 -2.593-4.361 5.217 5.217 0 0 1 3.691-4.86 3.721 3.721 0 0 1 -.128-.972 4.271 4.271 0 0 1 4.175-4.111 3.629 3.629 0 0 1 -.427-1.747 4.264 4.264 0 0 1 4.075-4.1 4.793 4.793 0 0 1 4.743-3.476c2.445.126 3.59 2.01 3.59 4.492z" fill="#fe7058"/><path d="m35.128 48.583a5.314 5.314 0 0 1 -5.128-3.521 4.708 4.708 0 0 1 -4.187-4.57 4.206 4.206 0 0 1 .207-1.323 4.728 4.728 0 0 1 -3.94-4.522 4.208 4.208 0 0 1 .19-1.267 5.535 5.535 0 0 1 -2.485-4.565 5.686 5.686 0 0 1 3.613-5.177 4.181 4.181 0 0 1 -.051-.655 4.733 4.733 0 0 1 3.953-4.522 4.238 4.238 0 0 1 -.208-1.336 4.764 4.764 0 0 1 4.188-4.557 5.313 5.313 0 0 1 5.13-3.522c2.571.132 4.091 2 4.091 4.992v29.553a5.2 5.2 0 0 1 -5.373 4.992zm1.257-38.538a4.273 4.273 0 0 0 -4.234 3.1l-.087.349-.358.029a3.788 3.788 0 0 0 -3.615 3.6 3.132 3.132 0 0 0 .367 1.509l.374.689-.782.048a3.792 3.792 0 0 0 -3.707 3.612 3.185 3.185 0 0 0 .111.841l.124.455-.447.15a4.729 4.729 0 0 0 -3.351 4.386 4.587 4.587 0 0 0 2.349 3.93l.379.225-.175.4a3.182 3.182 0 0 0 -.258 1.272 3.785 3.785 0 0 0 3.691 3.612l.781.049-.373.699a3.108 3.108 0 0 0 -.366 1.5 3.748 3.748 0 0 0 3.615 3.6l.358.029.087.349a4.282 4.282 0 0 0 4.26 3.1 4.2 4.2 0 0 0 4.372-3.987v-29.552c0-1.153-.3-3.849-3.115-3.993z" fill="#323c6b"/><path d="m30.142 20.687a.465.465 0 0 1 -.082-.007 2.976 2.976 0 0 1 -2.514-1.643.5.5 0 0 1 .94-.339c.021.048.341.766 1.735 1a.5.5 0 0 1 -.08.993z" fill="#323c6b"/><path d="m26.262 24.455a.49.49 0 0 1 -.142-.021 3.171 3.171 0 0 0 -1.96-.017.5.5 0 0 1 -.383-.924 4.17 4.17 0 0 1 2.626-.018.5.5 0 0 1 -.142.979z" fill="#323c6b"/><path d="m26.734 39.258a.5.5 0 0 1 -.463-.69 4.184 4.184 0 0 1 2-1.922.5.5 0 0 1 .447.895 3.253 3.253 0 0 0 -1.518 1.407.5.5 0 0 1 -.466.31z" fill="#323c6b"/><path d="m30.383 45.1a.5.5 0 0 1 -.078-.994 3.251 3.251 0 0 0 1.9-1.239.5.5 0 0 1 .783.623 4.243 4.243 0 0 1 -2.522 1.6.5.5 0 0 1 -.083.01z" fill="#323c6b"/><path d="m34.524 16.815a.5.5 0 0 1 -.5-.447 3.046 3.046 0 0 0 -2.436-2.848.5.5 0 0 1 -.42-.568.506.506 0 0 1 .564-.421 4.052 4.052 0 0 1 3.285 3.731.5.5 0 0 1 -.443.55z" fill="#323c6b"/><path d="m23.213 33.7a2.732 2.732 0 0 1 -.424-.028.5.5 0 0 1 .164-.987 3.208 3.208 0 0 0 2.4-.8.5.5 0 1 1 .646.763 4.322 4.322 0 0 1 -2.786 1.052z" fill="#323c6b"/><circle cx="26.735" cy="31.135" fill="#eeefee" r="1.547"/><path d="m26.734 33.182a2.047 2.047 0 1 1 2.047-2.046 2.049 2.049 0 0 1 -2.047 2.046zm0-3.093a1.047 1.047 0 1 0 1.047 1.047 1.047 1.047 0 0 0 -1.047-1.048z" fill="#323c6b"/><circle cx="34.661" cy="17.854" fill="#eeefee" r="1.547"/><path d="m34.661 19.9a2.047 2.047 0 1 1 2.047-2.047 2.049 2.049 0 0 1 -2.047 2.047zm0-3.094a1.047 1.047 0 1 0 1.047 1.047 1.048 1.048 0 0 0 -1.047-1.045z" fill="#323c6b"/><circle cx="33.212" cy="41.771" fill="#eeefee" r="1.547"/><path d="m33.212 43.818a2.047 2.047 0 1 1 2.047-2.047 2.049 2.049 0 0 1 -2.047 2.047zm0-3.094a1.047 1.047 0 1 0 1.047 1.047 1.048 1.048 0 0 0 -1.047-1.046z" fill="#323c6b"/><path d="m36.048 32.558a.5.5 0 0 1 -.5-.5v-3.82l-1.953-1.568a.5.5 0 0 1 .625-.78l2.328 1.868v4.3a.5.5 0 0 1 -.5.5z" fill="#323c6b"/><circle cx="32.659" cy="25.384" fill="#eeefee" r="1.54"/><path d="m32.658 27.424a2.04 2.04 0 1 1 2.041-2.04 2.042 2.042 0 0 1 -2.041 2.04zm0-3.081a1.04 1.04 0 1 0 1.042 1.041 1.042 1.042 0 0 0 -1.042-1.04z" fill="#323c6b"/><path d="m36.563 36.638h-3.171a.5.5 0 0 1 0-1h3.172a.5.5 0 0 1 0 1z" fill="#323c6b"/><path d="m40 43.591a4.692 4.692 0 0 0 4.873 4.492 4.793 4.793 0 0 0 4.747-3.483 4.267 4.267 0 0 0 4.08-4.109 3.614 3.614 0 0 0 -.427-1.734 4.278 4.278 0 0 0 4.161-4.111 3.685 3.685 0 0 0 -.3-1.471 5.092 5.092 0 0 0 2.593-4.361 5.217 5.217 0 0 0 -3.691-4.86 3.721 3.721 0 0 0 .128-.972 4.271 4.271 0 0 0 -4.175-4.111 3.629 3.629 0 0 0 .427-1.747 4.264 4.264 0 0 0 -4.075-4.1 4.793 4.793 0 0 0 -4.745-3.481c-2.449.129-3.596 2.013-3.596 4.495z" fill="#fe7058"/><path d="m53.54 39.43a3.4 3.4 0 0 1 .16 1.06 4.167 4.167 0 0 1 -3.15 3.94 3.88 3.88 0 0 0 .63-2.12 3.635 3.635 0 0 0 -.43-1.73 4.656 4.656 0 0 0 2.79-1.15z" fill="#ea6453"/><path d="m57.13 33.18a3.646 3.646 0 0 1 .3 1.47 4.176 4.176 0 0 1 -3.15 3.93 3.872 3.872 0 0 0 .63-2.11 3.646 3.646 0 0 0 -.3-1.47 5.107 5.107 0 0 0 2.59-4.36 5.2 5.2 0 0 0 -3.69-4.86 3.616 3.616 0 0 0 .13-.98 4.277 4.277 0 0 0 -4.17-4.11 3.639 3.639 0 0 0 .42-1.74 4.255 4.255 0 0 0 -4.07-4.1 4.789 4.789 0 0 0 -4.75-3.48c-.18.01-.35.03-.51.05a3.409 3.409 0 0 1 3.03-1.87 4.8 4.8 0 0 1 4.75 3.48 4.255 4.255 0 0 1 4.07 4.1 3.638 3.638 0 0 1 -.42 1.74 4.277 4.277 0 0 1 4.17 4.11 3.494 3.494 0 0 1 -.13.97 5.229 5.229 0 0 1 3.69 4.86 5.11 5.11 0 0 1 -2.59 4.37z" fill="#ea6453"/><path d="m49.861 20.687a.5.5 0 0 1 -.08-.993c1.412-.232 1.724-.966 1.736-1a.5.5 0 0 1 .642-.286.494.494 0 0 1 .3.627 2.978 2.978 0 0 1 -2.514 1.642.465.465 0 0 1 -.084.01z" fill="#323c6b"/><path d="m56.032 24.455a.487.487 0 0 1 -.189-.038 3.2 3.2 0 0 0 -1.96.017.5.5 0 1 1 -.283-.959 4.168 4.168 0 0 1 2.625.018.5.5 0 0 1 -.192.961z" fill="#323c6b"/><path d="m53.268 39.258a.5.5 0 0 1 -.461-.307 3.21 3.21 0 0 0 -1.524-1.411.5.5 0 0 1 .447-.895 4.178 4.178 0 0 1 2 1.922.5.5 0 0 1 -.273.652.487.487 0 0 1 -.189.039z" fill="#323c6b"/><path d="m49.619 45.1a.5.5 0 0 1 -.08-.006 4.248 4.248 0 0 1 -2.521-1.6.5.5 0 1 1 .781-.624 3.263 3.263 0 0 0 1.9 1.239.5.5 0 0 1 -.078.994z" fill="#323c6b"/><path d="m45.478 16.815h-.055a.5.5 0 0 1 -.443-.55 4.053 4.053 0 0 1 3.286-3.731.5.5 0 0 1 .145.99 3.045 3.045 0 0 0 -2.437 2.848.5.5 0 0 1 -.496.443z" fill="#323c6b"/><path d="m56.789 33.7a4.32 4.32 0 0 1 -2.789-1.053.5.5 0 1 1 .646-.763 3.2 3.2 0 0 0 2.4.8.5.5 0 0 1 .163.987 2.746 2.746 0 0 1 -.42.029z" fill="#323c6b"/><circle cx="53.268" cy="31.135" fill="#eeefee" r="1.547"/><path d="m53.268 33.182a2.047 2.047 0 1 1 2.047-2.046 2.049 2.049 0 0 1 -2.047 2.046zm0-3.093a1.047 1.047 0 1 0 1.047 1.047 1.048 1.048 0 0 0 -1.047-1.048z" fill="#323c6b"/><circle cx="45.341" cy="17.854" fill="#eeefee" r="1.547"/><path d="m45.342 19.9a2.047 2.047 0 1 1 2.047-2.047 2.049 2.049 0 0 1 -2.047 2.047zm0-3.094a1.047 1.047 0 1 0 1.047 1.047 1.048 1.048 0 0 0 -1.047-1.045z" fill="#323c6b"/><circle cx="46.791" cy="41.771" fill="#eeefee" r="1.547"/><path d="m46.791 43.818a2.047 2.047 0 1 1 2.046-2.047 2.049 2.049 0 0 1 -2.046 2.047zm0-3.094a1.047 1.047 0 1 0 1.046 1.047 1.048 1.048 0 0 0 -1.046-1.046z" fill="#323c6b"/><path d="m43.955 32.558a.5.5 0 0 1 -.5-.5v-4.3l2.328-1.868a.5.5 0 0 1 .625.78l-1.953 1.567v3.82a.5.5 0 0 1 -.5.501z" fill="#323c6b"/><circle cx="47.344" cy="25.384" fill="#eeefee" r="1.54"/><g fill="#323c6b"><path d="m47.344 27.424a2.04 2.04 0 1 1 2.04-2.04 2.042 2.042 0 0 1 -2.04 2.04zm0-3.081a1.04 1.04 0 1 0 1.04 1.041 1.042 1.042 0 0 0 -1.04-1.04z"/><path d="m46.61 36.638h-3.171a.5.5 0 1 1 0-1h3.171a.5.5 0 0 1 0 1z"/><path d="m19.031 63.235a.5.5 0 0 1 -.009-1l.408-.008a.5.5 0 1 1 .014 1l-.4.008z"/><path d="m16.22 63.2h-.042a6.571 6.571 0 0 1 -5.79-8.328.5.5 0 1 1 .963.267 5.6 5.6 0 0 0 .511 4.25 5.474 5.474 0 0 0 4.4 2.814.5.5 0 0 1 -.04 1z"/><path d="m65.579 14.313a.5.5 0 0 1 -.438-.259 25.285 25.285 0 0 0 -6.1-7.417.5.5 0 1 1 .635-.772 26.294 26.294 0 0 1 6.344 7.708.5.5 0 0 1 -.438.741z"/><path d="m67.146 17.688a.5.5 0 0 1 -.466-.317l-.094-.246c-.055-.144-.109-.287-.17-.43a.5.5 0 0 1 .922-.39c.064.154.124.309.183.464l.091.235a.5.5 0 0 1 -.466.683z"/><path d="m61.236 71.5h-31.592l-.037-.46a38.723 38.723 0 0 0 -1.133-7.659 4.556 4.556 0 0 0 -1.218-2.532 4.637 4.637 0 0 0 -2.674-.657c-1.3-.062-2.669-.021-3.991.018-1.339.039-2.726.079-4.065.017a3.522 3.522 0 0 1 -2.918-1.814 3.618 3.618 0 0 1 -.024-3.518 3.94 3.94 0 0 0 .19-.38c.485-1.179.485-1.179-.778-2.417l-.249-.244a1.223 1.223 0 0 1 -.4-1.525 2.731 2.731 0 0 1 .836-.859c.078-.055.29-.2.314-.32.019-.088-.088-.281-.365-.492l-.15-.114a1.724 1.724 0 0 1 -.577-2.561l1.787-3.7a1.03 1.03 0 0 0 .074-.218 9.333 9.333 0 0 0 -2.947-.065 7.308 7.308 0 0 1 -2.976-.135 2.339 2.339 0 0 1 -1.243-2.456c.628-3.955 5.434-10.564 9.109-13.593a19.166 19.166 0 0 1 2.391-11.228c3.593-5.427 7.716-8.824 12.977-10.688s12.334-1.858 18.467.05a23.439 23.439 0 0 1 14.345 13.067c3.391 7.673 2.724 15.833 1.634 18.3a39.93 39.93 0 0 1 -3.773 7.771 22.072 22.072 0 0 0 -2.989 13.512c.229 2.247.526 4.343.9 7 .284 2.007.615 4.343 1 7.33zm-30.672-1h29.536c-.354-2.714-.66-4.878-.926-6.753-.377-2.665-.676-4.769-.907-7.038a23.079 23.079 0 0 1 3.127-14.129 39.239 39.239 0 0 0 3.7-7.616c1.046-2.376 1.649-10.146-1.617-17.539a22.168 22.168 0 0 0 -13.741-12.525c-5.925-1.844-12.759-1.869-17.824-.06-5.047 1.79-9.012 5.06-12.475 10.304a18.321 18.321 0 0 0 -2.2 10.825l.035.279-.22.175c-3.541 2.814-8.371 9.429-8.96 13.136a1.358 1.358 0 0 0 .7 1.413 8.462 8.462 0 0 0 2.465.028c1.947-.121 3.63-.226 3.962.763a1.246 1.246 0 0 1 -.118.935l-1.792 3.707c-.125.269-.286.612-.213.826a1.3 1.3 0 0 0 .489.5l.159.122a1.518 1.518 0 0 1 .733 1.487 1.565 1.565 0 0 1 -.71.929 1.961 1.961 0 0 0 -.528.5c-.042.081.082.237.2.35l.254.25c1.413 1.384 1.719 1.776 1 3.512a4.829 4.829 0 0 1 -.238.479 2.625 2.625 0 0 0 .021 2.551 2.479 2.479 0 0 0 2.066 1.3c1.327.064 2.693.023 4.015-.016 1.34-.039 2.725-.08 4.065-.017a5.386 5.386 0 0 1 3.257.878 5.485 5.485 0 0 1 1.559 3.064 37.992 37.992 0 0 1 1.126 7.38z"/><path d="m44.875 48.583a5.2 5.2 0 0 1 -5.375-4.992v-29.552c0-2.994 1.52-4.86 4.065-4.992a5.322 5.322 0 0 1 5.157 3.521 4.7 4.7 0 0 1 4.188 4.558 4.238 4.238 0 0 1 -.208 1.336 4.732 4.732 0 0 1 3.955 4.522 4.2 4.2 0 0 1 -.051.655 5.686 5.686 0 0 1 3.613 5.177 5.533 5.533 0 0 1 -2.484 4.565 4.208 4.208 0 0 1 .19 1.267 4.728 4.728 0 0 1 -3.94 4.522 4.2 4.2 0 0 1 .207 1.323 4.708 4.708 0 0 1 -4.187 4.57 5.314 5.314 0 0 1 -5.13 3.52zm-1.283-38.537c-2.787.145-3.091 2.84-3.091 3.992v29.553a4.2 4.2 0 0 0 4.374 3.992 4.282 4.282 0 0 0 4.26-3.1l.087-.349.358-.029a3.748 3.748 0 0 0 3.62-3.613 3.094 3.094 0 0 0 -.367-1.5l-.374-.688.782-.049a3.785 3.785 0 0 0 3.692-3.612 3.182 3.182 0 0 0 -.258-1.272l-.175-.4.379-.225a4.588 4.588 0 0 0 2.348-3.93 4.728 4.728 0 0 0 -3.35-4.386l-.446-.15.123-.454a3.25 3.25 0 0 0 .11-.842 3.792 3.792 0 0 0 -3.706-3.612l-.782-.048.374-.689a3.132 3.132 0 0 0 .367-1.509 3.789 3.789 0 0 0 -3.616-3.6l-.358-.029-.087-.349a4.28 4.28 0 0 0 -4.264-3.102z"/></g></svg>