<svg id="color_line" height="512" viewBox="0 0 74 74" width="512" xmlns="http://www.w3.org/2000/svg" data-name="color line"><path d="m57.259 26.031a18.7 18.7 0 0 0 -2.279-11.163c-3.238-4.9-7.186-8.534-12.725-10.5s-12.533-1.689-18.155.059c-17.682 5.923-17.606 26.291-15.665 30.69a39.509 39.509 0 0 0 3.745 7.716 22.436 22.436 0 0 1 3.057 13.819c-.4 3.953-1.007 7.381-1.905 14.342h30.568a39.269 39.269 0 0 1 1.147-7.743 5.007 5.007 0 0 1 1.388-2.8 4.963 4.963 0 0 1 2.967-.767c2.64-.124 5.415.158 8.055.034h.028a3.1 3.1 0 0 0 2.5-4.591 4.554 4.554 0 0 1 -.215-.43c-.65-1.579-.384-1.707 1.139-3.207.406-.384.429-.7.3-.936a2.5 2.5 0 0 0 -.688-.688.868.868 0 0 1 .045-1.613c.316-.248.688-.474.812-.857a1.673 1.673 0 0 0 -.237-1.207c-.6-1.23-1.185-2.459-1.782-3.689a.814.814 0 0 1 -.1-.575c.362-1.082 5.116.024 6.176-.506a1.856 1.856 0 0 0 .97-1.94c-.634-3.97-5.682-10.696-9.146-13.448z" fill="#fcd462"/><path d="m51.58 10.52a22.6 22.6 0 0 0 -6.18-3.32c-5.53-1.97-12.54-1.69-18.15.06-17.69 5.92-17.61 26.29-15.67 30.69a39.5 39.5 0 0 0 3.74 7.72 22.423 22.423 0 0 1 3.06 13.82c-.34 3.37-.84 6.37-1.54 11.51h-3.51c.9-6.97 1.5-10.39 1.91-14.35a22.506 22.506 0 0 0 -3.06-13.82 39.428 39.428 0 0 1 -3.75-7.71c-1.94-4.4-2.01-24.77 15.67-30.69 5.62-1.75 12.63-2.03 18.16-.06a23.193 23.193 0 0 1 9.32 6.15z" fill="#f7be56"/><path d="m30.519 71h-1v-13.529l-3.403-3.402.707-.707 3.696 3.695z" fill="#323c6b"/><path d="m36.234 48.71h1v22.29h-1z" fill="#323c6b"/><circle cx="24.501" cy="52.017" fill="#fe7058" r="2.607"/><path d="m24.5 55.125a3.107 3.107 0 1 1 3.107-3.107 3.11 3.11 0 0 1 -3.107 3.107zm0-5.214a2.107 2.107 0 1 0 2.107 2.107 2.11 2.11 0 0 0 -2.107-2.108z" fill="#323c6b"/><circle cx="36.738" cy="46.106" fill="#fe7058" r="2.607"/><path d="m36.738 49.213a3.107 3.107 0 1 1 3.107-3.107 3.11 3.11 0 0 1 -3.107 3.107zm0-5.214a2.107 2.107 0 1 0 2.107 2.107 2.11 2.11 0 0 0 -2.107-2.106z" fill="#323c6b"/><path d="m27.801 16.361h-17.081v-1h16.667l3.402-3.403.707.708z" fill="#323c6b"/><path d="m28.032 32.913-3.833-3.823h-16.608v-1h17.022l4.126 4.115z" fill="#323c6b"/><path d="m8.334 22.077h32.331v1h-32.331z" fill="#323c6b"/><circle cx="32.84" cy="10.341" fill="#fe7058" r="2.607"/><path d="m32.841 13.448a3.107 3.107 0 1 1 3.106-3.107 3.111 3.111 0 0 1 -3.106 3.107zm0-5.214a2.107 2.107 0 1 0 2.106 2.107 2.11 2.11 0 0 0 -2.106-2.108z" fill="#323c6b"/><circle cx="43.269" cy="22.578" fill="#fe7058" r="2.607"/><path d="m43.269 25.685a3.107 3.107 0 1 1 3.107-3.107 3.11 3.11 0 0 1 -3.107 3.107zm0-5.214a2.107 2.107 0 1 0 2.107 2.107 2.11 2.11 0 0 0 -2.107-2.107z" fill="#323c6b"/><circle cx="30.233" cy="34.391" fill="#fe7058" r="2.607"/><g fill="#323c6b"><path d="m30.233 37.5a3.107 3.107 0 1 1 3.107-3.107 3.11 3.11 0 0 1 -3.107 3.107zm0-5.214a2.107 2.107 0 1 0 2.107 2.107 2.11 2.11 0 0 0 -2.107-2.109z"/><path d="m57.791 63.2a.5.5 0 0 1 -.038-1 5.511 5.511 0 0 0 4.386-2.817 5.628 5.628 0 0 0 .7-3.255.5.5 0 0 1 .454-.542.509.509 0 0 1 .542.454 6.626 6.626 0 0 1 -.823 3.832 6.51 6.51 0 0 1 -5.181 3.328z"/><path d="m55.609 63.235h-.009l-.458-.009a.5.5 0 0 1 -.492-.508.527.527 0 0 1 .508-.492l.458.009a.5.5 0 0 1 -.008 1z"/><path d="m13.649 7.761a.5.5 0 0 1 -.341-.866c.1-.091.2-.181.3-.267a.5.5 0 1 1 .643.767c-.09.075-.176.153-.261.232a.5.5 0 0 1 -.341.134z"/><path d="m15.68 5.938a.5.5 0 0 1 -.3-.9 27.419 27.419 0 0 1 7.61-3.927c.118-.037.228-.065.337-.093l.163-.042a.5.5 0 1 1 .264.965l-.179.047c-.093.023-.186.047-.277.076a26.4 26.4 0 0 0 -7.324 3.78.5.5 0 0 1 -.294.094z"/><path d="m44.356 71.5h-31.592l.072-.564c.386-2.986.717-5.323 1-7.33.376-2.654.673-4.75.9-7a22.074 22.074 0 0 0 -2.988-13.51 40.177 40.177 0 0 1 -3.788-7.821c-1.072-2.425-1.739-10.585 1.651-18.258a23.433 23.433 0 0 1 14.334-13.064c6.145-1.912 13.221-1.931 18.479-.053s9.383 5.261 12.976 10.692a19.164 19.164 0 0 1 2.391 11.224c3.673 3.028 8.479 9.638 9.109 13.584a2.343 2.343 0 0 1 -1.243 2.468 7.287 7.287 0 0 1 -2.976.132c-.941-.058-2.7-.167-2.966.111.019 0 .076.131.1.187l1.774 3.671a1.725 1.725 0 0 1 -.573 2.567l-.144.109c-.284.215-.391.408-.372.5.024.115.236.264.306.313a2.741 2.741 0 0 1 .849.874 1.227 1.227 0 0 1 -.408 1.523l-.247.238c-1.264 1.238-1.264 1.238-.779 2.417a4.077 4.077 0 0 0 .191.38 3.619 3.619 0 0 1 -.024 3.518 3.509 3.509 0 0 1 -2.887 1.813c-1.37.065-2.757.023-4.1-.015-1.321-.039-2.686-.078-3.989-.018a4.642 4.642 0 0 0 -2.677.657 4.559 4.559 0 0 0 -1.217 2.531 38.753 38.753 0 0 0 -1.133 7.66zm-30.456-1h29.536a38.023 38.023 0 0 1 1.122-7.366 5.487 5.487 0 0 1 1.558-3.062 5.39 5.39 0 0 1 3.26-.878c1.336-.062 2.723-.023 4.063.017 1.322.04 2.688.079 3.989.018a2.491 2.491 0 0 0 2.092-1.3 2.626 2.626 0 0 0 .021-2.551 4.96 4.96 0 0 1 -.239-.479c-.714-1.735-.408-2.127 1-3.511l.247-.243c.126-.119.25-.275.212-.348a1.942 1.942 0 0 0 -.541-.517 1.555 1.555 0 0 1 -.7-.921 1.524 1.524 0 0 1 .74-1.494l.152-.117c.222-.167.431-.323.486-.5a1.379 1.379 0 0 0 -.214-.841l-1.776-3.687a1.269 1.269 0 0 1 -.121-.969c.326-.97 2.007-.867 3.956-.746a8.43 8.43 0 0 0 2.466-.032 1.362 1.362 0 0 0 .7-1.422c-.588-3.7-5.418-10.313-8.959-13.128l-.22-.175.035-.279a18.319 18.319 0 0 0 -2.2-10.821c-3.465-5.248-7.43-8.518-12.476-10.306-5.066-1.808-11.9-1.784-17.836.063a22.162 22.162 0 0 0 -13.727 12.515c-3.267 7.392-2.663 15.163-1.635 17.5a39.487 39.487 0 0 0 3.717 7.661 23.08 23.08 0 0 1 3.127 14.119c-.232 2.271-.531 4.375-.908 7.04-.265 1.877-.572 4.041-.927 6.76z"/></g><path d="m46.943 11.792a.6.6 0 0 1 -.4-.154l-.347-.3a.6.6 0 1 1 .791-.9l.358.307a.6.6 0 0 1 -.4 1.046z" fill="#fff"/><path d="m52.76 19.328a.6.6 0 0 1 -.527-.313l-.148-.266a31.072 31.072 0 0 0 -3.722-5.187.6.6 0 0 1 .9-.8 32.244 32.244 0 0 1 3.866 5.39l.158.285a.6.6 0 0 1 -.525.887z" fill="#fff"/></svg>