<svg id="color_line" height="512" viewBox="0 0 74 74" width="512" xmlns="http://www.w3.org/2000/svg" data-name="color line"><path d="m64.855 65.764-26.355 5.236c-.92-2.8-1.815-5.6-2.735-8.406a3.386 3.386 0 0 0 -.865-1.594 3.579 3.579 0 0 0 -2.434-.493c-1.539.059-3.078.092-4.584.059a7.228 7.228 0 0 1 -3.572-.678c-1.02-.611-2-2.334-1.263-3.262a1.715 1.715 0 0 0 0-1.757 11.945 11.945 0 0 1 -.895-1.631c-.276-1.071 1.23-1.414 1.79-1.69-.586.125-2.125-.243-2.25-1.171-.092-.586.4-1.171.335-1.757a2.047 2.047 0 0 0 -1.627-1.66c-.552-.159-1.138-.184-1.723-.343a1.732 1.732 0 0 1 -1.23-1.1 2.2 2.2 0 0 1 .4-1.606c1.012-1.874 2.058-3.756 3.078-5.629a39.535 39.535 0 0 0 1.782-4.308 5.708 5.708 0 0 0 .309-2.35 12.421 12.421 0 0 1 .092-3.053h39.9a20.878 20.878 0 0 1 -.736 13.367c-.335.845-.661 1.7-.954 2.56a26.086 26.086 0 0 0 -1.7 11.359 14.137 14.137 0 0 0 5.237 9.907z" fill="#eeefee"/><path d="m64.86 65.76-2.85.57a17.364 17.364 0 0 1 -5.32-10.48 26.063 26.063 0 0 1 1.69-11.36c.3-.86.62-1.71.96-2.56a20.873 20.873 0 0 0 .73-13.36h2.94a20.877 20.877 0 0 1 -.74 13.36c-.33.85-.66 1.7-.95 2.56a26.07 26.07 0 0 0 -1.7 11.36 14.12 14.12 0 0 0 5.24 9.91z" fill="#e1e6e9"/><path d="m63.006 28.566-34.647-19.787a14.833 14.833 0 0 1 7.262-4.907c5.687-1.761 11.865-.8 17.494 2.41a27 27 0 0 1 3.578 2.438 19.2 19.2 0 0 1 6.313 19.846z" fill="#eeefee"/><path d="m63.01 28.57-1.94-1.11a18.946 18.946 0 0 0 -6.81-16.99 27.8 27.8 0 0 0 -3.58-2.44c-5.63-3.21-11.81-4.17-17.5-2.41a15.357 15.357 0 0 0 -3.11 1.36 15.01 15.01 0 0 1 5.55-3.11c5.69-1.76 11.87-.8 17.5 2.41a27.684 27.684 0 0 1 3.57 2.44 19.213 19.213 0 0 1 6.32 19.85z" fill="#e1e6e9"/><path d="m17.648 14.839h7.182v4.72h-7.182z" fill="#27ccbc"/><path d="m36.65 22.75h7.504v5.819h-7.504z" fill="#fcd462"/><path d="m16.132 3.519h7.507v7.022h-7.507z" fill="#fcd462"/><path d="m9.387 23.304h5.265v5.265h-5.265z" fill="#fcd462"/><path d="m9.145 13.386h3.813v3.813h-3.813z" fill="#fe7058"/><path d="m29.277 20.406h3.813v3.813h-3.813z" fill="#fe7058"/><path d="m24.83 14.84v4.72h-1.82v-3.22h-5.36v-1.5z" fill="#21b3a9"/><path d="m44.15 22.75v5.82h-1.82v-4.32h-5.68v-1.5z" fill="#f7be56"/><path d="m23.64 3.52v7.02h-1.82v-5.52h-5.69v-1.5z" fill="#f7be56"/><path d="m14.65 23.3v5.27h-1.82v-3.77h-3.44v-1.5z" fill="#f7be56"/><path d="m12.96 13.39v3.81h-1.82v-2.31h-2v-1.5z" fill="#ea6453"/><path d="m33.09 20.41v3.81h-1.82v-2.31h-1.99v-1.5z" fill="#ea6453"/><g fill="#323c6b"><path d="m14.96 47.75a.5.5 0 0 1 -.437-.258l-.074-.128a2.757 2.757 0 0 1 -.206-.4.5.5 0 1 1 .93-.366 1.839 1.839 0 0 0 .137.256l.089.154a.5.5 0 0 1 -.437.742z"/><path d="m14.471 45.031a.556.556 0 0 1 -.075-.005.5.5 0 0 1 -.42-.569 6.652 6.652 0 0 1 .817-2.26c.574-1.064 1.187-2.178 1.8-3.292a.5.5 0 0 1 .877.481c-.611 1.112-1.222 2.224-1.8 3.292a5.737 5.737 0 0 0 -.706 1.928.5.5 0 0 1 -.493.425z"/><path d="m60.224 8.335a.5.5 0 0 1 -.334-.127l-.309-.274a.5.5 0 1 1 .66-.751l.316.28a.5.5 0 0 1 -.334.873z"/><path d="m66.057 18.875a.5.5 0 0 1 -.487-.387 21.083 21.083 0 0 0 -4.024-8.388.5.5 0 1 1 .783-.621 22.087 22.087 0 0 1 4.215 8.786.5.5 0 0 1 -.374.6.478.478 0 0 1 -.113.01z"/><path d="m38.5 71.5a.5.5 0 0 1 -.475-.344q-.688-2.1-1.364-4.192t-1.37-4.214a2.974 2.974 0 0 0 -.717-1.376 3.168 3.168 0 0 0 -2.087-.374c-1.823.069-3.291.089-4.614.059a7.672 7.672 0 0 1 -3.821-.751 3.963 3.963 0 0 1 -1.719-2.464 1.861 1.861 0 0 1 .324-1.535 1.244 1.244 0 0 0 -.057-1.225 6.447 6.447 0 0 0 -.343-.579 4.735 4.735 0 0 1 -.581-1.125 1.434 1.434 0 0 1 .66-1.619 2.627 2.627 0 0 1 -.426-.241 1.59 1.59 0 0 1 -.71-1.08 2.276 2.276 0 0 1 .188-1.131 1.624 1.624 0 0 0 .144-.635 1.571 1.571 0 0 0 -1.26-1.229 6.71 6.71 0 0 0 -.816-.164 8.607 8.607 0 0 1 -.911-.181 2.189 2.189 0 0 1 -1.586-1.476 2.63 2.63 0 0 1 .452-1.961c.594-1.1 1.2-2.207 1.811-3.314l1.265-2.31a26.617 26.617 0 0 0 1.359-3.207c.13-.347.26-.695.4-1.043a5.189 5.189 0 0 0 .277-2.12 12.923 12.923 0 0 1 .1-3.176.5.5 0 0 1 .494-.426h39.9a.5.5 0 0 1 .481.366 21.222 21.222 0 0 1 -.754 13.686c-.33.835-.653 1.681-.943 2.535a25.4 25.4 0 0 0 -1.685 11.146 13.692 13.692 0 0 0 5.036 9.562.5.5 0 0 1 -.2.892l-26.352 5.236a.48.48 0 0 1 -.1.01zm-5.516-11.509a3.394 3.394 0 0 1 2.233.619 3.806 3.806 0 0 1 1.022 1.834q.69 2.1 1.37 4.212.611 1.884 1.225 3.768l24.883-4.944a14.847 14.847 0 0 1 -4.595-9.58 26.354 26.354 0 0 1 1.724-11.578c.321-.945.682-1.874.96-2.577a20.229 20.229 0 0 0 .817-12.683h-39.078a11.65 11.65 0 0 0 -.031 2.5 6.233 6.233 0 0 1 -.334 2.559c-.142.365-.271.709-.4 1.052a27.773 27.773 0 0 1 -1.415 3.33l-1.265 2.327c-.606 1.105-1.215 2.211-1.81 3.314a1.825 1.825 0 0 0 -.359 1.238c.085.371.522.632.905.76a7.788 7.788 0 0 0 .779.15 7.814 7.814 0 0 1 .924.187 2.527 2.527 0 0 1 1.991 2.1 2.378 2.378 0 0 1 -.2 1.061 1.53 1.53 0 0 0 -.142.653.621.621 0 0 0 .3.41 2.176 2.176 0 0 0 1.354.351.5.5 0 0 1 .325.938c-.108.053-.25.11-.406.172-.937.371-1.209.6-1.12.944a4 4 0 0 0 .462.861 7.392 7.392 0 0 1 .4.672 2.211 2.211 0 0 1 -.057 2.292.887.887 0 0 0 -.123.731 2.969 2.969 0 0 0 1.253 1.789 6.844 6.844 0 0 0 3.325.607c1.3.03 2.751.01 4.555-.058.17-.002.35-.011.528-.011z"/><path d="m63.329 29.327-35.722-20.401.359-.456a15.343 15.343 0 0 1 7.508-5.076c5.683-1.759 12.036-.888 17.889 2.454a27.609 27.609 0 0 1 3.645 2.483 19.68 19.68 0 0 1 6.482 20.358zm-34.207-20.688 33.551 19.161a18.64 18.64 0 0 0 -6.295-18.691 26.583 26.583 0 0 0 -3.511-2.393c-5.608-3.2-11.681-4.044-17.1-2.367a14.434 14.434 0 0 0 -6.645 4.29z"/><path d="m25.329 20.059h-8.182v-5.72h8.182zm-7.182-1h6.182v-3.72h-6.182z"/><path d="m44.654 29.069h-8.5v-6.819h8.5zm-7.5-1h6.5v-4.819h-6.5z"/><path d="m24.139 11.042h-8.507v-8.022h8.507zm-7.507-1h6.507v-6.022h-6.507z"/><path d="m15.152 29.069h-6.265v-6.269h6.266zm-5.266-1h4.266v-4.269h-4.265z"/><path d="m13.457 17.7h-4.812v-4.814h4.813zm-3.812-1h2.813v-2.814h-2.813z"/><path d="m33.59 24.719h-4.813v-4.813h4.813zm-3.812-1h2.812v-2.813h-2.813z"/></g></svg>