<svg id="color_line" height="512" viewBox="0 0 74 74" width="512" xmlns="http://www.w3.org/2000/svg" data-name="color line"><rect fill="#eeefee" height="59.371" rx="3.621" width="41.863" x="16.069" y="11.629"/><path d="m57.93 15.25v52.13a3.619 3.619 0 0 1 -3.62 3.62h-34.62a3.635 3.635 0 0 1 -3.55-2.87 3.316 3.316 0 0 0 .55.04h34.62a3.619 3.619 0 0 0 3.62-3.62v-52.13a4.539 4.539 0 0 0 -.07-.75 3.627 3.627 0 0 1 3.07 3.58z" fill="#e1e6e9"/><path d="m31.962 44.775h10.076v30.625h-10.076z" fill="#27ccbc" transform="matrix(0 1 -1 0 97.087 23.087)"/><path d="m31.962 30.936h10.076v30.625h-10.076z" fill="#27ccbc" transform="matrix(0 1 -1 0 83.248 9.249)"/><path d="m31.962 17.097h10.076v30.625h-10.076z" fill="#27ccbc" transform="matrix(0 1 -1 0 69.41 -4.59)"/><path d="m52.31 55.05v10.07h-30.62v-2.18h28.18v-7.89z" fill="#21b3a9"/><path d="m52.31 41.21v10.08h-30.62v-2.19h28.18v-7.89z" fill="#21b3a9"/><path d="m52.31 27.37v10.08h-30.62v-2.19h28.18v-7.89z" fill="#21b3a9"/><path d="m42.8 4.235h-11.6a2.849 2.849 0 0 0 -2.849 2.849v4.546h17.296v-4.547a2.849 2.849 0 0 0 -2.847-2.848z" fill="#9297ab"/><g fill="#323c6b"><path d="m46.146 12.129h-18.292v-5.046a3.353 3.353 0 0 1 3.346-3.349h11.6a3.353 3.353 0 0 1 3.349 3.349zm-17.293-1h16.293v-4.046a2.352 2.352 0 0 0 -2.346-2.349h-11.6a2.352 2.352 0 0 0 -2.349 2.349z"/><path d="m60.932 61.208a.5.5 0 0 1 -.5-.5v-.667a.5.5 0 0 1 1 0v.667a.5.5 0 0 1 -.5.5z"/><path d="m13.068 19.125a.5.5 0 0 1 -.5-.5v-.5a.5.5 0 0 1 1 0v.5a.5.5 0 0 1 -.5.5z"/><path d="m13.068 16.375a.5.5 0 0 1 -.5-.5v-.625a7.16 7.16 0 0 1 5.573-6.938.5.5 0 1 1 .217.977 6.153 6.153 0 0 0 -4.79 5.962v.625a.5.5 0 0 1 -.5.499z"/><path d="m60.932 57.917a.5.5 0 0 1 -.5-.5v-7.75a.5.5 0 0 1 1 0v7.75a.5.5 0 0 1 -.5.5z"/><path d="m54.31 71.5h-34.62a4.126 4.126 0 0 1 -4.122-4.121v-52.129a4.126 4.126 0 0 1 4.122-4.121h34.62a4.126 4.126 0 0 1 4.122 4.121v52.129a4.126 4.126 0 0 1 -4.122 4.121zm-34.62-59.371a3.125 3.125 0 0 0 -3.122 3.121v52.129a3.125 3.125 0 0 0 3.122 3.121h34.62a3.125 3.125 0 0 0 3.122-3.121v-52.129a3.125 3.125 0 0 0 -3.122-3.121z"/><path d="m52.813 65.625h-31.625v-11.076h31.625zm-30.625-1h29.625v-9.076h-29.625z"/><path d="m52.813 51.786h-31.625v-11.076h31.625zm-30.625-1h29.625v-9.076h-29.625z"/><path d="m52.813 37.948h-31.625v-11.076h31.625zm-30.625-1h29.625v-9.076h-29.625z"/></g><path d="m31.28 29.857a.726.726 0 0 1 .726-.726h7.681a.726.726 0 0 1 0 1.452h-7.681a.726.726 0 0 1 -.726-.726z" fill="#fff"/><path d="m28.353 29.857a.726.726 0 0 1 .726-.726h.381a.726.726 0 0 1 0 1.452h-.381a.726.726 0 0 1 -.726-.726z" fill="#fff"/></svg>