<svg id="color_line" height="512" viewBox="0 0 74 74" width="512" xmlns="http://www.w3.org/2000/svg" data-name="color line"><rect fill="#27ccbc" height="38.027" rx="4.03" width="38.027" x="17.285" y="17.928"/><path d="m55.31 21.96v29.97a4.028 4.028 0 0 1 -2.93 3.87 3.659 3.659 0 0 0 .13-1v-29.97a4.031 4.031 0 0 0 -4.03-4.03h-29.97a3.93 3.93 0 0 0 -1.09.15 4.016 4.016 0 0 1 3.9-3.02h29.96a4.025 4.025 0 0 1 4.03 4.03z" fill="#21b3a9"/><path d="m25.393 23.1h21.807a2.933 2.933 0 0 1 2.933 2.933v21.813a2.933 2.933 0 0 1 -2.933 2.933h-21.807a2.932 2.932 0 0 1 -2.932-2.932v-21.811a2.932 2.932 0 0 1 2.932-2.936z" fill="#fcd462"/><path d="m50.14 26.04v21.81a2.923 2.923 0 0 1 -2.82 2.92.859.859 0 0 0 .01-.16v-21.81a2.928 2.928 0 0 0 -2.93-2.93h-21.81a.487.487 0 0 0 -.12.01 2.923 2.923 0 0 1 2.92-2.78h21.81a2.945 2.945 0 0 1 2.94 2.94z" fill="#f7be56"/><path d="m10.654 25.368h6.631v1h-6.631z" fill="#323c6b"/><path d="m9.8 36.441h7.485v1h-7.485z" fill="#323c6b"/><path d="m17.285 48.515h-7.736l-2.778-3.796.807-.591 2.479 3.387h7.228z" fill="#323c6b"/><path d="m55.313 25.368h5.808v1h-5.808z" fill="#323c6b"/><path d="m65.729 39.34-3.077-1.899h-7.339v-1h7.623l3.319 2.049z" fill="#323c6b"/><path d="m55.312 47.512h7.485v1h-7.485z" fill="#323c6b"/><path d="m24.726 55.955h1v6.743h-1z" fill="#323c6b"/><path d="m35.799 55.955h1v7.485h-1z" fill="#323c6b"/><path d="m44.7 66.6-.679-.733 2.851-2.648v-7.264h1v7.7z" fill="#323c6b"/><path d="m25.726 17.928h-1v-7.27l-2.692-2.602.695-.719 2.997 2.897z" fill="#323c6b"/><path d="m35.799 10.443h1v7.485h-1z" fill="#323c6b"/><path d="m46.872 11.849h1v6.079h-1z" fill="#323c6b"/><path d="m30.273 29.464a3.675 3.675 0 0 0 -2.839 3.425 2.033 2.033 0 0 0 .044.474 3.647 3.647 0 0 0 -1.539 2.931 3.555 3.555 0 0 0 1.22 2.651 3.413 3.413 0 0 0 -.465 1.722 3.67 3.67 0 0 0 2.316 3.314 4.274 4.274 0 0 0 4.429 3.652h.033a2.777 2.777 0 0 0 2.828-2.668v-17.215c-.185-1.033-1.062-1.511-2.234-1.5a4.42 4.42 0 0 0 -3.793 3.214z" fill="#fe7058"/><path d="m33.473 48.133a4.851 4.851 0 0 1 -4.925-3.816 4.155 4.155 0 0 1 -2.354-3.649 3.929 3.929 0 0 1 .353-1.624 4.007 4.007 0 0 1 -1.107-2.75 4.1 4.1 0 0 1 1.5-3.145c-.008-.095-.009-.184-.009-.261a4.165 4.165 0 0 1 2.961-3.832 4.751 4.751 0 0 1 4.136-3.306 2.487 2.487 0 0 1 2.761 1.911l.008 17.3a3.268 3.268 0 0 1 -3.325 3.168zm.633-21.383h-.036c-1.521.1-2.65 1.077-3.328 2.89l-.09.238-.245.068a3.2 3.2 0 0 0 -2.473 2.942 1.58 1.58 0 0 0 .03.357l.078.323-.268.2a3.146 3.146 0 0 0 -1.336 2.528 3.065 3.065 0 0 0 1.055 2.28l.3.272-.2.35a2.894 2.894 0 0 0 -.4 1.471 3.189 3.189 0 0 0 2.015 2.855l.273.119.026.3a3.792 3.792 0 0 0 3.931 3.2 2.276 2.276 0 0 0 2.36-2.168v-17.225c-.152-.809-.998-1-1.693-1z" fill="#323c6b"/><path d="m42.324 29.464a3.675 3.675 0 0 1 2.839 3.425 2.033 2.033 0 0 1 -.044.474 3.647 3.647 0 0 1 1.539 2.931 3.555 3.555 0 0 1 -1.22 2.651 3.413 3.413 0 0 1 .465 1.722 3.67 3.67 0 0 1 -2.316 3.314 4.274 4.274 0 0 1 -4.429 3.652h-.033a2.777 2.777 0 0 1 -2.825-2.668v-17.215c.185-1.033 1.062-1.511 2.234-1.5a4.42 4.42 0 0 1 3.79 3.214z" fill="#fe7058"/><path d="m45.44 38.95a3.352 3.352 0 0 1 .46 1.72 3.659 3.659 0 0 1 -2.31 3.31 4.178 4.178 0 0 1 -3.72 3.6 3.878 3.878 0 0 0 1.43-2.61 3.672 3.672 0 0 0 2.31-3.32 3.407 3.407 0 0 0 -.46-1.72 3.566 3.566 0 0 0 1.22-2.65 3.658 3.658 0 0 0 -1.54-2.93 2.425 2.425 0 0 0 .04-.47 3.683 3.683 0 0 0 -2.84-3.43 4.422 4.422 0 0 0 -3.56-3.18 2.066 2.066 0 0 1 2.06-1.02 4.41 4.41 0 0 1 3.79 3.21 3.672 3.672 0 0 1 2.84 3.43 1.833 1.833 0 0 1 -.04.47 3.673 3.673 0 0 1 1.54 2.93 3.6 3.6 0 0 1 -1.22 2.66z" fill="#ea6453"/><circle cx="20.399" cy="5.767" fill="#bbbbcd" r="2.767"/><path d="m20.4 9.034a3.267 3.267 0 1 1 3.267-3.267 3.271 3.271 0 0 1 -3.267 3.267zm0-5.534a2.267 2.267 0 1 0 2.267 2.267 2.269 2.269 0 0 0 -2.267-2.267z" fill="#323c6b"/><circle cx="68.097" cy="40.712" fill="#bbbbcd" r="2.767"/><path d="m68.1 43.979a3.267 3.267 0 1 1 3.267-3.267 3.271 3.271 0 0 1 -3.267 3.267zm0-5.534a2.267 2.267 0 1 0 2.267 2.267 2.269 2.269 0 0 0 -2.267-2.267z" fill="#323c6b"/><circle cx="42.441" cy="68.233" fill="#bbbbcd" r="2.767"/><path d="m42.441 71.5a3.267 3.267 0 1 1 3.267-3.267 3.271 3.271 0 0 1 -3.267 3.267zm0-5.534a2.267 2.267 0 1 0 2.267 2.267 2.27 2.27 0 0 0 -2.267-2.267z" fill="#323c6b"/><circle cx="5.903" cy="41.971" fill="#bbbbcd" r="2.767"/><path d="m5.9 45.237a3.267 3.267 0 1 1 3.27-3.266 3.271 3.271 0 0 1 -3.27 3.266zm0-5.533a2.267 2.267 0 1 0 2.27 2.267 2.269 2.269 0 0 0 -2.27-2.271z" fill="#323c6b"/><circle cx="47.369" cy="9.081" fill="#bbbbcd" r="2.767"/><path d="m47.369 12.348a3.267 3.267 0 1 1 3.267-3.267 3.271 3.271 0 0 1 -3.267 3.267zm0-5.534a2.267 2.267 0 1 0 2.267 2.267 2.269 2.269 0 0 0 -2.267-2.267z" fill="#323c6b"/><circle cx="25.228" cy="65.466" fill="#bbbbcd" r="2.767"/><path d="m25.229 68.733a3.267 3.267 0 1 1 3.271-3.267 3.271 3.271 0 0 1 -3.271 3.267zm0-5.534a2.267 2.267 0 1 0 2.271 2.267 2.269 2.269 0 0 0 -2.271-2.266z" fill="#323c6b"/><circle cx="7.891" cy="25.871" fill="#bbbbcd" r="2.767"/><path d="m7.891 29.138a3.267 3.267 0 1 1 3.267-3.267 3.271 3.271 0 0 1 -3.267 3.267zm0-5.534a2.267 2.267 0 1 0 2.267 2.267 2.269 2.269 0 0 0 -2.267-2.271z" fill="#323c6b"/><circle cx="63.888" cy="25.871" fill="#bbbbcd" r="2.767"/><g fill="#323c6b"><path d="m63.889 29.138a3.267 3.267 0 1 1 3.267-3.267 3.271 3.271 0 0 1 -3.267 3.267zm0-5.534a2.267 2.267 0 1 0 2.267 2.267 2.27 2.27 0 0 0 -2.267-2.271z"/><path d="m31.728 39.451a.5.5 0 0 1 -.382-.177 2.436 2.436 0 0 0 -1.813-1.024 3.054 3.054 0 0 0 -1.988 1.025.5.5 0 0 1 -.763-.646 4.027 4.027 0 0 1 2.751-1.378 3.374 3.374 0 0 1 2.582 1.378.5.5 0 0 1 -.382.823z"/><path d="m29.872 38.275a.5.5 0 0 1 -.164-.973 2.289 2.289 0 0 0 1.347-1.381.5.5 0 1 1 .967.253 3.267 3.267 0 0 1 -1.985 2.073.507.507 0 0 1 -.165.028z"/><path d="m32.438 30.262a.5.5 0 0 1 -.228-.055 2.709 2.709 0 0 0 -1.811-.26.5.5 0 0 1 -.268-.964 3.732 3.732 0 0 1 2.533.333.5.5 0 0 1 -.228.945z"/><path d="m29.083 44.48h-.083a.5.5 0 0 1 -.494-.506.484.484 0 0 1 .506-.494 2.939 2.939 0 0 0 2.423-.861.5.5 0 0 1 .738.675 3.991 3.991 0 0 1 -3.09 1.186z"/><path d="m40.87 39.451a.5.5 0 0 1 -.382-.823 3.374 3.374 0 0 1 2.581-1.378 4.028 4.028 0 0 1 2.752 1.378.5.5 0 0 1 -.763.646 3.057 3.057 0 0 0 -1.988-1.024h-.006a2.436 2.436 0 0 0 -1.812 1.024.5.5 0 0 1 -.382.177z"/><path d="m42.726 38.275a.5.5 0 0 1 -.163-.027 3.263 3.263 0 0 1 -1.986-2.073.5.5 0 1 1 .967-.253 2.289 2.289 0 0 0 1.348 1.378.5.5 0 0 1 -.166.972z"/><path d="m40.158 30.262a.5.5 0 0 1 -.228-.945 3.746 3.746 0 0 1 2.533-.333.5.5 0 1 1 -.27.963 2.742 2.742 0 0 0 -1.809.261.5.5 0 0 1 -.226.054z"/><path d="m43.515 44.48a3.988 3.988 0 0 1 -3.093-1.187.5.5 0 0 1 .738-.675 3.025 3.025 0 0 0 2.355.862h.073a.5.5 0 0 1 .006 1z"/><path d="m33.841 33.311a.5.5 0 0 1 -.284-.089 1.511 1.511 0 0 0 -1.574-.138.5.5 0 1 1 -.51-.86 2.521 2.521 0 0 1 2.652.176.5.5 0 0 1 -.284.911z"/><path d="m34.553 41.3a.5.5 0 0 1 -.284-.088 1.524 1.524 0 0 0 -1.58-.136.5.5 0 0 1 -.5-.863 2.519 2.519 0 0 1 2.653.176.5.5 0 0 1 -.284.911z"/><path d="m40.87 41.49a.5.5 0 0 1 -.284-.088 1.525 1.525 0 0 0 -1.58-.136.5.5 0 0 1 -.5-.863 2.517 2.517 0 0 1 2.653.176.5.5 0 0 1 -.284.911z"/><path d="m40.791 33.311a.5.5 0 0 1 -.284-.088 1.529 1.529 0 0 0 -1.58-.136.5.5 0 0 1 -.5-.863 2.517 2.517 0 0 1 2.653.175.5.5 0 0 1 -.284.912z"/><path d="m51.282 59.455a.5.5 0 0 1 0-1 6.508 6.508 0 0 0 5.769-3.521.5.5 0 0 1 .887.464 7.506 7.506 0 0 1 -6.656 4.057z"/><path d="m14.286 22.438a.5.5 0 0 1 -.5-.5c0-.11.008-.219.015-.327l.007-.1a.48.48 0 0 1 .528-.47.5.5 0 0 1 .47.528l-.007.112c-.006.089-.012.178-.013.269a.5.5 0 0 1 -.5.488z"/><path d="m14.932 19.531a.5.5 0 0 1 -.454-.709 7.519 7.519 0 0 1 6.333-4.358.527.527 0 0 1 .532.465.5.5 0 0 1 -.466.533 6.521 6.521 0 0 0 -5.491 3.778.5.5 0 0 1 -.454.291z"/><path d="m58.267 53.208h-.057a.5.5 0 0 1 -.441-.552c.022-.2.032-.412.036-.621a.476.476 0 0 1 .509-.491.5.5 0 0 1 .491.509c0 .24-.016.479-.042.713a.5.5 0 0 1 -.496.442z"/><path d="m51.282 56.455h-29.967a4.534 4.534 0 0 1 -4.53-4.528v-29.97a4.534 4.534 0 0 1 4.53-4.528h29.967a4.534 4.534 0 0 1 4.529 4.528v29.97a4.534 4.534 0 0 1 -4.529 4.528zm-29.967-38.027a3.534 3.534 0 0 0 -3.53 3.528v29.97a3.534 3.534 0 0 0 3.53 3.528h29.967a3.533 3.533 0 0 0 3.529-3.528v-29.969a3.533 3.533 0 0 0 -3.529-3.528z"/><path d="m47.2 51.279h-21.805a3.436 3.436 0 0 1 -3.433-3.432v-21.811a3.436 3.436 0 0 1 3.433-3.436h21.805a3.436 3.436 0 0 1 3.433 3.432v21.815a3.436 3.436 0 0 1 -3.433 3.432zm-21.805-27.679a2.435 2.435 0 0 0 -2.433 2.432v21.815a2.435 2.435 0 0 0 2.433 2.432h21.805a2.435 2.435 0 0 0 2.433-2.432v-21.811a2.435 2.435 0 0 0 -2.433-2.436z"/><path d="m39.159 48.133a3.278 3.278 0 0 1 -3.36-3.168v-17.215a2.442 2.442 0 0 1 2.694-2h.044a4.757 4.757 0 0 1 4.163 3.307 4.165 4.165 0 0 1 2.961 3.832c0 .081 0 .169-.008.261a4.1 4.1 0 0 1 1.5 3.145 4.008 4.008 0 0 1 -1.107 2.75 3.945 3.945 0 0 1 .352 1.623 4.155 4.155 0 0 1 -2.354 3.649 4.841 4.841 0 0 1 -4.885 3.816zm-.69-21.385c-.669 0-1.518.191-1.678 1.089l.009 17.128a2.267 2.267 0 0 0 2.33 2.168 3.8 3.8 0 0 0 3.96-3.2l.026-.3.272-.119a3.189 3.189 0 0 0 2.012-2.847 2.907 2.907 0 0 0 -.4-1.471l-.2-.35.3-.271a3.065 3.065 0 0 0 1.055-2.28 3.141 3.141 0 0 0 -1.337-2.528l-.269-.2.08-.325a1.6 1.6 0 0 0 .029-.354 3.2 3.2 0 0 0 -2.473-2.942l-.245-.068-.09-.238c-.678-1.813-1.808-2.786-3.357-2.891z"/></g></svg>