<svg id="color_line" height="512" viewBox="0 0 74 74" width="512" xmlns="http://www.w3.org/2000/svg" data-name="color line"><path d="m60.8 49.022a23.793 23.793 0 0 1 -14.713 21.978h-18.174a23.787 23.787 0 0 1 -.1-43.933v-16.481h18.372v16.48a23.8 23.8 0 0 1 14.615 21.956z" fill="#eeefee"/><path d="m60.8 49.02a23.787 23.787 0 0 1 -14.71 21.98h-3.95a23.785 23.785 0 0 0 .1-43.93v-16.48h3.95v16.48a23.8 23.8 0 0 1 14.61 21.95z" fill="#e1e6e9"/><rect fill="#9297ab" height="7.581" rx="1.798" width="24.523" x="24.738" y="3"/><path d="m47.463 11.081h-20.927a2.3 2.3 0 0 1 -2.3-2.3v-3.981a2.3 2.3 0 0 1 2.3-2.3h20.927a2.3 2.3 0 0 1 2.3 2.3v3.983a2.3 2.3 0 0 1 -2.3 2.298zm-20.927-7.581a1.3 1.3 0 0 0 -1.3 1.3v3.983a1.3 1.3 0 0 0 1.3 1.3h20.927a1.3 1.3 0 0 0 1.3-1.3v-3.983a1.3 1.3 0 0 0 -1.3-1.3z" fill="#323c6b"/><path d="m50.183 49.127a5.812 5.812 0 0 1 .606 2.588 5.652 5.652 0 0 1 -3.854 5.351l-.035 5.039-4.944 1.442-1.956-5.347a4.325 4.325 0 0 1 -3.612-2.015 5.7 5.7 0 0 1 -2.455.551 5.8 5.8 0 0 1 -4.184-1.784 5.944 5.944 0 0 1 -8.985-5.109 5.689 5.689 0 0 1 .87-3.072 4.3 4.3 0 0 1 -.253-1.509 4.831 4.831 0 0 1 3.259-4.581 5.4 5.4 0 0 1 5.142-3.81 3.848 3.848 0 0 1 .716.055 5.681 5.681 0 0 1 8.379-.429 5.6 5.6 0 0 1 2.577-.628 5.526 5.526 0 0 1 4.977 3.116 5.962 5.962 0 0 1 3.755 10.141z" fill="#fe7058"/><path d="m45.25 59a5.762 5.762 0 0 0 1.67-.91l-.02 4.02-1.68.49z" fill="#ea6453"/><path d="m50.18 49.13a5.734 5.734 0 0 1 .61 2.58 5.676 5.676 0 0 1 -2.35 4.59 5.624 5.624 0 0 0 .66-2.65 5.872 5.872 0 0 0 -.6-2.59 5.96 5.96 0 0 0 -3.76-10.14 5.541 5.541 0 0 0 -7.55-2.49 5.682 5.682 0 0 0 -8.38.43 4.2 4.2 0 0 0 -.72-.06 5.279 5.279 0 0 0 -3.08.98 5.4 5.4 0 0 1 4.77-2.91 3.5 3.5 0 0 1 .72.06 5.65 5.65 0 0 1 4.39-2.07 5.59 5.59 0 0 1 3.98 1.64 5.621 5.621 0 0 1 2.58-.63 5.532 5.532 0 0 1 4.98 3.12 5.961 5.961 0 0 1 3.75 10.14z" fill="#ea6453"/><g fill="#323c6b"><path d="m37.472 43.205a3.763 3.763 0 0 1 -1.542-3.084c.117-2.256 2.563-3.963 2.667-4.035l.567.824c-.021.015-2.146 1.5-2.235 3.265a2.828 2.828 0 0 0 1.192 2.27z"/><path d="m33.1 42.949h-.056l.012-1a2.975 2.975 0 0 0 2.909-2.173l.974.228a3.887 3.887 0 0 1 -3.839 2.945z"/><path d="m22.009 47.1-.752-.66a4.593 4.593 0 0 1 4.643-1.127l-.254.967a3.625 3.625 0 0 0 -3.637.82z"/><path d="m29.38 55.285a8.775 8.775 0 0 1 -2.015-3.264l.966-.26-.483.13.482-.131a8 8 0 0 0 1.789 2.853z"/><path d="m49.727 49.346a5.964 5.964 0 0 0 -6.034-3.489l-.148-.989a7 7 0 0 1 7.084 4.048z"/><path d="m36.535 56.664-.294-.956c2.865-.881 3.557-4.113 3.563-4.146l.979.2c-.031.157-.822 3.848-4.248 4.902z"/><path d="m34.211 50.7a4.025 4.025 0 0 1 .877-3.523 3.75 3.75 0 0 1 2.9-.9l-.13.992a2.763 2.763 0 0 0 -2.074.625 3.115 3.115 0 0 0 -.585 2.682z"/><path d="m55.935 68.438a.5.5 0 0 1 -.354-.854 26.166 26.166 0 0 0 5.076-7.114.5.5 0 0 1 .9.435 27.175 27.175 0 0 1 -5.268 7.386.5.5 0 0 1 -.354.147z"/><path d="m16.625 32.125a.5.5 0 0 1 -.38-.825c.226-.265.387-.453.553-.637a.5.5 0 1 1 .74.673c-.16.175-.313.356-.468.537l-.07.077a.5.5 0 0 1 -.375.175z"/><path d="m20.549 28.375a.5.5 0 0 1 -.307-.9 27.521 27.521 0 0 1 4.073-2.632v-6.155a.5.5 0 0 1 1 0v6.465a.5.5 0 0 1 -.273.445 26.4 26.4 0 0 0 -4.187 2.672.5.5 0 0 1 -.306.105z"/><path d="m62.228 58.5a.5.5 0 0 1 -.471-.667c.037-.1.068-.207.1-.312l.5.063.478.146c-.061.2-.1.32-.139.438a.5.5 0 0 1 -.468.332z"/><path d="m46.187 71.5-18.466-.038a24.287 24.287 0 0 1 -.407-44.726v-16.65h19.372v16.65a24.287 24.287 0 0 1 -.407 44.726zm-18.174-1h17.974a23.287 23.287 0 0 0 0-42.972l-.307-.129v-16.313h-17.366v16.314l-.307.129a23.287 23.287 0 0 0 0 42.972z"/><path d="m41.645 64.159-2-5.474a4.79 4.79 0 0 1 -3.433-1.879 6.284 6.284 0 0 1 -6.545-1.236 6.445 6.445 0 0 1 -9.4-5.728 6.223 6.223 0 0 1 .822-3.133 4.948 4.948 0 0 1 -.205-1.448 5.319 5.319 0 0 1 3.361-4.968 5.862 5.862 0 0 1 5.54-3.922c.195 0 .362.007.514.021a6.184 6.184 0 0 1 8.673-.495 6.05 6.05 0 0 1 7.782 2.617 6.5 6.5 0 0 1 5.663 6.417 6.421 6.421 0 0 1 -1.633 4.291 6.336 6.336 0 0 1 .51 2.492 6.138 6.138 0 0 1 -3.856 5.7l-.038 5.067zm-5.074-8.616.237.375a3.8 3.8 0 0 0 3.192 1.782h.347l1.915 5.234 4.138-1.205.036-5.024.339-.113a5.139 5.139 0 0 0 3.513-4.877 5.306 5.306 0 0 0 -.553-2.364l-.16-.32.252-.255a5.462 5.462 0 0 0 -3.438-9.292l-.287-.022-.125-.259a5.051 5.051 0 0 0 -6.877-2.261l-.323.166-.258-.255a5.181 5.181 0 0 0 -7.641.39l-.188.23-.292-.056a3.319 3.319 0 0 0 -.623-.046 4.933 4.933 0 0 0 -4.665 3.458l-.076.244-.242.082a4.316 4.316 0 0 0 -2.919 4.107 3.836 3.836 0 0 0 .227 1.338l.086.233-.134.209a5.2 5.2 0 0 0 -.791 2.8 5.444 5.444 0 0 0 8.228 4.681l.34-.2.276.285a5.3 5.3 0 0 0 3.826 1.632 5.223 5.223 0 0 0 2.24-.5z"/></g></svg>