<svg id="color_line" height="512" viewBox="0 0 74 74" width="512" xmlns="http://www.w3.org/2000/svg" data-name="color line"><path d="m51.538 21.289a3.011 3.011 0 0 0 .183-1.049 3.185 3.185 0 0 0 -4.573-2.869l-6.681 3.229-5.367 1.44h-6.57l-7.49 3.225-8.14 14.935 19.3 13.244 12.05-22.444z" fill="#eeefee"/><path d="m43.875 31.672-2.892 5.45 11.445 6.597 2.76-4.36z" fill="#eeefee"/><path d="m52.428 44.219a.5.5 0 0 1 -.25-.067l-11.444-6.6a.5.5 0 0 1 -.191-.667l2.892-5.45a.5.5 0 0 1 .723-.179l11.313 7.688a.5.5 0 0 1 .142.681l-2.76 4.36a.5.5 0 0 1 -.425.234zm-10.777-7.289 10.61 6.116 2.245-3.546-10.45-7.1z" fill="#323c6b"/><path d="m55.187 39.359 5.737 3.908a1.324 1.324 0 0 1 .2 1.945l-1.784 2.009a1.324 1.324 0 0 1 -1.76.2l-5.151-3.7z" fill="#eeefee"/><path d="m58.352 48.166a1.817 1.817 0 0 1 -1.063-.343l-5.152-3.7a.5.5 0 0 1 -.137-.671l2.76-4.36a.5.5 0 0 1 .321-.222.5.5 0 0 1 .383.077l5.737 3.908a1.821 1.821 0 0 1 .294 2.691l-1.786 2.008a1.821 1.821 0 0 1 -1.357.612zm-5.252-4.578 4.769 3.422a.823.823 0 0 0 1.1-.122l1.786-2.009a.822.822 0 0 0 -.125-1.21l-5.295-3.606z" fill="#323c6b"/><path d="m40.979 37.104-2.957 5.454 11.434 5.639 2.972-4.478z" fill="#eeefee"/><path d="m49.456 48.7a.491.491 0 0 1 -.221-.052l-11.435-5.642a.5.5 0 0 1 -.219-.687l2.958-5.454a.5.5 0 0 1 .3-.243.508.508 0 0 1 .386.048l11.448 6.615a.5.5 0 0 1 .167.709l-2.972 4.478a.5.5 0 0 1 -.412.228zm-10.747-6.361 10.573 5.215 2.435-3.668-10.543-6.092z" fill="#323c6b"/><path d="m52.428 43.719 5.666 4.067a1.324 1.324 0 0 1 .272 1.889l-1.574 2.025a1.324 1.324 0 0 1 -1.789.28l-5.547-3.78z" fill="#eeefee"/><path d="m55.744 52.7a1.809 1.809 0 0 1 -1.023-.315l-5.546-3.775a.5.5 0 0 1 -.136-.689l2.972-4.478a.5.5 0 0 1 .709-.13l5.667 4.067a1.825 1.825 0 0 1 .374 2.6l-1.574 2.02a1.827 1.827 0 0 1 -1.443.7zm-5.6-4.643 5.138 3.5a.825.825 0 0 0 1.114-.174l1.574-2.021a.823.823 0 0 0 -.169-1.175l-5.245-3.765z" fill="#323c6b"/><path d="m38.047 42.558-2.894 5.388 11.797 4.729 2.506-4.478z" fill="#eeefee"/><path d="m46.95 53.175a.5.5 0 0 1 -.187-.036l-11.8-4.729a.5.5 0 0 1 -.254-.7l2.894-5.388a.5.5 0 0 1 .662-.212l11.409 5.64a.5.5 0 0 1 .215.692l-2.506 4.478a.5.5 0 0 1 -.433.255zm-11.092-5.485 10.87 4.358 2.034-3.636-10.5-5.192z" fill="#323c6b"/><path d="m49.456 48.2 3.389 2.309a1.324 1.324 0 0 1 .355 1.829l-1.106 1.656a1.324 1.324 0 0 1 -1.7.443l-3.444-1.762z" fill="#eeefee"/><path d="m50.993 55.08a1.819 1.819 0 0 1 -.829-.2l-3.441-1.759a.5.5 0 0 1 -.209-.689l2.506-4.478a.5.5 0 0 1 .718-.169l3.389 2.309a1.83 1.83 0 0 1 .49 2.52l-1.105 1.656a1.824 1.824 0 0 1 -1.519.81zm-3.353-2.614 2.979 1.523a.824.824 0 0 0 1.06-.276l1.105-1.656a.826.826 0 0 0 -.221-1.138l-2.937-2z" fill="#323c6b"/><path d="m35.153 47.946-2.951 5.498 12.744 3.013 2.004-3.782z" fill="#eeefee"/><path d="m46.95 52.675 2.375 1.217a1.324 1.324 0 0 1 .543 1.839l-.8 1.388a1.324 1.324 0 0 1 -1.736.524l-2.387-1.187z" fill="#eeefee"/><path d="m6.895 19.542h7.649v19.639h-7.649z" fill="#eeefee" transform="matrix(.876 .483 -.483 .876 15.505 -1.527)"/><path d="m33.16 51.65-.96 1.79-19.3-13.24.97-1.77 19.03 13.06.24.16z" fill="#e1e6e9"/><path d="m46.95 52.68-1.06 2-.94 1.78-12.75-3.02.7-1.95.24.16h.02l12.72 3.02 1.06-1.99z" fill="#e1e6e9"/><path d="m50.009 55.331a1.167 1.167 0 0 1 -.139.4l-.8 1.39a1.323 1.323 0 0 1 -1.74.52l-2.38-1.18.94-1.78 2.38 1.17a1.333 1.333 0 0 0 1.739-.52z" fill="#e1e6e9"/><path d="m50.01 55.33c0-.011.009-.02.011-.031z" fill="#e1e6e9"/><path d="m3.61 34.34 6.63 3.81-.91 1.66-6.7-3.69z" fill="#e1e6e9"/><path d="m18.81 22.61-.8 1.45.76-1.47z" fill="#e1e6e9"/><path d="m46.95 52.68-1.06 2-.01-.01 1.06-1.99z" fill="#e1e6e9"/><path d="m13.866 24.987h3.274v14.023h-3.274z" fill="#bbbbcd" transform="matrix(-.876 -.483 .483 -.876 13.634 67.505)"/><path d="m13.748 39.608-3.748-2.064 7.252-13.156 3.748 2.063zm-2.384-2.456 1.991 1.1 6.286-11.4-1.992-1.1z" fill="#323c6b"/><path d="m20.46 43.5-.6.87.04-.08z" fill="#f7be56"/><path d="m27.18 48.57a.4.4 0 0 0 -.05.09l-.05.06c-.02.02-.03.05-.05.07l-.14.17.16-.23a1.012 1.012 0 0 1 .13-.16z" fill="#f7be56"/><g fill="#323c6b"><path d="m40.921 27.083h1v5.901h-1z" transform="matrix(.555 -.832 .832 .555 -6.559 47.799)"/><circle cx="44.988" cy="36.031" r=".812"/><circle cx="50.113" cy="39.128" r=".812"/><circle cx="41.902" cy="41.089" r=".812" transform="matrix(.998 -.065 .065 .998 -2.577 2.805)"/><circle cx="47.217" cy="43.847" r=".812" transform="matrix(.998 -.065 .065 .998 -2.745 3.156)"/><circle cx="39.127" cy="46.283" r=".812" transform="matrix(.99 -.139 .139 .99 -6.054 5.889)"/><circle cx="44.633" cy="48.637" r=".812" transform="matrix(.99 -.139 .139 .99 -6.328 6.677)"/><circle cx="36.67" cy="51.955" r=".812" transform="matrix(.955 -.296 .296 .955 -13.735 13.183)"/><circle cx="42.482" cy="53.396" r=".812" transform="matrix(.955 -.296 .296 .955 -13.902 14.968)"/><circle cx="47.762" cy="55.392" r=".721" transform="matrix(.955 -.296 .296 .955 -14.256 16.62)"/><circle cx="50.366" cy="51.704" r=".721" transform="matrix(.955 -.296 .296 .955 -13.047 17.226)"/><circle cx="54.051" cy="47.963" r=".721" transform="matrix(.955 -.296 .296 .955 -11.775 18.149)"/><circle cx="56.945" cy="43.719" r=".721" transform="matrix(.955 -.296 .296 .955 -10.389 18.815)"/></g><path d="m35.369 34.118-7.889-4.555" fill="#eeefee"/><path d="m35.369 34.618a.5.5 0 0 1 -.25-.067l-7.889-4.551a.5.5 0 0 1 .5-.866l7.889 4.554a.5.5 0 0 1 -.25.933z" fill="#323c6b"/><path d="m32.664 38.748-7.888-4.554" fill="#eeefee"/><path d="m32.664 39.248a.5.5 0 0 1 -.25-.067l-7.889-4.554a.5.5 0 0 1 .5-.866l7.889 4.554a.5.5 0 0 1 -.25.933z" fill="#323c6b"/><path d="m29.928 43.903-7.888-4.554" fill="#eeefee"/><path d="m29.929 44.4a.5.5 0 0 1 -.25-.067l-7.889-4.551a.5.5 0 0 1 .5-.866l7.889 4.554a.5.5 0 0 1 -.25.933z" fill="#323c6b"/><path d="m2.209 30.667-.202.365" fill="#eeefee"/><path d="m2.007 31.532a.5.5 0 0 1 -.437-.742l.2-.366a.5.5 0 1 1 .875.483l-.2.366a.5.5 0 0 1 -.438.259z" fill="#323c6b"/><path d="m7.192 21.625-3.766 6.833" fill="#eeefee"/><path d="m3.426 28.958a.5.5 0 0 1 -.437-.741l3.766-6.833a.5.5 0 1 1 .875.482l-3.767 6.834a.5.5 0 0 1 -.437.258z" fill="#323c6b"/><path d="m64.78 39.969.312-1.363 4.398-3.012" fill="#eeefee"/><path d="m64.78 40.469a.487.487 0 0 1 -.111-.013.5.5 0 0 1 -.376-.6l.312-1.363a.5.5 0 0 1 .205-.3l4.4-3.012a.5.5 0 0 1 .564.825l-4.236 2.9-.269 1.172a.5.5 0 0 1 -.489.391z" fill="#323c6b"/><path d="m64.213 42.453.105-.462" fill="#eeefee"/><path d="m64.213 42.953a.487.487 0 0 1 -.111-.013.5.5 0 0 1 -.376-.6l.105-.461a.5.5 0 0 1 .975.223l-.105.461a.5.5 0 0 1 -.488.39z" fill="#323c6b"/><path d="m9.525 40.487-7.574-4.174 9.963-18.076 7.575 4.174zm-6.214-4.568 5.822 3.209 9-16.324-5.826-3.204z" fill="#323c6b"/><path d="m32.2 53.944a.5.5 0 0 1 -.283-.088l-19.304-13.248a.5.5 0 0 1 -.155-.651l8.142-14.932a.494.494 0 0 1 .24-.22l7.489-3.226a.5.5 0 0 1 .2-.041h6.5l5.309-1.427 6.593-3.192a3.686 3.686 0 0 1 5.29 3.319 3.51 3.51 0 0 1 -.214 1.223.511.511 0 0 1 -.068.126l-7.289 9.713-12.007 22.381a.5.5 0 0 1 -.322.25.514.514 0 0 1 -.121.013zm-18.648-13.905 18.473 12.678 11.785-21.953 7.283-9.713a2.537 2.537 0 0 0 .128-.811 2.685 2.685 0 0 0 -3.856-2.418l-6.679 3.224-5.46 1.477a.5.5 0 0 1 -.13.017h-6.462l-7.234 3.116z" fill="#323c6b"/><path d="m60.948 43.273 1.481-6.479 8.571-5.871-10.343-14.705-8.072 5.216-10-1.41-10.248 2.753-6.7 6.5a6.053 6.053 0 0 0 8 .777l1.362-.991 7.553-1.277-3.578.6z" fill="#fcd462"/><path d="m71 30.92-1.98 1.36-9.18-13.05-6.75 4.36-11.32-.56-10.25 2.76-4.65 4.5a5.608 5.608 0 0 1 -1.24-1.01l6.71-6.5 10.25-2.76 10 1.41 8.07-5.21z" fill="#f7be56"/><path d="m61.272 44.1-22.418-15.179-3.661.619-1.268.921a6.557 6.557 0 0 1 -8.656-.841l-.333-.358 7.146-6.934 10.477-2.813 9.911 1.4 8.32-5.375 10.91 15.51-8.827 6.05zm-20.991-15.42 20.343 13.77 1.36-5.958 8.316-5.692-9.776-13.9-7.824 5.055-10.079-1.422-10.029 2.693-6.242 6.057a5.557 5.557 0 0 0 6.987.37l1.457-1.06 7.67-1.3.166.986z" fill="#323c6b"/><rect fill="#fcd462" height="5.344" rx="2.102" transform="matrix(.82 .573 -.573 .82 28.151 -2.378)" width="4.204" x="15.753" y="40.88"/><rect fill="#fcd462" height="7.61" rx="2.102" transform="matrix(.82 .573 -.573 .82 30.125 -3.957)" width="4.204" x="19.25" y="42.094"/><rect fill="#fcd462" height="6.488" rx="2.102" transform="matrix(.82 .573 -.573 .82 32.124 -5.497)" width="4.204" x="22.697" y="45.062"/><rect fill="#fcd462" height="5.887" rx="2.102" transform="matrix(.82 .573 -.573 .82 34.078 -7.079)" width="4.204" x="26.188" y="47.677"/><path d="m20.11 43.89a1.707 1.707 0 0 1 -.21.4l-.65.93a2.1 2.1 0 1 1 -3.44-2.4l.65-.94a2.052 2.052 0 0 1 .34-.38 1.845 1.845 0 0 0 -.17.79 2.106 2.106 0 0 0 3.48 1.6z" fill="#f7be56"/><path d="m23.3 46.78-.88 1.26a.01.01 0 0 1 -.01.01l-.31.45a2.1 2.1 0 0 1 -3.83-1.21 2.131 2.131 0 0 1 .38-1.2l.6-.87.61-.85a2.09 2.09 0 0 0 .52 2.92 2.1 2.1 0 0 0 2.92-.51z" fill="#f7be56"/><path d="m27.18 48.57a.4.4 0 0 0 -.05.09l-.05.06c-.02.02-.03.05-.05.07l-1.02 1.45c-.01 0-.01.01-.01.02l-.13.19a2.1 2.1 0 0 1 -3.83-1.21 2.167 2.167 0 0 1 .37-1.19.01.01 0 0 0 .01-.01l.88-1.26a.01.01 0 0 0 .01-.01l.31-.45a2.167 2.167 0 0 0 -.37 1.19 2.108 2.108 0 0 0 3.64 1.45l.16-.23a1.012 1.012 0 0 1 .13-.16z" fill="#f7be56"/><path d="m30.57 51.01a.748.748 0 0 1 -.07.12l-.97 1.38a2.1 2.1 0 0 1 -3.82-1.2 2.007 2.007 0 0 1 .29-1.05c0-.01 0-.02.01-.02a.567.567 0 0 1 .08-.13l.8-1.15.16-.23a1.012 1.012 0 0 1 .13-.16.4.4 0 0 0 -.05.09 2.009 2.009 0 0 0 -.22.92 2.109 2.109 0 0 0 3.66 1.43z" fill="#f7be56"/><path d="m17.523 46.622a2.6 2.6 0 0 1 -2.123-4.093l.652-.934a2.6 2.6 0 0 1 4.268 2.979l-.653.935a2.584 2.584 0 0 1 -1.678 1.072 2.643 2.643 0 0 1 -.466.041zm.66-5.139a1.6 1.6 0 0 0 -1.315.685l-.652.934a1.6 1.6 0 1 0 2.626 1.834l.658-.936a1.6 1.6 0 0 0 -1.312-2.519z" fill="#323c6b"/><path d="m20.373 49.9a2.6 2.6 0 0 1 -2.13-4.091l1.95-2.792a2.6 2.6 0 0 1 3.623-.644 2.6 2.6 0 0 1 .645 3.623l-1.95 2.793a2.6 2.6 0 0 1 -2.138 1.111zm1.956-7a1.6 1.6 0 0 0 -1.315.685l-1.95 2.792a1.6 1.6 0 1 0 2.627 1.834l1.95-2.792a1.6 1.6 0 0 0 -.4-2.23 1.592 1.592 0 0 0 -.912-.289z" fill="#323c6b"/><path d="m24.14 51.845a2.6 2.6 0 0 1 -2.128-4.093l1.308-1.872a2.6 2.6 0 0 1 3.623-.644 2.6 2.6 0 0 1 .645 3.623l-1.309 1.873a2.584 2.584 0 0 1 -1.679 1.068 2.634 2.634 0 0 1 -.46.045zm1.315-6.077a1.6 1.6 0 0 0 -1.315.684l-1.308 1.873a1.6 1.6 0 1 0 2.626 1.834l1.309-1.873a1.6 1.6 0 0 0 -.4-2.23 1.6 1.6 0 0 0 -.912-.287z" fill="#323c6b"/><path d="m27.8 53.913a2.577 2.577 0 0 1 -1.483-.47 2.6 2.6 0 0 1 -.645-3.623l.964-1.38a2.6 2.6 0 0 1 3.623-.644 2.6 2.6 0 0 1 .644 3.624l-.961 1.38a2.587 2.587 0 0 1 -1.679 1.072 2.625 2.625 0 0 1 -.463.041zm.973-5.585a1.607 1.607 0 0 0 -1.316.686l-.964 1.38a1.6 1.6 0 0 0 .4 2.23 1.6 1.6 0 0 0 2.23-.4l.963-1.379a1.6 1.6 0 0 0 -.4-2.23 1.589 1.589 0 0 0 -.911-.287z" fill="#323c6b"/><path d="m44.946 56.957a.522.522 0 0 1 -.115-.013l-12.744-3.013a.5.5 0 0 1 -.325-.723l2.951-5.5a.5.5 0 0 1 .627-.228l11.8 4.729a.5.5 0 0 1 .255.7l-2 3.781a.5.5 0 0 1 -.449.267zm-12-3.849 11.735 2.773 1.563-2.948-10.861-4.357z" fill="#323c6b"/><path d="m47.919 58.282a1.815 1.815 0 0 1 -.809-.19l-2.386-1.192a.5.5 0 0 1 -.219-.682l2-3.781a.5.5 0 0 1 .669-.21l2.376 1.217a1.824 1.824 0 0 1 .749 2.534l-.8 1.389a1.826 1.826 0 0 1 -1.58.915zm-2.291-2.044 1.928.958a.821.821 0 0 0 1.079-.326l.8-1.389a.824.824 0 0 0 -.339-1.145l-1.937-.992z" fill="#323c6b"/><path d="m49.518 31.953a.616.616 0 0 1 .852-.178l5.452 3.565a.616.616 0 1 1 -.674 1.031l-5.448-3.565a.616.616 0 0 1 -.182-.853z" fill="#fff"/><path d="m47.441 30.595a.616.616 0 0 1 .852-.178l.27.177a.616.616 0 1 1 -.674 1.031l-.27-.177a.616.616 0 0 1 -.178-.853z" fill="#fff"/></svg>