<svg id="color_line" height="512" viewBox="0 0 74 74" width="512" xmlns="http://www.w3.org/2000/svg" data-name="color line"><circle cx="66.536" cy="58.93" fill="#fe7058" r="2.763"/><circle cx="59.2" cy="64.833" fill="#fe7058" r="2.717"/><circle cx="35.301" cy="69.144" fill="#fe7058" r="2.717"/><circle cx="25.287" cy="66.034" fill="#fe7058" r="2.717"/><circle cx="16.49" cy="61.691" fill="#fe7058" r="2.717"/><circle cx="10.433" cy="54.678" fill="#fe7058" r="2.717"/><circle cx="10.464" cy="15.07" fill="#fe7058" r="2.763"/><circle cx="17.8" cy="9.167" fill="#fe7058" r="2.717"/><path d="m9.605 37s12.35-15.716 27.585-15.716 27.585 15.716 27.585 15.716-12.35 15.716-27.585 15.716-27.585-15.716-27.585-15.716z" fill="#eeefee"/><path d="m64.78 37s-9.71 12.35-22.53 15.16c10.98-4.02 18.9-14.09 18.9-14.09s-12.35-15.72-27.58-15.72a23.61 23.61 0 0 0 -5.14.58 25.421 25.421 0 0 1 8.76-1.65c15.23 0 27.59 15.72 27.59 15.72z" fill="#e1e6e9"/><path d="m25.353 33.009a12.492 12.492 0 0 1 19.225-6.089l3.079 3.246a12.5 12.5 0 1 1 -22.95 7.275z" fill="#9297ab"/><path d="m47.48 44.11a12.544 12.544 0 0 0 1.03-4.99 12.388 12.388 0 0 0 -2.04-6.83l-3.08-3.25a12.481 12.481 0 0 0 -17.65 2.99 12.478 12.478 0 0 1 18.84-5.11l3.08 3.25a12.38 12.38 0 0 1 2.03 6.83 12.506 12.506 0 0 1 -2.21 7.11z" fill="#84879c"/><path d="m43.8 43.2a9.072 9.072 0 1 0 -6.6 2.842 8.808 8.808 0 0 0 2.218-.275z" fill="#89c5cd"/><g fill="#323c6b"><path d="m17.843 29.412h-1v-10.121l-5.033-2.766.482-.876 5.551 3.05z"/><path d="m25.85 24.26h-1v-10.759l-5.625-3.088.48-.877 6.145 3.374z"/><path d="m34.319 21.536h-1v-12.669l6.503-3.574.483.876-5.986 3.289z"/><path d="m43.558 22.034h-1v-9.456l7.359-4.037.48.876-6.839 3.752z"/><path d="m52.368 25.797h-1v-8.74l7.411-4.071.483.876-6.894 3.787z"/><path d="m60.516 31.979h-1v-9.35l5.174-2.85.483.876-4.657 2.565z"/><path d="m64.708 58.351-5.551-3.05v-12.746h1v12.154l5.033 2.766z"/><path d="m57.295 64.464-6.145-3.374v-12.761h1v12.17l5.625 3.088z"/><path d="m37.178 68.707-.483-.876 5.986-3.289v-12.576h1v13.167z"/><path d="m27.083 65.459-.48-.876 6.839-3.752v-8.349h1v8.94z"/><path d="m18.221 61.014-.483-.876 6.894-3.787v-6.715h1v7.307z"/><path d="m12.31 54.221-.483-.876 4.657-2.565v-6.36h1v6.951z"/></g><path d="m13.23 15.07a2.734 2.734 0 0 1 -1.72 2.55 2.838 2.838 0 0 0 .16-.93 2.766 2.766 0 0 0 -2.76-2.76 2.625 2.625 0 0 0 -1.05.21 2.767 2.767 0 0 1 5.37.93z" fill="#ea6453"/><path d="m20.52 9.17a2.72 2.72 0 0 1 -1.71 2.52 2.719 2.719 0 0 0 -2.57-3.61 2.791 2.791 0 0 0 -1.01.19 2.722 2.722 0 0 1 5.29.9z" fill="#ea6453"/><path d="m69.3 58.93a2.734 2.734 0 0 1 -1.72 2.55 2.827 2.827 0 0 0 .16-.92 2.768 2.768 0 0 0 -2.76-2.77 2.661 2.661 0 0 0 -1.05.21 2.767 2.767 0 0 1 5.37.93z" fill="#ea6453"/><path d="m61.92 64.83a2.72 2.72 0 0 1 -1.71 2.52 2.638 2.638 0 0 0 .15-.89 2.723 2.723 0 0 0 -2.72-2.72 2.791 2.791 0 0 0 -1.01.19 2.724 2.724 0 0 1 5.29.9z" fill="#ea6453"/><path d="m38.02 69.14a2.744 2.744 0 0 1 -1.71 2.53 2.728 2.728 0 0 0 -2.57-3.62 2.6 2.6 0 0 0 -1.01.2 2.722 2.722 0 0 1 5.29.89z" fill="#ea6453"/><path d="m28 66.03a2.7 2.7 0 0 1 -1.71 2.52 2.64 2.64 0 0 0 .15-.89 2.714 2.714 0 0 0 -2.71-2.72 2.778 2.778 0 0 0 -1 .19 2.712 2.712 0 0 1 5.27.9z" fill="#ea6453"/><path d="m19.21 61.69a2.72 2.72 0 0 1 -1.71 2.52 2.64 2.64 0 0 0 .15-.89 2.723 2.723 0 0 0 -2.72-2.72 2.778 2.778 0 0 0 -1 .19 2.716 2.716 0 0 1 5.28.9z" fill="#ea6453"/><path d="m13.15 54.68a2.694 2.694 0 0 1 -1.72 2.52 2.437 2.437 0 0 0 .16-.9 2.714 2.714 0 0 0 -2.72-2.71 2.778 2.778 0 0 0 -1 .19 2.716 2.716 0 0 1 5.28.9z" fill="#ea6453"/><path d="m7.247 35.646a.5.5 0 0 1 -.394-.809 50.619 50.619 0 0 1 4.594-4.926.5.5 0 0 1 .689.725 49.49 49.49 0 0 0 -4.5 4.819.5.5 0 0 1 -.389.191z" fill="#323c6b"/><path d="m13.875 28.887a.5.5 0 0 1 -.327-.878l.568-.486a.5.5 0 1 1 .643.766l-.557.478a.5.5 0 0 1 -.327.12z" fill="#323c6b"/><path d="m37.19 53.216c-15.3 0-27.854-15.748-27.979-15.907l-.241-.309.242-.309c.125-.159 12.677-15.907 27.979-15.907s27.853 15.748 27.978 15.907l.242.309-.242.309c-.125.159-12.678 15.907-27.979 15.907zm-26.938-16.216c1.83 2.188 13.3 15.216 26.938 15.216s25.11-13.028 26.939-15.216c-1.83-2.188-13.3-15.216-26.938-15.216s-25.11 13.028-26.939 15.216z" fill="#323c6b"/><path d="m37.2 50a12.938 12.938 0 0 1 -12.989-12.54l.672-4.608a12.991 12.991 0 0 1 19.994-6.332l3.146 3.3a12.983 12.983 0 0 1 -10.823 20.18zm-11.359-16.874-.641 4.387a12 12 0 1 0 22.038-7.073l-3.023-3.176a12.005 12.005 0 0 0 -18.374 5.862z" fill="#323c6b"/><circle cx="46.268" cy="28.401" fill="#fcd462" r="2.242"/><path d="m46.268 31.143a2.742 2.742 0 1 1 2.742-2.743 2.745 2.745 0 0 1 -2.742 2.743zm0-4.484a1.742 1.742 0 1 0 1.742 1.741 1.744 1.744 0 0 0 -1.742-1.741z" fill="#323c6b"/><circle cx="25.131" cy="35.237" fill="#fcd462" r="2.242"/><path d="m25.131 37.979a2.742 2.742 0 1 1 2.741-2.742 2.745 2.745 0 0 1 -2.741 2.742zm0-4.484a1.742 1.742 0 1 0 1.741 1.742 1.744 1.744 0 0 0 -1.741-1.737z" fill="#323c6b"/><path d="m66.535 62.193a3.263 3.263 0 1 1 3.265-3.262 3.267 3.267 0 0 1 -3.265 3.262zm0-5.526a2.263 2.263 0 1 0 2.265 2.264 2.265 2.265 0 0 0 -2.265-2.264z" fill="#323c6b"/><path d="m59.2 68.05a3.217 3.217 0 1 1 3.217-3.217 3.221 3.221 0 0 1 -3.217 3.217zm0-5.434a2.217 2.217 0 1 0 2.217 2.217 2.219 2.219 0 0 0 -2.217-2.217z" fill="#323c6b"/><path d="m35.3 72.361a3.217 3.217 0 1 1 3.217-3.217 3.221 3.221 0 0 1 -3.217 3.217zm0-5.434a2.217 2.217 0 1 0 2.217 2.217 2.219 2.219 0 0 0 -2.217-2.216z" fill="#323c6b"/><path d="m25.286 69.25a3.217 3.217 0 1 1 3.214-3.216 3.22 3.22 0 0 1 -3.214 3.216zm0-5.434a2.217 2.217 0 1 0 2.214 2.218 2.219 2.219 0 0 0 -2.214-2.217z" fill="#323c6b"/><path d="m16.49 64.907a3.217 3.217 0 1 1 3.217-3.216 3.22 3.22 0 0 1 -3.217 3.216zm0-5.433a2.217 2.217 0 1 0 2.217 2.217 2.219 2.219 0 0 0 -2.217-2.217z" fill="#323c6b"/><path d="m10.433 57.895a3.217 3.217 0 1 1 3.217-3.217 3.221 3.221 0 0 1 -3.217 3.217zm0-5.433a2.217 2.217 0 1 0 2.217 2.216 2.219 2.219 0 0 0 -2.217-2.217z" fill="#323c6b"/><path d="m10.465 18.333a3.263 3.263 0 1 1 3.263-3.263 3.267 3.267 0 0 1 -3.263 3.263zm0-5.526a2.263 2.263 0 1 0 2.263 2.263 2.266 2.266 0 0 0 -2.263-2.263z" fill="#323c6b"/><path d="m17.8 12.384a3.217 3.217 0 1 1 3.217-3.217 3.221 3.221 0 0 1 -3.217 3.217zm0-5.434a2.217 2.217 0 1 0 2.217 2.217 2.219 2.219 0 0 0 -2.217-2.217z" fill="#323c6b"/><circle cx="41.699" cy="4.856" fill="#fe7058" r="2.717"/><circle cx="51.713" cy="7.966" fill="#fe7058" r="2.717"/><circle cx="60.51" cy="12.309" fill="#fe7058" r="2.717"/><circle cx="66.567" cy="19.322" fill="#fe7058" r="2.717"/><path d="m44.42 4.86a2.72 2.72 0 0 1 -1.71 2.52 2.654 2.654 0 0 0 .15-.9 2.723 2.723 0 0 0 -2.72-2.72 2.777 2.777 0 0 0 -1 .19 2.718 2.718 0 0 1 5.28.91z" fill="#ea6453"/><path d="m54.43 7.97a2.72 2.72 0 0 1 -1.71 2.52 2.728 2.728 0 0 0 -2.57-3.62 2.778 2.778 0 0 0 -1 .19 2.718 2.718 0 0 1 5.28.91z" fill="#ea6453"/><path d="m63.23 12.31a2.694 2.694 0 0 1 -1.72 2.52 2.474 2.474 0 0 0 .16-.9 2.714 2.714 0 0 0 -2.72-2.71 2.779 2.779 0 0 0 -1 .19 2.716 2.716 0 0 1 5.28.9z" fill="#ea6453"/><path d="m69.28 19.32a2.723 2.723 0 0 1 -1.71 2.53 2.477 2.477 0 0 0 .16-.9 2.723 2.723 0 0 0 -2.72-2.72 2.6 2.6 0 0 0 -1.01.2 2.716 2.716 0 0 1 5.28.89z" fill="#ea6453"/><path d="m41.7 8.072a3.217 3.217 0 1 1 3.217-3.217 3.221 3.221 0 0 1 -3.217 3.217zm0-5.434a2.217 2.217 0 1 0 2.217 2.217 2.219 2.219 0 0 0 -2.217-2.216z" fill="#323c6b"/><path d="m51.714 11.183a3.217 3.217 0 1 1 3.216-3.217 3.221 3.221 0 0 1 -3.216 3.217zm0-5.434a2.217 2.217 0 1 0 2.216 2.217 2.219 2.219 0 0 0 -2.216-2.216z" fill="#323c6b"/><path d="m60.51 15.526a3.217 3.217 0 1 1 3.217-3.217 3.221 3.221 0 0 1 -3.217 3.217zm0-5.433a2.217 2.217 0 1 0 2.217 2.216 2.219 2.219 0 0 0 -2.217-2.216z" fill="#323c6b"/><path d="m66.567 22.539a3.217 3.217 0 1 1 3.217-3.216 3.22 3.22 0 0 1 -3.217 3.216zm0-5.433a2.217 2.217 0 1 0 2.217 2.217 2.219 2.219 0 0 0 -2.217-2.218z" fill="#323c6b"/><g fill="#eeefee" opacity=".4"><path d="m34.68 28.26-4.64 14.27a9.705 9.705 0 0 1 -.62-.91l4.22-12.99a7.555 7.555 0 0 1 1.04-.37z"/><path d="m42.74 29.8-5.27 16.23a2.434 2.434 0 0 1 -.27.01 8.8 8.8 0 0 1 -2.58-.38l5.61-17.24a9.025 9.025 0 0 1 2.51 1.38z"/><path d="m38.42 27.98-5.51 16.97a8.273 8.273 0 0 1 -1.67-1.15l5.15-15.86a7.313 7.313 0 0 1 .81-.04 9.867 9.867 0 0 1 1.22.08z"/></g><path d="m37.2 46.537a9.567 9.567 0 1 1 6.964-3l-.11.088-4.514 2.621a9.331 9.331 0 0 1 -2.34.291zm0-18.132a8.566 8.566 0 0 0 0 17.132 8.352 8.352 0 0 0 2.026-.242l4.254-2.495a8.566 8.566 0 0 0 -6.28-14.4z" fill="#323c6b"/><circle cx="41.135" cy="43.67" fill="#fcd462" r="2.703"/><path d="m41.135 46.874a3.2 3.2 0 1 1 3.2-3.2 3.208 3.208 0 0 1 -3.2 3.2zm0-5.407a2.2 2.2 0 1 0 2.2 2.2 2.206 2.206 0 0 0 -2.2-2.201z" fill="#323c6b"/></svg>