<svg id="color_line" height="512" viewBox="0 0 74 74" width="512" xmlns="http://www.w3.org/2000/svg" data-name="color line"><path d="m37.81 70.1v-64.153a32.077 32.077 0 0 0 0 64.155z" fill="#89c5cd"/><path d="m37.81 67.02v3.08a32.078 32.078 0 0 1 -21.43-55.95 32.07 32.07 0 0 0 21.43 52.87z" fill="#6eaaad"/><path d="m37.815 23.116a32.516 32.516 0 0 1 -21.915-8.466.5.5 0 1 1 .672-.74 31.52 31.52 0 0 0 21.24 8.207.5.5 0 0 1 0 1z" fill="#323c6b"/><path d="m16.228 62.268a.5.5 0 0 1 -.336-.87 32.529 32.529 0 0 1 21.924-8.467.5.5 0 0 1 0 1 31.533 31.533 0 0 0 -21.252 8.207.5.5 0 0 1 -.336.13z" fill="#323c6b"/><path d="m59.073 62.073a.726.726 0 0 1 -.363.96l-7 3.158a.726.726 0 0 1 -.6-1.324l7-3.158a.726.726 0 0 1 .963.364z" fill="#fff"/><path d="m61.741 60.87a.726.726 0 0 1 -.363.96l-.347.156a.726.726 0 0 1 -.6-1.324l.347-.156a.726.726 0 0 1 .963.364z" fill="#fff"/><path d="m37.827 38.524h-32.095a.5.5 0 0 1 0-1h32.095a.5.5 0 0 1 0 1z" fill="#323c6b"/><path d="m48.997 13.555h-11.169v-1h10.577l2.446-4.457.877.481z" fill="#323c6b"/><path d="m57.637 22.279h-19.402v-1h18.81l2.801-5.094.877.481z" fill="#323c6b"/><path d="m53.637 58.03-3.521-6.408h-12.288v-1h12.88l3.806 6.927z" fill="#323c6b"/><path d="m46.166 65.919-2.257-4.092h-6.081v-1h6.671l2.542 4.61z" fill="#323c6b"/><circle cx="52.796" cy="5.883" fill="#fe7058" r="2.883"/><path d="m52.8 9.266a3.383 3.383 0 1 1 3.383-3.383 3.387 3.387 0 0 1 -3.383 3.383zm0-5.766a2.383 2.383 0 1 0 2.383 2.383 2.386 2.386 0 0 0 -2.383-2.383z" fill="#323c6b"/><circle cx="61.56" cy="13.899" fill="#fcd462" r="2.835"/><path d="m61.561 17.234a3.335 3.335 0 1 1 3.334-3.334 3.339 3.339 0 0 1 -3.334 3.334zm0-5.67a2.335 2.335 0 1 0 2.334 2.336 2.338 2.338 0 0 0 -2.334-2.336z" fill="#323c6b"/><circle cx="55.676" cy="60.138" fill="#fe7058" r="2.835"/><path d="m55.677 63.473a3.335 3.335 0 1 1 3.335-3.335 3.339 3.339 0 0 1 -3.335 3.335zm0-5.67a2.335 2.335 0 1 0 2.335 2.335 2.338 2.338 0 0 0 -2.335-2.338z" fill="#323c6b"/><circle cx="47.962" cy="68.165" fill="#fcd462" r="2.835"/><path d="m47.962 71.5a3.335 3.335 0 1 1 3.338-3.335 3.339 3.339 0 0 1 -3.338 3.335zm0-5.669a2.335 2.335 0 1 0 2.338 2.334 2.337 2.337 0 0 0 -2.338-2.334z" fill="#323c6b"/><circle cx="65.433" cy="29.209" fill="#fe7058" r="2.835"/><path d="m65.433 32.543a3.335 3.335 0 1 1 3.335-3.334 3.338 3.338 0 0 1 -3.335 3.334zm0-5.669a2.335 2.335 0 1 0 2.335 2.335 2.338 2.338 0 0 0 -2.335-2.335z" fill="#323c6b"/><path d="m51.816 34.362h-13.988v-1h12.975l-.063-4.654h11.861v1h-10.847z" fill="#323c6b"/><circle cx="65.433" cy="46.839" fill="#fcd462" r="2.835"/><g fill="#323c6b"><path d="m65.433 50.174a3.335 3.335 0 1 1 3.335-3.335 3.339 3.339 0 0 1 -3.335 3.335zm0-5.67a2.335 2.335 0 1 0 2.335 2.335 2.338 2.338 0 0 0 -2.335-2.339z"/><path d="m62.601 47.343h-11.861l.063-4.654h-12.975v-1h13.988l-.062 4.654h10.847z"/><path d="m12.927 63.188a.5.5 0 0 1 -.355-.148 36.023 36.023 0 0 1 -4.984-6.306.5.5 0 0 1 .85-.528 34.985 34.985 0 0 0 4.846 6.131.5.5 0 0 1 -.355.852z"/><path d="m6.982 55.235a.5.5 0 0 1 -.444-.271c-.049-.1-.1-.192-.143-.29a.5.5 0 1 1 .9-.43l.129.26a.5.5 0 0 1 -.444.729z"/><path d="m17.979 9.762a.5.5 0 0 1 -.3-.9l.225-.175c.121-.1.242-.191.367-.282a.5.5 0 0 1 .588.81c-.115.083-.226.17-.336.258l-.238.185a.5.5 0 0 1 -.306.104z"/><path d="m20.75 7.9a.5.5 0 0 1 -.244-.937 35.429 35.429 0 0 1 9.213-3.568.5.5 0 1 1 .229.974 34.4 34.4 0 0 0 -8.953 3.467.5.5 0 0 1 -.245.064z"/><path d="m37.81 70.6a32.577 32.577 0 0 1 0-65.155.5.5 0 0 1 .5.5v64.155a.5.5 0 0 1 -.5.5zm-.5-64.151a31.577 31.577 0 0 0 0 63.147z"/></g><path d="m17.015 34.588a.726.726 0 0 1 .726-.726h8.571a.726.726 0 1 1 0 1.452h-8.571a.726.726 0 0 1 -.726-.726z" fill="#fff"/><path d="m14.088 34.588a.726.726 0 0 1 .726-.726h.386a.726.726 0 0 1 0 1.452h-.381a.726.726 0 0 1 -.731-.726z" fill="#fff"/><path d="m37.81 70.6c-10.21 0-18.51-14.613-18.51-32.576s8.3-32.577 18.51-32.577a.5.5 0 0 1 0 1c-9.655 0-17.51 14.165-17.51 31.577s7.855 31.576 17.51 31.576a.5.5 0 0 1 0 1z" fill="#323c6b"/></svg>