<svg id="color_line" height="512" viewBox="0 0 74 74" width="512" xmlns="http://www.w3.org/2000/svg" data-name="color line"><path d="m48.845 20.454a5.627 5.627 0 0 0 5.467-5.33 5.627 5.627 0 0 0 -5.467-5.33" fill="#bbbbcd"/><path d="m48.845 20.954v-1a5.1 5.1 0 0 0 4.967-4.83 5.1 5.1 0 0 0 -4.967-4.83v-1a6.14 6.14 0 0 1 5.967 5.83 6.14 6.14 0 0 1 -5.967 5.83z" fill="#323c6b"/><path d="m25.155 20.454a5.627 5.627 0 0 1 -5.467-5.33 5.627 5.627 0 0 1 5.467-5.33" fill="#bbbbcd"/><path d="m25.155 20.954a6.14 6.14 0 0 1 -5.967-5.83 6.14 6.14 0 0 1 5.967-5.83v1a5.1 5.1 0 0 0 -4.967 4.83 5.1 5.1 0 0 0 4.967 4.83z" fill="#323c6b"/><path d="m18.009 48h-1a2.068 2.068 0 1 0 -4.135 0h-1a3.068 3.068 0 1 1 6.135 0z" fill="#323c6b"/><path d="m15.441 45.409h-1v-9.24a2.138 2.138 0 0 1 2.135-2.135h2.108v1h-2.107a1.137 1.137 0 0 0 -1.135 1.135z" fill="#323c6b"/><path d="m62.126 48h-1a2.068 2.068 0 1 0 -4.135 0h-1a3.068 3.068 0 1 1 6.135 0z" fill="#323c6b"/><path d="m59.559 45.409h-1v-9.24a1.137 1.137 0 0 0 -1.135-1.135h-2.109v-1h2.108a2.138 2.138 0 0 1 2.135 2.135z" fill="#323c6b"/><path d="m23.268 31.659h-3.281a1.3 1.3 0 0 0 -1.305 1.3v3.159a1.3 1.3 0 0 0 1.305 1.3h3.045" fill="#bbbbcd"/><path d="m23.032 37.909h-3.046a1.8 1.8 0 0 1 -1.8-1.8v-3.154a1.8 1.8 0 0 1 1.8-1.8h3.282v1h-3.282a.8.8 0 0 0 -.8.8v3.159a.8.8 0 0 0 .8.8h3.045z" fill="#323c6b"/><path d="m50.968 37.409h3.045a1.3 1.3 0 0 0 1.305-1.3v-3.154a1.3 1.3 0 0 0 -1.305-1.3h-3.281" fill="#bbbbcd"/><path d="m54.014 37.909h-3.046v-1h3.045a.8.8 0 0 0 .8-.8v-3.154a.8.8 0 0 0 -.8-.8h-3.281v-1h3.282a1.8 1.8 0 0 1 1.8 1.8v3.159a1.8 1.8 0 0 1 -1.8 1.795z" fill="#323c6b"/><rect fill="#eeefee" height="20.633" rx="1.825" width="24.6" x="24.7" y="5.357"/><path d="m49.3 7.18v16.98a1.831 1.831 0 0 1 -1.83 1.83h-1.47v-15.97a1.831 1.831 0 0 0 -1.83-1.83h-19.47v-1.01a1.822 1.822 0 0 1 1.83-1.82h20.94a1.822 1.822 0 0 1 1.83 1.82z" fill="#e1e6e9"/><circle cx="31.625" cy="13.295" fill="#bbbbcd" r="2.074"/><path d="m31.625 15.869a2.574 2.574 0 1 1 2.575-2.575 2.577 2.577 0 0 1 -2.575 2.575zm0-4.148a1.574 1.574 0 1 0 1.575 1.573 1.576 1.576 0 0 0 -1.575-1.574z" fill="#323c6b"/><circle cx="42.375" cy="13.295" fill="#bbbbcd" r="2.074"/><path d="m42.375 15.869a2.574 2.574 0 1 1 2.574-2.574 2.577 2.577 0 0 1 -2.574 2.574zm0-4.148a1.574 1.574 0 1 0 1.574 1.574 1.576 1.576 0 0 0 -1.574-1.575z" fill="#323c6b"/><path d="m33.441 20.041h7.117v1h-7.117z" fill="#323c6b"/><path d="m40.924 29.234h6.344a3.707 3.707 0 0 1 3.7 3.7v20.756h-27.936v-20.753a3.707 3.707 0 0 1 3.7-3.7h6.338" fill="#eeefee"/><path d="m50.97 32.94v20.75h-3.56v-20.75a3.713 3.713 0 0 0 -3.7-3.71h3.56a3.713 3.713 0 0 1 3.7 3.71z" fill="#e1e6e9"/><path d="m23.034 64.68a3.749 3.749 0 1 0 7.5 0v-10.99h-7.5z" fill="#bbbbcd"/><path d="m26.783 68.928a4.254 4.254 0 0 1 -4.249-4.249v-11.489h8.5v11.49a4.253 4.253 0 0 1 -4.251 4.248zm-3.249-14.738v10.49a3.249 3.249 0 0 0 6.5 0v-10.49z" fill="#323c6b"/><path d="m43.472 53.69v10.99a3.749 3.749 0 1 0 7.5 0v-10.99z" fill="#bbbbcd"/><path d="m47.221 68.928a4.253 4.253 0 0 1 -4.249-4.249v-11.489h8.5v11.49a4.253 4.253 0 0 1 -4.251 4.248zm-3.249-14.738v10.49a3.249 3.249 0 1 0 6.5 0v-10.49z" fill="#323c6b"/><path d="m26.282 68.429h1v2.595h-1z" fill="#323c6b"/><path d="m30.358 73.357h-1c0-1.012-1.155-1.835-2.575-1.835s-2.575.823-2.575 1.835h-1c0-1.563 1.6-2.835 3.575-2.835s3.575 1.272 3.575 2.835z" fill="#323c6b"/><path d="m46.72 68.429h1v2.595h-1z" fill="#323c6b"/><path d="m50.8 73.357h-1c0-1.012-1.155-1.835-2.575-1.835s-2.575.823-2.575 1.835h-1c0-1.563 1.6-2.835 3.575-2.835s3.575 1.272 3.575 2.835z" fill="#323c6b"/><path d="m32.893 25.989h8.214a0 0 0 0 1 0 0v2.05a4.107 4.107 0 0 1 -4.107 4.107 4.107 4.107 0 0 1 -4.107-4.107v-2.05a0 0 0 0 1 0 0z" fill="#bbbbcd"/><g fill="#323c6b"><path d="m37 32.646a4.612 4.612 0 0 1 -4.607-4.607v-2.55h9.214v2.55a4.612 4.612 0 0 1 -4.607 4.607zm-3.607-6.157v1.55a3.607 3.607 0 0 0 7.214 0v-1.55z"/><path d="m21.971 6.157a.5.5 0 0 1 -.471-.657 5.315 5.315 0 0 1 5.029-3.641h2.971a.5.5 0 0 1 0 1h-2.975a4.315 4.315 0 0 0 -4.081 2.959.5.5 0 0 1 -.473.339z"/><path d="m32.083 2.857h-.458a.5.5 0 0 1 0-1h.458a.5.5 0 0 1 0 1z"/><path d="m53.969 55.023a.5.5 0 0 1 -.5-.5v-.417a.5.5 0 0 1 1 0v.417a.5.5 0 0 1 -.5.5z"/><path d="m53.969 65.157a.5.5 0 0 1 -.5-.5v-8.166a.5.5 0 0 1 1 0v8.166a.5.5 0 0 1 -.5.5z"/><path d="m47.475 26.489h-20.95a2.328 2.328 0 0 1 -2.325-2.325v-16.982a2.328 2.328 0 0 1 2.325-2.325h20.95a2.328 2.328 0 0 1 2.325 2.325v16.982a2.328 2.328 0 0 1 -2.325 2.325zm-20.95-20.632a1.327 1.327 0 0 0 -1.325 1.325v16.982a1.327 1.327 0 0 0 1.325 1.325h20.95a1.327 1.327 0 0 0 1.325-1.325v-16.982a1.327 1.327 0 0 0 -1.325-1.325z"/><path d="m51.471 54.19h-28.939v-21.253a4.207 4.207 0 0 1 4.2-4.2h6.337v1h-6.334a3.206 3.206 0 0 0 -3.2 3.2v20.253h26.936v-20.253a3.206 3.206 0 0 0 -3.2-3.2h-6.347v-1h6.344a4.207 4.207 0 0 1 4.2 4.2z"/></g></svg>