<svg id="color_line" height="512" viewBox="0 0 74 74" width="512" xmlns="http://www.w3.org/2000/svg" data-name="color line"><circle cx="45.296" cy="15.431" fill="#fcd462" r="3.098"/><path d="m45.3 19.029a3.6 3.6 0 1 1 3.6-3.6 3.6 3.6 0 0 1 -3.6 3.6zm0-6.2a2.6 2.6 0 1 0 2.6 2.6 2.6 2.6 0 0 0 -2.6-2.596z" fill="#323c6b"/><path d="m37.264 23.963a.5.5 0 0 1 -.354-.146 11.872 11.872 0 0 1 0-16.771.5.5 0 0 1 .707.707 10.872 10.872 0 0 0 0 15.357.5.5 0 0 1 -.354.854z" fill="#323c6b"/><path d="m40.185 21.042a.5.5 0 0 1 -.354-.146 7.735 7.735 0 0 1 0-10.929.5.5 0 0 1 .707.707 6.735 6.735 0 0 0 0 9.515.5.5 0 0 1 -.354.854z" fill="#323c6b"/><path d="m53.327 23.963a.5.5 0 0 1 -.354-.854 10.872 10.872 0 0 0 0-15.357.5.5 0 0 1 .707-.707 11.872 11.872 0 0 1 0 16.771.5.5 0 0 1 -.353.147z" fill="#323c6b"/><path d="m50.407 21.042a.5.5 0 0 1 -.354-.854 6.736 6.736 0 0 0 0-9.515.5.5 0 0 1 .707-.707 7.738 7.738 0 0 1 0 10.929.5.5 0 0 1 -.353.147z" fill="#323c6b"/><path d="m71 43.03v14.76a2.057 2.057 0 0 1 -2.06 2.06h-4.64a6.75 6.75 0 0 0 -13.5 0h-27.6a6.75 6.75 0 0 0 -13.5 0h-4.64a2.057 2.057 0 0 1 -2.06-2.06v-6.31a7.616 7.616 0 0 1 .91-3.64 7.755 7.755 0 0 1 5.45-4.02l11.47-2.15 11.97-13.18a3.711 3.711 0 0 1 2.72-1.2h25.11a3.7 3.7 0 0 1 3.23 1.92l6.83 12.58a2.68 2.68 0 0 1 .31 1.24z" fill="#fe7058"/><path d="m23.2 59.851a6.75 6.75 0 1 1 -6.75-6.75 6.76 6.76 0 0 1 6.75 6.75z" fill="#707583"/><path d="m16.45 67.1a7.25 7.25 0 1 1 7.25-7.25 7.258 7.258 0 0 1 -7.25 7.25zm0-13.5a6.25 6.25 0 1 0 6.25 6.25 6.257 6.257 0 0 0 -6.25-6.25z" fill="#323c6b"/><circle cx="16.45" cy="59.851" fill="#bbbbcd" r="3.75"/><path d="m16.45 64.1a4.25 4.25 0 1 1 4.25-4.25 4.255 4.255 0 0 1 -4.25 4.25zm0-7.5a3.25 3.25 0 1 0 3.25 3.25 3.254 3.254 0 0 0 -3.25-3.25z" fill="#323c6b"/><path d="m3 56.73h7.47a6.67 6.67 0 0 0 -.77 3.12h-4.64a2.057 2.057 0 0 1 -2.06-2.06z" fill="#ea6453"/><path d="m22.43 56.73h29.14a6.67 6.67 0 0 0 -.77 3.12h-27.6a6.67 6.67 0 0 0 -.77-3.12z" fill="#ea6453"/><path d="m71 43.03v14.76a2.057 2.057 0 0 1 -2.06 2.06h-4.64a6.67 6.67 0 0 0 -.77-3.12h1.99a2.057 2.057 0 0 0 2.06-2.06v-14.76a2.681 2.681 0 0 0 -.31-1.24l-6.16-11.35a3.694 3.694 0 0 1 2.75 1.89l6.83 12.58a2.68 2.68 0 0 1 .31 1.24z" fill="#ea6453"/><path d="m65.02 42.91h-38.22l9.77-11.18h22.62l.89 1.7z" fill="#89c5cd"/><path d="m64.3 59.851a6.75 6.75 0 1 1 -6.75-6.75 6.754 6.754 0 0 1 6.75 6.75z" fill="#707583"/><path d="m57.55 67.1a7.25 7.25 0 1 1 7.25-7.25 7.258 7.258 0 0 1 -7.25 7.25zm0-13.5a6.25 6.25 0 1 0 6.25 6.25 6.257 6.257 0 0 0 -6.25-6.25z" fill="#323c6b"/><circle cx="57.55" cy="59.851" fill="#bbbbcd" r="3.75"/><path d="m57.55 64.1a4.25 4.25 0 1 1 4.25-4.25 4.255 4.255 0 0 1 -4.25 4.25zm0-7.5a3.25 3.25 0 1 0 3.25 3.25 3.254 3.254 0 0 0 -3.25-3.25z" fill="#323c6b"/><path d="m47.417 43.408a.5.5 0 0 1 -.5-.5v-11.181a.5.5 0 0 1 1 0v11.181a.5.5 0 0 1 -.5.5z" fill="#323c6b"/><path d="m45.375 27.791a.5.5 0 0 1 -.5-.5v-8.762a.5.5 0 1 1 1 0v8.762a.5.5 0 0 1 -.5.5z" fill="#323c6b"/><path d="m68.819 48.063h2.181a0 0 0 0 1 0 0v5.037a0 0 0 0 1 0 0h-2.181a.891.891 0 0 1 -.891-.891v-3.256a.891.891 0 0 1 .891-.89z" fill="#eeefee"/><path d="m71 53.6h-2.181a1.392 1.392 0 0 1 -1.391-1.391v-3.256a1.392 1.392 0 0 1 1.391-1.391h2.181a.5.5 0 0 1 .5.5v5.038a.5.5 0 0 1 -.5.5zm-2.181-5.039a.391.391 0 0 0 -.391.391v3.258a.391.391 0 0 0 .391.391h1.681v-4.038z" fill="#323c6b"/><path d="m8.71 48.73a4.131 4.131 0 0 1 -4.15 4.15h-1.56v-1.4a7.616 7.616 0 0 1 .91-3.64h3.91a.892.892 0 0 1 .89.89z" fill="#fcd462"/><g fill="#323c6b"><path d="m4.56 53.38h-1.56a.5.5 0 0 1 -.5-.5v-1.4a8.17 8.17 0 0 1 .971-3.88.5.5 0 0 1 .439-.262h3.91a1.391 1.391 0 0 1 1.39 1.39 4.631 4.631 0 0 1 -4.65 4.65zm-1.06-1h1.06a3.631 3.631 0 0 0 3.65-3.65.39.39 0 0 0 -.39-.39h-3.6a7.181 7.181 0 0 0 -.72 3.14z"/><path d="m68.94 60.35h-4.64a.5.5 0 0 1 -.5-.5 6.25 6.25 0 0 0 -12.5 0 .5.5 0 0 1 -.5.5h-27.6a.5.5 0 0 1 -.5-.5 6.25 6.25 0 0 0 -12.5 0 .5.5 0 0 1 -.5.5h-4.64a2.563 2.563 0 0 1 -2.56-2.56v-6.31a8.32 8.32 0 0 1 6.769-8.152l11.3-2.119 11.861-13.055a4.213 4.213 0 0 1 3.09-1.364h25.11a4.194 4.194 0 0 1 3.67 2.179l6.83 12.582a3.194 3.194 0 0 1 .37 1.479v14.76a2.563 2.563 0 0 1 -2.56 2.56zm-4.157-1h4.157a1.561 1.561 0 0 0 1.56-1.56v-14.76a2.179 2.179 0 0 0 -.252-1.007l-6.827-12.574a3.193 3.193 0 0 0 -2.791-1.659h-25.11a3.208 3.208 0 0 0 -2.352 1.039l-11.968 13.177a.5.5 0 0 1 -.278.155l-11.47 2.15a7.318 7.318 0 0 0 -5.952 7.169v6.31a1.561 1.561 0 0 0 1.56 1.56h4.157a7.251 7.251 0 0 1 14.467 0h26.632a7.251 7.251 0 0 1 14.467 0z"/><path d="m45.688 63.35h-8.875a.5.5 0 0 1 0-1h8.875a.5.5 0 0 1 0 1z"/><path d="m33.375 63.35h-.5a.5.5 0 0 1 0-1h.5a.5.5 0 0 1 0 1z"/><path d="m66.052 27.583a.5.5 0 0 1 -.406-.208 6.2 6.2 0 0 0 -5.016-2.585h-1.3a.5.5 0 0 1 0-1h1.3a7.2 7.2 0 0 1 5.828 3 .5.5 0 0 1 -.406.792z"/><path d="m67.137 29.458a.5.5 0 0 1 -.437-.258l-.091-.167a.5.5 0 1 1 .879-.478l.091.167a.5.5 0 0 1 -.439.739z"/></g><g fill="#eeefee" opacity=".4"><path d="m38.2 31.73-3.63 11.18h-.73l3.63-11.18z"/><path d="m45.11 31.73-3.63 11.18h-2.39l3.63-11.18z"/><path d="m41.15 31.73-3.64 11.18h-1.64l3.63-11.18z"/></g><g fill="#eeefee" opacity=".4"><path d="m53.72 31.73-3.63 11.18h-.74l3.63-11.18z"/><path d="m60.08 33.43-3.08 9.48h-2.4l3.63-11.18h.96z"/><path d="m56.66 31.73-3.63 11.18h-1.65l3.64-11.18z"/></g><path d="m65.02 43.41h-38.22a.5.5 0 0 1 -.377-.829l9.77-11.181a.5.5 0 0 1 .377-.171h22.62a.5.5 0 0 1 .443.268l5.829 11.181a.5.5 0 0 1 -.443.731zm-37.119-1h36.299l-5.312-10.18h-22.088z" fill="#323c6b"/><path d="m26.7 38.8a.567.567 0 0 1 -.036-.8l4.226-4.624a.567.567 0 1 1 .838.765l-4.228 4.62a.567.567 0 0 1 -.8.039z" fill="#fff"/><path d="m25.168 40.471a.567.567 0 0 1 -.036-.8l.2-.22a.567.567 0 1 1 .838.765l-.2.22a.567.567 0 0 1 -.802.035z" fill="#fff"/></svg>