<svg id="color_line" height="512" viewBox="0 0 74 74" width="512" xmlns="http://www.w3.org/2000/svg" data-name="color line"><path d="m14.22 32.752c-3.3.2-6.092 2.84-6.092 7.352 0 3.439 3.026 7.373 6.516 7.373a3.523 3.523 0 0 0 1.126-.186" fill="#eeefee"/><path d="m14.644 47.977c-3.886 0-7.016-4.307-7.016-7.873 0-4.393 2.7-7.622 6.563-7.851a.5.5 0 1 1 .059 1c-2.8.167-5.622 2.35-5.622 6.853 0 3.094 2.776 6.873 6.016 6.873a3.015 3.015 0 0 0 .968-.16.5.5 0 1 1 .316.948 4 4 0 0 1 -1.284.21z" fill="#323c6b"/><path d="m58.231 47.291a3.523 3.523 0 0 0 1.126.186c3.49 0 6.516-3.934 6.516-7.373 0-4.513-2.788-7.156-6.092-7.352" fill="#eeefee"/><path d="m59.356 47.977a4 4 0 0 1 -1.284-.212.5.5 0 1 1 .316-.948 3.015 3.015 0 0 0 .968.16c3.239 0 6.016-3.779 6.016-6.873 0-4.5-2.824-6.687-5.622-6.853a.5.5 0 1 1 .059-1c3.864.229 6.563 3.458 6.563 7.851 0 3.568-3.13 7.875-7.016 7.875z" fill="#323c6b"/><path d="m37 14.345c12.193 0 23.64 9.9 23.118 23.118 0 6.518-4.981 17.946-5.4 19.039-3.364 8.776-10.338 14.144-17.718 14.144s-14.354-5.368-17.718-14.146c-.419-1.093-5.4-12.521-5.4-19.039-.522-13.212 10.925-23.116 23.118-23.116z" fill="#eeefee"/><path d="m60.12 37.46c0 6.52-4.98 17.95-5.4 19.04-3.37 8.78-10.34 14.15-17.72 14.15a16.926 16.926 0 0 1 -11.35-4.63 16.222 16.222 0 0 0 8.54 2.51c7.38 0 14.35-5.37 17.72-14.14.41-1.1 5.4-12.53 5.4-19.04a21.52 21.52 0 0 0 -7.53-17.18 21.836 21.836 0 0 1 10.34 19.29z" fill="#e1e6e9"/><rect fill="#89c5cd" height="13.638" rx="6.819" width="46.02" x="13.99" y="32.471"/><path d="m60.01 39.29a6.816 6.816 0 0 1 -6.82 6.82h-3a6.82 6.82 0 0 0 0-13.64h3a6.828 6.828 0 0 1 6.82 6.82z" fill="#6eaaad"/><path d="m27.72 36.493h-3.05a2.8 2.8 0 1 0 0 5.594h3.05a2.8 2.8 0 0 0 0-5.594z" fill="#fcd462"/><path d="m27.72 42.587h-3.05a3.3 3.3 0 0 1 0-6.594h3.05a3.3 3.3 0 0 1 0 6.594zm-3.05-5.594a2.3 2.3 0 0 0 0 4.594h3.05a2.3 2.3 0 0 0 0-4.594z" fill="#323c6b"/><path d="m49.33 36.493h-3.05a2.8 2.8 0 0 0 0 5.594h3.05a2.8 2.8 0 0 0 0-5.594z" fill="#fcd462"/><path d="m49.33 42.587h-3.05a3.3 3.3 0 0 1 0-6.594h3.05a3.3 3.3 0 1 1 0 6.594zm-3.05-5.594a2.3 2.3 0 0 0 0 4.594h3.05a2.3 2.3 0 1 0 0-4.594z" fill="#323c6b"/><path d="m56.78 25.642a.5.5 0 0 1 -.5-.5v-11.366a.5.5 0 0 1 1 0v11.366a.5.5 0 0 1 -.5.5z" fill="#323c6b"/><circle cx="56.78" cy="10.678" fill="#fcd462" r="3.098"/><path d="m56.78 14.276a3.6 3.6 0 1 1 3.6-3.6 3.6 3.6 0 0 1 -3.6 3.6zm0-6.2a2.6 2.6 0 1 0 2.6 2.6 2.6 2.6 0 0 0 -2.6-2.596z" fill="#323c6b"/><path d="m64.812 19.21a.5.5 0 0 1 -.354-.854 10.872 10.872 0 0 0 0-15.356.5.5 0 0 1 .707-.707 11.871 11.871 0 0 1 0 16.771.5.5 0 0 1 -.353.146z" fill="#323c6b"/><path d="m61.892 16.289a.5.5 0 0 1 -.354-.854 6.736 6.736 0 0 0 0-9.515.5.5 0 0 1 .707-.707 7.736 7.736 0 0 1 0 10.929.5.5 0 0 1 -.353.147z" fill="#323c6b"/><path d="m17.22 25.642a.5.5 0 0 1 -.5-.5v-11.366a.5.5 0 0 1 1 0v11.366a.5.5 0 0 1 -.5.5z" fill="#323c6b"/><circle cx="17.22" cy="10.678" fill="#fcd462" r="3.098"/><path d="m17.22 14.276a3.6 3.6 0 1 1 3.6-3.6 3.6 3.6 0 0 1 -3.6 3.6zm0-6.2a2.6 2.6 0 1 0 2.6 2.6 2.6 2.6 0 0 0 -2.6-2.596z" fill="#323c6b"/><path d="m9.188 19.21a.5.5 0 0 1 -.354-.146 11.871 11.871 0 0 1 0-16.771.5.5 0 0 1 .708.707 10.872 10.872 0 0 0 0 15.356.5.5 0 0 1 -.354.854z" fill="#323c6b"/><path d="m12.108 16.289a.5.5 0 0 1 -.354-.146 7.736 7.736 0 0 1 0-10.929.5.5 0 0 1 .707.707 6.736 6.736 0 0 0 0 9.515.5.5 0 0 1 -.354.854z" fill="#323c6b"/><path d="m28.711 59.25a8.564 8.564 0 0 0 8.338 5.734 8.564 8.564 0 0 0 8.338-5.734z" fill="#bbbbcd"/><g fill="#323c6b"><path d="m37.049 65.483a9.093 9.093 0 0 1 -8.817-6.083.5.5 0 0 1 .479-.646h16.676a.5.5 0 0 1 .478.646 9.093 9.093 0 0 1 -8.816 6.083zm-7.625-5.733a8.2 8.2 0 0 0 7.625 4.733 8.2 8.2 0 0 0 7.625-4.733z"/><path d="m52.258 66.813a.5.5 0 0 1 -.373-.833 27.455 27.455 0 0 0 4.579-7.18.5.5 0 1 1 .914.4 28.413 28.413 0 0 1 -4.747 7.443.5.5 0 0 1 -.373.17z"/><path d="m50.227 68.979a.5.5 0 0 1 -.3-.9l.219-.162c.092-.067.185-.133.274-.206a.5.5 0 1 1 .627.778c-.1.083-.209.16-.314.237l-.2.146a.5.5 0 0 1 -.306.107z"/><path d="m20.594 17.588a.5.5 0 0 1 -.308-.894l.235-.191c.121-.1.243-.2.369-.294a.5.5 0 0 1 .594.8c-.111.082-.218.171-.324.259l-.259.21a.5.5 0 0 1 -.307.11z"/><path d="m23.688 15.479a.5.5 0 0 1 -.251-.933 27.494 27.494 0 0 1 6.843-2.8.5.5 0 0 1 .254.968 26.475 26.475 0 0 0 -6.595 2.7.5.5 0 0 1 -.251.065z"/><path d="m37 71.146c-7.679 0-14.817-5.678-18.185-14.466-.039-.1-.12-.3-.233-.573-3.45-8.4-5.2-14.667-5.2-18.644a21.928 21.928 0 0 1 6.228-16.163 24.006 24.006 0 0 1 34.779 0 21.942 21.942 0 0 1 6.229 16.181c0 3.957-1.75 10.229-5.2 18.624-.113.275-.194.471-.233.574-3.368 8.789-10.506 14.467-18.185 14.467zm0-56.3a23.26 23.26 0 0 0 -16.668 7.154 20.944 20.944 0 0 0 -5.95 15.449c0 3.864 1.725 10.009 5.125 18.283.118.286.2.489.242.6 3.219 8.388 9.989 13.814 17.251 13.814s14.032-5.426 17.251-13.823c.041-.107.124-.31.242-.6 3.4-8.274 5.125-14.418 5.125-18.263a20.958 20.958 0 0 0 -5.95-15.46 23.26 23.26 0 0 0 -16.668-7.154z"/><path d="m53.191 46.609h-32.382a7.319 7.319 0 0 1 0-14.638h32.382a7.319 7.319 0 0 1 0 14.638zm-32.382-13.638a6.319 6.319 0 0 0 0 12.638h32.382a6.319 6.319 0 0 0 0-12.638z"/></g><path d="m39.23 43.351a.567.567 0 0 1 -.567.567h-6.963a.567.567 0 0 1 0-1.135h6.966a.567.567 0 0 1 .564.568z" fill="#fff"/><path d="m41.5 43.351a.567.567 0 0 1 -.567.567h-.3a.567.567 0 1 1 0-1.135h.3a.567.567 0 0 1 .567.568z" fill="#fff"/></svg>