<svg id="color_line" height="512" viewBox="0 0 74 74" width="512" xmlns="http://www.w3.org/2000/svg" data-name="color line"><path d="m57.259 26.033a18.7 18.7 0 0 0 -2.278-11.163c-3.238-4.9-7.186-8.534-12.725-10.5s-12.534-1.689-18.156.06c-17.682 5.922-17.606 26.29-15.665 30.69a39.509 39.509 0 0 0 3.745 7.716 22.436 22.436 0 0 1 3.057 13.819c-.4 3.953-1.007 7.381-1.905 14.342h30.568a39.269 39.269 0 0 1 1.147-7.743 5.007 5.007 0 0 1 1.388-2.8 4.963 4.963 0 0 1 2.965-.764c2.64-.124 5.415.158 8.055.034h.028a3.1 3.1 0 0 0 2.5-4.591 4.554 4.554 0 0 1 -.215-.43c-.65-1.579-.384-1.707 1.139-3.207.406-.384.429-.7.3-.936a2.5 2.5 0 0 0 -.688-.688.868.868 0 0 1 .045-1.613c.316-.248.688-.474.812-.857a1.673 1.673 0 0 0 -.237-1.207c-.6-1.23-1.376-2.754-1.973-3.984-.079-.18 6.2-.256 7.256-.786a1.856 1.856 0 0 0 .97-1.94c-.631-3.974-6.892-11.422-10.133-13.452z" fill="#eeefee"/><path d="m49.25 59.7a4.7 4.7 0 0 0 -2.82.76 5.017 5.017 0 0 0 -1.39 2.79 38.8 38.8 0 0 0 -1.14 7.75h-3.62a39.286 39.286 0 0 1 1.15-7.75 5 5 0 0 1 1.38-2.79 4.98 4.98 0 0 1 2.97-.77c1.14-.05 2.3-.03 3.47.01z" fill="#e1e6e9"/><path d="m67.39 39.48a1.846 1.846 0 0 1 -.97 1.94c-1.05.53-7.25.61-7.25.79.59 1.23 1.37 2.75 1.97 3.98a1.713 1.713 0 0 1 .24 1.21 2.113 2.113 0 0 1 -.82.86.865.865 0 0 0 -.04 1.61 2.663 2.663 0 0 1 .69.69c.12.24.1.55-.31.93-1.52 1.5-1.79 1.63-1.14 3.21.06.14.14.28.22.43a3.1 3.1 0 0 1 -2.5 4.59h-.03c-1.18.06-2.38.03-3.59 0a3.1 3.1 0 0 0 2.5-4.59 3.391 3.391 0 0 1 -.21-.43c-.65-1.58-.39-1.71 1.14-3.21.4-.38.43-.69.3-.93a2.388 2.388 0 0 0 -.69-.69.869.869 0 0 1 .05-1.61c.32-.25.69-.48.81-.86a1.664 1.664 0 0 0 -.24-1.21c-.59-1.23-1.37-2.75-1.97-3.98 0-.18 6.21-.26 7.26-.79a1.86 1.86 0 0 0 .97-1.94c-.63-3.97-6.9-11.42-10.14-13.45a18.6 18.6 0 0 0 -2.28-11.16c-3.23-4.9-7.18-8.53-12.72-10.5a24.343 24.343 0 0 0 -6.8-1.31 26.829 26.829 0 0 1 10.42 1.31c5.53 1.97 9.48 5.6 12.72 10.5a18.746 18.746 0 0 1 2.28 11.16c3.24 2.03 9.5 9.48 10.13 13.45z" fill="#e1e6e9"/><path d="m53.82 59.72c-1.5.07-3.04.02-4.57-.02a.756.756 0 0 1 .15-.01c1.45-.07 2.93-.01 4.42.03z" fill="#e1e6e9"/><path d="m25.585 18.86h16.589a2.23 2.23 0 0 1 2.23 2.23v16.589a2.23 2.23 0 0 1 -2.23 2.23h-16.588a2.231 2.231 0 0 1 -2.231-2.231v-16.588a2.23 2.23 0 0 1 2.23-2.23z" fill="#27ccbc"/><path d="m44.4 21.09v16.59a2.216 2.216 0 0 1 -2.04 2.22v-16.48a2.226 2.226 0 0 0 -2.23-2.23h-16.58a1.339 1.339 0 0 0 -.2.01v-.11a2.234 2.234 0 0 1 2.24-2.23h16.58a2.226 2.226 0 0 1 2.23 2.23z" fill="#21b3a9"/><path d="m26.963 22.468h13.832v13.832h-13.832z" fill="#fcd462"/><path d="m40.8 22.47v13.83h-2.32v-11.74h-11.52v-2.09z" fill="#f7be56"/><g fill="#323c6b"><path d="m23.354 23.755h-3.67a.5.5 0 0 1 0-1h3.67a.5.5 0 0 1 0 1z"/><path d="m23.354 29.885h-2.654a.5.5 0 0 1 0-1h2.651a.5.5 0 0 1 0 1z"/><path d="m23.354 36.014h-4.14a.5.5 0 0 1 -.4-.2l-1.455-1.988a.5.5 0 0 1 .807-.591l1.306 1.783h3.887a.5.5 0 1 1 0 1z"/><path d="m47.618 23.755h-3.218a.5.5 0 0 1 0-1h3.214a.5.5 0 0 1 0 1z"/><path d="m50.315 30.977a.5.5 0 0 1 -.263-.075l-1.652-1.017h-4a.5.5 0 0 1 0-1h4.141a.5.5 0 0 1 .263.075l1.771 1.092a.5.5 0 0 1 -.263.925z"/><path d="m46.792 36.012h-2.392a.5.5 0 0 1 0-1h2.389a.5.5 0 0 1 0 1z"/><path d="m27.75 44.142a.5.5 0 0 1 -.5-.5v-3.733a.5.5 0 0 1 1 0v3.732a.5.5 0 0 1 -.5.501z"/><path d="m33.879 43.254a.5.5 0 0 1 -.5-.5v-2.845a.5.5 0 0 1 1 0v2.845a.5.5 0 0 1 -.5.5z"/><path d="m38.342 46.1a.5.5 0 0 1 -.34-.866l1.507-1.4v-3.925a.5.5 0 0 1 1 0v4.142a.5.5 0 0 1 -.16.366l-1.667 1.548a.5.5 0 0 1 -.34.135z"/><path d="m27.75 19.36a.5.5 0 0 1 -.5-.5v-3.93l-1.422-1.375a.5.5 0 0 1 .7-.719l1.572 1.523a.5.5 0 0 1 .152.359v4.142a.5.5 0 0 1 -.502.5z"/><path d="m33.879 19.36a.5.5 0 0 1 -.5-.5v-2.552a.5.5 0 0 1 1 0v2.552a.5.5 0 0 1 -.5.5z"/><path d="m40.009 19.36a.5.5 0 0 1 -.5-.5v-3.36a.5.5 0 0 1 1 0v3.36a.5.5 0 0 1 -.5.5z"/></g><circle cx="25.079" cy="12.129" fill="#fe7058" r="1.531"/><path d="m25.079 14.16a2.031 2.031 0 1 1 2.031-2.032 2.035 2.035 0 0 1 -2.031 2.032zm0-3.063a1.031 1.031 0 1 0 1.031 1.031 1.033 1.033 0 0 0 -1.031-1.028z" fill="#323c6b"/><circle cx="51.481" cy="31.472" fill="#fe7058" r="1.531"/><path d="m51.48 33.5a2.031 2.031 0 1 1 2.031-2.032 2.034 2.034 0 0 1 -2.031 2.032zm0-3.063a1.031 1.031 0 1 0 1.031 1.031 1.032 1.032 0 0 0 -1.031-1.028z" fill="#323c6b"/><circle cx="37.279" cy="46.705" fill="#fe7058" r="1.531"/><path d="m37.279 48.737a2.031 2.031 0 1 1 2.031-2.031 2.033 2.033 0 0 1 -2.031 2.031zm0-3.063a1.031 1.031 0 1 0 1.031 1.032 1.033 1.033 0 0 0 -1.031-1.032z" fill="#323c6b"/><circle cx="17.055" cy="32.168" fill="#fe7058" r="1.531"/><path d="m17.055 34.2a2.031 2.031 0 1 1 2.031-2.031 2.033 2.033 0 0 1 -2.031 2.031zm0-3.062a1.031 1.031 0 1 0 1.031 1.031 1.032 1.032 0 0 0 -1.031-1.032z" fill="#323c6b"/><circle cx="40.007" cy="13.963" fill="#fe7058" r="1.531"/><path d="m40.007 15.995a2.031 2.031 0 1 1 2.031-2.032 2.034 2.034 0 0 1 -2.031 2.032zm0-3.063a1.031 1.031 0 1 0 1.031 1.031 1.032 1.032 0 0 0 -1.031-1.031z" fill="#323c6b"/><circle cx="27.752" cy="45.174" fill="#fe7058" r="1.531"/><path d="m27.752 47.206a2.031 2.031 0 1 1 2.031-2.032 2.035 2.035 0 0 1 -2.031 2.032zm0-3.063a1.031 1.031 0 1 0 1.031 1.031 1.033 1.033 0 0 0 -1.031-1.031z" fill="#323c6b"/><circle cx="18.155" cy="23.257" fill="#fe7058" r="1.531"/><path d="m18.154 25.289a2.031 2.031 0 1 1 2.032-2.032 2.034 2.034 0 0 1 -2.032 2.032zm0-3.063a1.031 1.031 0 1 0 1.032 1.031 1.032 1.032 0 0 0 -1.032-1.031z" fill="#323c6b"/><circle cx="49.151" cy="23.257" fill="#fe7058" r="1.531"/><path d="m49.151 25.289a2.031 2.031 0 1 1 2.031-2.032 2.035 2.035 0 0 1 -2.031 2.032zm0-3.063a1.031 1.031 0 1 0 1.031 1.031 1.033 1.033 0 0 0 -1.031-1.031z" fill="#323c6b"/><path d="m43.9 71.5h-30.568a.5.5 0 0 1 -.5-.564c.386-2.986.717-5.323 1-7.33.376-2.654.673-4.75.9-7a22.074 22.074 0 0 0 -2.988-13.51 40.177 40.177 0 0 1 -3.784-7.818c-1.072-2.425-1.739-10.586 1.651-18.259a23.433 23.433 0 0 1 14.334-13.063c6.144-1.913 13.222-1.931 18.479-.056s9.383 5.264 12.976 10.694a19.173 19.173 0 0 1 2.395 11.189c3.394 2.306 9.458 9.623 10.095 13.62a2.343 2.343 0 0 1 -1.243 2.468 21.806 21.806 0 0 1 -5.361.642c-.475.028-.985.058-1.366.087.221.447.459.924.7 1.4.341.682.682 1.364.978 1.973a1.725 1.725 0 0 1 -.573 2.567l-.144.109c-.284.215-.391.408-.372.5.024.115.236.264.306.313a2.741 2.741 0 0 1 .849.874 1.227 1.227 0 0 1 -.408 1.523l-.256.241c-1.264 1.238-1.264 1.238-.779 2.417a4.077 4.077 0 0 0 .191.38 3.619 3.619 0 0 1 -.024 3.518 3.509 3.509 0 0 1 -2.887 1.813c-1.37.064-2.756.024-4.1-.015-1.321-.039-2.687-.079-3.989-.018a4.642 4.642 0 0 0 -2.677.657 4.559 4.559 0 0 0 -1.217 2.531 38.753 38.753 0 0 0 -1.133 7.66.5.5 0 0 1 -.485.457zm-30-1h29.536a38.023 38.023 0 0 1 1.122-7.366 5.487 5.487 0 0 1 1.558-3.062 5.39 5.39 0 0 1 3.26-.878c1.336-.063 2.723-.023 4.063.017 1.322.04 2.687.08 3.989.018a2.491 2.491 0 0 0 2.092-1.3 2.626 2.626 0 0 0 .021-2.551 4.96 4.96 0 0 1 -.239-.479c-.714-1.735-.408-2.127 1-3.511l.247-.243c.126-.119.25-.275.212-.348a1.942 1.942 0 0 0 -.541-.517 1.552 1.552 0 0 1 -.7-.921 1.523 1.523 0 0 1 .74-1.493l.152-.117c.222-.167.431-.323.486-.5a1.379 1.379 0 0 0 -.214-.841c-.292-.6-.631-1.278-.97-1.957-.349-.7-.7-1.4-1-2.02a.515.515 0 0 1 .023-.488c.177-.289.264-.294 2.482-.424a27.272 27.272 0 0 0 4.976-.54 1.362 1.362 0 0 0 .7-1.422c-.6-3.793-6.79-11.146-9.9-13.1a.5.5 0 0 1 -.23-.486 18.319 18.319 0 0 0 -2.2-10.821c-3.465-5.244-7.43-8.518-12.476-10.306-5.066-1.809-11.9-1.785-17.836.063a22.162 22.162 0 0 0 -13.727 12.516c-3.267 7.392-2.663 15.163-1.635 17.5a39.487 39.487 0 0 0 3.717 7.661 23.08 23.08 0 0 1 3.127 14.116c-.232 2.271-.531 4.375-.908 7.04-.265 1.88-.572 4.044-.927 6.76z" fill="#323c6b"/><path d="m42.173 40.409h-16.587a2.734 2.734 0 0 1 -2.731-2.73v-16.589a2.734 2.734 0 0 1 2.731-2.729h16.587a2.733 2.733 0 0 1 2.727 2.729v16.589a2.733 2.733 0 0 1 -2.727 2.73zm-16.587-21.049a1.732 1.732 0 0 0 -1.731 1.729v16.59a1.732 1.732 0 0 0 1.731 1.73h16.587a1.732 1.732 0 0 0 1.73-1.73v-16.589a1.732 1.732 0 0 0 -1.73-1.729z" fill="#323c6b"/><path d="m40.795 36.8h-13.832a.5.5 0 0 1 -.5-.5v-13.832a.5.5 0 0 1 .5-.5h13.832a.5.5 0 0 1 .5.5v13.832a.5.5 0 0 1 -.5.5zm-13.332-1h12.832v-12.832h-12.832z" fill="#323c6b"/><path d="m11.361 63.752a.506.506 0 0 1 -.07 0 .5.5 0 0 1 -.425-.564c.371-2.623.665-4.693.89-6.883.025-.267.037-.537.049-.806l.009-.183a.492.492 0 0 1 .522-.477.5.5 0 0 1 .476.522l-.008.181c-.013.288-.025.575-.053.862-.228 2.212-.521 4.291-.895 6.922a.5.5 0 0 1 -.495.426z" fill="#323c6b"/><path d="m12.284 53.417a.5.5 0 0 1 -.5-.462c-.007-.1-.019-.2-.029-.293l-.021-.195a.5.5 0 0 1 .447-.547.494.494 0 0 1 .547.448l.021.181c.012.11.024.22.033.331a.5.5 0 0 1 -.461.536z" fill="#323c6b"/><path d="m50.333 5.875a.5.5 0 0 1 -.3-.1c-.125-.1-.255-.185-.385-.274l-.269-.187a.5.5 0 1 1 .582-.812l.252.175c.144.1.287.2.427.3a.5.5 0 0 1 -.3.9z" fill="#323c6b"/><path d="m58.923 16.667a.5.5 0 0 1 -.468-.325 14.4 14.4 0 0 0 -1.388-2.847 34.259 34.259 0 0 0 -4.174-5.2.5.5 0 1 1 .713-.7 35.219 35.219 0 0 1 4.294 5.344 15.331 15.331 0 0 1 1.491 3.052.5.5 0 0 1 -.292.644.507.507 0 0 1 -.176.032z" fill="#323c6b"/><path d="m35.367 33.888a.523.523 0 0 1 -.523.523h-.274a.523.523 0 0 1 0-1.046h.274a.523.523 0 0 1 .523.523z" fill="#fff"/><path d="m33.277 33.885a.519.519 0 0 1 -.525.525h-3.2a.716.716 0 0 1 -.716-.716v-2.169a.525.525 0 1 1 1.051 0v1.843h2.866a.517.517 0 0 1 .524.517z" fill="#fff"/></svg>