<svg id="color_line" height="512" viewBox="0 0 74 74" width="512" xmlns="http://www.w3.org/2000/svg" data-name="color line"><path d="m44.425 18.973a6.164 6.164 0 0 0 1.231 3.712h-27.217a3.717 3.717 0 0 1 0-7.434h27.226a6.119 6.119 0 0 0 -1.24 3.722z" fill="#eeefee"/><path d="m45.67 15.25a6 6 0 0 0 -1.13 2.53h-26.1a3.678 3.678 0 0 0 -2.63 1.1 3.467 3.467 0 0 0 -.86 1.36 3.579 3.579 0 0 1 -.23-1.27 3.722 3.722 0 0 1 3.72-3.72z" fill="#e1e6e9"/><path d="m24.595 22.685v9.045l-6.397.009v-9.063z" fill="#eeefee"/><path d="m18.2 32.239a.5.5 0 0 1 -.5-.5v-9.063a.5.5 0 0 1 .5-.5l6.4.009a.5.5 0 0 1 .5.5v9.045a.5.5 0 0 1 -.5.5zm.5-9.062v8.062l5.4-.008v-8.046z" fill="#323c6b"/><path d="m54.765 23.685v22.181a8.435 8.435 0 0 0 -8.591 0v-22.566a6.218 6.218 0 0 0 8.591.389z" fill="#eeefee"/><path d="m54.77 23.69v22.18a8.19 8.19 0 0 0 -2.69-1.02v-19.8a6.087 6.087 0 0 0 2.69-1.36z" fill="#e1e6e9"/><path d="m43.472 43.246h5.553a8.434 8.434 0 0 1 8.434 8.434 8.434 8.434 0 0 1 -8.434 8.434h-5.553a0 0 0 0 1 0 0v-16.868a0 0 0 0 1 0 0z" fill="#bbbbcd" transform="matrix(0 -1 1 0 -1.215 102.146)"/><path d="m66.633 65.446h-32.327a6.863 6.863 0 0 1 6.869-6.767h18.58a6.865 6.865 0 0 1 6.878 6.767z" fill="#bbbbcd"/><path d="m58.9 53.12v5.55h-3.31v-5.55a8.442 8.442 0 0 0 -6.78-8.27 9.071 9.071 0 0 1 1.66-.16 8.433 8.433 0 0 1 8.43 8.43z" fill="#9297ab"/><path d="m66.63 65.45h-3.31a6.863 6.863 0 0 0 -6.88-6.77h3.32a6.861 6.861 0 0 1 6.87 6.77z" fill="#9297ab"/><path d="m17.1 32.933-5.836 6.967a2 2 0 0 0 -.139 2.342l5.24 8.073a1.743 1.743 0 0 0 3.073-1.611l-2.675-6.504 1.8-2.166" fill="#bbbbcd"/><path d="m17.828 51.615a2.229 2.229 0 0 1 -1.884-1.026l-5.237-8.071a2.5 2.5 0 0 1 .171-2.931l5.835-6.975a.5.5 0 0 1 .768.642l-5.832 6.971a1.5 1.5 0 0 0 -.1 1.753l5.235 8.068a1.263 1.263 0 0 0 1.723.363 1.235 1.235 0 0 0 .471-1.508l-2.678-6.511a.5.5 0 0 1 .078-.509l1.8-2.167a.5.5 0 0 1 .77.639l-1.6 1.935 2.561 6.23a2.247 2.247 0 0 1 -2.073 3.1z" fill="#323c6b"/><path d="m25.545 32.722 5.984 7.178a2 2 0 0 1 .139 2.342l-5.24 8.073a1.743 1.743 0 0 1 -3.073-1.611l2.675-6.504-1.8-2.166" fill="#bbbbcd"/><path d="m24.966 51.615a2.247 2.247 0 0 1 -2.072-3.1l2.56-6.226-1.6-1.935a.5.5 0 1 1 .77-.639l1.8 2.167a.5.5 0 0 1 .078.509l-2.685 6.509a1.236 1.236 0 0 0 .47 1.513 1.265 1.265 0 0 0 1.72-.362l5.242-8.075a1.5 1.5 0 0 0 -.106-1.752l-5.981-7.18a.5.5 0 1 1 .768-.64l5.984 7.183a2.5 2.5 0 0 1 .178 2.929l-5.244 8.078a2.225 2.225 0 0 1 -1.882 1.021z" fill="#323c6b"/><circle cx="50.672" cy="18.969" fill="#9297ab" r="6.249"/><circle cx="50.672" cy="18.969" fill="#fff" r="2.88"/><path d="m50.672 22.349a3.38 3.38 0 1 1 3.38-3.38 3.384 3.384 0 0 1 -3.38 3.38zm0-5.759a2.38 2.38 0 1 0 2.38 2.379 2.382 2.382 0 0 0 -2.38-2.38z" fill="#323c6b"/><circle cx="21.397" cy="35.749" fill="#9297ab" r="5.137"/><path d="m55.13 23.35a6.153 6.153 0 0 0 .54-2.54 6.251 6.251 0 0 0 -10.71-4.38 6.25 6.25 0 1 1 10.17 6.92z" fill="#84879c"/><path d="m24.92 39.48a5.14 5.14 0 0 0 -4.77-7.03 5.024 5.024 0 0 0 -3.53 1.42 5.133 5.133 0 1 1 8.3 5.61z" fill="#84879c"/><circle cx="21.397" cy="35.749" fill="#fff" r="2.177"/><path d="m21.4 38.426a2.677 2.677 0 1 1 2.678-2.677 2.68 2.68 0 0 1 -2.678 2.677zm0-4.354a1.677 1.677 0 1 0 1.678 1.677 1.679 1.679 0 0 0 -1.678-1.677z" fill="#323c6b"/><path d="m66.178 19.469a.5.5 0 0 1 -.5-.5 15.023 15.023 0 0 0 -15.006-15.006.5.5 0 0 1 0-1 16.024 16.024 0 0 1 16.006 16.006.5.5 0 0 1 -.5.5z" fill="#323c6b"/><path d="m61.549 19.469a.5.5 0 0 1 -.5-.5 10.389 10.389 0 0 0 -10.377-10.377.5.5 0 0 1 0-1 11.39 11.39 0 0 1 11.377 11.377.5.5 0 0 1 -.5.5z" fill="#323c6b"/><circle cx="50.466" cy="51.68" fill="#eeefee" r="2.68"/><g fill="#323c6b"><path d="m50.466 54.861a3.18 3.18 0 1 1 3.181-3.181 3.184 3.184 0 0 1 -3.181 3.181zm0-5.361a2.18 2.18 0 1 0 2.181 2.18 2.183 2.183 0 0 0 -2.181-2.18z"/><path d="m12.146 17.125a.5.5 0 0 1 -.469-.675 7.22 7.22 0 0 1 6.067-4.664.5.5 0 1 1 .094 1 6.219 6.219 0 0 0 -5.224 4.02.5.5 0 0 1 -.468.319z"/><path d="m20.875 12.751h-.458a.5.5 0 0 1 0-1h.458a.5.5 0 0 1 0 1z"/><path d="m61.792 52.125a.5.5 0 0 1 -.5-.434 10.9 10.9 0 0 0 -3.866-6.958.5.5 0 0 1 .639-.77 11.909 11.909 0 0 1 4.22 7.6.5.5 0 0 1 -.43.562.52.52 0 0 1 -.063 0z"/><path d="m61.9 55.173a.5.5 0 0 1 -.5-.5v-.625a.5.5 0 0 1 1 0v.625a.5.5 0 0 1 -.5.5z"/><path d="m45.656 23.185h-27.217a4.212 4.212 0 0 1 -2.983-7.195 4.159 4.159 0 0 1 2.983-1.239h27.226a.5.5 0 0 1 .4.8 5.708 5.708 0 0 0 -.008 6.831.5.5 0 0 1 -.4.8zm-27.217-7.434a3.169 3.169 0 0 0 -2.274.943 3.212 3.212 0 0 0 2.274 5.49h26.3a6.739 6.739 0 0 1 0-6.434z"/><path d="m54.766 46.366a.5.5 0 0 1 -.256-.07 8.064 8.064 0 0 0 -8.079 0 .5.5 0 0 1 -.756-.43v-22.566a.5.5 0 0 1 .862-.345 5.717 5.717 0 0 0 7.9.356.5.5 0 0 1 .829.377v22.178a.5.5 0 0 1 -.5.5zm-4.3-2.176a8.92 8.92 0 0 1 3.8.845v-20.355a6.889 6.889 0 0 1 -7.591-.278v20.633a8.912 8.912 0 0 1 3.795-.845z"/><path d="m58.9 59.174h-16.869a.5.5 0 0 1 -.5-.5v-5.553a8.935 8.935 0 0 1 17.869 0v5.553a.5.5 0 0 1 -.5.5zm-16.369-1h15.869v-5.053a7.935 7.935 0 0 0 -15.869 0z"/><path d="m66.634 65.946h-32.327a.5.5 0 0 1 -.5-.507 7.4 7.4 0 0 1 7.369-7.26h18.579a7.406 7.406 0 0 1 7.379 7.26.5.5 0 0 1 -.5.507zm-31.8-1h31.272a6.407 6.407 0 0 0 -6.352-5.768h-18.578a6.4 6.4 0 0 0 -6.342 5.768z"/><path d="m50.672 25.718a6.749 6.749 0 1 1 6.749-6.749 6.757 6.757 0 0 1 -6.749 6.749zm0-12.5a5.749 5.749 0 1 0 5.749 5.749 5.755 5.755 0 0 0 -5.749-5.747z"/><path d="m21.4 41.386a5.637 5.637 0 1 1 5.638-5.637 5.643 5.643 0 0 1 -5.638 5.637zm0-10.274a4.637 4.637 0 1 0 4.638 4.637 4.642 4.642 0 0 0 -4.638-4.637z"/></g><rect fill="#9297ab" height="6.544" rx="1.05" width="58.936" x="11.986" y="64.919"/><path d="m70.92 65.973v4.437a1.05 1.05 0 0 1 -1.05 1.05h-1.95v-6.537h1.95a1.05 1.05 0 0 1 1.05 1.05z" fill="#84879c"/><path d="m69.873 71.963h-56.837a1.552 1.552 0 0 1 -1.55-1.55v-4.445a1.552 1.552 0 0 1 1.55-1.55h56.837a1.552 1.552 0 0 1 1.55 1.55v4.445a1.552 1.552 0 0 1 -1.55 1.55zm-56.837-6.545a.551.551 0 0 0 -.55.55v4.445a.551.551 0 0 0 .55.55h56.837a.551.551 0 0 0 .55-.55v-4.445a.551.551 0 0 0 -.55-.55z" fill="#323c6b"/><path d="m42.5 62.065a.567.567 0 0 1 .567-.567h6.9a.567.567 0 0 1 0 1.135h-6.9a.567.567 0 0 1 -.567-.568z" fill="#fff"/><path d="m39.879 62.065a.567.567 0 0 1 .567-.567h.3a.567.567 0 1 1 0 1.135h-.3a.567.567 0 0 1 -.567-.568z" fill="#fff"/></svg>