<svg id="color_line" height="512" viewBox="0 0 74 74" width="512" xmlns="http://www.w3.org/2000/svg" data-name="color line"><path d="m18.337 64.245v-36.761l-8.66 5.49-6.677-8.173 13.997-15.046h11.67l8.333 11.386 8.333-11.386h11.67l13.997 15.046-6.677 8.173-8.66-5.49v36.761z" fill="#fe7058"/><path d="m55.66 64.25h-37.32v-3.14h34.32v-33.65l3 .02z" fill="#ea6453"/><path d="m64.32 32.97 6.68-8.17-14-15.05h-.09l9.99 14.67-5.52 6.69z" fill="#ea6453"/><path d="m30.945 35.573h12.109a2.637 2.637 0 0 1 2.637 2.637v12.108a2.637 2.637 0 0 1 -2.637 2.637h-12.109a2.636 2.636 0 0 1 -2.636-2.636v-12.11a2.636 2.636 0 0 1 2.636-2.636z" fill="#fcd462"/><path d="m45.69 38.21v12.11a2.642 2.642 0 0 1 -2.21 2.6 2.416 2.416 0 0 0 .04-.47v-12.1a2.635 2.635 0 0 0 -2.63-2.64h-12.11a3 3 0 0 0 -.43.03 2.634 2.634 0 0 1 2.6-2.17h12.1a2.637 2.637 0 0 1 2.64 2.64z" fill="#f7be56"/><g fill="#323c6b"><path d="m28.309 39.7h-3.421a.5.5 0 1 1 0-1h3.421a.5.5 0 0 1 0 1z"/><path d="m28.309 44.764h-3.421a.5.5 0 0 1 0-1h3.421a.5.5 0 0 1 0 1z"/><path d="m28.309 49.825h-3.421a.5.5 0 1 1 0-1h3.421a.5.5 0 0 1 0 1z"/><path d="m49.112 39.7h-3.421a.5.5 0 0 1 0-1h3.421a.5.5 0 0 1 0 1z"/><path d="m49.112 44.764h-3.421a.5.5 0 0 1 0-1h3.421a.5.5 0 0 1 0 1z"/><path d="m49.112 49.824h-3.421a.5.5 0 0 1 0-1h3.421a.5.5 0 0 1 0 1z"/><path d="m31.938 56.876a.5.5 0 0 1 -.5-.5v-3.421a.5.5 0 0 1 1 0v3.421a.5.5 0 0 1 -.5.5z"/><path d="m37 56.876a.5.5 0 0 1 -.5-.5v-3.421a.5.5 0 0 1 1 0v3.421a.5.5 0 0 1 -.5.5z"/><path d="m42.062 56.876a.5.5 0 0 1 -.5-.5v-3.421a.5.5 0 0 1 1 0v3.421a.5.5 0 0 1 -.5.5z"/><path d="m31.938 36.073a.5.5 0 0 1 -.5-.5v-3.422a.5.5 0 1 1 1 0v3.421a.5.5 0 0 1 -.5.501z"/><path d="m37 36.073a.5.5 0 0 1 -.5-.5v-3.422a.5.5 0 1 1 1 0v3.422a.5.5 0 0 1 -.5.5z"/><path d="m42.062 36.073a.5.5 0 0 1 -.5-.5v-3.422a.5.5 0 0 1 1 0v3.421a.5.5 0 0 1 -.5.501z"/><path d="m34.583 46.239a3.14 3.14 0 0 1 -1.3.233 2.292 2.292 0 0 1 -2.423-2.482 2.441 2.441 0 0 1 2.562-2.577 2.637 2.637 0 0 1 1.165.218l-.153.517a2.3 2.3 0 0 0 -.99-.2 1.824 1.824 0 0 0 -1.914 2.023 1.783 1.783 0 0 0 1.885 1.973 2.535 2.535 0 0 0 1.033-.2z"/><path d="m35.375 41.552a7.364 7.364 0 0 1 1.215-.094 2.019 2.019 0 0 1 1.376.407 1.32 1.32 0 0 1 .429 1.026 1.445 1.445 0 0 1 -.378 1.048 2.034 2.034 0 0 1 -1.5.539 2.166 2.166 0 0 1 -.509-.044v1.966h-.633zm.633 2.366a2.113 2.113 0 0 0 .524.051c.764 0 1.23-.371 1.23-1.048 0-.648-.458-.961-1.157-.961a2.639 2.639 0 0 0 -.6.051z"/><path d="m39.878 41.494v2.9c0 1.1.487 1.565 1.143 1.565.728 0 1.194-.48 1.194-1.565v-2.9h.64v2.86c0 1.507-.793 2.125-1.856 2.125-1 0-1.761-.575-1.761-2.1v-2.89z"/><path d="m21.661 19a.5.5 0 0 1 -.414-.218l-5.42-7.94a.5.5 0 1 1 .826-.563l5.42 7.94a.5.5 0 0 1 -.413.782z"/><path d="m30.6 22.12a.5.5 0 0 1 -.417-.224l-7.87-11.87a.5.5 0 0 1 .833-.553l7.87 11.87a.5.5 0 0 1 -.416.776z"/><path d="m5.431 28.27a.5.5 0 0 1 -.3-.9l9.53-7.09a.5.5 0 0 1 .694.1l2.41 3.13a.5.5 0 1 1 -.792.61l-2.11-2.74-9.135 6.8a.5.5 0 0 1 -.297.09z"/><path d="m52.339 19a.5.5 0 0 1 -.413-.782l5.42-7.94a.5.5 0 0 1 .826.563l-5.42 7.94a.5.5 0 0 1 -.413.219z"/><path d="m43.4 22.13a.5.5 0 0 1 -.417-.776l7.87-11.88a.5.5 0 0 1 .834.553l-7.87 11.88a.5.5 0 0 1 -.417.223z"/><path d="m68.569 28.27a.5.5 0 0 1 -.3-.1l-9.135-6.8-2.11 2.74a.5.5 0 1 1 -.792-.61l2.41-3.13a.5.5 0 0 1 .694-.1l9.53 7.09a.5.5 0 0 1 -.3.9z"/><path d="m49.112 28.81h-24.224a.5.5 0 0 1 0-1h24.224a.5.5 0 0 1 0 1z"/><path d="m31.083 59.75h-12.746a.5.5 0 1 1 0-1h12.746a.5.5 0 0 1 0 1z"/><path d="m55.663 59.75h-6.551a.5.5 0 0 1 -.5-.5v-4.292a.5.5 0 0 1 1 0v3.792h6.051a.5.5 0 0 1 0 1z"/><path d="m23 59.75a.5.5 0 0 1 -.5-.5v-3.5a.5.5 0 0 1 1 0v3.5a.5.5 0 0 1 -.5.5z"/><path d="m22.125 51.188a.5.5 0 0 1 -.5-.5v-9.938h-3.288a.5.5 0 1 1 0-1h3.788a.5.5 0 0 1 .5.5v10.438a.5.5 0 0 1 -.5.5z"/><path d="m55.663 46.51h-3.788a.5.5 0 0 1 -.5-.5v-10.437a.5.5 0 0 1 1 0v9.937h3.288a.5.5 0 0 1 0 1z"/><path d="m55.663 64.745h-37.326a.5.5 0 0 1 -.5-.5v-35.851l-7.892 5a.5.5 0 0 1 -.655-.106l-6.677-8.171a.5.5 0 0 1 .021-.657l14-15.046a.5.5 0 0 1 .366-.159h11.667a.5.5 0 0 1 .4.2l7.933 10.839 7.929-10.835a.5.5 0 0 1 .4-.2h11.671a.5.5 0 0 1 .366.16l14 15.046a.5.5 0 0 1 .021.657l-6.677 8.169a.5.5 0 0 1 -.655.106l-7.892-5v35.848a.5.5 0 0 1 -.5.5zm-36.826-1h36.326v-36.261a.5.5 0 0 1 .768-.422l8.285 5.252 6.121-7.492-13.551-14.567h-11.2l-8.186 11.181a.519.519 0 0 1 -.807 0l-8.179-11.181h-11.2l-13.551 14.567 6.121 7.492 8.285-5.252a.5.5 0 0 1 .768.422z"/><path d="m43.054 53.455h-12.109a3.14 3.14 0 0 1 -3.136-3.136v-12.11a3.14 3.14 0 0 1 3.136-3.136h12.109a3.141 3.141 0 0 1 3.137 3.137v12.108a3.141 3.141 0 0 1 -3.137 3.137zm-12.109-17.382a2.139 2.139 0 0 0 -2.136 2.136v12.109a2.139 2.139 0 0 0 2.136 2.136h12.109a2.14 2.14 0 0 0 2.137-2.137v-12.107a2.14 2.14 0 0 0 -2.137-2.137z"/></g><path d="m20.822 31.03a.567.567 0 0 1 .571.564l.044 5.567a.567.567 0 1 1 -1.135.007l-.043-5.568a.567.567 0 0 1 .563-.57z" fill="#fff"/><path d="m20.794 28.878a.567.567 0 0 1 .571.564l.015.182a.567.567 0 0 1 -1.135.007l-.015-.182a.567.567 0 0 1 .564-.571z" fill="#fff"/><path d="m58.663 57a.5.5 0 0 1 -.5-.5v-.958a.5.5 0 0 1 1 0v.958a.5.5 0 0 1 -.5.5z" fill="#323c6b"/><path d="m58.663 67.745h-3.163a.5.5 0 0 1 0-1h2.663v-7.12a.5.5 0 0 1 1 0v7.62a.5.5 0 0 1 -.5.5z" fill="#323c6b"/><path d="m5.384 18.333a.5.5 0 0 1 -.366-.84l.388-.417a.5.5 0 1 1 .732.681l-.388.417a.5.5 0 0 1 -.366.159z" fill="#323c6b"/><path d="m7.555 16a.5.5 0 0 1 -.366-.84l5.039-5.417a.5.5 0 0 1 .732.681l-5.039 5.416a.5.5 0 0 1 -.366.16z" fill="#323c6b"/></svg>