<svg id="color_line" height="512" viewBox="0 0 74 74" width="512" xmlns="http://www.w3.org/2000/svg" data-name="color line"><circle cx="12.226" cy="66.897" fill="#05afd6" r="4.102" transform="matrix(.819 -.574 .574 .819 -36.198 19.15)"/><circle cx="21.311" cy="7.102" fill="#27ccbc" r="4.102"/><path d="m53.56 39.36c0-.66-.03-1.31-.09-1.94l6.24-3.25-2.19-6.71-6.94 1.04a21.376 21.376 0 0 0 -2.29-3.14l3.13-6.29-5.7-4.15-5.01 4.92a20.346 20.346 0 0 0 -3.71-1.2l-1.15-6.92h-7.06l-1.16 6.92a19.925 19.925 0 0 0 -3.69 1.21l-5.02-4.93-5.71 4.15 3.15 6.29a20.734 20.734 0 0 0 -2.3 3.14l-6.95-1.04-2.18 6.71 6.23 3.25c-.06.63-.09 1.28-.09 1.94s.03 1.3.09 1.95l-6.23 3.24 2.18 6.71 6.94-1.05a21.006 21.006 0 0 0 2.3 3.15l-3.14 6.3 5.71 4.15 5.01-4.93a20.8 20.8 0 0 0 3.7 1.21l1.16 6.92h7.06l1.15-6.92a20.378 20.378 0 0 0 3.71-1.21l5.01 4.93 5.7-4.15-3.13-6.29a19.892 19.892 0 0 0 2.29-3.16l6.94 1.05 2.19-6.71-6.24-3.24c.06-.65.09-1.29.09-1.95zm-21.24 9.74a9.74 9.74 0 1 1 9.73-9.74 9.739 9.739 0 0 1 -9.73 9.74z" fill="#eeefee"/><path d="m23.94 19.85-5.02-4.93-2.72 1.97 4.99 4.9a19.929 19.929 0 0 1 3.69-1.21l.2-1.19c-.39.14-.77.29-1.14.46zm10.51 40.994-1.03 6.166h2.43l1.15-6.916a19.709 19.709 0 0 1 -2.55.75zm2.55-42.204-1.15-6.92h-7.06l-.33 1.94h4.64l1.15 6.92a35.529 35.529 0 0 1 4.887 1.647l1.573-2.387-.55-.22a19.953 19.953 0 0 0 -3.16-.98zm11.29 34.73q.435-.5.84-1.02l-1.3-.2a19.892 19.892 0 0 1 -2.29 3.16l3.13 6.29-2.99 2.17.04.04 5.7-4.15zm5.18-12.06c.06-.65.09-1.29.09-1.95 0-.49-.02-.98-.05-1.45l-2.79 1.45c.06.63.09 1.28.09 1.94s-.03 1.3-.09 1.95l6.24 3.24-1.46 4.46 2.02.31 2.19-6.71zm4.05-13.85-6.94 1.04a21.376 21.376 0 0 0 -2.29-3.14l3.13-6.29-5.7-4.15-2.31 2.26 5.26 3.83-3.13 6.29a21.373 21.373 0 0 1 2.29 3.14l6.94-1.04 2.05 6.28 2.89-1.51z" fill="#e1e6e9"/><path d="m28.752 26.689a.5.5 0 0 1 -.466-.319l-5.923-15.278a.5.5 0 1 1 .932-.361l5.923 15.278a.5.5 0 0 1 -.466.681z" fill="#323c6b"/><path d="m14.474 63.962a.5.5 0 0 1 -.416-.778l9.11-13.621a.5.5 0 0 1 .832.557l-9.11 13.62a.5.5 0 0 1 -.416.222z" fill="#323c6b"/><path d="m60.984 48.685a.5.5 0 0 1 -.124-.016l-15.876-4.069a.5.5 0 0 1 .248-.969l15.876 4.069a.5.5 0 0 1 -.124.984z" fill="#323c6b"/><circle cx="64.965" cy="49.158" fill="#fe7058" r="4.102" transform="matrix(.581 -.814 .814 .581 -12.798 73.446)"/><path d="m14.58 70.26a4.074 4.074 0 0 1 -.82.44 4.1 4.1 0 0 0 -5.07-5.87 3.914 3.914 0 0 1 1.18-1.29 4.1 4.1 0 0 1 4.71 6.72z" fill="#27a2db"/><path d="m25.41 7.1a4.076 4.076 0 0 1 -2.57 3.8 3.974 3.974 0 0 0 .57-2.07 4.092 4.092 0 0 0 -5.63-3.8 4.094 4.094 0 0 1 7.63 2.07z" fill="#21b3a9"/><path d="m68.3 51.54a4.007 4.007 0 0 1 -1.79 1.41 4.1 4.1 0 0 0 -5.08-5.86 3.452 3.452 0 0 1 .2-.32 4.1 4.1 0 0 1 6.67 4.77z" fill="#ea6453"/><path d="m32.32 26.189a13.176 13.176 0 1 0 13.171 13.171 13.177 13.177 0 0 0 -13.171-13.171zm0 22.911a9.74 9.74 0 1 1 9.73-9.74 9.739 9.739 0 0 1 -9.73 9.74z" fill="#9297ab" stroke="#323c6b" stroke-linecap="round" stroke-linejoin="round"/><g fill="#323c6b"><path d="m35.85 67.51h-7.06a.5.5 0 0 1 -.493-.417l-1.106-6.593a21.243 21.243 0 0 1 -3.149-1.029l-4.771 4.7a.5.5 0 0 1 -.645.048l-5.71-4.15a.5.5 0 0 1 -.153-.627l2.99-6a21.5 21.5 0 0 1 -1.953-2.688l-6.61 1a.5.5 0 0 1 -.551-.34l-2.185-6.714a.5.5 0 0 1 .245-.6l5.935-3.085c-.043-.55-.063-1.1-.063-1.661s.021-1.117.063-1.651l-5.934-3.09a.5.5 0 0 1 -.244-.6l2.181-6.71a.5.5 0 0 1 .55-.34l6.622.991a21.389 21.389 0 0 1 1.956-2.674l-3-5.989a.5.5 0 0 1 .153-.628l5.71-4.15a.5.5 0 0 1 .645.047l4.78 4.694a20.5 20.5 0 0 1 3.141-1.028l1.106-6.589a.5.5 0 0 1 .493-.417h7.06a.5.5 0 0 1 .493.418l1.1 6.589a20.832 20.832 0 0 1 3.154 1.023l4.771-4.687a.5.5 0 0 1 .645-.047l5.7 4.15a.5.5 0 0 1 .153.627l-2.98 5.991a22.008 22.008 0 0 1 1.946 2.673l6.612-.991a.5.5 0 0 1 .553.334l2.19 6.71a.5.5 0 0 1 -.244.6l-5.946 3.099c.041.534.063 1.087.063 1.651s-.021 1.11-.063 1.66l5.944 3.086a.5.5 0 0 1 .245.6l-2.189 6.709a.494.494 0 0 1 -.551.339l-6.606-1a20.476 20.476 0 0 1 -1.951 2.692l2.98 5.991a.5.5 0 0 1 -.153.627l-5.7 4.15a.5.5 0 0 1 -.645-.048l-4.774-4.694a20.909 20.909 0 0 1 -3.16 1.028l-1.1 6.591a.5.5 0 0 1 -.49.419zm-6.637-1h6.213l1.081-6.5a.5.5 0 0 1 .383-.406 19.817 19.817 0 0 0 3.618-1.18.5.5 0 0 1 .553.1l4.708 4.633 5.015-3.657-2.941-5.912a.5.5 0 0 1 .073-.554 19.416 19.416 0 0 0 2.232-3.081.5.5 0 0 1 .507-.242l6.521.986 1.924-5.897-5.863-3.044a.5.5 0 0 1 -.268-.49c.06-.633.088-1.256.088-1.9s-.029-1.288-.088-1.892a.5.5 0 0 1 .267-.491l5.864-3.061-1.928-5.905-6.521.978a.5.5 0 0 1 -.5-.236 21.012 21.012 0 0 0 -2.236-3.067.5.5 0 0 1 -.073-.554l2.941-5.912-5.017-3.652-4.705 4.626a.5.5 0 0 1 -.549.1 19.828 19.828 0 0 0 -3.618-1.17.5.5 0 0 1 -.387-.406l-1.081-6.5h-6.213l-1.09 6.5a.5.5 0 0 1 -.383.405 19.43 19.43 0 0 0 -3.6 1.179.5.5 0 0 1 -.554-.1l-4.719-4.634-5.024 3.652 2.961 5.911a.5.5 0 0 1 -.075.558 20.43 20.43 0 0 0 -2.245 3.065.5.5 0 0 1 -.5.236l-6.53-.978-1.918 5.904 5.855 3.054a.5.5 0 0 1 .267.491c-.059.6-.088 1.241-.088 1.892s.028 1.271.088 1.9a.5.5 0 0 1 -.268.49l-5.854 3.051 1.919 5.9 6.52-.986a.491.491 0 0 1 .5.237 20.594 20.594 0 0 0 2.245 3.075.5.5 0 0 1 .073.555l-2.946 5.919 5.024 3.652 4.708-4.633a.5.5 0 0 1 .551-.1 20.192 20.192 0 0 0 3.61 1.181.5.5 0 0 1 .383.405z"/><path d="m64.955 53.761a4.6 4.6 0 1 1 2.686-8.348 4.6 4.6 0 0 1 -1.919 8.287 4.684 4.684 0 0 1 -.767.061zm.018-8.206a3.662 3.662 0 0 0 -.6.05 3.586 3.586 0 1 0 .6-.05z"/><path d="m12.232 71.5a4.6 4.6 0 1 1 2.637-.833 4.579 4.579 0 0 1 -2.637.833zm-.012-8.2a3.6 3.6 0 1 0 2.074 6.55 3.6 3.6 0 0 0 -2.074-6.55z"/><path d="m21.311 11.7a4.6 4.6 0 1 1 4.6-4.6 4.607 4.607 0 0 1 -4.6 4.6zm0-8.2a3.6 3.6 0 1 0 3.6 3.6 3.606 3.606 0 0 0 -3.6-3.6z"/><path d="m35.281 70.51h-.625a.5.5 0 0 1 0-1h.625a.5.5 0 0 1 0 1z"/><path d="m31.625 70.51h-5.374a.5.5 0 0 1 -.493-.417l-.877-5.229a.5.5 0 1 1 .986-.165l.807 4.811h4.951a.5.5 0 0 1 0 1z"/><path d="m41.993 14.875a.5.5 0 0 1 -.356-.15.5.5 0 0 1 .006-.707l3.438-3.376a.5.5 0 0 1 .645-.047l3.569 2.6a.5.5 0 1 1 -.588.809l-3.228-2.35-3.135 3.08a.5.5 0 0 1 -.351.141z"/><path d="m51.792 16.13a.5.5 0 0 1 -.294-.1l-.334-.243a.5.5 0 1 1 .588-.809l.334.243a.5.5 0 0 1 -.294.9z"/></g></svg>