<svg id="color_line" height="512" viewBox="0 0 74 74" width="512" xmlns="http://www.w3.org/2000/svg" data-name="color line"><rect fill="#9297ab" height="57.981" rx="5.233" width="37.044" x="1.055" y="13.019"/><path d="m38.1 18.25v47.52a5.231 5.231 0 0 1 -3.22 4.83 5.2 5.2 0 0 0 .47-2.16v-47.52a5.228 5.228 0 0 0 -5.23-5.23h-26.58a5.236 5.236 0 0 0 -2.02.4 5.236 5.236 0 0 1 4.77-3.07h26.58a5.228 5.228 0 0 1 5.23 5.23z" fill="#84879c"/><path d="m15.113 11.093h8.927v24.932h-8.927z" fill="#bbbbcd" transform="matrix(0 1 -1 0 43.136 3.983)"/><path d="m32.043 28.523h-24.933a.5.5 0 0 1 -.5-.5v-8.923a.5.5 0 0 1 .5-.5h24.933a.5.5 0 0 1 .5.5v8.927a.5.5 0 0 1 -.5.496zm-24.433-1h23.933v-7.923h-23.933z" fill="#323c6b"/><path d="m15.113 24.933h8.927v24.932h-8.927z" fill="#bbbbcd" transform="matrix(0 1 -1 0 56.976 17.822)"/><path d="m32.043 42.363h-24.933a.5.5 0 0 1 -.5-.5v-8.927a.5.5 0 0 1 .5-.5h24.933a.5.5 0 0 1 .5.5v8.927a.5.5 0 0 1 -.5.5zm-24.433-1h23.933v-7.927h-23.933z" fill="#323c6b"/><circle cx="29.807" cy="50.572" fill="#fe7058" r="2.235"/><circle cx="22.295" cy="50.572" fill="#27ccbc" r="2.235"/><path d="m32.04 50.57a2.223 2.223 0 0 1 -1.71 2.17 2.184 2.184 0 0 0 .19-.89 2.232 2.232 0 0 0 -2.23-2.23 2.024 2.024 0 0 0 -.55.07 2.263 2.263 0 0 1 2.07-1.35 2.232 2.232 0 0 1 2.23 2.23z" fill="#ea6453"/><path d="m24.53 50.57a2.231 2.231 0 0 1 -1.7 2.17 2.356 2.356 0 0 0 .18-.89 2.234 2.234 0 0 0 -2.24-2.23 1.813 1.813 0 0 0 -.52.07 2.21 2.21 0 0 1 2.04-1.35 2.234 2.234 0 0 1 2.24 2.23z" fill="#21b3a9"/><path d="m8.481 64.46h-1.371a.5.5 0 1 1 0-1h1.371a.5.5 0 0 1 0 1z" fill="#323c6b"/><path d="m13.559 64.46h-1.371a.5.5 0 0 1 0-1h1.371a.5.5 0 0 1 0 1z" fill="#323c6b"/><path d="m57.453 22.259a.5.5 0 0 1 -.5-.5v-18.259h-36.877v9.52a.5.5 0 1 1 -1 0v-10.02a.5.5 0 0 1 .5-.5h37.877a.5.5 0 0 1 .5.5v18.759a.5.5 0 0 1 -.5.5z" fill="#323c6b"/><path d="m71.294 35.393a5.553 5.553 0 0 1 .579 2.472 5.4 5.4 0 0 1 -3.682 5.113l-.035 4.815-4.724 1.378-1.869-5.109a4.132 4.132 0 0 1 -3.451-1.925 5.441 5.441 0 0 1 -2.346.526 5.545 5.545 0 0 1 -4-1.7 5.679 5.679 0 0 1 -8.585-4.881 5.436 5.436 0 0 1 .831-2.935 4.108 4.108 0 0 1 -.242-1.441 4.615 4.615 0 0 1 3.114-4.377 5.162 5.162 0 0 1 4.913-3.64 3.676 3.676 0 0 1 .684.053 5.428 5.428 0 0 1 8.006-.41 5.354 5.354 0 0 1 2.462-.6 5.28 5.28 0 0 1 4.757 2.968 5.7 5.7 0 0 1 3.587 9.689z" fill="#fe7058"/><path d="m68.19 43.38-.03 4.41-2.31.67.03-3.55a5.3 5.3 0 0 0 2.31-1.53z" fill="#ea6453"/><path d="m71.29 35.39a5.554 5.554 0 0 1 .58 2.48 5.386 5.386 0 0 1 -3.23 4.93 5.345 5.345 0 0 0 .92-3 5.512 5.512 0 0 0 -.58-2.47 5.7 5.7 0 0 0 -3.59-9.69 5.294 5.294 0 0 0 -7.21-2.38 5.428 5.428 0 0 0 -8.01.41 3.824 3.824 0 0 0 -.68-.05 5.039 5.039 0 0 0 -1.98.4 5.131 5.131 0 0 1 4.29-2.34 3.074 3.074 0 0 1 .68.06 5.428 5.428 0 0 1 8.01-.41 5.312 5.312 0 0 1 7.22 2.37 5.691 5.691 0 0 1 3.58 9.69z" fill="#ea6453"/><path d="m47.51 26.02a5.178 5.178 0 0 0 -.62 1.3 4.395 4.395 0 0 0 -2.2 1.61 5.2 5.2 0 0 1 2.82-2.91z" fill="#ea6453"/><g fill="#323c6b"><path d="m59.459 29.872a.5.5 0 0 1 -.324-.12 3.616 3.616 0 0 1 -1.481-2.965c.112-2.166 2.458-3.8 2.558-3.872a.5.5 0 0 1 .567.824c-.021.014-2.042 1.431-2.126 3.1a2.68 2.68 0 0 0 1.131 2.15.5.5 0 0 1 -.324.88z"/><path d="m54.978 29.513h-.054a.5.5 0 0 1 .006-1h.049a2.726 2.726 0 0 0 2.714-2.057.5.5 0 1 1 .975.226 3.737 3.737 0 0 1 -3.69 2.831z"/><path d="m44.018 33.637a.5.5 0 0 1 -.377-.827 4.417 4.417 0 0 1 4.459-1.082.5.5 0 1 1 -.254.967 3.441 3.441 0 0 0 -3.452.775.5.5 0 0 1 -.376.167z"/><path d="m51.771 41.455a.5.5 0 0 1 -.37-.164 8.41 8.41 0 0 1 -1.93-3.128.5.5 0 0 1 .966-.261 7.6 7.6 0 0 0 1.7 2.716.5.5 0 0 1 -.37.836z"/><path d="m71.289 35.9a.5.5 0 0 1 -.451-.285 5.612 5.612 0 0 0 -5.743-3.321.5.5 0 0 1 -.146-.989 6.707 6.707 0 0 1 6.792 3.88.5.5 0 0 1 -.451.715z"/><path d="m58.113 42.638a.5.5 0 0 1 -.146-.978c2.712-.834 3.383-3.914 3.39-3.945a.5.5 0 0 1 .979.2c-.031.15-.789 3.689-4.076 4.7a.491.491 0 0 1 -.147.023z"/><path d="m56.507 37.334a.5.5 0 0 1 -.5-.437 3.866 3.866 0 0 1 .845-3.384 3.606 3.606 0 0 1 2.794-.87.5.5 0 0 1 .429.56.507.507 0 0 1 -.56.432 2.616 2.616 0 0 0 -1.963.591 2.961 2.961 0 0 0 -.552 2.545.5.5 0 0 1 -.433.559.571.571 0 0 1 -.06.004z"/><path d="m32.865 71.5h-26.577a5.74 5.74 0 0 1 -5.733-5.733v-47.514a5.74 5.74 0 0 1 5.733-5.733h26.577a5.74 5.74 0 0 1 5.735 5.733v47.514a5.74 5.74 0 0 1 -5.735 5.733zm-26.577-57.98a4.739 4.739 0 0 0 -4.733 4.733v47.514a4.739 4.739 0 0 0 4.733 4.733h26.577a4.739 4.739 0 0 0 4.735-4.733v-47.514a4.739 4.739 0 0 0 -4.733-4.733z"/><path d="m63.432 49.671a.5.5 0 0 1 -.47-.328l-1.755-4.8a4.6 4.6 0 0 1 -3.271-1.789 6.028 6.028 0 0 1 -6.249-1.182 6.18 6.18 0 0 1 -9-5.5 5.962 5.962 0 0 1 .783-3 4.745 4.745 0 0 1 -.194-1.381 5.1 5.1 0 0 1 3.217-4.763 5.622 5.622 0 0 1 5.307-3.744c.182 0 .339.006.482.02a5.93 5.93 0 0 1 8.3-.476 5.8 5.8 0 0 1 7.445 2.506 6.228 6.228 0 0 1 5.419 6.151 6.153 6.153 0 0 1 -1.557 4.1 6.073 6.073 0 0 1 .483 2.376 5.885 5.885 0 0 1 -3.685 5.462l-.032 4.477a.5.5 0 0 1 -.36.477l-4.724 1.378a.493.493 0 0 1 -.139.016zm-5.32-8.034a.5.5 0 0 1 .422.232 3.613 3.613 0 0 0 3.033 1.692.5.5 0 0 1 .466.328l1.708 4.67 3.918-1.143.032-4.442a.5.5 0 0 1 .341-.471 4.888 4.888 0 0 0 3.341-4.639 5.051 5.051 0 0 0 -.525-2.249.5.5 0 0 1 .092-.575 5.2 5.2 0 0 0 -3.273-8.84.5.5 0 0 1 -.411-.282 4.805 4.805 0 0 0 -6.538-2.149.5.5 0 0 1 -.58-.089 4.929 4.929 0 0 0 -7.268.371.5.5 0 0 1 -.48.175 3.179 3.179 0 0 0 -.59-.044 4.632 4.632 0 0 0 -4.436 3.288.5.5 0 0 1 -.317.326 4.1 4.1 0 0 0 -2.774 3.9 3.617 3.617 0 0 0 .211 1.267.5.5 0 0 1 -.047.444 4.931 4.931 0 0 0 -.753 2.666 5.187 5.187 0 0 0 5.181 5.181 5.132 5.132 0 0 0 2.646-.729.505.505 0 0 1 .617.081 5.032 5.032 0 0 0 3.639 1.553 4.97 4.97 0 0 0 2.13-.477.5.5 0 0 1 .214-.045z"/><path d="m29.808 53.308a2.736 2.736 0 1 1 2.735-2.736 2.739 2.739 0 0 1 -2.735 2.736zm0-4.471a1.736 1.736 0 1 0 1.735 1.735 1.737 1.737 0 0 0 -1.735-1.736z"/><path d="m22.295 53.308a2.736 2.736 0 1 1 2.735-2.736 2.739 2.739 0 0 1 -2.735 2.736zm0-4.471a1.736 1.736 0 1 0 1.735 1.735 1.737 1.737 0 0 0 -1.735-1.736z"/></g><path d="m4.093 38.467a.567.567 0 0 1 -.567-.567v-6.213a.567.567 0 0 1 1.135 0v6.213a.567.567 0 0 1 -.568.567z" fill="#fff"/><path d="m4.093 40.735a.567.567 0 0 1 -.567-.567v-.3a.567.567 0 0 1 1.135 0v.3a.567.567 0 0 1 -.568.567z" fill="#fff"/><path d="m41.1 66.042a.5.5 0 0 1 -.5-.5v-.542a.5.5 0 0 1 1 0v.542a.5.5 0 0 1 -.5.5z" fill="#323c6b"/><path d="m.067 13.375a.5.5 0 0 1 -.378-.827 8.728 8.728 0 0 1 6.6-3.028.5.5 0 1 1 0 1 7.73 7.73 0 0 0 -5.844 2.68.5.5 0 0 1 -.378.175z" fill="#323c6b"/><path d="m9.531 10.52h-.75a.5.5 0 0 1 0-1h.75a.5.5 0 0 1 0 1z" fill="#323c6b"/><path d="m41.1 63.333a.5.5 0 0 1 -.5-.5v-6.5a.5.5 0 0 1 1 0v6.5a.5.5 0 0 1 -.5.5z" fill="#323c6b"/></svg>