<svg id="color_line" height="512" viewBox="0 0 74 74" width="512" xmlns="http://www.w3.org/2000/svg" data-name="color line"><rect fill="#9297ab" height="30.445" rx="2.131" width="37.425" x="15.837" y="3"/><path d="m51.131 3h-33.162a2.131 2.131 0 0 0 -2.131 2.131v.452h32.668a2.131 2.131 0 0 1 2.131 2.131v25.73h.494a2.131 2.131 0 0 0 2.131-2.131v-26.182a2.131 2.131 0 0 0 -2.131-2.131z" fill="#84879c"/><path d="m37.86 28.008h-6.61a.5.5 0 0 1 -.5-.5 1.561 1.561 0 0 0 -1.56-1.56 1.487 1.487 0 0 0 -.77.212.511.511 0 0 1 -.382.054.5.5 0 0 1 -.307-.234l-3.31-5.736a.5.5 0 0 1 .188-.686 1.544 1.544 0 0 0 0-2.686.5.5 0 0 1 -.184-.683l3.3-5.717a.5.5 0 0 1 .679-.186 1.612 1.612 0 0 0 .789.208 1.561 1.561 0 0 0 1.56-1.56.5.5 0 0 1 .5-.5h6.61a.5.5 0 0 1 .5.5 1.557 1.557 0 0 0 1.55 1.56 1.613 1.613 0 0 0 .79-.209.5.5 0 0 1 .678.186l3.31 5.717a.5.5 0 0 1 -.183.684 1.559 1.559 0 0 0 -.784 1.344 1.537 1.537 0 0 0 .779 1.341.5.5 0 0 1 .188.687l-3.319 5.736a.5.5 0 0 1 -.688.179 1.487 1.487 0 0 0 -.77-.212 1.557 1.557 0 0 0 -1.55 1.56.5.5 0 0 1 -.504.501zm-6.159-1h5.708a2.557 2.557 0 0 1 2.5-2.06 2.513 2.513 0 0 1 .82.138l2.864-4.948a2.544 2.544 0 0 1 0-3.839l-2.858-4.939a2.6 2.6 0 0 1 -.826.136 2.557 2.557 0 0 1 -2.5-2.06h-5.709a2.564 2.564 0 0 1 -2.51 2.064 2.593 2.593 0 0 1 -.825-.135l-2.85 4.935a2.518 2.518 0 0 1 .875 1.92 2.544 2.544 0 0 1 -.875 1.921l2.855 4.948a2.5 2.5 0 0 1 .819-.138 2.564 2.564 0 0 1 2.511 2.057z" fill="#323c6b"/><path d="m31.249 8.937a2.059 2.059 0 0 1 -2.059 2.063 2.12 2.12 0 0 1 -1.034-.273 2.061 2.061 0 1 1 3.094-1.787z" fill="#eeefee"/><path d="m29.19 11.5a2.615 2.615 0 0 1 -1.28-.337 2.567 2.567 0 1 1 1.28.337zm0-4.119a1.563 1.563 0 0 0 -.782 2.914 1.609 1.609 0 0 0 .782.2 1.559 1.559 0 1 0 0-3.119z" fill="#323c6b"/><path d="m25.89 18.218a2.032 2.032 0 0 1 -1.035 1.782 2 2 0 0 1 -1.025.282 2.055 2.055 0 1 1 0-4.109 1.988 1.988 0 0 1 1.025.273 2.044 2.044 0 0 1 1.035 1.772z" fill="#eeefee"/><path d="m23.83 20.777a2.555 2.555 0 1 1 0-5.109 2.469 2.469 0 0 1 1.28.343 2.544 2.544 0 0 1 -.011 4.42 2.5 2.5 0 0 1 -1.269.346zm0-4.109a1.555 1.555 0 1 0 0 3.109 1.487 1.487 0 0 0 .77-.212 1.544 1.544 0 0 0 .006-2.692 1.49 1.49 0 0 0 -.776-.205z" fill="#323c6b"/><path d="m31.249 27.508a2.059 2.059 0 1 1 -4.119 0 2.032 2.032 0 0 1 1.034-1.777 2 2 0 0 1 1.025-.282 2.059 2.059 0 0 1 2.06 2.059z" fill="#eeefee"/><path d="m29.19 30.067a2.554 2.554 0 0 1 -1.27-4.772 2.5 2.5 0 0 1 1.27-.346 2.559 2.559 0 1 1 0 5.119zm0-4.119a1.487 1.487 0 0 0 -.77.212 1.542 1.542 0 0 0 -.79 1.348 1.559 1.559 0 1 0 1.559-1.56z" fill="#323c6b"/><path d="m41.969 8.937a2.07 2.07 0 0 1 -1.025 1.787 2.12 2.12 0 0 1 -1.034.276 2.059 2.059 0 1 1 2.059-2.059z" fill="#eeefee"/><path d="m39.91 11.5a2.546 2.546 0 1 1 1.287-.341 2.627 2.627 0 0 1 -1.287.341zm0-4.119a1.559 1.559 0 0 0 0 3.119 1.613 1.613 0 0 0 .79-.209 1.563 1.563 0 0 0 -.79-2.91z" fill="#323c6b"/><path d="m47.329 18.218a2.057 2.057 0 0 1 -2.05 2.059 2 2 0 0 1 -1.025-.277 2.032 2.032 0 0 1 -1.034-1.777 2.055 2.055 0 0 1 1.034-1.777 1.988 1.988 0 0 1 1.025-.273 2.055 2.055 0 0 1 2.05 2.045z" fill="#eeefee"/><path d="m45.279 20.777a2.581 2.581 0 0 1 -2.56-2.56 2.56 2.56 0 0 1 1.281-2.21 2.466 2.466 0 0 1 1.275-.339 2.555 2.555 0 0 1 0 5.109zm0-4.109a1.489 1.489 0 0 0 -.771.2 1.561 1.561 0 0 0 -.789 1.347 1.537 1.537 0 0 0 .779 1.341 1.5 1.5 0 0 0 .781.218 1.555 1.555 0 0 0 0-3.109z" fill="#323c6b"/><path d="m41.969 27.508a2.055 2.055 0 1 1 -2.059-2.059 2 2 0 0 1 1.025.282 2.032 2.032 0 0 1 1.034 1.777z" fill="#eeefee"/><path d="m39.91 30.067a2.559 2.559 0 0 1 0-5.119 2.582 2.582 0 0 1 2.56 2.56 2.562 2.562 0 0 1 -2.56 2.559zm0-4.119a1.559 1.559 0 1 0 1.56 1.56 1.537 1.537 0 0 0 -.779-1.341 1.5 1.5 0 0 0 -.781-.218z" fill="#323c6b"/><path d="m51.131 33.945h-33.162a2.634 2.634 0 0 1 -2.631-2.631v-26.183a2.634 2.634 0 0 1 2.631-2.631h33.162a2.634 2.634 0 0 1 2.631 2.631v26.183a2.634 2.634 0 0 1 -2.631 2.631zm-33.162-30.445a1.633 1.633 0 0 0 -1.631 1.631v26.183a1.633 1.633 0 0 0 1.631 1.631h33.162a1.633 1.633 0 0 0 1.631-1.631v-26.183a1.633 1.633 0 0 0 -1.631-1.631z" fill="#323c6b"/><path d="m56.73 62.624.367-1.87a29.581 29.581 0 0 0 .572-5.8v-12.854a3.267 3.267 0 1 0 -6.534 0v-1.222a3.271 3.271 0 0 0 -6.542 0v-1.218a3.267 3.267 0 0 0 -6.534 0v-14.453a3.27 3.27 0 0 0 -3.176-3.264 3.389 3.389 0 0 0 -3.366 3.425v18.707a81.743 81.743 0 0 0 -8.045-4.723 4.331 4.331 0 0 0 -5.2.895l-.051.059a2.539 2.539 0 0 0 .587 3.894c4.906 2.992 9.233 7.473 13.318 11.536v6.837z" fill="#fcd462"/><path d="m23.47 39.35a80.494 80.494 0 0 1 8.05 4.73v2.06a82.44 82.44 0 0 0 -8.05-4.73 4.325 4.325 0 0 0 -5.2.9l-.05.06a2.537 2.537 0 0 0 -.44.66 2.5 2.5 0 0 1 .44-2.72l.05-.06a4.325 4.325 0 0 1 5.2-.9z" fill="#f7be56"/><path d="m38.06 27.27a3.266 3.266 0 0 0 -.96-2.31 3.232 3.232 0 0 0 -2.22-.95 3.374 3.374 0 0 0 -3.36 3.42v-2.06a3.383 3.383 0 0 1 3.36-3.43 3.28 3.28 0 0 1 3.18 3.27z" fill="#f7be56"/><path d="m57.67 42.1v12.85a29.627 29.627 0 0 1 -.57 5.8l-.37 1.87-2.69-.01.37-1.86a29.627 29.627 0 0 0 .57-5.8v-12.85a2.955 2.955 0 0 0 -.26-1.19 3.025 3.025 0 0 0 -.31-.02 3.267 3.267 0 0 0 -3.28 3.27v-1.22a3.261 3.261 0 0 0 -3.27-3.26 3.269 3.269 0 0 0 -3.27 3.26v-1.22a3.265 3.265 0 0 0 -6.53 0v-2.06a3.265 3.265 0 1 1 6.53 0v1.22a3.267 3.267 0 0 1 5.58-2.31 3.224 3.224 0 0 1 .96 2.31v1.22a3.267 3.267 0 0 1 3.28-3.27 3.244 3.244 0 0 1 3.26 3.27z" fill="#f7be56"/><path d="m38.055 47.119a.5.5 0 0 1 -.5-.5v-7.675a.5.5 0 0 1 1 0v7.675a.5.5 0 0 1 -.5.5z" fill="#323c6b"/><path d="m51.133 47.119a.5.5 0 0 1 -.5-.5v-5.238a.5.5 0 0 1 1 0v5.238a.5.5 0 0 1 -.5.5z" fill="#323c6b"/><path d="m44.593 46.508a.5.5 0 0 1 -.5-.5v-5.128a.5.5 0 0 1 1 0v5.128a.5.5 0 0 1 -.5.5z" fill="#323c6b"/><rect fill="#fe7058" height="8.425" rx="1.638" width="28.227" x="29.936" y="62.575"/><path d="m56.525 71.5h-24.952a2.14 2.14 0 0 1 -2.138-2.138v-5.15a2.14 2.14 0 0 1 2.138-2.138h24.952a2.14 2.14 0 0 1 2.138 2.138v5.15a2.14 2.14 0 0 1 -2.138 2.138zm-24.952-8.425a1.139 1.139 0 0 0 -1.138 1.138v5.15a1.139 1.139 0 0 0 1.138 1.137h24.952a1.139 1.139 0 0 0 1.138-1.138v-5.15a1.139 1.139 0 0 0 -1.138-1.138z" fill="#323c6b"/><path d="m56.73 63.125-24.6-.052a.5.5 0 0 1 -.5-.5v-6.63l-.823-.82c-3.828-3.82-7.786-7.771-12.255-10.5a3.072 3.072 0 0 1 -1.459-2.2 2.994 2.994 0 0 1 .765-2.458 4.857 4.857 0 0 1 5.842-1.056c2.384 1.26 4.9 2.638 7.313 4.228v-17.768a4.021 4.021 0 0 1 1.223-2.87 3.619 3.619 0 0 1 2.664-1.055 3.7 3.7 0 0 1 2.555 1.1 3.743 3.743 0 0 1 1.1 2.661v11.9a3.775 3.775 0 0 1 5.433-.113 3.806 3.806 0 0 1 .929 1.534 3.773 3.773 0 0 1 6.542 1.22 3.763 3.763 0 0 1 6.71 2.354v12.853a30.151 30.151 0 0 1 -.582 5.9l-.366 1.868a.5.5 0 0 1 -.491.404zm-24.1-1.051 23.694.05.287-1.465a29.165 29.165 0 0 0 .563-5.705v-12.854a2.767 2.767 0 1 0 -5.535 0 .5.5 0 0 1 -1 0v-1.223a2.771 2.771 0 0 0 -5.542 0 .5.5 0 0 1 -1 0v-1.217a2.767 2.767 0 0 0 -5.535 0 .5.5 0 0 1 -1 0v-14.453a2.752 2.752 0 0 0 -.814-1.957 2.713 2.713 0 0 0 -1.874-.807 2.666 2.666 0 0 0 -1.935.773 3.018 3.018 0 0 0 -.918 2.152v18.707a.5.5 0 0 1 -.783.412 81.021 81.021 0 0 0 -8-4.693 3.839 3.839 0 0 0 -4.6.792 2.05 2.05 0 0 0 -.562 1.7 2.076 2.076 0 0 0 .989 1.487c4.572 2.789 8.573 6.781 12.442 10.643l.969.966a.5.5 0 0 1 .147.354z" fill="#323c6b"/><path d="m19.042 27.415a.607.607 0 0 1 -.615-.564v-6.574a.567.567 0 0 1 .564-.571.606.606 0 0 1 .614.564v6.574a.567.567 0 0 1 -.563.571z" fill="#fff"/><path d="m19.07 29.568a.634.634 0 0 1 -.643-.568v-.182a.619.619 0 0 1 .621-.571.556.556 0 0 1 .557.564v.189a.544.544 0 0 1 -.535.568z" fill="#fff"/><g fill="#323c6b"><path d="m12.837 18.75a.5.5 0 0 1 -.5-.5v-7.25a.5.5 0 0 1 1 0v7.25a.5.5 0 0 1 -.5.5z"/><path d="m12.837 9.25a.5.5 0 0 1 -.5-.5v-.5a.5.5 0 0 1 1 0v.5a.5.5 0 0 1 -.5.5z"/><path d="m60.589 57.313h-.028a.5.5 0 0 1 -.471-.527c.006-.107.015-.215.025-.322s.021-.236.026-.355a.481.481 0 0 1 .518-.481.5.5 0 0 1 .481.518c0 .137-.017.272-.029.409l-.023.289a.5.5 0 0 1 -.499.469z"/><path d="m60.669 54.063a.5.5 0 0 1 -.5-.5v-7a.5.5 0 0 1 1 0v7a.5.5 0 0 1 -.5.5z"/></g></svg>