<svg id="color_line" height="512" viewBox="0 0 74 74" width="512" xmlns="http://www.w3.org/2000/svg" data-name="color line"><path d="m56.764 26.033a18.7 18.7 0 0 0 -2.278-11.163c-3.238-4.9-7.186-8.534-12.725-10.5s-12.534-1.689-18.152.06c-17.686 5.922-17.609 26.29-15.669 30.69a39.509 39.509 0 0 0 3.745 7.716 22.436 22.436 0 0 1 3.057 13.819c-.4 3.953-1.007 7.381-1.905 14.342h30.563a39.269 39.269 0 0 1 1.147-7.743 5.007 5.007 0 0 1 1.388-2.8 4.963 4.963 0 0 1 2.965-.764c2.64-.124 5.415.158 8.055.034h.028a3.1 3.1 0 0 0 2.5-4.591 4.554 4.554 0 0 1 -.215-.43c-.65-1.579-.384-1.707 1.139-3.207.406-.384.429-.7.3-.936a2.5 2.5 0 0 0 -.688-.688.868.868 0 0 1 .045-1.613c.316-.248.688-.474.812-.857a1.673 1.673 0 0 0 -.237-1.207c-.6-1.23-1.376-2.754-1.973-3.984-.079-.18 6.2-.256 7.256-.786a1.856 1.856 0 0 0 .97-1.94c-.626-3.974-6.892-11.422-10.128-13.452z" fill="#fcd462"/><path d="m43.18 62.05a3.731 3.731 0 0 1 2.03-.7 7.928 7.928 0 0 0 -.66 1.9 39.291 39.291 0 0 0 -1.15 7.75h-2.61a34.218 34.218 0 0 1 1.01-6.15 5.033 5.033 0 0 1 1.38-2.8z" fill="#f7be56"/><path d="m60.07 48.26c.32-.25.69-.48.81-.86a1.657 1.657 0 0 0 -.23-1.21c-.345-.707-.748-1.5-2.047-4a2.168 2.168 0 0 0 -1.929 3.15c.527 1.038.9 1.788 1.226 2.452a1.648 1.648 0 0 1 .23 1.208c-.12.38-.49.6-.81.85a.876.876 0 0 0 -.05 1.62 2.355 2.355 0 0 1 .69.68c.13.24.1.56-.3.94-1.52 1.5-1.79 1.63-1.14 3.21a4.2 4.2 0 0 0 .21.43 3.1 3.1 0 0 1 -.01 3c.08 0 .16-.01.24-.01h.02a3.1 3.1 0 0 0 2.5-4.59 3.391 3.391 0 0 1 -.21-.43c-.65-1.58-.38-1.71 1.14-3.21.4-.38.43-.69.3-.93a2.388 2.388 0 0 0 -.69-.69.869.869 0 0 1 .05-1.61z" fill="#f7be56"/><path d="m66.9 39.48a1.86 1.86 0 0 1 -.97 1.94 6.365 6.365 0 0 1 -1.81.34 1.938 1.938 0 0 0 .03-.68c-.63-3.97-6.9-11.42-10.14-13.45a18.682 18.682 0 0 0 -2.27-11.16c-3.24-4.9-7.19-8.54-12.73-10.5s-12.53-1.69-18.15.06a25.283 25.283 0 0 0 -3.17 1.3 24 24 0 0 1 5.92-2.9c5.62-1.75 12.62-2.03 18.15-.06s9.49 5.6 12.73 10.5a18.682 18.682 0 0 1 2.27 11.16c3.24 2.03 9.51 9.48 10.14 13.45z" fill="#f7be56"/><rect fill="#eeefee" height="19.418" rx="1.68" width="29.812" x="16" y="14.796"/><path d="m20.101 18.292h4.559v12.427h-4.559z" fill="#27ccbc" transform="matrix(-1 0 0 -1 44.761 49.011)"/><path d="m24.66 31.219h-4.56a.5.5 0 0 1 -.5-.5v-12.427a.5.5 0 0 1 .5-.5h4.56a.5.5 0 0 1 .5.5v12.427a.5.5 0 0 1 -.5.5zm-4.06-1h3.56v-11.427h-3.56z" fill="#323c6b"/><path d="m27.916 18.292h4.559v12.427h-4.559z" fill="#27ccbc" transform="matrix(-1 0 0 -1 60.392 49.011)"/><path d="m32.476 31.219h-4.559a.5.5 0 0 1 -.5-.5v-12.427a.5.5 0 0 1 .5-.5h4.559a.5.5 0 0 1 .5.5v12.427a.5.5 0 0 1 -.5.5zm-4.059-1h3.559v-11.427h-3.559z" fill="#323c6b"/><path d="m50.475 27.447v-5.883a1.445 1.445 0 0 0 -1.445-1.445h-3.218v8.773h3.218a1.445 1.445 0 0 0 1.445-1.445z" fill="#bbbbcd"/><path d="m45.81 16.48v2.18a1.684 1.684 0 0 0 -1.68-1.68h-26.45a1.684 1.684 0 0 0 -1.68 1.68v-2.18a1.677 1.677 0 0 1 1.68-1.68h26.45a1.677 1.677 0 0 1 1.68 1.68z" fill="#e1e6e9"/><path d="m24.11 45.43h-11.31a.5.5 0 0 1 0-1h11.109l2.215-2.122a.5.5 0 1 1 .691.723l-2.36 2.26a.5.5 0 0 1 -.345.139z" fill="#323c6b"/><path d="m24.83 60.07a.5.5 0 0 1 -.346-.139l-1.855-1.781h-8a.5.5 0 1 1 0-1h8.2a.5.5 0 0 1 .346.139l2 1.92a.5.5 0 0 1 -.346.861z" fill="#323c6b"/><path d="m30.88 51.79h-16.24a.5.5 0 0 1 0-1h16.24a.5.5 0 0 1 0 1z" fill="#323c6b"/><circle cx="27.916" cy="41.112" fill="#fe7058" r="2.123"/><path d="m27.917 43.735a2.623 2.623 0 1 1 2.623-2.623 2.626 2.626 0 0 1 -2.623 2.623zm0-4.246a1.623 1.623 0 1 0 1.623 1.623 1.625 1.625 0 0 0 -1.623-1.623z" fill="#323c6b"/><circle cx="32.999" cy="51.291" fill="#05afd6" r="2.123"/><path d="m33 53.915a2.623 2.623 0 1 1 2.623-2.623 2.626 2.626 0 0 1 -2.623 2.623zm0-4.246a1.623 1.623 0 1 0 1.623 1.623 1.625 1.625 0 0 0 -1.623-1.624z" fill="#323c6b"/><circle cx="26.368" cy="61.042" fill="#27ccbc" r="2.123"/><g fill="#323c6b"><path d="m26.368 63.665a2.623 2.623 0 1 1 2.623-2.623 2.626 2.626 0 0 1 -2.623 2.623zm0-4.246a1.623 1.623 0 1 0 1.623 1.623 1.625 1.625 0 0 0 -1.623-1.623z"/><path d="m43.4 71.5h-30.563a.5.5 0 0 1 -.5-.564c.386-2.986.717-5.323 1-7.33.376-2.654.673-4.75.9-7a22.074 22.074 0 0 0 -2.987-13.51 40.166 40.166 0 0 1 -3.792-7.817c-1.072-2.425-1.74-10.585 1.651-18.259a23.432 23.432 0 0 1 14.341-13.064c6.144-1.913 13.221-1.932 18.478-.056s9.384 5.264 12.972 10.694a19.172 19.172 0 0 1 2.4 11.19c3.394 2.306 9.459 9.623 10.1 13.62a2.345 2.345 0 0 1 -1.243 2.468 21.8 21.8 0 0 1 -5.362.642c-.474.028-.985.058-1.367.087.214.432.444.893.674 1.354.349.7.7 1.4 1 2.02a2.125 2.125 0 0 1 .26 1.588 2.079 2.079 0 0 1 -.832.978l-.145.11c-.284.216-.39.409-.372.5.024.115.235.264.3.313a2.749 2.749 0 0 1 .849.874 1.228 1.228 0 0 1 -.409 1.523l-.241.237c-1.264 1.239-1.264 1.239-.779 2.417a4.16 4.16 0 0 0 .192.381 3.621 3.621 0 0 1 -.025 3.514 3.507 3.507 0 0 1 -2.887 1.812c-1.369.065-2.755.023-4.1-.015-1.322-.039-2.689-.079-3.989-.018a4.644 4.644 0 0 0 -2.676.657 4.548 4.548 0 0 0 -1.217 2.531 38.693 38.693 0 0 0 -1.133 7.66.5.5 0 0 1 -.498.463zm-29.995-1h29.535a38.03 38.03 0 0 1 1.123-7.366 5.479 5.479 0 0 1 1.558-3.063 5.39 5.39 0 0 1 3.259-.878c1.337-.063 2.723-.023 4.064.017 1.322.039 2.689.079 3.989.018a2.49 2.49 0 0 0 2.091-1.3 2.626 2.626 0 0 0 .021-2.552 5.092 5.092 0 0 1 -.238-.478c-.714-1.736-.408-2.128 1-3.512l.247-.242c.126-.12.251-.276.213-.349a1.967 1.967 0 0 0 -.542-.517 1.551 1.551 0 0 1 -.7-.922 1.525 1.525 0 0 1 .74-1.493l.154-.117c.221-.166.429-.323.485-.5a1.392 1.392 0 0 0 -.213-.84c-.3-.615-.646-1.31-.993-2s-.682-1.364-.978-1.973a.516.516 0 0 1 .024-.488c.177-.288.264-.293 2.482-.424a27.278 27.278 0 0 0 4.976-.54 1.363 1.363 0 0 0 .7-1.422c-.6-3.793-6.791-11.146-9.9-13.1a.5.5 0 0 1 -.231-.486 18.328 18.328 0 0 0 -2.2-10.821c-3.471-5.246-7.431-8.519-12.478-10.308-5.065-1.809-11.9-1.784-17.836.063a22.163 22.163 0 0 0 -13.726 12.516c-3.266 7.392-2.663 15.162-1.631 17.495a39.42 39.42 0 0 0 3.717 7.661 23.08 23.08 0 0 1 3.123 14.121c-.232 2.271-.53 4.375-.908 7.04-.266 1.88-.572 4.044-.926 6.76z"/><path d="m44.132 34.714h-26.452a2.183 2.183 0 0 1 -2.18-2.18v-16.058a2.182 2.182 0 0 1 2.18-2.18h26.452a2.182 2.182 0 0 1 2.18 2.18v16.058a2.183 2.183 0 0 1 -2.18 2.18zm-26.452-19.414a1.181 1.181 0 0 0 -1.18 1.18v16.054a1.181 1.181 0 0 0 1.18 1.18h26.452a1.181 1.181 0 0 0 1.18-1.18v-16.058a1.181 1.181 0 0 0 -1.18-1.18z"/><path d="m49.03 29.392h-3.218a.5.5 0 0 1 -.5-.5v-8.773a.5.5 0 0 1 .5-.5h3.218a1.947 1.947 0 0 1 1.945 1.945v5.882a1.947 1.947 0 0 1 -1.945 1.946zm-2.718-1h2.718a.946.946 0 0 0 .945-.945v-5.883a.946.946 0 0 0 -.945-.945h-2.718z"/></g><path d="m11.785 34.769a.651.651 0 0 1 -.6-.388c-.709-1.607-.974-4.692-.673-7.859a.65.65 0 1 1 1.294.123 17.007 17.007 0 0 0 .569 7.211.651.651 0 0 1 -.594.913z" fill="#fff"/><path d="m11.685 24.554a.606.606 0 0 1 -.149-.019.623.623 0 0 1 -.475-.761l.078-.3a.65.65 0 1 1 1.263.309l-.065.258a.692.692 0 0 1 -.652.513z" fill="#fff"/><path d="m10.761 64.5a.517.517 0 0 1 -.072 0 .5.5 0 0 1 -.424-.566l.083-.583a.5.5 0 0 1 .99.143l-.083.583a.5.5 0 0 1 -.494.423z" fill="#323c6b"/><path d="m11.16 61.667a.478.478 0 0 1 -.069 0 .5.5 0 0 1 -.426-.564c.208-1.5.423-3.113.6-4.8a19.515 19.515 0 0 0 -.066-4.321.5.5 0 0 1 .992-.124 20.52 20.52 0 0 1 .069 4.545c-.174 1.7-.392 3.33-.6 4.836a.5.5 0 0 1 -.5.428z" fill="#323c6b"/><path d="m49.337 5.5a.5.5 0 0 1 -.293-.1c-.2-.147-.413-.285-.623-.422l-.244-.16a.5.5 0 1 1 .554-.833l.238.157c.223.146.445.292.661.449a.5.5 0 0 1 -.294.9z" fill="#323c6b"/><path d="m56.988 13.715a.5.5 0 0 1 -.417-.224 32.985 32.985 0 0 0 -5.135-6.124.5.5 0 0 1 .679-.734 33.937 33.937 0 0 1 5.29 6.307.5.5 0 0 1 -.417.776z" fill="#323c6b"/></svg>