<svg id="color_line" height="512" viewBox="0 0 74 74" width="512" xmlns="http://www.w3.org/2000/svg" data-name="color line"><path d="m66.29 21.43-20.35 9.44a6.008 6.008 0 0 0 -3.45 4.89c-.92 9.52-2.95 16.32-8.22 23.56l-9.95-3.96 5.05-29.2a6.633 6.633 0 0 1 1.91-3.69l20.09-19.47 1.72 2.13 10.95 13.52z" fill="#e7aa6c"/><path d="m32.489 69.369c-2.91 2.5-15.3 1.555-21.241.889a3.984 3.984 0 0 1 .3-7.941c.777-.022 2.471-.067 3.582-.133 7.986-.489 9.186-6.826 9.186-6.826l2.043.773a3.187 3.187 0 0 0 1.966 4.287 2.946 2.946 0 0 0 .944.144 3.149 3.149 0 0 0 2.965-2.062l2.032.822s2.666 6.237-1.777 10.047z" fill="#e7aa6c"/><path d="m66.29 21.43-20.35 9.44a6.008 6.008 0 0 0 -3.45 4.89c-.92 9.52-2.95 16.32-8.22 23.56l-2.04-.81-.58-.23c-.05-.14-.08-.21-.08-.21h.01c5.27-7.24 7.3-14.04 8.22-23.56a6.008 6.008 0 0 1 3.45-4.89l20.35-9.44 1.17-.63z" fill="#d09865"/><path d="m32.49 69.37c-2.91 2.5-15.3 1.55-21.24.89a3.933 3.933 0 0 1 -2.46-1.23c6.02.66 18.14 1.56 21.01-.91 3.33-2.86 2.66-7.09 2.12-9.02a2.553 2.553 0 0 0 .31-.59v-.01l2.04.82s2.66 6.24-1.78 10.05z" fill="#d09865"/><path d="m17.07 70.78c-2.2-.15-4.24-.35-5.82-.52a3.984 3.984 0 0 1 .3-7.94c.78-.03 2.47-.07 3.58-.14.23-.01.46-.03.68-.05-.67 1.21-2.48 5.31 1.26 8.65z" fill="#eeefee"/><g fill="#323c6b"><path d="m17.07 71.28h-.034c-1.831-.125-3.741-.3-5.839-.522a4.484 4.484 0 0 1 .339-8.937l.827-.027c.841-.026 1.939-.061 2.736-.111.231-.01.454-.03.666-.049a.51.51 0 0 1 .464.225.5.5 0 0 1 .019.515 6.29 6.29 0 0 0 1.152 8.033.5.5 0 0 1 -.333.873zm-2.088-8.59c-.78.045-1.8.077-2.588.1l-.825.027a3.483 3.483 0 0 0 -.265 6.943c1.594.172 3.079.312 4.5.423a7.079 7.079 0 0 1 -.823-7.493z"/><path d="m14.785 66.492a.5.5 0 0 1 -.027-1l9.729-.544a2.434 2.434 0 0 0 2.107-1.52l1.266-3.2a.5.5 0 1 1 .93.368l-1.266 3.2a3.438 3.438 0 0 1 -2.979 2.148l-9.73.544z"/><path d="m40.042 26.82a.5.5 0 0 1 -.3-.9l12.15-9.32a.5.5 0 0 1 .608.794l-12.15 9.32a.5.5 0 0 1 -.308.106z"/><path d="m30.324 54.886a.5.5 0 0 1 -.484-.627l5.786-21.991a.5.5 0 1 1 .967.255l-5.786 21.99a.5.5 0 0 1 -.483.373z"/></g><path d="m64.04 18.65a8.364 8.364 0 0 1 -3.8 1.95 8.707 8.707 0 0 1 -7.15-15.47z" fill="#e1e6e9"/><path d="m62.491 16.706-.959.624a5.325 5.325 0 0 1 -1.746.768h-.012a5.944 5.944 0 0 1 -1.377.154 6.07 6.07 0 0 1 -5.685-8.186 5.375 5.375 0 0 1 1.621-2.193l.594-.5z" fill="#9297ab"/><path d="m43.318 33.728a.5.5 0 0 1 -.343-.137c-.944-.892-1.934-1.745-2.942-2.536a.5.5 0 1 1 .617-.787c1.032.81 2.045 1.684 3.011 2.6a.5.5 0 0 1 -.343.863z" fill="#323c6b"/><path d="m33.911 27.086a.5.5 0 0 1 -.224-.053 30.453 30.453 0 0 0 -4.108-1.716.5.5 0 0 1 .313-.949 31.389 31.389 0 0 1 4.244 1.771.5.5 0 0 1 -.225.947z" fill="#323c6b"/><path d="m41.71 28.709a4.632 4.632 0 0 1 -4.633 4.633 4.746 4.746 0 0 1 -1.175-.149 4.64 4.64 0 0 1 1.175-9.13 4.573 4.573 0 0 1 3.607 1.737 4.663 4.663 0 0 1 1.026 2.909z" fill="#e1e6e9"/><path d="m37.078 33.841a5.236 5.236 0 0 1 -1.3-.165 5.14 5.14 0 0 1 1.3-10.114 5.049 5.049 0 0 1 4 1.934 5.129 5.129 0 0 1 -4 8.345zm0-9.279a4.14 4.14 0 0 0 -1.048 8.147 4.244 4.244 0 0 0 1.048.132 4.138 4.138 0 0 0 4.133-4.133 4.181 4.181 0 0 0 -.918-2.592 4.056 4.056 0 0 0 -3.215-1.553z" fill="#323c6b"/><path d="m37.078 31.341a2.757 2.757 0 0 1 -.672-.084 2.64 2.64 0 0 1 .672-5.195 2.562 2.562 0 0 1 2.033.977 2.687 2.687 0 0 1 .6 1.669 2.636 2.636 0 0 1 -2.633 2.633z" fill="#9297ab"/><path d="m58.274 21.325a9.231 9.231 0 0 1 -8.961-7.163 9.24 9.24 0 0 1 3.477-9.433.5.5 0 0 1 .688.086l10.95 13.52a.5.5 0 0 1 -.053.686 8.926 8.926 0 0 1 -4.026 2.067 9.248 9.248 0 0 1 -2.075.237zm-5.261-15.495a8.2 8.2 0 0 0 .919 13.236 8.142 8.142 0 0 0 6.2 1.047 7.971 7.971 0 0 0 3.216-1.528z" fill="#323c6b"/><path d="m23.07 71.507a113.477 113.477 0 0 1 -11.878-.752 4.484 4.484 0 0 1 .34-8.938l.193-.006c.834-.023 2.353-.065 3.375-.127 7.481-.458 8.677-6.178 8.725-6.421a.5.5 0 0 1 .668-.374l2.043.772a.5.5 0 0 1 .283.665 2.687 2.687 0 0 0 1.654 3.613 2.475 2.475 0 0 0 .8.122 2.632 2.632 0 0 0 2.5-1.738.5.5 0 0 1 .657-.291l2.033.822a.5.5 0 0 1 .272.267c.028.066 2.755 6.625-1.912 10.627-1.575 1.345-5.511 1.759-9.753 1.759zm1.578-15.489c-.537 1.632-2.651 6.246-9.488 6.664-1.033.062-2.565.1-3.408.129l-.191.005a3.483 3.483 0 0 0 -.261 6.944c8.538.958 18.5 1.257 20.861-.771 3.743-3.209 2.113-8.24 1.717-9.289l-1.39-.562a3.675 3.675 0 0 1 -3.223 1.922 3.428 3.428 0 0 1 -1.1-.17 3.647 3.647 0 0 1 -2.565-3.505 3.7 3.7 0 0 1 .125-.959z" fill="#323c6b"/><path d="m34.267 59.817a.5.5 0 0 1 -.185-.036l-9.951-3.96a.5.5 0 0 1 -.308-.55l5.053-29.193a7.117 7.117 0 0 1 2.052-3.968l20.1-19.469a.473.473 0 0 1 .372-.141.5.5 0 0 1 .358.185l14.926 18.428a.5.5 0 0 1 -.178.768l-20.356 9.446a5.521 5.521 0 0 0 -3.167 4.482c-.983 10.266-3.313 16.94-8.312 23.803a.5.5 0 0 1 -.404.205zm-9.389-4.775 9.212 3.667c4.728-6.6 6.95-13.083 7.9-23a6.525 6.525 0 0 1 3.744-5.293l19.766-9.172-14.174-17.505-19.7 19.085a6.123 6.123 0 0 0 -1.765 3.417z" fill="#323c6b"/><path d="m32.445 57.385a2.865 2.865 0 0 1 -.211 1.111 3.149 3.149 0 0 1 -2.966 2.066 2.946 2.946 0 0 1 -.944-.144 3.177 3.177 0 0 1 .944-6.209 3.286 3.286 0 0 1 1.055.178 3.178 3.178 0 0 1 2.122 2.998z" fill="#e1e6e9"/><path d="m29.269 61.061a3.428 3.428 0 0 1 -1.1-.17 3.677 3.677 0 0 1 1.1-7.183 3.784 3.784 0 0 1 1.218.205 3.682 3.682 0 0 1 2.458 3.472 3.346 3.346 0 0 1 -.25 1.3 3.66 3.66 0 0 1 -3.426 2.376zm0-6.353a2.678 2.678 0 0 0 -.8 5.231 2.475 2.475 0 0 0 .8.122 2.632 2.632 0 0 0 2.5-1.738 2.389 2.389 0 0 0 .18-.938 2.68 2.68 0 0 0 -1.787-2.527 2.779 2.779 0 0 0 -.893-.15z" fill="#323c6b"/><path d="m29.267 58.957a1.259 1.259 0 0 1 -.417-.056 1.592 1.592 0 0 1 -1.141-1.516 1.561 1.561 0 0 1 1.558-1.573 1.748 1.748 0 0 1 .541.092 1.57 1.57 0 0 1 1.031 1.481 1.186 1.186 0 0 1 -.074.449 1.584 1.584 0 0 1 -1.498 1.123z" fill="#9297ab"/><path d="m28.972 42.372a.567.567 0 0 1 -.458-.659l1.1-6.115a.567.567 0 1 1 1.117.2l-1.1 6.115a.567.567 0 0 1 -.659.459z" fill="#fff"/><path d="m28.571 44.6a.567.567 0 0 1 -.458-.659l.053-.293a.567.567 0 1 1 1.117.2l-.053.293a.567.567 0 0 1 -.659.459z" fill="#fff"/><path d="m39.7 56.875a.5.5 0 0 1 -.436-.745l.094-.167c.13-.232.261-.465.386-.7a.5.5 0 1 1 .883.471c-.128.24-.263.479-.4.718l-.093.166a.5.5 0 0 1 -.434.257z" fill="#323c6b"/><path d="m35.156 15.032a.5.5 0 0 1 -.348-.859l.8-.777a.5.5 0 0 1 .7.719l-.8.777a.5.5 0 0 1 -.352.14z" fill="#323c6b"/><path d="m38.625 11.672a.5.5 0 0 1 -.348-.859l6.938-6.722a.5.5 0 1 1 .7.718l-6.937 6.722a.5.5 0 0 1 -.353.141z" fill="#323c6b"/><path d="m41.493 53.313a.5.5 0 0 1 -.457-.7 44.537 44.537 0 0 0 2.864-9.213.5.5 0 0 1 .98.2 45.528 45.528 0 0 1 -2.93 9.415.5.5 0 0 1 -.457.298z" fill="#323c6b"/></svg>