<svg id="color_line" height="512" viewBox="0 0 74 74" width="512" xmlns="http://www.w3.org/2000/svg" data-name="color line"><path d="m21.89 22.174a13.934 13.934 0 0 1 -.129-1.906 15.239 15.239 0 1 1 30.477 0 13.934 13.934 0 0 1 -.129 1.906z" fill="#fcd462"/><path d="m50.762 28.492-2.462 12.749a2.219 2.219 0 0 1 -2.189 1.811h-18.22a2.219 2.219 0 0 1 -2.191-1.811l-2.462-12.749z" fill="#9297ab"/><path d="m52.24 20.27a13.176 13.176 0 0 1 -.13 1.9h-2.41v-.03a15.243 15.243 0 0 0 -22.93-13.16 15.235 15.235 0 0 1 25.47 11.29z" fill="#f7be56"/><path d="m50.76 28.49-2.46 12.75a2.219 2.219 0 0 1 -2.19 1.81h-2.54a2.219 2.219 0 0 0 2.19-1.81l2.46-12.75z" fill="#84879c"/><circle cx="37" cy="35.401" fill="#05afd6" r="4.453"/><path d="m41.45 35.4a4.416 4.416 0 0 1 -1.72 3.51 4.358 4.358 0 0 0 .44-1.91 4.447 4.447 0 0 0 -4.45-4.45 4.4 4.4 0 0 0 -2.73.94 4.444 4.444 0 0 1 8.46 1.91z" fill="#27a2db"/><path d="m11.99 54.932a.5.5 0 0 1 -.382-.821l3.482-4.15a.5.5 0 1 1 .766.643l-3.482 4.15a.5.5 0 0 1 -.384.178z" fill="#323c6b"/><path d="m19.624 37.1a.5.5 0 0 1 -.242-.938l4.681-2.577a.5.5 0 0 1 .482.876l-4.681 2.577a.5.5 0 0 1 -.24.062z" fill="#323c6b"/><path d="m17.226 45.962a.5.5 0 0 1 -.5-.5v-4.819a.5.5 0 0 1 1 0v4.819a.5.5 0 0 1 -.5.5z" fill="#323c6b"/><circle cx="17.226" cy="37.913" fill="#9297ab" r="2.729"/><path d="m17.226 41.143a3.229 3.229 0 1 1 3.229-3.229 3.233 3.233 0 0 1 -3.229 3.229zm0-5.458a2.229 2.229 0 1 0 2.229 2.229 2.232 2.232 0 0 0 -2.229-2.23z" fill="#323c6b"/><circle cx="17.226" cy="48.193" fill="#9297ab" r="2.729"/><path d="m17.226 51.423a3.229 3.229 0 1 1 3.229-3.229 3.233 3.233 0 0 1 -3.229 3.229zm0-5.458a2.229 2.229 0 1 0 2.229 2.229 2.232 2.232 0 0 0 -2.229-2.23z" fill="#323c6b"/><path d="m12.366 58.224 2.071 6.262h-8.399l2.071-6.262" fill="#fe7058"/><path d="m14.437 64.986h-8.4a.5.5 0 0 1 -.475-.657l2.071-6.262a.5.5 0 0 1 .949.314l-1.854 5.6h7.015l-1.854-5.6a.5.5 0 1 1 .949-.314l2.071 6.262a.5.5 0 0 1 -.475.657z" fill="#323c6b"/><path d="m7.048 64.486h6.378a4.048 4.048 0 0 1 4.048 4.048v.437a0 0 0 0 1 0 0h-14.474a0 0 0 0 1 0 0v-.437a4.048 4.048 0 0 1 4.048-4.048z" fill="#fe7058"/><g fill="#323c6b"><path d="m17.474 69.471h-14.474a.5.5 0 0 1 -.5-.5v-.437a4.553 4.553 0 0 1 4.548-4.548h6.378a4.553 4.553 0 0 1 4.548 4.548v.437a.5.5 0 0 1 -.5.5zm-13.973-1h13.472a3.553 3.553 0 0 0 -3.547-3.485h-6.378a3.553 3.553 0 0 0 -3.548 3.485z"/><path d="m62.01 54.932a.5.5 0 0 1 -.383-.179l-3.482-4.153a.5.5 0 1 1 .766-.643l3.482 4.15a.5.5 0 0 1 -.382.821z"/><path d="m54.376 37.1a.5.5 0 0 1 -.241-.062l-4.681-2.577a.5.5 0 1 1 .482-.876l4.681 2.577a.5.5 0 0 1 -.242.938z"/><path d="m56.774 45.962a.5.5 0 0 1 -.5-.5v-4.819a.5.5 0 0 1 1 0v4.819a.5.5 0 0 1 -.5.5z"/></g><circle cx="56.774" cy="37.913" fill="#9297ab" r="2.729"/><path d="m56.774 41.143a3.229 3.229 0 1 1 3.226-3.23 3.233 3.233 0 0 1 -3.226 3.23zm0-5.458a2.229 2.229 0 1 0 2.226 2.228 2.232 2.232 0 0 0 -2.226-2.229z" fill="#323c6b"/><circle cx="56.774" cy="37.913" fill="#84879c" r="1.315"/><circle cx="56.774" cy="48.193" fill="#9297ab" r="2.729"/><path d="m56.774 51.423a3.229 3.229 0 1 1 3.226-3.23 3.233 3.233 0 0 1 -3.226 3.23zm0-5.458a2.229 2.229 0 1 0 2.226 2.228 2.232 2.232 0 0 0 -2.226-2.229z" fill="#323c6b"/><circle cx="56.774" cy="48.194" fill="#84879c" r="1.194"/><path d="m65.891 58.224 2.071 6.262h-8.399l2.071-6.262" fill="#fe7058"/><path d="m67.962 64.986h-8.4a.5.5 0 0 1 -.475-.657l2.071-6.262a.5.5 0 0 1 .949.314l-1.854 5.6h7.017l-1.854-5.6a.5.5 0 1 1 .949-.314l2.071 6.262a.5.5 0 0 1 -.475.657z" fill="#323c6b"/><path d="m56.526 64.486h14.474a0 0 0 0 1 0 0v.437a4.048 4.048 0 0 1 -4.048 4.048h-6.378a4.048 4.048 0 0 1 -4.048-4.048v-.437a0 0 0 0 1 0 0z" fill="#fe7058" transform="matrix(-1 0 0 -1 127.526 133.457)"/><path d="m71 69.471h-14.474a.5.5 0 0 1 -.5-.5v-.437a4.553 4.553 0 0 1 4.548-4.548h6.378a4.553 4.553 0 0 1 4.548 4.548v.437a.5.5 0 0 1 -.5.5zm-13.973-1h13.473a3.553 3.553 0 0 0 -3.547-3.485h-6.379a3.553 3.553 0 0 0 -3.547 3.485z" fill="#323c6b"/><circle cx="17.226" cy="37.913" fill="#84879c" r="1.315"/><circle cx="17.226" cy="48.194" fill="#84879c" r="1.194"/><circle cx="10.237" cy="56.523" fill="#9297ab" r="2.729"/><path d="m10.237 59.752a3.229 3.229 0 1 1 3.229-3.229 3.233 3.233 0 0 1 -3.229 3.229zm0-5.458a2.229 2.229 0 1 0 2.229 2.229 2.232 2.232 0 0 0 -2.229-2.229z" fill="#323c6b"/><circle cx="63.763" cy="56.523" fill="#9297ab" r="2.729"/><path d="m63.763 59.752a3.229 3.229 0 1 1 3.229-3.229 3.233 3.233 0 0 1 -3.229 3.229zm0-5.458a2.229 2.229 0 1 0 2.229 2.229 2.232 2.232 0 0 0 -2.229-2.229z" fill="#323c6b"/><circle cx="63.763" cy="56.523" fill="#84879c" r="1.258"/><circle cx="10.237" cy="56.523" fill="#84879c" r="1.258"/><path d="m52.11 22.673h-30.22a.5.5 0 0 1 -.5-.431 14.367 14.367 0 0 1 -.134-1.975 15.739 15.739 0 0 1 31.478 0 14.367 14.367 0 0 1 -.134 1.975.5.5 0 0 1 -.49.431zm-29.777-1h29.334a13.581 13.581 0 0 0 .072-1.406 14.739 14.739 0 0 0 -29.478 0 13.581 13.581 0 0 0 .072 1.406z" fill="#323c6b"/><path d="m46.109 43.553h-18.218a2.725 2.725 0 0 1 -2.681-2.22l-2.462-12.746a.5.5 0 0 1 .491-.595h27.523a.5.5 0 0 1 .491.595l-2.464 12.749a2.724 2.724 0 0 1 -2.68 2.217zm-22.265-14.561 2.349 12.154a1.726 1.726 0 0 0 1.7 1.406h18.216a1.724 1.724 0 0 0 1.7-1.4l2.35-12.157z" fill="#323c6b"/><path d="m23.96 21.982h26.08a5.365 5.365 0 0 1 5.36 5.364v.24a.906.906 0 0 1 -.906.906h-35a.906.906 0 0 1 -.906-.906v-.24a5.365 5.365 0 0 1 5.365-5.365z" fill="#84879c"/><path d="m54.5 28.992h-35a1.408 1.408 0 0 1 -1.4-1.406v-.24a5.871 5.871 0 0 1 5.865-5.864h26.075a5.871 5.871 0 0 1 5.86 5.864v.24a1.408 1.408 0 0 1 -1.4 1.406zm-30.54-6.51a4.87 4.87 0 0 0 -4.86 4.864v.24a.407.407 0 0 0 .406.406h35a.407.407 0 0 0 .406-.406v-.24a4.87 4.87 0 0 0 -4.865-4.864z" fill="#323c6b"/><path d="m37 40.354a4.953 4.953 0 1 1 4.953-4.954 4.959 4.959 0 0 1 -4.953 4.954zm0-8.906a3.953 3.953 0 1 0 3.953 3.952 3.958 3.958 0 0 0 -3.953-3.952z" fill="#323c6b"/><path d="m26.824 25.256a.567.567 0 0 1 .563-.572l6.213-.047a.567.567 0 0 1 .009 1.135l-6.213.047a.567.567 0 0 1 -.572-.563z" fill="#fff"/><path d="m24.556 25.274a.567.567 0 0 1 .563-.572h.3a.567.567 0 0 1 .009 1.135h-.3a.567.567 0 0 1 -.572-.563z" fill="#fff"/><path d="m22.268 10.083a.5.5 0 0 1 -.4-.794 18.907 18.907 0 0 1 7.107-5.884.5.5 0 1 1 .432.9 17.908 17.908 0 0 0 -6.731 5.57.5.5 0 0 1 -.408.208z" fill="#323c6b"/><path d="m31.531 3.408a.5.5 0 0 1 -.151-.977l.238-.078c.187-.062.374-.124.565-.174a.5.5 0 1 1 .258.966c-.172.046-.341.1-.509.158l-.25.082a.5.5 0 0 1 -.151.023z" fill="#323c6b"/><path d="m46.109 46.553h-4.828a.5.5 0 0 1 0-1h4.828a4.715 4.715 0 0 0 2.312-.613.5.5 0 0 1 .491.871 5.718 5.718 0 0 1 -2.803.742z" fill="#323c6b"/><path d="m38.469 46.553h-.406a.5.5 0 0 1 0-1h.406a.5.5 0 0 1 0 1z" fill="#323c6b"/></svg>