<svg id="color_line" height="512" viewBox="0 0 74 74" width="512" xmlns="http://www.w3.org/2000/svg" data-name="color line"><rect fill="#fcd462" height="10.18" rx="1.62" width="10.18" x="59.97" y="59.97"/><rect fill="#fcd462" height="10.18" rx="1.62" width="10.18" x="59.97" y="3.85"/><rect fill="#fcd462" height="10.18" rx="1.62" width="10.18" x="3.85" y="3.85"/><rect fill="#fcd462" height="10.18" rx="1.62" width="10.18" x="3.85" y="59.97"/><path d="m70.15 61.59v6.94a1.613 1.613 0 0 1 -1.62 1.62h-.75v-6.4a1.62 1.62 0 0 0 -1.62-1.62h-6.19v-.54a1.613 1.613 0 0 1 1.62-1.62h6.94a1.613 1.613 0 0 1 1.62 1.62z" fill="#f7be56"/><path d="m70.15 5.47v6.94a1.613 1.613 0 0 1 -1.62 1.62h-.75v-6.4a1.62 1.62 0 0 0 -1.62-1.62h-6.19v-.54a1.613 1.613 0 0 1 1.62-1.62h6.94a1.613 1.613 0 0 1 1.62 1.62z" fill="#f7be56"/><path d="m14.03 5.47v6.94a1.613 1.613 0 0 1 -1.62 1.62h-.75v-6.4a1.622 1.622 0 0 0 -1.63-1.62h-6.18v-.54a1.613 1.613 0 0 1 1.62-1.62h6.94a1.613 1.613 0 0 1 1.62 1.62z" fill="#f7be56"/><path d="m14.03 61.59v6.94a1.613 1.613 0 0 1 -1.62 1.62h-.75v-6.4a1.622 1.622 0 0 0 -1.63-1.62h-6.18v-.54a1.613 1.613 0 0 1 1.62-1.62h6.94a1.613 1.613 0 0 1 1.62 1.62z" fill="#f7be56"/><g fill="#323c6b"><path d="m17.03 9.44h-3a.5.5 0 0 1 0-1h3a.5.5 0 0 1 0 1z"/><path d="m51.264 9.44h-5.705a.5.5 0 0 1 0-1h5.705a.5.5 0 0 1 0 1zm-11.411 0h-5.707a.5.5 0 0 1 0-1h5.706a.5.5 0 0 1 0 1zm-11.411 0h-5.707a.5.5 0 0 1 0-1h5.706a.5.5 0 0 1 0 1z"/><path d="m59.97 9.44h-3a.5.5 0 0 1 0-1h3a.5.5 0 0 1 0 1z"/><path d="m8.94 60.47a.5.5 0 0 1 -.5-.5v-3a.5.5 0 0 1 1 0v3a.5.5 0 0 1 -.5.5z"/><path d="m8.94 51.764a.5.5 0 0 1 -.5-.5v-5.705a.5.5 0 0 1 1 0v5.706a.5.5 0 0 1 -.5.499zm0-11.412a.5.5 0 0 1 -.5-.5v-5.705a.5.5 0 0 1 1 0v5.706a.5.5 0 0 1 -.5.5zm0-11.411a.5.5 0 0 1 -.5-.5v-5.706a.5.5 0 0 1 1 0v5.706a.5.5 0 0 1 -.5.5z"/><path d="m8.94 17.53a.5.5 0 0 1 -.5-.5v-3a.5.5 0 0 1 1 0v3a.5.5 0 0 1 -.5.5z"/><path d="m59.97 65.56h-3a.5.5 0 0 1 0-1h3a.5.5 0 0 1 0 1z"/><path d="m51.265 65.56h-5.706a.5.5 0 0 1 0-1h5.706a.5.5 0 0 1 0 1zm-11.411 0h-5.707a.5.5 0 0 1 0-1h5.706a.5.5 0 0 1 0 1zm-11.412 0h-5.706a.5.5 0 0 1 0-1h5.705a.5.5 0 0 1 0 1z"/><path d="m17.03 65.56h-3a.5.5 0 0 1 0-1h3a.5.5 0 1 1 0 1z"/><path d="m65.06 17.53a.5.5 0 0 1 -.5-.5v-3a.5.5 0 0 1 1 0v3a.5.5 0 0 1 -.5.5z"/><path d="m65.06 51.765a.5.5 0 0 1 -.5-.5v-5.706a.5.5 0 0 1 1 0v5.706a.5.5 0 0 1 -.5.5zm0-11.412a.5.5 0 0 1 -.5-.5v-5.706a.5.5 0 0 1 1 0v5.706a.5.5 0 0 1 -.5.5zm0-11.412a.5.5 0 0 1 -.5-.5v-5.705a.5.5 0 1 1 1 0v5.706a.5.5 0 0 1 -.5.499z"/><path d="m65.06 60.47a.5.5 0 0 1 -.5-.5v-3a.5.5 0 0 1 1 0v3a.5.5 0 0 1 -.5.5z"/></g><path d="m50.3 46.9a7.271 7.271 0 0 0 7.064-6.887 7.271 7.271 0 0 0 -7.064-6.884" fill="#eeefee"/><path d="m50.3 47.4a.5.5 0 0 1 0-1c3.1 0 6.564-2.731 6.564-6.387s-3.464-6.385-6.564-6.385a.5.5 0 0 1 0-1c3.57 0 7.564 3.159 7.564 7.387s-3.989 7.385-7.564 7.385z" fill="#323c6b"/><path d="m23.7 46.9a7.271 7.271 0 0 1 -7.064-6.887 7.271 7.271 0 0 1 7.064-6.884" fill="#eeefee"/><path d="m23.7 47.4c-3.57 0-7.564-3.159-7.564-7.387s3.994-7.387 7.564-7.387a.5.5 0 0 1 0 1c-3.1 0-6.564 2.731-6.564 6.387s3.464 6.387 6.564 6.387a.5.5 0 0 1 0 1z" fill="#323c6b"/><rect fill="#eeefee" height="25.673" rx="2.271" width="30.61" x="21.695" y="27.862"/><path d="m50.034 27.862h-26.068a2.271 2.271 0 0 0 -2.266 2.271v.354h25.771a2.271 2.271 0 0 1 2.271 2.271v20.778h.291a2.271 2.271 0 0 0 2.267-2.272v-21.131a2.271 2.271 0 0 0 -2.266-2.271z" fill="#e1e6e9"/><circle cx="29.846" cy="37.614" fill="#9297ab" r="2.761"/><path d="m29.846 40.875a3.261 3.261 0 1 1 3.261-3.261 3.265 3.265 0 0 1 -3.261 3.261zm0-5.521a2.261 2.261 0 1 0 2.261 2.261 2.264 2.264 0 0 0 -2.261-2.261z" fill="#323c6b"/><circle cx="44.154" cy="37.614" fill="#9297ab" r="2.761"/><path d="m44.154 40.875a3.261 3.261 0 1 1 3.261-3.261 3.265 3.265 0 0 1 -3.261 3.261zm0-5.521a2.261 2.261 0 1 0 2.261 2.261 2.264 2.264 0 0 0 -2.261-2.261z" fill="#323c6b"/><path d="m41.428 47.256h-8.856a.5.5 0 0 1 0-1h8.855a.5.5 0 0 1 0 1z" fill="#323c6b"/><path d="m37 28.356a.5.5 0 0 1 -.5-.5v-5.545a.5.5 0 0 1 1 0v5.545a.5.5 0 0 1 -.5.5z" fill="#323c6b"/><path d="m68.53 70.65h-6.94a2.123 2.123 0 0 1 -2.12-2.12v-6.94a2.123 2.123 0 0 1 2.12-2.12h6.94a2.123 2.123 0 0 1 2.12 2.12v6.94a2.123 2.123 0 0 1 -2.12 2.12zm-6.94-10.18a1.108 1.108 0 0 0 -1.12 1.12v6.94a1.108 1.108 0 0 0 1.12 1.12h6.94a1.108 1.108 0 0 0 1.12-1.12v-6.94a1.108 1.108 0 0 0 -1.12-1.12z" fill="#323c6b"/><path d="m68.53 14.53h-6.94a2.122 2.122 0 0 1 -2.12-2.12v-6.94a2.122 2.122 0 0 1 2.12-2.12h6.94a2.122 2.122 0 0 1 2.12 2.12v6.94a2.122 2.122 0 0 1 -2.12 2.12zm-6.94-10.18a1.108 1.108 0 0 0 -1.12 1.12v6.94a1.108 1.108 0 0 0 1.12 1.12h6.94a1.108 1.108 0 0 0 1.12-1.12v-6.94a1.108 1.108 0 0 0 -1.12-1.12z" fill="#323c6b"/><path d="m12.41 14.53h-6.94a2.122 2.122 0 0 1 -2.12-2.12v-6.94a2.122 2.122 0 0 1 2.12-2.12h6.94a2.122 2.122 0 0 1 2.12 2.12v6.94a2.122 2.122 0 0 1 -2.12 2.12zm-6.94-10.18a1.108 1.108 0 0 0 -1.12 1.12v6.94a1.108 1.108 0 0 0 1.12 1.12h6.94a1.108 1.108 0 0 0 1.12-1.12v-6.94a1.108 1.108 0 0 0 -1.12-1.12z" fill="#323c6b"/><path d="m12.41 70.65h-6.94a2.123 2.123 0 0 1 -2.12-2.12v-6.94a2.123 2.123 0 0 1 2.12-2.12h6.94a2.123 2.123 0 0 1 2.12 2.12v6.94a2.123 2.123 0 0 1 -2.12 2.12zm-6.94-10.18a1.108 1.108 0 0 0 -1.12 1.12v6.94a1.108 1.108 0 0 0 1.12 1.12h6.94a1.108 1.108 0 0 0 1.12-1.12v-6.94a1.108 1.108 0 0 0 -1.12-1.12z" fill="#323c6b"/><path d="m50.034 54.036h-26.068a2.774 2.774 0 0 1 -2.766-2.771v-21.132a2.774 2.774 0 0 1 2.771-2.771h26.063a2.774 2.774 0 0 1 2.766 2.771v21.132a2.774 2.774 0 0 1 -2.766 2.771zm-26.068-25.674a1.773 1.773 0 0 0 -1.766 1.771v21.132a1.773 1.773 0 0 0 1.771 1.771h26.063a1.773 1.773 0 0 0 1.766-1.771v-21.132a1.773 1.773 0 0 0 -1.771-1.771z" fill="#323c6b"/><circle cx="37" cy="19.625" fill="#27ccbc" r="3.208"/><path d="m40.2 19.624a3.231 3.231 0 0 1 -1.547 2.757 3.207 3.207 0 0 0 -2.975-4.424 3.139 3.139 0 0 0 -1.645.458 3.2 3.2 0 0 1 6.167 1.209z" fill="#21b3a9"/><path d="m37 23.333a3.708 3.708 0 1 1 3.708-3.708 3.712 3.712 0 0 1 -3.708 3.708zm0-6.417a2.708 2.708 0 1 0 2.708 2.708 2.711 2.711 0 0 0 -2.708-2.707z" fill="#323c6b"/><path d="m47.656 57.036h-9.031a.5.5 0 0 1 0-1h9.031a.5.5 0 0 1 0 1z" fill="#323c6b"/><path d="m35.781 57.036h-.687a.5.5 0 0 1 0-1h.688a.5.5 0 0 1 0 1z" fill="#323c6b"/><path d="m18.79 29.75a.5.5 0 0 1 -.494-.584 5.748 5.748 0 0 1 5.67-4.8h1.1a.5.5 0 0 1 0 1h-1.1a4.749 4.749 0 0 0 -4.684 3.972.5.5 0 0 1 -.492.412z" fill="#323c6b"/><path d="m28.094 25.362h-.656a.5.5 0 0 1 0-1h.656a.5.5 0 0 1 0 1z" fill="#323c6b"/></svg>