<svg id="color_line" height="512" viewBox="0 0 74 74" width="512" xmlns="http://www.w3.org/2000/svg" data-name="color line"><rect fill="#9297ab" height="19.166" rx="2.874" width="56.901" x="4.875" y="11.022"/><circle cx="52.418" cy="20.605" fill="#fe7058" r="2.637"/><path d="m52.418 23.741a3.137 3.137 0 1 1 3.137-3.141 3.14 3.14 0 0 1 -3.137 3.141zm0-5.273a2.137 2.137 0 1 0 2.137 2.132 2.139 2.139 0 0 0 -2.137-2.132z" fill="#323c6b"/><circle cx="42.387" cy="20.605" fill="#fe7058" r="2.637"/><g fill="#323c6b"><path d="m42.387 23.741a3.137 3.137 0 1 1 3.136-3.141 3.14 3.14 0 0 1 -3.136 3.141zm0-5.273a2.137 2.137 0 1 0 2.136 2.132 2.139 2.139 0 0 0 -2.136-2.132z"/><path d="m12.089 22.021a.5.5 0 0 1 -.5-.5v-1.833a.5.5 0 0 1 1 0v1.834a.5.5 0 0 1 -.5.499z"/><path d="m20.75 22.021a.5.5 0 0 1 -.5-.5v-1.833a.5.5 0 0 1 1 0v1.834a.5.5 0 0 1 -.5.499z"/><path d="m29.411 22.021a.5.5 0 0 1 -.5-.5v-1.833a.5.5 0 0 1 1 0v1.834a.5.5 0 0 1 -.5.499z"/></g><path d="m45.671 51.853h-37.833a2.963 2.963 0 0 1 -2.963-2.963v-12.234a2.969 2.969 0 0 1 2.969-2.969h50.969a2.972 2.972 0 0 1 2.963 2.963v2.318" fill="#9297ab"/><path d="m61.78 13.9v13.41a2.881 2.881 0 0 1 -2.88 2.88h-.38a2.089 2.089 0 0 0 .01-.25v-13.42a2.864 2.864 0 0 0 -2.87-2.87h-50.77a2.867 2.867 0 0 1 2.86-2.63h51.15a2.881 2.881 0 0 1 2.88 2.88z" fill="#84879c"/><path d="m61.78 36.65v2.32l-3.25 2.6v-2.29a2.975 2.975 0 0 0 -2.96-2.97h-50.66a2.939 2.939 0 0 1 2.93-2.62h50.97a2.975 2.975 0 0 1 2.97 2.96z" fill="#84879c"/><path d="m53.447 39.174a.5.5 0 0 0 -.124-.01 3.11 3.11 0 0 0 -2.831 4.4" fill="#fe7058"/><path d="m50.492 44.059a.5.5 0 0 1 -.456-.3 3.61 3.61 0 0 1 3.287-5.1.951.951 0 0 1 .244.025.5.5 0 0 1 -.221.975 2.617 2.617 0 0 0 -2.632 2.608 2.652 2.652 0 0 0 .233 1.083.5.5 0 0 1 -.456.7z" fill="#323c6b"/><path d="m8.494 30.188h49.663v3.5h-49.663z" fill="#9297ab"/><path d="m58.157 34.188h-49.663a.5.5 0 0 1 -.5-.5v-3.5a.5.5 0 0 1 .5-.5h49.663a.5.5 0 0 1 .5.5v3.5a.5.5 0 0 1 -.5.5zm-49.163-1h48.663v-2.5h-48.663z" fill="#323c6b"/><path d="m58.9 30.688h-51.151a3.378 3.378 0 0 1 -3.374-3.374v-13.414a3.378 3.378 0 0 1 3.374-3.374h51.151a3.377 3.377 0 0 1 3.375 3.374v13.414a3.377 3.377 0 0 1 -3.375 3.374zm-51.151-19.167a2.377 2.377 0 0 0 -2.374 2.379v13.414a2.377 2.377 0 0 0 2.374 2.374h51.151a2.376 2.376 0 0 0 2.373-2.374v-13.414a2.376 2.376 0 0 0 -2.373-2.379z" fill="#323c6b"/><path d="m45.671 52.354h-37.833a3.467 3.467 0 0 1 -3.463-3.464v-12.234a3.472 3.472 0 0 1 3.469-3.469h50.969a3.467 3.467 0 0 1 3.463 3.463v2.318a.5.5 0 0 1 -1 0v-2.317a2.466 2.466 0 0 0 -2.463-2.463h-50.969a2.471 2.471 0 0 0 -2.469 2.469v12.233a2.466 2.466 0 0 0 2.463 2.463h37.833a.5.5 0 0 1 0 1z" fill="#323c6b"/><circle cx="58.157" cy="49.583" fill="#eeefee" r="12.583"/><path d="m70.74 49.58a12.551 12.551 0 0 1 -4.44 9.6 12.586 12.586 0 0 0 -18.01-17.41 12.585 12.585 0 0 1 22.45 7.81z" fill="#e1e6e9"/><path d="m62.025 49.128h-7.737a.75.75 0 0 1 -.75-.75v-3.51a4.619 4.619 0 1 1 9.237 0v3.51a.75.75 0 0 1 -.75.75zm-6.987-1.5h6.237v-2.76a3.119 3.119 0 1 0 -6.237 0z" fill="#323c6b"/><rect fill="#fcd462" height="8.248" rx="1.463" width="11.229" x="52.543" y="47.832"/><path d="m62.309 56.58h-8.3a1.966 1.966 0 0 1 -1.963-1.963v-5.317a1.965 1.965 0 0 1 1.963-1.963h8.3a1.965 1.965 0 0 1 1.962 1.963v5.321a1.966 1.966 0 0 1 -1.962 1.959zm-8.3-8.248a.964.964 0 0 0 -.963.963v5.321a.964.964 0 0 0 .963.963h8.3a.964.964 0 0 0 .963-.963v-5.316a.964.964 0 0 0 -.963-.963z" fill="#323c6b"/><path d="m58.154 53.834a.5.5 0 0 1 -.5-.5v-1.175a.5.5 0 0 1 1 0v1.175a.5.5 0 0 1 -.5.5z" fill="#323c6b"/><path d="m58.157 52.659a1.291 1.291 0 1 1 1.291-1.291 1.292 1.292 0 0 1 -1.291 1.291zm0-1.582a.291.291 0 1 0 .291.291.291.291 0 0 0 -.291-.291z" fill="#323c6b"/><path d="m58.157 62.667a13.083 13.083 0 1 1 13.083-13.084 13.1 13.1 0 0 1 -13.083 13.084zm0-25.167a12.083 12.083 0 1 0 12.083 12.083 12.1 12.1 0 0 0 -12.083-12.083z" fill="#323c6b"/><circle cx="42.387" cy="42.27" fill="#fe7058" r="2.637"/><path d="m42.387 45.407a3.137 3.137 0 1 1 3.137-3.137 3.14 3.14 0 0 1 -3.137 3.137zm0-5.273a2.137 2.137 0 1 0 2.137 2.137 2.139 2.139 0 0 0 -2.137-2.137z" fill="#323c6b"/><path d="m12.089 44.188a.5.5 0 0 1 -.5-.5v-1.834a.5.5 0 0 1 1 0v1.834a.5.5 0 0 1 -.5.5z" fill="#323c6b"/><path d="m20.75 44.188a.5.5 0 0 1 -.5-.5v-1.834a.5.5 0 0 1 1 0v1.834a.5.5 0 0 1 -.5.5z" fill="#323c6b"/><path d="m29.411 44.188a.5.5 0 0 1 -.5-.5v-1.834a.5.5 0 0 1 1 0v1.834a.5.5 0 0 1 -.5.5z" fill="#323c6b"/><path d="m14.466 27.244a.567.567 0 0 1 .569-.566l6.965.022a.567.567 0 0 1 0 1.135l-6.963-.018a.567.567 0 0 1 -.571-.573z" fill="#fff"/><path d="m11.948 27.237a.567.567 0 0 1 .569-.566h.3a.567.567 0 0 1 0 1.135h-.3a.567.567 0 0 1 -.569-.569z" fill="#fff"/><path d="m1.875 14.4a.5.5 0 0 1 -.5-.5 6.369 6.369 0 0 1 6.036-6.362.493.493 0 0 1 .525.473.5.5 0 0 1 -.473.526 5.368 5.368 0 0 0 -5.088 5.363.5.5 0 0 1 -.5.5z" fill="#323c6b"/><path d="m10.438 8.521h-.625a.5.5 0 0 1 0-1h.625a.5.5 0 0 1 0 1z" fill="#323c6b"/></svg>