<svg id="color_line" height="512" viewBox="0 0 74 74" width="512" xmlns="http://www.w3.org/2000/svg" data-name="color line"><circle cx="5.513" cy="40.603" fill="#eeefee" r="2.375"/><path d="m22.272 3h29.456a5.458 5.458 0 0 1 5.458 5.458v57.084a5.458 5.458 0 0 1 -5.458 5.458h-29.456a5.458 5.458 0 0 1 -5.458-5.458v-57.085a5.457 5.457 0 0 1 5.458-5.457z" fill="#9297ab"/><path d="m57.19 8.46v57.08a5.455 5.455 0 0 1 -2.9 4.82 5.281 5.281 0 0 0 .26-1.65v-57.09a5.45 5.45 0 0 0 -5.45-5.45h-29.46a5.369 5.369 0 0 0 -2.58.65 5.466 5.466 0 0 1 5.21-3.82h29.46a5.461 5.461 0 0 1 5.46 5.46z" fill="#84879c"/><path d="m20.625 12.394h32.75v45.773h-32.75z" fill="#eeefee"/><path d="m53.37 12.39v45.78h-3.06v-42.88h-29.69v-2.9z" fill="#e1e6e9"/><path d="m39.082 66.67h-4.164a2.173 2.173 0 1 1 0-4.347h4.164a2.173 2.173 0 1 1 0 4.347zm-4.164-3.347a1.173 1.173 0 1 0 0 2.347h4.164a1.173 1.173 0 1 0 0-2.347z" fill="#323c6b"/><path d="m39.234 8.387h-4.468a.5.5 0 1 1 0-1h4.469a.5.5 0 0 1 0 1z" fill="#323c6b"/><path d="m25.54 27.34h-4.58a.5.5 0 0 1 -.328-.123l-7.61-6.627h-4.062a.5.5 0 0 1 0-1h4.25a.5.5 0 0 1 .328.123l7.609 6.627h4.393a.5.5 0 0 1 0 1z" fill="#323c6b"/><circle cx="6.583" cy="20.093" fill="#27ccbc" r="2.375"/><path d="m25.54 32.892h-6.454a.485.485 0 0 1 -.165-.028l-6.862-2.406h-4.17a.5.5 0 0 1 0-1h4.255a.5.5 0 0 1 .165.028l6.862 2.406h6.369a.5.5 0 0 1 0 1z" fill="#323c6b"/><circle cx="5.513" cy="29.958" fill="#fcd462" r="2.375"/><path d="m12.144 41.1h-4.255a.5.5 0 0 1 0-1h4.166l7.2-2.635a.5.5 0 0 1 .172-.03h6.113a.5.5 0 0 1 0 1h-6.026l-7.2 2.635a.5.5 0 0 1 -.17.03z" fill="#323c6b"/><path d="m13.21 50.97h-4.25a.5.5 0 0 1 0-1h4.063l7.609-6.627a.5.5 0 0 1 .328-.123h4.58a.5.5 0 0 1 0 1h-4.393l-7.609 6.627a.5.5 0 0 1 -.328.123z" fill="#323c6b"/><circle cx="6.583" cy="50.468" fill="#fe7058" r="2.375"/><path d="m53.04 27.34h-4.58a.5.5 0 0 1 0-1h4.393l7.609-6.627a.5.5 0 0 1 .328-.123h4.25a.5.5 0 0 1 0 1h-4.062l-7.609 6.627a.5.5 0 0 1 -.329.123z" fill="#323c6b"/><circle cx="67.417" cy="20.093" fill="#fe7058" r="2.375"/><path d="m54.914 32.892h-6.454a.5.5 0 0 1 0-1h6.369l6.862-2.406a.5.5 0 0 1 .165-.028h4.255a.5.5 0 0 1 0 1h-4.17l-6.862 2.406a.485.485 0 0 1 -.165.028z" fill="#323c6b"/><circle cx="68.487" cy="29.958" fill="#e1e6e9" r="2.375"/><path d="m66.111 41.1h-4.255a.5.5 0 0 1 -.172-.03l-7.2-2.635h-6.024a.5.5 0 0 1 0-1h6.115a.5.5 0 0 1 .172.03l7.2 2.635h4.166a.5.5 0 0 1 0 1z" fill="#323c6b"/><circle cx="68.487" cy="40.603" fill="#fcd462" r="2.375"/><path d="m65.04 50.97h-4.25a.5.5 0 0 1 -.328-.123l-7.609-6.627h-4.393a.5.5 0 0 1 0-1h4.58a.5.5 0 0 1 .328.123l7.609 6.627h4.063a.5.5 0 0 1 0 1z" fill="#323c6b"/><circle cx="67.417" cy="50.468" fill="#27ccbc" r="2.375"/><path d="m8.96 20.09a2.376 2.376 0 0 1 -1.73 2.29 2.427 2.427 0 0 0 .27-1.11 2.371 2.371 0 0 0 -2.38-2.37 2.589 2.589 0 0 0 -.63.08 2.374 2.374 0 0 1 4.47 1.11z" fill="#21b3a9"/><path d="m7.89 29.96a2.352 2.352 0 0 1 -1.73 2.27 2.314 2.314 0 0 0 .27-1.09 2.379 2.379 0 0 0 -2.38-2.38 2.25 2.25 0 0 0 -.64.09 2.377 2.377 0 0 1 4.48 1.11z" fill="#f7be56"/><path d="m7.89 40.6a2.373 2.373 0 0 1 -1.73 2.28 2.371 2.371 0 0 0 -2.11-3.47 2.009 2.009 0 0 0 -.65.1 2.38 2.38 0 0 1 4.49 1.09z" fill="#d5d6db"/><path d="m8.96 50.47a2.352 2.352 0 0 1 -1.74 2.28 2.3 2.3 0 0 0 .28-1.1 2.379 2.379 0 0 0 -2.38-2.38 2.181 2.181 0 0 0 -.63.09 2.34 2.34 0 0 1 2.09-1.27 2.379 2.379 0 0 1 2.38 2.38z" fill="#ea6453"/><path d="m69.79 20.09a2.376 2.376 0 0 1 -1.74 2.29 2.316 2.316 0 0 0 .28-1.11 2.369 2.369 0 0 0 -2.37-2.37 2.249 2.249 0 0 0 -.64.09 2.37 2.37 0 0 1 4.47 1.1z" fill="#ea6453"/><path d="m70.86 29.96a2.343 2.343 0 0 1 -1.72 2.27 2.308 2.308 0 0 0 .26-1.09 2.377 2.377 0 0 0 -2.37-2.38 2.25 2.25 0 0 0 -.64.09 2.37 2.37 0 0 1 4.47 1.11z" fill="#d5d6db"/><path d="m70.86 40.6a2.364 2.364 0 0 1 -1.72 2.28 2.387 2.387 0 0 0 -2.11-3.47 2.01 2.01 0 0 0 -.65.1 2.373 2.373 0 0 1 4.48 1.09z" fill="#f7be56"/><path d="m69.79 50.47a2.385 2.385 0 0 1 -1.74 2.29 2.316 2.316 0 0 0 .28-1.11 2.377 2.377 0 0 0 -2.37-2.38 2.249 2.249 0 0 0 -.64.09 2.37 2.37 0 0 1 4.47 1.11z" fill="#21b3a9"/><g fill="#323c6b"><path d="m51.728 71.5h-29.456a5.964 5.964 0 0 1 -5.958-5.958v-57.084a5.964 5.964 0 0 1 5.958-5.958h29.456a5.964 5.964 0 0 1 5.958 5.958v57.084a5.964 5.964 0 0 1 -5.958 5.958zm-29.456-68a4.964 4.964 0 0 0 -4.958 4.958v57.084a4.964 4.964 0 0 0 4.958 4.958h29.456a4.964 4.964 0 0 0 4.958-4.958v-57.084a4.964 4.964 0 0 0 -4.958-4.958z"/><path d="m53.375 58.667h-32.75a.5.5 0 0 1 -.5-.5v-45.773a.5.5 0 0 1 .5-.5h32.75a.5.5 0 0 1 .5.5v45.773a.5.5 0 0 1 -.5.5zm-32.25-1h31.75v-44.773h-31.75z"/><path d="m68.486 32.833a2.875 2.875 0 1 1 2.875-2.875 2.878 2.878 0 0 1 -2.875 2.875zm0-4.75a1.875 1.875 0 1 0 1.875 1.875 1.877 1.877 0 0 0 -1.875-1.875z"/><path d="m5.514 43.478a2.875 2.875 0 1 1 2.875-2.878 2.878 2.878 0 0 1 -2.875 2.878zm0-4.75a1.875 1.875 0 1 0 1.875 1.872 1.877 1.877 0 0 0 -1.875-1.872z"/><path d="m68.486 43.478a2.875 2.875 0 1 1 2.875-2.878 2.878 2.878 0 0 1 -2.875 2.878zm0-4.75a1.875 1.875 0 1 0 1.875 1.872 1.877 1.877 0 0 0 -1.875-1.872z"/><path d="m5.514 32.833a2.875 2.875 0 1 1 2.875-2.875 2.878 2.878 0 0 1 -2.875 2.875zm0-4.75a1.875 1.875 0 1 0 1.875 1.875 1.877 1.877 0 0 0 -1.875-1.875z"/><path d="m6.583 22.968a2.875 2.875 0 1 1 2.875-2.875 2.878 2.878 0 0 1 -2.875 2.875zm0-4.75a1.875 1.875 0 1 0 1.875 1.875 1.877 1.877 0 0 0 -1.875-1.875z"/><path d="m67.417 22.968a2.875 2.875 0 1 1 2.875-2.875 2.878 2.878 0 0 1 -2.875 2.875zm0-4.75a1.875 1.875 0 1 0 1.875 1.875 1.877 1.877 0 0 0 -1.875-1.875z"/><path d="m67.417 53.343a2.875 2.875 0 1 1 2.875-2.875 2.878 2.878 0 0 1 -2.875 2.875zm0-4.75a1.875 1.875 0 1 0 1.875 1.875 1.877 1.877 0 0 0 -1.875-1.875z"/><path d="m6.583 53.343a2.875 2.875 0 1 1 2.875-2.875 2.878 2.878 0 0 1 -2.875 2.875zm0-4.75a1.875 1.875 0 1 0 1.875 1.875 1.877 1.877 0 0 0 -1.875-1.875z"/></g><rect fill="#fcd462" height="22.91" rx="3.901" width="22.919" x="25.54" y="23.825"/><path d="m48.46 27.73v15.1a3.912 3.912 0 0 1 -2.11 3.47 3.6 3.6 0 0 0 .27-1.4v-15.11a3.9 3.9 0 0 0 -3.9-3.9h-15.12a3.736 3.736 0 0 0 -1.79.44 3.863 3.863 0 0 1 3.63-2.5h15.12a3.9 3.9 0 0 1 3.9 3.9z" fill="#f7be56"/><rect fill="#27ccbc" height="15.936" rx="1.455" width="15.945" x="29.028" y="27.313"/><path d="m43.518 43.748h-13.036a1.957 1.957 0 0 1 -1.955-1.955v-13.025a1.957 1.957 0 0 1 1.955-1.955h13.036a1.957 1.957 0 0 1 1.955 1.955v13.025a1.957 1.957 0 0 1 -1.955 1.955zm-13.036-15.935a.956.956 0 0 0 -.955.955v13.025a.956.956 0 0 0 .955.955h13.036a.956.956 0 0 0 .955-.955v-13.025a.956.956 0 0 0 -.955-.955z" fill="#323c6b"/><path d="m34.083 36.183-.865 2.417h-1.113l2.831-7.672h1.3l2.841 7.672h-1.149l-.891-2.413zm2.731-.774-.814-2.209c-.186-.5-.309-.956-.433-1.4h-.024c-.124.456-.26.922-.42 1.389l-.816 2.22z" fill="#323c6b"/><path d="m41.38 30.924v7.676h-1.08v-7.676z" fill="#323c6b"/><path d="m44.694 47.02h-15.118a4.405 4.405 0 0 1 -4.4-4.4v-15.11a4.405 4.405 0 0 1 4.4-4.4h15.118a4.405 4.405 0 0 1 4.4 4.4v15.11a4.405 4.405 0 0 1 -4.4 4.4zm-15.118-22.91a3.4 3.4 0 0 0 -3.4 3.4v15.11a3.4 3.4 0 0 0 3.4 3.4h15.118a3.4 3.4 0 0 0 3.4-3.4v-15.11a3.4 3.4 0 0 0 -3.4-3.4z" fill="#323c6b"/><path d="m24.538 60.9a.567.567 0 0 1 .569-.566l6.963.018a.567.567 0 0 1 0 1.135l-6.97-.019a.567.567 0 0 1 -.562-.568z" fill="#fff"/><path d="m22.021 60.892a.567.567 0 0 1 .569-.566h.3a.567.567 0 0 1 0 1.135h-.3a.567.567 0 0 1 -.569-.569z" fill="#fff"/><path d="m60.02 67.663a.529.529 0 0 1 -.1-.009.5.5 0 0 1 -.4-.586c.036-.187.065-.377.09-.568a.5.5 0 0 1 .992.125c-.026.213-.06.424-.1.633a.5.5 0 0 1 -.482.405z" fill="#323c6b"/><path d="m13.814 13.219a.5.5 0 0 1 -.5-.5v-.562a.5.5 0 0 1 1 0v.563a.5.5 0 0 1 -.5.499z" fill="#323c6b"/><path d="m13.814 10.281a.5.5 0 0 1 -.5-.5v-1.323a8.977 8.977 0 0 1 4.521-7.765.5.5 0 0 1 .5.868 7.974 7.974 0 0 0 -4.017 6.9v1.32a.5.5 0 0 1 -.504.5z" fill="#323c6b"/><path d="m60.186 64.438a.5.5 0 0 1 -.5-.5v-8.438a.5.5 0 0 1 1 0v8.438a.5.5 0 0 1 -.5.5z" fill="#323c6b"/></svg>