<svg id="color_line" height="512" viewBox="0 0 74 74" width="512" xmlns="http://www.w3.org/2000/svg" data-name="color line"><path d="m49.5 18.84-2.141-5.08a1.916 1.916 0 0 0 -1.811-1.23h-17.214a1.916 1.916 0 0 0 -1.811 1.23l-2.137 5.08" fill="#9297ab"/><path d="m43.528 3h-13.173a2.079 2.079 0 0 0 -2.079 2.079v7.451h17.331v-7.451a2.079 2.079 0 0 0 -2.079-2.079z" fill="#e7aa6c"/><path d="m24.386 55.16 2.138 5.079a1.916 1.916 0 0 0 1.811 1.23h17.213a1.916 1.916 0 0 0 1.811-1.23l2.141-5.079" fill="#9297ab"/><path d="m30.355 71h13.173a2.079 2.079 0 0 0 2.079-2.079v-7.451h-17.331v7.451a2.079 2.079 0 0 0 2.079 2.079z" fill="#e7aa6c"/><path d="m45.61 5.08v7.45h-2.71v-4.99a2.078 2.078 0 0 0 -2.08-2.08h-12.54v-.38a2.076 2.076 0 0 1 2.07-2.08h13.18a2.078 2.078 0 0 1 2.08 2.08z" fill="#d09865"/><path d="m45.61 61.47v7.45a2.078 2.078 0 0 1 -2.08 2.08h-2.71a2.078 2.078 0 0 0 2.08-2.08v-7.45z" fill="#d09865"/><path d="m59.093 39.083a.5.5 0 0 1 -.5-.5v-5.833a.5.5 0 0 1 1 0v5.833a.5.5 0 0 1 -.5.5z" fill="#323c6b"/><rect fill="#9297ab" height="36.321" rx="5.501" width="36.321" x="18.781" y="18.84"/><path d="m49.5 18.84h-2.88l-2.14-5.08a1.905 1.905 0 0 0 -1.81-1.23h2.88a1.915 1.915 0 0 1 1.81 1.23z" fill="#84879c"/><path d="m49.5 55.16-2.14 5.08a1.915 1.915 0 0 1 -1.81 1.23h-2.88a1.905 1.905 0 0 0 1.81-1.23l2.14-5.08z" fill="#84879c"/><path d="m55.1 24.34v25.32a5.5 5.5 0 0 1 -5.5 5.5h-2.87a5.5 5.5 0 0 0 5.5-5.5v-25.32a5.5 5.5 0 0 0 -5.5-5.5h2.87a5.5 5.5 0 0 1 5.5 5.5z" fill="#84879c"/><rect fill="#89c5cd" height="27.439" rx="1.501" transform="matrix(0 -1 1 0 -.059 73.941)" width="27.44" x="23.221" y="23.28"/><path d="m49.159 51.22h-24.436a2 2 0 0 1 -2-2v-24.439a2 2 0 0 1 2-2h24.436a2 2 0 0 1 2 2v24.438a2 2 0 0 1 -2 2.001zm-24.436-27.44a1 1 0 0 0 -1 1v24.439a1 1 0 0 0 1 1h24.436a1 1 0 0 0 1-1v-24.438a1 1 0 0 0 -1-1z" fill="#323c6b"/><path d="m59.093 36.167h-3.993a.5.5 0 0 1 0-1h3.991a.5.5 0 0 1 0 1z" fill="#323c6b"/><rect fill="#e1e6e9" height="13.051" rx="1.155" width="15.561" x="29.161" y="32.938"/><path d="m43.567 46.488h-13.252a1.656 1.656 0 0 1 -1.654-1.654v-10.742a1.656 1.656 0 0 1 1.654-1.654h13.252a1.656 1.656 0 0 1 1.654 1.654v10.742a1.656 1.656 0 0 1 -1.654 1.654zm-13.252-13.05a.655.655 0 0 0 -.654.654v10.742a.655.655 0 0 0 .654.654h13.252a.655.655 0 0 0 .654-.654v-10.742a.655.655 0 0 0 -.654-.654z" fill="#323c6b"/><path d="m44.722 42.616a3.5 3.5 0 1 0 0-7z" fill="#e1e6e9"/><path d="m44.722 43.116a.5.5 0 0 1 -.5-.5v-7a.5.5 0 0 1 .5-.5 4.212 4.212 0 0 1 4.091 4 4.212 4.212 0 0 1 -4.091 4zm.5-6.951v5.9a3.209 3.209 0 0 0 2.591-2.95 3.21 3.21 0 0 0 -2.591-2.949z" fill="#323c6b"/><path d="m29.161 42.616a3.5 3.5 0 1 1 0-7z" fill="#e1e6e9"/><path d="m29.161 43.116a4.212 4.212 0 0 1 -4.091-4 4.212 4.212 0 0 1 4.091-4 .5.5 0 0 1 .5.5v7a.5.5 0 0 1 -.5.5zm-.5-6.951a3.21 3.21 0 0 0 -2.591 2.95 3.209 3.209 0 0 0 2.591 2.95z" fill="#323c6b"/><circle cx="36.941" cy="27.56" fill="#eeefee" r="1.497"/><path d="m36.941 29.557a2 2 0 1 1 2-2 2 2 0 0 1 -2 2zm0-2.994a1 1 0 1 0 1 1 1 1 0 0 0 -1-1z" fill="#323c6b"/><path d="m39.192 43.042h-4.5a.5.5 0 0 1 0-1h4.5a.5.5 0 0 1 0 1z" fill="#323c6b"/><path d="m36.941 33.435a.5.5 0 0 1 -.5-.5v-3.875a.5.5 0 1 1 1 0v3.875a.5.5 0 0 1 -.5.5z" fill="#323c6b"/><circle cx="33.541" cy="37.958" fill="#707583" r="1.312"/><path d="m33.541 39.771a1.812 1.812 0 1 1 1.813-1.812 1.814 1.814 0 0 1 -1.813 1.812zm0-2.624a.812.812 0 1 0 .813.812.813.813 0 0 0 -.813-.813z" fill="#323c6b"/><circle cx="40.341" cy="37.958" fill="#707583" r="1.312"/><g fill="#323c6b"><path d="m40.341 39.771a1.812 1.812 0 1 1 1.813-1.812 1.814 1.814 0 0 1 -1.813 1.812zm0-2.624a.812.812 0 1 0 .813.812.813.813 0 0 0 -.813-.813z"/><path d="m49.5 19.339a.5.5 0 0 1 -.461-.306l-2.139-5.079a1.424 1.424 0 0 0 -1.35-.924h-17.216a1.417 1.417 0 0 0 -1.341.9l-2.146 5.1a.5.5 0 1 1 -.922-.388l2.138-5.079a2.414 2.414 0 0 1 2.271-1.536h17.214a2.419 2.419 0 0 1 2.28 1.558l2.13 5.057a.5.5 0 0 1 -.267.655.508.508 0 0 1 -.191.042z"/><path d="m45.548 61.97h-17.214a2.422 2.422 0 0 1 -2.28-1.558l-2.129-5.058a.5.5 0 1 1 .922-.388l2.138 5.079a1.426 1.426 0 0 0 1.35.924h17.213a1.416 1.416 0 0 0 1.341-.9l2.147-5.1a.5.5 0 1 1 .922.388l-2.139 5.079a2.411 2.411 0 0 1 -2.271 1.534z"/><path d="m49.6 55.661h-25.318a6.008 6.008 0 0 1 -6-6v-25.32a6.008 6.008 0 0 1 6-6h25.318a6.008 6.008 0 0 1 6 6v25.318a6.008 6.008 0 0 1 -6 6.002zm-25.318-36.322a5.007 5.007 0 0 0 -5 5v25.32a5.007 5.007 0 0 0 5 5h25.318a5.007 5.007 0 0 0 5-5v-25.318a5.007 5.007 0 0 0 -5-5z"/><path d="m45.606 13.03h-17.33a.5.5 0 0 1 -.5-.5v-7.451a2.581 2.581 0 0 1 2.578-2.579h13.173a2.582 2.582 0 0 1 2.579 2.579v7.451a.5.5 0 0 1 -.5.5zm-16.83-1h16.33v-6.951a1.581 1.581 0 0 0 -1.579-1.579h-13.173a1.581 1.581 0 0 0 -1.578 1.579z"/><path d="m43.527 71.5h-13.173a2.581 2.581 0 0 1 -2.578-2.579v-7.451a.5.5 0 0 1 .5-.5h17.33a.5.5 0 0 1 .5.5v7.451a2.582 2.582 0 0 1 -2.579 2.579zm-14.751-9.53v6.951a1.581 1.581 0 0 0 1.578 1.579h13.173a1.581 1.581 0 0 0 1.579-1.579v-6.951z"/></g><path d="m30.538 15.94a.567.567 0 0 1 .569-.566l6.963.018a.567.567 0 0 1 0 1.135l-6.97-.018a.567.567 0 0 1 -.562-.569z" fill="#fff"/><path d="m28.021 15.934a.567.567 0 0 1 .569-.566h.3a.567.567 0 0 1 0 1.135h-.3a.567.567 0 0 1 -.569-.569z" fill="#fff"/><path d="m55.554 56.22a.5.5 0 0 1 -.356-.15.5.5 0 0 1 .006-.707 7.933 7.933 0 0 0 2.4-5.7v-.6a.5.5 0 0 1 1 0v.6a8.93 8.93 0 0 1 -2.7 6.417.5.5 0 0 1 -.35.14z" fill="#323c6b"/><path d="m58.1 47.063a.5.5 0 0 1 -.5-.5v-.781a.5.5 0 0 1 1 0v.781a.5.5 0 0 1 -.5.5z" fill="#323c6b"/><path d="m25.276 11.042a.5.5 0 0 1 -.5-.5v-.5a.5.5 0 1 1 1 0v.5a.5.5 0 0 1 -.5.5z" fill="#323c6b"/><path d="m25.276 8.042a.5.5 0 0 1 -.5-.5v-2.463a5.575 5.575 0 0 1 3.4-5.137.5.5 0 1 1 .391.92 4.578 4.578 0 0 0 -2.794 4.217v2.463a.5.5 0 0 1 -.497.5z" fill="#323c6b"/></svg>