<svg id="color_line" height="512" viewBox="0 0 74 74" width="512" xmlns="http://www.w3.org/2000/svg" data-name="color line"><path d="m57.425 46.264v2.524a13.234 13.234 0 0 1 -3.857 9.321l-4.856 4.856a13.167 13.167 0 0 1 -9.338 3.865h-2.374v-39.184l20.425.142v5.623" fill="#27ccbc"/><path d="m57.43 27.79v21a13.254 13.254 0 0 1 -3.86 9.32l-4.86 4.86a13.164 13.164 0 0 1 -9.34 3.86h-2.37v-1.94h.27a13.164 13.164 0 0 0 9.34-3.86l4.86-4.86a13.245 13.245 0 0 0 3.85-9.32v-19.07z" fill="#21b3a9"/><path d="m16.575 46.264v2.524a13.234 13.234 0 0 0 3.857 9.321l4.856 4.856a13.167 13.167 0 0 0 9.338 3.865h2.374v-39.184l-20.425.142v5.623" fill="#27ccbc"/><path d="m37 64.89v1.94h-2.37a13.164 13.164 0 0 1 -9.34-3.86l-4.86-4.86a13.254 13.254 0 0 1 -3.86-9.32v-1.94a13.254 13.254 0 0 0 3.86 9.32l4.86 4.86a13.164 13.164 0 0 0 9.34 3.86z" fill="#21b3a9"/><g fill="#323c6b"><path d="m20.432 58.609a.5.5 0 0 1 -.264-.925l7.65-4.731-10.382-18.861a.5.5 0 0 1 .157-.655l8.914-6.064a.507.507 0 0 1 .4-.073.5.5 0 0 1 .322.242l4.183 7.458 5.326-3.278a.5.5 0 0 1 .524.852l-5.77 3.551a.5.5 0 0 1 -.7-.181l-4.176-7.442-8.087 5.5 10.395 18.885a.5.5 0 0 1 -.175.667l-8.054 4.981a.5.5 0 0 1 -.263.074z"/><path d="m17.682 54.565a.5.5 0 0 1 -.254-.931l4.054-2.391-1.46-3.043a.5.5 0 0 1 .2-.648l3.92-2.295a.5.5 0 1 1 .5.863l-3.523 2.062 1.459 3.038a.5.5 0 0 1 -.2.647l-4.443 2.633a.5.5 0 0 1 -.253.065z"/><path d="m33.611 66.884a.5.5 0 0 1 -.416-.222l-7.775-11.617a.5.5 0 1 1 .831-.557l7.775 11.617a.5.5 0 0 1 -.415.778z"/><path d="m28.745 59.613a.5.5 0 0 1 -.294-.9l8.256-5.985a.5.5 0 1 1 .587.81l-8.256 5.985a.5.5 0 0 1 -.293.09z"/><path d="m23.958 45.4a.5.5 0 0 1 -.262-.926l13.042-8.021a.5.5 0 0 1 .523.852l-13.042 8.022a.5.5 0 0 1 -.261.073z"/><path d="m21.357 40.677a.5.5 0 0 1 -.276-.917l4.081-2.695-3.471-5.849a.5.5 0 0 1 .86-.511l3.714 6.259a.5.5 0 0 1 -.155.673l-4.479 2.958a.5.5 0 0 1 -.274.082z"/><path d="m35.849 53.97a.5.5 0 0 1 -.437-.255l-3.789-6.749-4.868 2.974a.5.5 0 0 1 -.521-.854l5.311-3.245a.494.494 0 0 1 .387-.057.5.5 0 0 1 .31.239l4.042 7.2a.5.5 0 0 1 -.436.745z"/><path d="m31.788 46.714a.5.5 0 0 1 -.5-.5v-6.13a.5.5 0 1 1 1 0v6.129a.5.5 0 0 1 -.5.501z"/><path d="m53.568 58.609a.5.5 0 0 1 -.263-.075l-8.054-4.981a.5.5 0 0 1 -.175-.667l10.393-18.878-8.087-5.5-4.176 7.442a.5.5 0 0 1 -.7.181l-5.77-3.551a.5.5 0 0 1 .524-.852l5.328 3.272 4.188-7.463a.5.5 0 0 1 .717-.169l8.914 6.064a.5.5 0 0 1 .157.655l-10.383 18.866 7.65 4.731a.5.5 0 0 1 -.264.925z"/><path d="m56.318 54.565a.5.5 0 0 1 -.253-.069l-4.45-2.625a.5.5 0 0 1 -.2-.647l1.459-3.038-3.523-2.062a.5.5 0 0 1 .5-.863l3.92 2.295a.5.5 0 0 1 .2.648l-1.459 3.039 4.054 2.391a.5.5 0 0 1 -.254.931z"/><path d="m40.389 66.884a.5.5 0 0 1 -.415-.778l7.775-11.617a.5.5 0 0 1 .831.557l-7.78 11.616a.5.5 0 0 1 -.411.222z"/><path d="m45.255 59.613a.5.5 0 0 1 -.293-.1l-8.256-5.985a.5.5 0 1 1 .587-.81l8.256 5.985a.5.5 0 0 1 -.294.9z"/><path d="m50.042 45.4a.5.5 0 0 1 -.261-.074l-13.041-8.02a.5.5 0 1 1 .523-.852l13.037 8.021a.5.5 0 0 1 -.262.926z"/><path d="m52.643 40.677a.5.5 0 0 1 -.275-.083l-4.479-2.958a.5.5 0 0 1 -.155-.673l3.714-6.259a.5.5 0 0 1 .86.511l-3.471 5.849 4.081 2.695a.5.5 0 0 1 -.276.917z"/><path d="m38.151 53.97a.5.5 0 0 1 -.436-.745l4.042-7.2a.5.5 0 0 1 .7-.182l5.311 3.245a.5.5 0 0 1 -.521.854l-4.868-2.974-3.789 6.749a.5.5 0 0 1 -.439.253z"/><path d="m42.212 46.714a.5.5 0 0 1 -.5-.5v-6.13a.5.5 0 0 1 1 0v6.129a.5.5 0 0 1 -.5.501z"/><path d="m4 16.268a.5.5 0 0 1 -.5-.5v-12.268a.5.5 0 0 1 .5-.5h12.268a.5.5 0 0 1 0 1h-11.768v11.768a.5.5 0 0 1 -.5.5z"/><path d="m70 16.268a.5.5 0 0 1 -.5-.5v-11.768h-11.768a.5.5 0 0 1 0-1h12.268a.5.5 0 0 1 .5.5v12.268a.5.5 0 0 1 -.5.5z"/><path d="m16.268 71.209h-12.268a.5.5 0 0 1 -.5-.5v-12.268a.5.5 0 0 1 1 0v11.768h11.768a.5.5 0 1 1 0 1z"/><path d="m70 71.209h-12.268a.5.5 0 0 1 0-1h11.768v-11.768a.5.5 0 0 1 1 0v12.268a.5.5 0 0 1 -.5.5z"/></g><path d="m15.033 33.408h2.29a1.354 1.354 0 0 1 1.354 1.354v10.152a1.354 1.354 0 0 1 -1.354 1.354h-2.29c-1.591 0-2.881-1.606-2.881-3.588v-5.68c0-1.986 1.29-3.592 2.881-3.592z" fill="#9297ab"/><path d="m17.323 46.768h-2.29c-1.864 0-3.38-1.833-3.38-4.087v-5.681c0-2.254 1.517-4.087 3.38-4.087h2.291a1.856 1.856 0 0 1 1.854 1.854v10.147a1.856 1.856 0 0 1 -1.855 1.854zm-2.291-12.86c-1.312 0-2.38 1.385-2.38 3.087v5.685c0 1.7 1.068 3.087 2.38 3.087h2.291a.855.855 0 0 0 .854-.854v-10.151a.855.855 0 0 0 -.854-.854z" fill="#323c6b"/><path d="m58.967 33.408h-2.29a1.354 1.354 0 0 0 -1.354 1.354v10.152a1.354 1.354 0 0 0 1.354 1.354h2.29c1.591 0 2.881-1.606 2.881-3.588v-5.68c0-1.986-1.29-3.592-2.881-3.592z" fill="#9297ab"/><path d="m58.967 46.768h-2.29a1.856 1.856 0 0 1 -1.854-1.854v-10.152a1.856 1.856 0 0 1 1.854-1.854h2.291c1.864 0 3.38 1.833 3.38 4.087v5.685c0 2.255-1.517 4.088-3.381 4.088zm-2.291-12.86a.855.855 0 0 0 -.854.854v10.152a.855.855 0 0 0 .854.854h2.291c1.313 0 2.38-1.385 2.38-3.087v-5.681c0-1.7-1.068-3.087-2.38-3.087z" fill="#323c6b"/><path d="m57.309 27.786h-40.624a19 19 0 0 1 .023-4.279 18.4 18.4 0 0 1 9.558-13.56 22.135 22.135 0 0 1 21.472 0 18.4 18.4 0 0 1 9.558 13.56 19 19 0 0 1 .013 4.279z" fill="#9297ab"/><path d="m57.31 27.79h-2.39a15.821 15.821 0 0 0 -.13-2.47 18.391 18.391 0 0 0 -9.55-13.56 22.171 22.171 0 0 0 -21.48 0c-.26.15-.53.3-.79.46a19.756 19.756 0 0 1 3.29-2.27 22.118 22.118 0 0 1 21.48 0 18.391 18.391 0 0 1 9.55 13.56 18.562 18.562 0 0 1 .02 4.28z" fill="#84879c"/><path d="m57.31 28.286h-40.625a.5.5 0 0 1 -.495-.428 19.458 19.458 0 0 1 .024-4.434 18.792 18.792 0 0 1 9.807-13.914 22.691 22.691 0 0 1 21.959 0 18.793 18.793 0 0 1 9.808 13.915 19.494 19.494 0 0 1 .017 4.433.5.5 0 0 1 -.495.428zm-40.178-1h39.73a18.812 18.812 0 0 0 -.061-3.7 17.837 17.837 0 0 0 -9.309-13.207 21.689 21.689 0 0 0 -20.984 0 17.836 17.836 0 0 0 -9.308 13.21 18.927 18.927 0 0 0 -.069 3.697z" fill="#323c6b"/><path d="m39.374 67.331h-2.374a.5.5 0 0 1 -.5-.5v-39.185a.5.5 0 0 1 .147-.355.445.445 0 0 1 .353-.145l20.425.142a.5.5 0 0 1 .5.5v5.623a.5.5 0 0 1 -1 0v-5.126l-19.425-.135v38.181h1.874a12.593 12.593 0 0 0 8.984-3.718l4.857-4.857a12.655 12.655 0 0 0 3.71-8.968v-2.524a.5.5 0 0 1 1 0v2.524a13.65 13.65 0 0 1 -4 9.674l-4.858 4.857a13.585 13.585 0 0 1 -9.693 4.012z" fill="#323c6b"/><path d="m37 67.331h-2.374a13.585 13.585 0 0 1 -9.692-4.012l-4.856-4.856a13.649 13.649 0 0 1 -4-9.675v-2.524a.5.5 0 0 1 1 0v2.524a12.655 12.655 0 0 0 3.712 8.969l4.855 4.855a12.593 12.593 0 0 0 8.984 3.719h1.871v-38.181l-19.425.135v5.126a.5.5 0 0 1 -1 0v-5.623a.5.5 0 0 1 .5-.5l20.425-.142a.493.493 0 0 1 .356.145.5.5 0 0 1 .147.355v39.185a.5.5 0 0 1 -.503.5z" fill="#323c6b"/><path d="m23.425 24.6a.606.606 0 0 1 .608-.6h6.467a.606.606 0 0 1 0 1.213l-6.469-.006a.606.606 0 0 1 -.606-.607z" fill="#fff"/><path d="m21.172 24.592a.606.606 0 0 1 .608-.6h.339a.606.606 0 1 1 0 1.213h-.339a.607.607 0 0 1 -.608-.613z" fill="#fff"/><path d="m19.688 11.708a.5.5 0 0 1 -.355-.852l.183-.19c.107-.113.215-.226.329-.333a.5.5 0 1 1 .687.728c-.1.1-.2.195-.291.295l-.2.205a.5.5 0 0 1 -.353.147z" fill="#323c6b"/><path d="m22.313 9.429a.5.5 0 0 1 -.3-.9 24.766 24.766 0 0 1 2.547-1.639 25.169 25.169 0 0 1 4.729-2.028.5.5 0 0 1 .3.954 24.2 24.2 0 0 0 -4.54 1.947 23.79 23.79 0 0 0 -2.439 1.569.5.5 0 0 1 -.297.097z" fill="#323c6b"/><path d="m57.226 58.938a.5.5 0 0 1 -.4-.8 15.5 15.5 0 0 0 2.865-6.723.5.5 0 0 1 .986.166 16.5 16.5 0 0 1 -3.049 7.152.5.5 0 0 1 -.402.205z" fill="#323c6b"/><path d="m55.233 61.188a.5.5 0 0 1 -.354-.854l.188-.187a.5.5 0 0 1 .707.707l-.187.188a.5.5 0 0 1 -.354.146z" fill="#323c6b"/></svg>