<svg id="color_line" height="512" viewBox="0 0 74 74" width="512" xmlns="http://www.w3.org/2000/svg" data-name="color line"><path d="m17.193 19.438c1.288-4.645 5.151-8.036 9.694-8.036a5.754 5.754 0 0 1 1.343.123 10.324 10.324 0 0 1 8.3-4.357 10.064 10.064 0 0 1 7.5 3.453 9.661 9.661 0 0 1 4.875-1.315 10.388 10.388 0 0 1 9.381 6.556c5.794.514 10.338 5.939 10.338 12.536v.092a7.86 7.86 0 0 1 -7.553 8h-48.731c-2.923-.524-4.278-3.007-4.245-6.323.441-6.487 5.53-9.393 9.098-10.729z" fill="#eeefee"/><path d="m68.62 28.4v.09a8.353 8.353 0 0 1 -1.3 4.44 9.183 9.183 0 0 0 .18-1.67v-.09c0-6.6-4.54-12.02-10.34-12.54a10.387 10.387 0 0 0 -9.38-6.55 9.646 9.646 0 0 0 -4.87 1.31 10.117 10.117 0 0 0 -7.51-3.45 10.308 10.308 0 0 0 -8.29 4.36c-.43-.11.46.013 0 0-4.079-.112-8.508 3.266-9.8 7.916-2.51.94-7.023 2.654-8.883 5.854 1.26-5.04 5.6-7.45 8.76-8.63 1.29-4.65 5.15-8.04 9.7-8.04a5.351 5.351 0 0 1 1.34.13 10.314 10.314 0 0 1 8.3-4.36 10.044 10.044 0 0 1 7.5 3.45 9.682 9.682 0 0 1 4.88-1.31 10.4 10.4 0 0 1 9.38 6.55c5.793.52 10.333 5.94 10.333 12.54z" fill="#e1e6e9"/><g fill="#323c6b"><path d="m46.578 21.194a.5.5 0 0 1 -.323-.119c-4.461-3.781-3.942-7.9-2.721-10.7a.5.5 0 1 1 .916.4c-1.579 3.612-.754 6.82 2.451 9.536a.5.5 0 0 1 -.324.881z"/><path d="m38.359 20.657a.5.5 0 0 1 -.126-.984c3.27-.854 4.531-4.36 4.543-4.4a.5.5 0 0 1 .945.328c-.057.165-1.44 4.044-5.235 5.036a.517.517 0 0 1 -.127.02z"/><path d="m20.058 25.507a.5.5 0 0 1 -.25-.067 5.917 5.917 0 0 1 -3.1-6.119.5.5 0 0 1 .978.208 4.842 4.842 0 0 0 2.624 5.045.5.5 0 0 1 -.25.933z"/><path d="m55.608 21.194a.5.5 0 0 1 -.335-.871 8.289 8.289 0 0 0 2.492-4.653.5.5 0 0 1 .98.2 9.263 9.263 0 0 1 -2.8 5.2.5.5 0 0 1 -.337.124z"/><path d="m28.169 27.209a.5.5 0 0 1 -.456-.705 7.961 7.961 0 0 0 .628-3.965.5.5 0 0 1 1-.082 8.949 8.949 0 0 1 -.713 4.457.5.5 0 0 1 -.459.295z"/><path d="m48.475 29.555a8.351 8.351 0 0 1 -.911-.05.5.5 0 1 1 .11-.994 7.954 7.954 0 0 0 3.966-.621.5.5 0 1 1 .385.923 9.186 9.186 0 0 1 -3.55.742z"/><path d="m30.784 15.592a.5.5 0 0 1 -.5-.5 3.482 3.482 0 0 0 -2.224-3.092.5.5 0 0 1 .341-.94 4.445 4.445 0 0 1 2.884 4.036.5.5 0 0 1 -.501.496z"/><path d="m37 54.843h-6a.5.5 0 0 1 0-1h5.5v-17.343a.5.5 0 0 1 1 0v17.843a.5.5 0 0 1 -.5.5z"/><path d="m20.573 65.064h-7.273a.5.5 0 0 1 -.5-.5 1.769 1.769 0 0 0 -1.771-1.764 1.687 1.687 0 0 0 -.873.241.511.511 0 0 1 -.382.054.5.5 0 0 1 -.307-.234l-3.643-6.317a.5.5 0 0 1 .188-.686 1.75 1.75 0 0 0 0-3.044.5.5 0 0 1 -.184-.683l3.633-6.293a.5.5 0 0 1 .678-.186 1.828 1.828 0 0 0 .894.236 1.769 1.769 0 0 0 1.767-1.767.5.5 0 0 1 .5-.5h7.277a.5.5 0 0 1 .5.5 1.764 1.764 0 0 0 1.756 1.767 1.828 1.828 0 0 0 .894-.236.5.5 0 0 1 .678.186l3.644 6.293a.5.5 0 0 1 -.183.684 1.767 1.767 0 0 0 -.888 1.523 1.742 1.742 0 0 0 .883 1.521.5.5 0 0 1 .188.687l-3.659 6.312a.5.5 0 0 1 -.307.233.493.493 0 0 1 -.381-.054 1.69 1.69 0 0 0 -.873-.24 1.764 1.764 0 0 0 -1.756 1.767.5.5 0 0 1 -.5.5zm-6.822-1h6.367a2.764 2.764 0 0 1 2.711-2.264 2.7 2.7 0 0 1 .925.164l3.194-5.52a2.75 2.75 0 0 1 0-4.2l-3.189-5.509a2.818 2.818 0 0 1 -.932.16 2.764 2.764 0 0 1 -2.711-2.267h-6.366a2.771 2.771 0 0 1 -2.721 2.267 2.817 2.817 0 0 1 -.931-.159l-3.179 5.499a2.752 2.752 0 0 1 0 4.206l3.181 5.519a2.711 2.711 0 0 1 .925-.163 2.771 2.771 0 0 1 2.725 2.267z"/></g><path d="m13.3 44.121a2.266 2.266 0 0 1 -2.267 2.267 2.333 2.333 0 0 1 -1.139-.3 2.269 2.269 0 1 1 3.406-1.967z" fill="#fcd462"/><path d="m11.029 46.888a2.835 2.835 0 0 1 -1.384-.364 2.776 2.776 0 1 1 1.384.364zm0-4.534a1.771 1.771 0 0 0 -.886 3.3 1.823 1.823 0 0 0 .886.231 1.767 1.767 0 0 0 0-3.534z" fill="#323c6b"/><path d="m7.4 54.337a2.237 2.237 0 0 1 -1.139 1.956 2.2 2.2 0 0 1 -1.128.311 2.262 2.262 0 1 1 0-4.523 2.188 2.188 0 0 1 1.128.3 2.25 2.25 0 0 1 1.139 1.956z" fill="#fcd462"/><path d="m5.129 57.1a2.761 2.761 0 1 1 0-5.523 2.674 2.674 0 0 1 1.383.37 2.75 2.75 0 0 1 -.012 4.783 2.7 2.7 0 0 1 -1.371.37zm0-4.523a1.761 1.761 0 1 0 0 3.523 1.688 1.688 0 0 0 .871-.236 1.751 1.751 0 0 0 .005-3.05 1.692 1.692 0 0 0 -.876-.233z" fill="#323c6b"/><path d="m13.3 64.564a2.267 2.267 0 0 1 -4.534 0 2.237 2.237 0 0 1 1.134-1.956 2.2 2.2 0 0 1 1.128-.311 2.266 2.266 0 0 1 2.272 2.267z" fill="#fcd462"/><path d="m11.029 67.331a2.77 2.77 0 0 1 -2.767-2.767 2.741 2.741 0 0 1 1.394-2.392 2.7 2.7 0 0 1 1.373-.375 2.767 2.767 0 0 1 0 5.534zm0-4.534a1.687 1.687 0 0 0 -.873.241 1.745 1.745 0 0 0 -.894 1.526 1.767 1.767 0 1 0 1.767-1.764z" fill="#323c6b"/><path d="m25.1 44.121a2.279 2.279 0 0 1 -1.128 1.967 2.333 2.333 0 0 1 -1.139.3 2.267 2.267 0 1 1 2.267-2.267z" fill="#fcd462"/><path d="m22.829 46.888a2.751 2.751 0 1 1 1.391-.368 2.841 2.841 0 0 1 -1.391.368zm0-4.534a1.767 1.767 0 0 0 0 3.534 1.828 1.828 0 0 0 .894-.236 1.771 1.771 0 0 0 -.894-3.3z" fill="#323c6b"/><path d="m31 54.337a2.264 2.264 0 0 1 -2.26 2.263 2.2 2.2 0 0 1 -1.128-.311 2.237 2.237 0 0 1 -1.139-1.956 2.262 2.262 0 0 1 1.139-1.956 2.189 2.189 0 0 1 1.128-.3 2.262 2.262 0 0 1 2.26 2.26z" fill="#fcd462"/><path d="m28.74 57.1a2.789 2.789 0 0 1 -2.767-2.767 2.769 2.769 0 0 1 1.389-2.39 2.667 2.667 0 0 1 1.378-.367 2.761 2.761 0 0 1 0 5.523zm0-4.523a1.685 1.685 0 0 0 -.874.23 1.769 1.769 0 0 0 -.894 1.526 1.742 1.742 0 0 0 .883 1.521 1.7 1.7 0 0 0 .884.246 1.761 1.761 0 0 0 0-3.523z" fill="#323c6b"/><path d="m25.1 64.564a2.262 2.262 0 1 1 -2.271-2.264 2.2 2.2 0 0 1 1.128.311 2.237 2.237 0 0 1 1.143 1.953z" fill="#fcd462"/><path d="m22.829 67.331a2.767 2.767 0 0 1 0-5.534 2.791 2.791 0 0 1 2.771 2.767 2.77 2.77 0 0 1 -2.771 2.767zm0-4.534a1.767 1.767 0 1 0 1.771 1.767 1.74 1.74 0 0 0 -.883-1.52 1.7 1.7 0 0 0 -.888-.244z" fill="#323c6b"/><path d="m43 54.843h-6a.5.5 0 0 1 -.5-.5v-17.843a.5.5 0 0 1 1 0v17.343h5.5a.5.5 0 0 1 0 1z" fill="#323c6b"/><path d="m60.7 65.064h-7.273a.5.5 0 0 1 -.5-.5 1.764 1.764 0 0 0 -1.756-1.764 1.69 1.69 0 0 0 -.873.24.491.491 0 0 1 -.381.054.5.5 0 0 1 -.307-.233l-3.654-6.314a.5.5 0 0 1 .188-.687 1.742 1.742 0 0 0 .883-1.521 1.767 1.767 0 0 0 -.888-1.523.5.5 0 0 1 -.183-.684l3.644-6.295a.5.5 0 0 1 .678-.186 1.828 1.828 0 0 0 .894.236 1.764 1.764 0 0 0 1.756-1.767.5.5 0 0 1 .5-.5h7.272a.5.5 0 0 1 .5.5 1.769 1.769 0 0 0 1.767 1.767 1.828 1.828 0 0 0 .894-.236.5.5 0 0 1 .678.186l3.633 6.293a.5.5 0 0 1 -.184.683 1.75 1.75 0 0 0 0 3.044.5.5 0 0 1 .188.686l-3.644 6.314a.5.5 0 0 1 -.307.234.51.51 0 0 1 -.382-.054 1.687 1.687 0 0 0 -.873-.241 1.769 1.769 0 0 0 -1.77 1.768.5.5 0 0 1 -.5.5zm-6.822-1h6.372a2.771 2.771 0 0 1 2.721-2.264 2.711 2.711 0 0 1 .925.163l3.185-5.52a2.752 2.752 0 0 1 0-4.206l-3.181-5.508a2.817 2.817 0 0 1 -.931.159 2.771 2.771 0 0 1 -2.721-2.267h-6.366a2.764 2.764 0 0 1 -2.711 2.267 2.818 2.818 0 0 1 -.932-.16l-3.189 5.509a2.75 2.75 0 0 1 0 4.2l3.194 5.52a2.7 2.7 0 0 1 .925-.164 2.764 2.764 0 0 1 2.713 2.271z" fill="#323c6b"/><path d="m60.7 44.121a2.266 2.266 0 0 0 2.267 2.267 2.333 2.333 0 0 0 1.139-.3 2.269 2.269 0 1 0 -3.406-1.967z" fill="#fcd462"/><path d="m62.971 46.888a2.751 2.751 0 1 1 1.391-.368 2.841 2.841 0 0 1 -1.391.368zm0-4.534a1.767 1.767 0 0 0 0 3.534 1.828 1.828 0 0 0 .894-.236 1.771 1.771 0 0 0 -.894-3.3z" fill="#323c6b"/><path d="m66.6 54.337a2.237 2.237 0 0 0 1.139 1.956 2.2 2.2 0 0 0 1.128.311 2.262 2.262 0 1 0 0-4.523 2.188 2.188 0 0 0 -1.128.3 2.25 2.25 0 0 0 -1.139 1.956z" fill="#fcd462"/><path d="m68.871 57.1a2.76 2.76 0 0 1 -1.377-5.156 2.666 2.666 0 0 1 1.377-.367 2.761 2.761 0 1 1 0 5.523zm0-4.523a1.685 1.685 0 0 0 -.873.23 1.75 1.75 0 0 0 -.01 3.047 1.7 1.7 0 0 0 .883.246 1.761 1.761 0 1 0 0-3.523z" fill="#323c6b"/><path d="m60.7 64.564a2.267 2.267 0 1 0 4.534 0 2.237 2.237 0 0 0 -1.134-1.956 2.2 2.2 0 0 0 -1.128-.311 2.266 2.266 0 0 0 -2.272 2.267z" fill="#fcd462"/><path d="m62.971 67.331a2.767 2.767 0 0 1 0-5.534 2.79 2.79 0 0 1 2.767 2.767 2.77 2.77 0 0 1 -2.767 2.767zm0-4.534a1.767 1.767 0 1 0 1.767 1.767 1.74 1.74 0 0 0 -.883-1.52 1.7 1.7 0 0 0 -.884-.244z" fill="#323c6b"/><path d="m48.9 44.121a2.279 2.279 0 0 0 1.128 1.967 2.333 2.333 0 0 0 1.139.3 2.267 2.267 0 1 0 -2.267-2.267z" fill="#fcd462"/><path d="m51.171 46.888a2.835 2.835 0 0 1 -1.384-.364 2.771 2.771 0 0 1 1.384-5.17 2.767 2.767 0 0 1 0 5.534zm0-4.534a1.771 1.771 0 0 0 -.886 3.3 1.823 1.823 0 0 0 .886.231 1.767 1.767 0 0 0 0-3.534z" fill="#323c6b"/><path d="m43 54.337a2.264 2.264 0 0 0 2.26 2.263 2.2 2.2 0 0 0 1.128-.311 2.237 2.237 0 0 0 1.139-1.956 2.262 2.262 0 0 0 -1.139-1.956 2.189 2.189 0 0 0 -1.128-.3 2.262 2.262 0 0 0 -2.26 2.26z" fill="#fcd462"/><path d="m45.26 57.1a2.761 2.761 0 0 1 0-5.523 2.674 2.674 0 0 1 1.383.37 2.75 2.75 0 0 1 -.01 4.779 2.7 2.7 0 0 1 -1.373.374zm0-4.523a1.761 1.761 0 0 0 0 3.523 1.688 1.688 0 0 0 .874-.24 1.746 1.746 0 0 0 .894-1.526 1.767 1.767 0 0 0 -.888-1.523 1.693 1.693 0 0 0 -.88-.23z" fill="#323c6b"/><path d="m48.9 64.564a2.262 2.262 0 1 0 2.271-2.264 2.2 2.2 0 0 0 -1.128.311 2.237 2.237 0 0 0 -1.143 1.953z" fill="#fcd462"/><path d="m51.171 67.331a2.77 2.77 0 0 1 -2.771-2.767 2.741 2.741 0 0 1 1.4-2.392 2.7 2.7 0 0 1 1.373-.375 2.767 2.767 0 0 1 0 5.534zm0-4.534a1.69 1.69 0 0 0 -.873.24 1.746 1.746 0 0 0 -.894 1.526 1.762 1.762 0 1 0 1.767-1.763z" fill="#323c6b"/><path d="m61.071 37h-48.731c-3.085-.545-4.783-3.031-4.745-6.829.344-5.088 3.519-8.916 9.187-11.107 1.44-4.816 5.562-8.157 10.1-8.157a7.239 7.239 0 0 1 1.133.072 10.755 10.755 0 0 1 8.506-4.306 10.508 10.508 0 0 1 7.608 3.327 10.077 10.077 0 0 1 4.776-1.189 10.9 10.9 0 0 1 9.719 6.588c5.912.692 10.5 6.342 10.5 13v.1a8.335 8.335 0 0 1 -8.053 8.501zm-34.184-25.1c-4.172 0-7.96 3.154-9.212 7.669a.5.5 0 0 1 -.307.334c-5.5 2.058-8.451 5.523-8.774 10.3-.018 1.887.454 5.192 3.834 5.8l48.643-.003a7.335 7.335 0 0 0 7.053-7.508c0-6.348-4.34-11.636-9.881-12.127a.5.5 0 0 1 -.415-.3 9.941 9.941 0 0 0 -8.922-6.255 9.107 9.107 0 0 0 -4.624 1.248.5.5 0 0 1 -.622-.1 9.569 9.569 0 0 0 -7.134-3.288 9.8 9.8 0 0 0 -7.894 4.153.5.5 0 0 1 -.52.189 5.369 5.369 0 0 0 -1.225-.112z" fill="#323c6b"/><path d="m67.667 37.516a.5.5 0 0 1 -.323-.882 10.7 10.7 0 0 0 3.756-7.657.477.477 0 0 1 .523-.476.5.5 0 0 1 .476.523 11.7 11.7 0 0 1 -4.11 8.376.5.5 0 0 1 -.322.116z" fill="#323c6b"/><path d="m64.346 39.42a.5.5 0 0 1 -.159-.974c.182-.061.362-.126.538-.2a.5.5 0 0 1 .384.924c-.2.082-.4.156-.6.224a.5.5 0 0 1 -.163.026z" fill="#323c6b"/><path d="m31.833 5.589a.5.5 0 0 1 -.184-.965l.246-.1c.19-.08.381-.159.578-.221a.5.5 0 0 1 .3.953c-.169.054-.332.123-.5.191l-.264.108a.507.507 0 0 1 -.176.034z" fill="#323c6b"/><path d="m43.25 6.6a.5.5 0 0 1 -.263-.075 11.908 11.908 0 0 0 -8.168-1.725.5.5 0 1 1 -.138-.99 12.9 12.9 0 0 1 8.832 1.866.5.5 0 0 1 -.264.925z" fill="#323c6b"/><circle cx="20.573" cy="25.588" fill="#e1e6e9" r="1.963"/><path d="m20.573 28.052a2.463 2.463 0 1 1 2.463-2.463 2.466 2.466 0 0 1 -2.463 2.463zm0-3.927a1.463 1.463 0 1 0 1.463 1.463 1.465 1.465 0 0 0 -1.463-1.463z" fill="#323c6b"/><circle cx="30.784" cy="16.547" fill="#e1e6e9" r="1.963"/><path d="m30.784 19.01a2.463 2.463 0 1 1 2.463-2.463 2.466 2.466 0 0 1 -2.463 2.463zm0-3.927a1.463 1.463 0 1 0 1.463 1.463 1.465 1.465 0 0 0 -1.463-1.463z" fill="#323c6b"/><circle cx="37" cy="20.88" fill="#e1e6e9" r="1.963"/><path d="m37 23.344a2.464 2.464 0 1 1 2.463-2.463 2.466 2.466 0 0 1 -2.463 2.463zm0-3.927a1.464 1.464 0 1 0 1.463 1.464 1.465 1.465 0 0 0 -1.463-1.464z" fill="#323c6b"/><circle cx="47.167" cy="22.216" fill="#e1e6e9" r="1.963"/><path d="m47.167 24.68a2.463 2.463 0 1 1 2.464-2.463 2.466 2.466 0 0 1 -2.464 2.463zm0-3.927a1.463 1.463 0 1 0 1.464 1.463 1.465 1.465 0 0 0 -1.464-1.463z" fill="#323c6b"/><circle cx="54.5" cy="21.833" fill="#e1e6e9" r="1.963"/><path d="m54.5 24.3a2.463 2.463 0 1 1 2.463-2.463 2.466 2.466 0 0 1 -2.463 2.463zm0-3.927a1.463 1.463 0 1 0 1.463 1.463 1.465 1.465 0 0 0 -1.463-1.467z" fill="#323c6b"/></svg>