<svg id="color_line" height="512" viewBox="0 0 74 74" width="512" xmlns="http://www.w3.org/2000/svg" data-name="color line"><path d="m52.05 30.79v34.79a5.424 5.424 0 0 1 -5.42 5.42h-31.91a5.418 5.418 0 0 1 -5.42-5.42v-57.16a5.418 5.418 0 0 1 5.42-5.42h31.91a5.424 5.424 0 0 1 5.42 5.42v3.96" fill="#9297ab"/><path d="m52.05 8.42v57.16a5.4 5.4 0 0 1 -2.81 4.74 5.359 5.359 0 0 0 .31-1.8v-57.16a5.424 5.424 0 0 0 -5.42-5.42h-31.91a5.332 5.332 0 0 0 -2.61.67 5.42 5.42 0 0 1 5.11-3.61h31.91a5.424 5.424 0 0 1 5.42 5.42z" fill="#84879c"/><path d="m48.22 9.82v50.14a2.317 2.317 0 0 1 -2.31 2.31h-30.47a2.317 2.317 0 0 1 -2.31-2.31v-50.14a2.317 2.317 0 0 1 2.31-2.31h6.88l1.26 2.78a1.364 1.364 0 0 0 1.25.8h11.69a1.364 1.364 0 0 0 1.25-.8l1.26-2.78h6.88a2.317 2.317 0 0 1 2.31 2.31z" fill="#eeefee"/><path d="m45.91 62.77h-30.47a2.813 2.813 0 0 1 -2.81-2.81v-50.14a2.813 2.813 0 0 1 2.81-2.81h6.88a.5.5 0 0 1 .456.293l1.26 2.78a.867.867 0 0 0 .794.506h11.69a.868.868 0 0 0 .794-.5l1.261-2.789a.5.5 0 0 1 .456-.293h6.88a2.813 2.813 0 0 1 2.81 2.81v50.143a2.813 2.813 0 0 1 -2.811 2.81zm-30.47-54.76a1.812 1.812 0 0 0 -1.81 1.81v50.14a1.812 1.812 0 0 0 1.81 1.81h30.47a1.812 1.812 0 0 0 1.81-1.81v-50.14a1.812 1.812 0 0 0 -1.81-1.81h-6.557l-1.127 2.49a1.869 1.869 0 0 1 -1.706 1.09h-11.69a1.868 1.868 0 0 1 -1.706-1.1l-1.124-2.48z" fill="#323c6b"/><path d="m35.078 67.063h-8.807a.5.5 0 1 1 0-1h8.807a.5.5 0 0 1 0 1z" fill="#323c6b"/><path d="m64.7 15.494v12.177a3.119 3.119 0 0 1 -3.119 3.119h-10.025l-9.038 4.82v-4.82a3.119 3.119 0 0 1 -3.118-3.119v-12.177a3.119 3.119 0 0 1 3.119-3.119h19.062a3.119 3.119 0 0 1 3.119 3.119z" fill="#27ccbc"/><path d="m61.581 12.375h-19.064a3.117 3.117 0 0 0 -3.041 2.443 3.129 3.129 0 0 1 .643-.068h19.064a3.119 3.119 0 0 1 3.117 3.119v12.177a3.116 3.116 0 0 1 -.078.677 3.119 3.119 0 0 0 2.478-3.052v-12.177a3.119 3.119 0 0 0 -3.119-3.119z" fill="#21b3a9"/><g fill="#323c6b"><path d="m23.351 43.22-1.888 5.719h-2.428l6.178-18.183h2.833l6.2 18.183h-2.505l-1.941-5.719zm5.962-1.834-1.781-5.233c-.4-1.187-.674-2.267-.944-3.318h-.054c-.27 1.079-.567 2.185-.917 3.291l-1.78 5.261z"/><path d="m23.335 25.25a.5.5 0 0 1 -.444-.728 12.956 12.956 0 0 1 11.059-6.522.488.488 0 0 1 .511.489.5.5 0 0 1 -.489.511 12.172 12.172 0 0 0 -10.192 5.979.5.5 0 0 1 -.445.271z"/><path d="m23.335 25.417a.5.5 0 0 1 -.046-1l4.839-.456a.5.5 0 0 1 .544.451.5.5 0 0 1 -.451.544l-4.839.456a.39.39 0 0 1 -.047.005z"/><path d="m23.335 25.417a.5.5 0 0 1 -.5-.453l-.456-4.839a.5.5 0 0 1 .451-.544.493.493 0 0 1 .544.451l.456 4.839a.5.5 0 0 1 -.451.544.39.39 0 0 1 -.044.002z"/><path d="m46.63 71.5h-31.91a5.927 5.927 0 0 1 -5.92-5.92v-57.16a5.927 5.927 0 0 1 5.92-5.92h31.91a5.927 5.927 0 0 1 5.92 5.92v3.96a.5.5 0 0 1 -1 0v-3.96a4.925 4.925 0 0 0 -4.92-4.92h-31.91a4.926 4.926 0 0 0 -4.92 4.92v57.16a4.926 4.926 0 0 0 4.92 4.92h31.91a4.925 4.925 0 0 0 4.92-4.92v-34.79a.5.5 0 1 1 1 0v34.79a5.927 5.927 0 0 1 -5.92 5.92z"/><path d="m57.769 18.934h-11.439a.5.5 0 0 1 0-1h11.439a.5.5 0 0 1 0 1z"/><path d="m57.371 27.208a.492.492 0 0 1 -.142-.021c-8.256-2.436-9.168-8.431-9.2-8.685a.5.5 0 0 1 .991-.137c.033.229.887 5.619 8.5 7.863a.5.5 0 0 1 -.142.979z"/><path d="m46.728 27.208a.5.5 0 0 1 -.142-.979c7.609-2.245 8.463-7.635 8.5-7.863a.5.5 0 0 1 .991.137c-.035.254-.947 6.25-9.2 8.685a.494.494 0 0 1 -.149.02z"/><path d="m52.049 18.934a.5.5 0 0 1 -.5-.5v-1.976a.5.5 0 0 1 1 0v1.977a.5.5 0 0 1 -.5.499z"/><path d="m42.557 36.11a.5.5 0 0 1 -.5-.5v-4.354a3.625 3.625 0 0 1 -3.119-3.585v-12.177a3.623 3.623 0 0 1 3.619-3.619h19.063a3.623 3.623 0 0 1 3.619 3.619v12.177a3.623 3.623 0 0 1 -3.619 3.619h-9.9l-8.928 4.761a.5.5 0 0 1 -.235.059zm0-23.235a2.622 2.622 0 0 0 -2.619 2.619v12.177a2.622 2.622 0 0 0 2.619 2.619.5.5 0 0 1 .5.5v3.986l8.3-4.428a.5.5 0 0 1 .235-.059h10.028a2.622 2.622 0 0 0 2.619-2.619v-12.176a2.622 2.622 0 0 0 -2.619-2.619z"/></g><path d="m42.2 25.127a.606.606 0 0 1 -.6-.608v-6.469a.606.606 0 1 1 1.213 0l-.006 6.469a.606.606 0 0 1 -.607.608z" fill="#fff"/><path d="m42.193 27.381a.606.606 0 0 1 -.6-.608v-.339a.606.606 0 0 1 1.213 0v.339a.607.607 0 0 1 -.613.608z" fill="#fff"/><path d="m55.05 63.167a.5.5 0 0 1 -.5-.5v-.667a.5.5 0 0 1 1 0v.667a.5.5 0 0 1 -.5.5z" fill="#323c6b"/><path d="m51.609 72.86a.5.5 0 0 1 -.3-.9 7.948 7.948 0 0 0 3.241-6.38v-.768a.5.5 0 0 1 1 0v.768a8.952 8.952 0 0 1 -3.645 7.183.5.5 0 0 1 -.296.097z" fill="#323c6b"/><path d="m6.3 31.667a.5.5 0 0 1 -.5-.5v-.667a.5.5 0 0 1 1 0v.667a.5.5 0 0 1 -.5.5z" fill="#323c6b"/><path d="m6.3 28.833a.5.5 0 0 1 -.5-.5v-8.083a.5.5 0 0 1 1 0v8.083a.5.5 0 0 1 -.5.5z" fill="#323c6b"/></svg>