<svg id="color_line" height="512" viewBox="0 0 74 74" width="512" xmlns="http://www.w3.org/2000/svg" data-name="color line"><path d="m69.269 32.748a4.424 4.424 0 0 1 -4.749.415l-23.311-13.311a4.769 4.769 0 0 0 -4.526.053l-17.528 9.68 4.2 7.508a5.248 5.248 0 0 1 -8.1 6.453l-12.255-9.531v-25.579l37.772-1.991a6.032 6.032 0 0 1 3.877 1.155l24.535 18.067a4.422 4.422 0 0 1 .085 7.081z" fill="#e1e6e9"/><path d="m69.78 32.28a4.378 4.378 0 0 0 -1.81-3.45l-24.53-18.07a6.061 6.061 0 0 0 -3.88-1.15l-36.56 1.93v-3.1l37.77-1.99a6 6 0 0 1 3.88 1.15l24.53 18.07a4.406 4.406 0 0 1 .6 6.61z" fill="#d5d6db"/><circle cx="30.618" cy="14.607" fill="#d5d6db" r="7.543"/><path d="m30.618 22.65a8.043 8.043 0 1 1 8.043-8.043 8.052 8.052 0 0 1 -8.043 8.043zm0-15.085a7.043 7.043 0 1 0 7.043 7.042 7.05 7.05 0 0 0 -7.043-7.043z" fill="#323c6b"/><path d="m30.618 18.147a3.54 3.54 0 1 1 3.54-3.54 3.544 3.544 0 0 1 -3.54 3.54zm0-6.08a2.54 2.54 0 1 0 2.54 2.54 2.542 2.542 0 0 0 -2.54-2.54z" fill="#323c6b"/><path d="m43.9 21.886a.5.5 0 0 1 -.416-.777l6.416-9.617a.5.5 0 0 1 .832.555l-6.411 9.616a.5.5 0 0 1 -.421.223z" fill="#323c6b"/><path d="m51.4 26.177a.5.5 0 0 1 -.416-.778l5.868-8.786a.5.5 0 0 1 .832.556l-5.868 8.786a.5.5 0 0 1 -.416.222z" fill="#323c6b"/><path d="m58.918 30.458a.5.5 0 0 1 -.416-.778l5.3-7.944a.5.5 0 1 1 .832.556l-5.3 7.944a.5.5 0 0 1 -.416.222z" fill="#323c6b"/><path d="m19.353 18.042a3.323 3.323 0 0 1 -.98 2.364 3.28 3.28 0 0 1 -2.353.98h-13.02v-6.677h13.02a3.331 3.331 0 0 1 3.333 3.333z" fill="#e1e6e9"/><path d="m16.021 21.886h-13.021a.5.5 0 0 1 -.5-.5v-6.677a.5.5 0 0 1 .5-.5h13.021a3.835 3.835 0 0 1 2.707 6.55 3.763 3.763 0 0 1 -2.707 1.127zm-12.521-1h12.521a2.773 2.773 0 0 0 2-.83 2.835 2.835 0 0 0 -2-4.847h-12.521z" fill="#323c6b"/><path d="m7.812 21.886a.5.5 0 0 1 -.5-.5v-6.677a.5.5 0 0 1 1 0v6.677a.5.5 0 0 1 -.5.5z" fill="#323c6b"/><path d="m13.136 21.886a.5.5 0 0 1 -.5-.5v-6.677a.5.5 0 0 1 1 0v6.677a.5.5 0 0 1 -.5.5z" fill="#323c6b"/><path d="m34.375 60.642h19.056a19.25 19.25 0 1 0 -19.056 0z" fill="#27ccbc"/><path d="m63.15 43.95a19.161 19.161 0 0 1 -8.75 16.09 19.234 19.234 0 0 0 -23.8-30 19.245 19.245 0 0 1 32.55 13.91z" fill="#21b3a9"/><path d="m63.153 67.564h-38.5a6.922 6.922 0 0 1 6.922-6.922h24.656a6.922 6.922 0 0 1 6.922 6.922z" fill="#9297ab"/><path d="m63.15 67.56h-38.5a6.91 6.91 0 0 1 .42-2.37h34.35a6.874 6.874 0 0 0 -1.54-4.34 6.9 6.9 0 0 1 5.27 6.71z" fill="#84879c"/><path d="m30.528 39.223a.6.6 0 0 1 -.53-.881l.134-.259c.112-.218.225-.436.351-.645a.6.6 0 0 1 1.025.624c-.112.184-.21.376-.309.568l-.142.273a.6.6 0 0 1 -.529.32z" fill="#fff"/><path d="m32.526 36.039a.6.6 0 0 1 -.467-.976 16.333 16.333 0 0 1 7.459-5.251.6.6 0 0 1 .389 1.136 15.137 15.137 0 0 0 -6.913 4.867.6.6 0 0 1 -.468.224z" fill="#fff"/><g fill="#323c6b"><path d="m53.431 61.142h-19.056a.5.5 0 0 1 -.248-.066 19.75 19.75 0 1 1 19.552 0 .5.5 0 0 1 -.248.066zm-18.922-1h18.791a18.75 18.75 0 1 0 -18.789 0z"/><path d="m63.153 68.063h-38.5a.5.5 0 0 1 -.5-.5 7.431 7.431 0 0 1 7.422-7.422h24.655a7.431 7.431 0 0 1 7.422 7.422.5.5 0 0 1 -.499.5zm-37.98-1h37.461a6.431 6.431 0 0 0 -6.4-5.922h-24.658a6.431 6.431 0 0 0 -6.404 5.922z"/><path d="m18.771 45.41a5.751 5.751 0 0 1 -3.86-1.492l-12.218-9.508a.5.5 0 0 1 -.193-.395v-25.578a.5.5 0 0 1 .474-.5l37.772-1.992a6.6 6.6 0 0 1 4.2 1.245l24.534 18.074a4.923 4.923 0 0 1 .093 7.881 4.943 4.943 0 0 1 -5.286.461l-23.326-13.32a4.264 4.264 0 0 0 -4.036.057l-17.089 9.437 3.951 7.069a5.749 5.749 0 0 1 -5.016 8.561zm-15.271-11.639 12.054 9.381a4.831 4.831 0 0 0 5.559.641 4.762 4.762 0 0 0 1.8-6.455l-4.2-7.508a.5.5 0 0 1 .195-.682l17.528-9.68a5.264 5.264 0 0 1 5-.059l23.332 13.32a3.933 3.933 0 0 0 4.2-.377 3.923 3.923 0 0 0 -.076-6.282l-24.54-18.07a5.55 5.55 0 0 0 -3.552-1.056l-37.3 1.967z"/><path d="m61.967 57.387a.5.5 0 0 1 -.4-.793c.109-.151.217-.3.322-.459a.5.5 0 1 1 .827.563q-.166.244-.339.482a.5.5 0 0 1 -.41.207z"/><path d="m63.68 54.583a.493.493 0 0 1 -.229-.056.5.5 0 0 1 -.215-.673 21.591 21.591 0 0 0 2.281-7.569.5.5 0 0 1 .551-.443.5.5 0 0 1 .443.551 22.589 22.589 0 0 1 -2.386 7.919.5.5 0 0 1 -.445.271z"/><path d="m49.187 7.713a.5.5 0 0 1 -.3-.1l-2.772-2.043a8.477 8.477 0 0 0 -3.468-1.493.5.5 0 1 1 .181-.983 9.475 9.475 0 0 1 3.877 1.669l2.779 2.047a.5.5 0 0 1 -.3.9z"/><path d="m51.562 9.462a.5.5 0 0 1 -.3-.1l-.562-.415a.5.5 0 0 1 .593-.8l.566.417a.5.5 0 0 1 -.3.9z"/></g></svg>