<svg id="color_line" height="512" viewBox="0 0 74 74" width="512" xmlns="http://www.w3.org/2000/svg" data-name="color line"><path d="m71.405 40.889a4.424 4.424 0 0 0 -4.749-.415l-23.311 13.311a4.769 4.769 0 0 1 -4.526-.053l-17.528-9.68 4.2-7.508a5.248 5.248 0 0 0 -8.1-6.453l-12.255 9.531v25.578l37.772 1.991a6.032 6.032 0 0 0 3.876-1.15l24.536-18.071a4.422 4.422 0 0 0 .085-7.081z" fill="#eeefee"/><path d="m71.32 47.97-24.54 18.07a5.976 5.976 0 0 1 -3.87 1.15l-37.77-1.99v-3.4l36.76 1.94a6.051 6.051 0 0 0 3.87-1.15l24.54-18.07a4.408 4.408 0 0 0 1.77-2.99 4.421 4.421 0 0 1 -.76 6.44z" fill="#e1e6e9"/><circle cx="32.755" cy="59.03" fill="#bbbbcd" r="7.543"/><g fill="#323c6b"><path d="m32.755 67.072a8.042 8.042 0 1 1 8.045-8.042 8.052 8.052 0 0 1 -8.045 8.042zm0-15.085a7.042 7.042 0 1 0 7.045 7.043 7.05 7.05 0 0 0 -7.045-7.043z"/><path d="m32.755 62.57a3.54 3.54 0 1 1 3.539-3.54 3.544 3.544 0 0 1 -3.539 3.54zm0-6.08a2.54 2.54 0 1 0 2.539 2.54 2.543 2.543 0 0 0 -2.539-2.54z"/><path d="m52.45 62.367a.5.5 0 0 1 -.416-.223l-6.411-9.616a.5.5 0 0 1 .832-.555l6.411 9.616a.5.5 0 0 1 -.416.777z"/><path d="m59.4 57.245a.5.5 0 0 1 -.416-.222l-5.864-8.786a.5.5 0 0 1 .832-.556l5.868 8.786a.5.5 0 0 1 -.416.778z"/><path d="m66.357 52.123a.5.5 0 0 1 -.416-.223l-5.3-7.944a.5.5 0 1 1 .832-.555l5.3 7.944a.5.5 0 0 1 -.416.778z"/></g><path d="m21.49 55.6a3.323 3.323 0 0 0 -.98-2.364 3.28 3.28 0 0 0 -2.353-.98h-13.021v6.677h13.02a3.331 3.331 0 0 0 3.334-3.333z" fill="#bbbbcd"/><path d="m18.156 59.428h-13.02a.5.5 0 0 1 -.5-.5v-6.677a.5.5 0 0 1 .5-.5h13.02a3.768 3.768 0 0 1 2.71 1.129 3.836 3.836 0 0 1 -2.71 6.548zm-12.521-1h12.521a2.836 2.836 0 0 0 2-4.844 2.78 2.78 0 0 0 -2-.833h-12.52z" fill="#323c6b"/><path d="m9.947 59.428a.5.5 0 0 1 -.5-.5v-6.677a.5.5 0 0 1 1 0v6.677a.5.5 0 0 1 -.5.5z" fill="#323c6b"/><path d="m15.272 59.428a.5.5 0 0 1 -.5-.5v-6.677a.5.5 0 0 1 1 0v6.677a.5.5 0 0 1 -.5.5z" fill="#323c6b"/><rect fill="#e7aa6c" height="24.742" rx="3.224" width="32.5" x="30" y="14.489"/><path d="m62.5 17.87v17.98a3.376 3.376 0 0 1 -3.38 3.38h-25.74a3.361 3.361 0 0 1 -3.2-2.31 3.2 3.2 0 0 0 .7.08h25.74a3.376 3.376 0 0 0 3.38-3.38v-17.98a3.426 3.426 0 0 0 -.17-1.07 3.36 3.36 0 0 1 2.67 3.3z" fill="#d09865"/><path d="m52.884 14.989h-13.268a.5.5 0 0 1 -.5-.5v-2.023a2.859 2.859 0 0 1 2.856-2.856h8.557a2.859 2.859 0 0 1 2.855 2.856v2.023a.5.5 0 0 1 -.5.5zm-12.768-1h12.268v-1.523a1.858 1.858 0 0 0 -1.855-1.856h-8.557a1.858 1.858 0 0 0 -1.855 1.856z" fill="#323c6b"/><rect fill="#bbbbcd" height="5.29" rx=".83" width="8.58" x="41.96" y="23.59"/><path d="m49.71 29.38h-6.92a1.332 1.332 0 0 1 -1.33-1.33v-3.63a1.332 1.332 0 0 1 1.33-1.33h6.92a1.332 1.332 0 0 1 1.33 1.33v3.63a1.332 1.332 0 0 1 -1.33 1.33zm-6.92-5.29a.335.335 0 0 0 -.33.33v3.63a.326.326 0 0 0 .33.33h6.92a.326.326 0 0 0 .33-.33v-3.63a.335.335 0 0 0 -.33-.33z" fill="#323c6b"/><path d="m43.228 67.7c-.115 0-.23 0-.347-.009l-37.772-1.991a.5.5 0 0 1 -.474-.5v-25.578a.5.5 0 0 1 .193-.395l12.248-9.527a5.87 5.87 0 0 1 6.665-.722 5.762 5.762 0 0 1 2.181 7.814l-3.949 7.068 17.089 9.438a4.269 4.269 0 0 0 4.052.047l23.295-13.3a4.946 4.946 0 0 1 5.3.453 4.923 4.923 0 0 1 -.094 7.881l-24.534 18.066a6.574 6.574 0 0 1 -3.853 1.255zm-37.592-2.973 37.3 1.966a5.559 5.559 0 0 0 3.556-1.055l24.533-18.07a3.923 3.923 0 0 0 .077-6.283 3.939 3.939 0 0 0 -4.212-.369l-23.3 13.3a5.273 5.273 0 0 1 -5.016-.05l-17.528-9.68a.5.5 0 0 1 -.194-.682l4.2-7.507a4.76 4.76 0 0 0 -1.8-6.456 4.841 4.841 0 0 0 -5.53.617l-12.082 9.4z" fill="#323c6b"/><path d="m50.54 26.12a.5.5 0 0 1 -.027-1 77.837 77.837 0 0 0 11.887-1.609.5.5 0 0 1 .209.979 78.859 78.859 0 0 1 -12.037 1.63z" fill="#323c6b"/><path d="m59.119 39.731h-25.738a3.885 3.885 0 0 1 -3.881-3.88v-17.981a3.885 3.885 0 0 1 3.881-3.881h25.738a3.885 3.885 0 0 1 3.881 3.881v17.981a3.885 3.885 0 0 1 -3.881 3.88zm-25.738-24.742a2.884 2.884 0 0 0 -2.881 2.881v17.981a2.884 2.884 0 0 0 2.881 2.88h25.738a2.884 2.884 0 0 0 2.881-2.88v-17.981a2.884 2.884 0 0 0 -2.881-2.881z" fill="#323c6b"/><path d="m32.7 29.087a.567.567 0 0 1 .566.569l-.018 5.028a.567.567 0 1 1 -1.135 0l.018-5.028a.567.567 0 0 1 .569-.569z" fill="#fff"/><path d="m32.71 27.174a.567.567 0 0 1 .566.569v.109a.567.567 0 0 1 -1.135 0v-.109a.567.567 0 0 1 .569-.569z" fill="#fff"/><path d="m41.96 26.12h-.027a78.859 78.859 0 0 1 -12.033-1.631.5.5 0 0 1 -.385-.593.506.506 0 0 1 .594-.385 77.837 77.837 0 0 0 11.883 1.61.5.5 0 0 1 -.027 1z" fill="#323c6b"/><path d="m48.708 68.851a.5.5 0 0 1 -.3-.9l7.292-5.37a.5.5 0 0 1 .594.806l-7.294 5.366a.5.5 0 0 1 -.292.098z" fill="#323c6b"/><path d="m44.707 70.576a.5.5 0 0 1 -.08-.993 8.309 8.309 0 0 0 1.219-.31.5.5 0 1 1 .309.951 9.259 9.259 0 0 1 -1.365.345.465.465 0 0 1 -.083.007z" fill="#323c6b"/><path d="m65.5 19a.5.5 0 0 1 -.5-.5v-.63a5.872 5.872 0 0 0 -4.839-5.782.5.5 0 0 1 .178-.984 6.872 6.872 0 0 1 5.661 6.766v.63a.5.5 0 0 1 -.5.5z" fill="#323c6b"/><path d="m65.5 21.656a.5.5 0 0 1 -.5-.5v-.562a.5.5 0 0 1 1 0v.563a.5.5 0 0 1 -.5.499z" fill="#323c6b"/></svg>