<svg id="color_line" height="512" viewBox="0 0 74 74" width="512" xmlns="http://www.w3.org/2000/svg" data-name="color line"><path d="m12.663 42.827a9.458 9.458 0 0 1 -.011-18.916 7.426 7.426 0 0 1 -.086-1.211 9.558 9.558 0 0 1 9.555-9.555 9.357 9.357 0 0 1 2.972.476 17.209 17.209 0 0 1 31.92 2.389c.259-.011.519-.022.778-.022a13.419 13.419 0 0 1 0 26.839z" fill="#89c5cd"/><path d="m12.607 25a6.9 6.9 0 0 0 .09 1.21c-2.59 0-6.848 1.369-8.547 3.049a9.228 9.228 0 0 1 8.537-5.479 9.862 9.862 0 0 0 -.08 1.22z" fill="#6eaaad"/><path d="m22.12 13.15a9.5 9.5 0 0 1 2.74.4 16.475 16.475 0 0 0 -1.64 2.7 9.2 9.2 0 0 0 -2.97-.48 9.535 9.535 0 0 0 -6.73 2.77 9.561 9.561 0 0 1 8.6-5.39z" fill="#6eaaad"/><path d="m67.69 38.46a13.421 13.421 0 0 0 -11.77-19.85c-.26 0-.52.01-.78.02a17.2 17.2 0 0 0 -29.49-6.07 17.207 17.207 0 0 1 31.36 3.45c.26-.01.52-.02.78-.02a13.413 13.413 0 0 1 9.9 22.47z" fill="#6eaaad"/><rect fill="#fcd462" height="17.718" rx="1.902" width="17.725" x="30.105" y="16.779"/><path d="m47.83 18.68v13.92a1.9 1.9 0 0 1 -1.9 1.9h-.43v-13.49a1.908 1.908 0 0 0 -1.91-1.9h-13.48v-.43a1.9 1.9 0 0 1 1.9-1.9h13.92a1.9 1.9 0 0 1 1.9 1.9z" fill="#f7be56"/><g fill="#323c6b"><path d="m30.105 19.611h-2.505a.5.5 0 0 1 0-1h2.5a.5.5 0 0 1 0 1z"/><path d="m30.105 23.9h-3.954a.5.5 0 0 1 0-1h3.954a.5.5 0 0 1 0 1z"/><path d="m30.105 28.193h-3.692a.5.5 0 0 1 0-1h3.692a.5.5 0 0 1 0 1z"/><path d="m30.105 32.666h-2.505a.5.5 0 0 1 0-1h2.5a.5.5 0 0 1 0 1z"/><path d="m50.336 19.611h-2.5a.5.5 0 0 1 0-1h2.5a.5.5 0 0 1 0 1z"/><path d="m51.785 23.9h-3.954a.5.5 0 0 1 0-1h3.954a.5.5 0 0 1 0 1z"/><path d="m51.522 28.193h-3.691a.5.5 0 0 1 0-1h3.691a.5.5 0 0 1 0 1z"/><path d="m50.336 32.666h-2.5a.5.5 0 0 1 0-1h2.5a.5.5 0 1 1 0 1z"/><path d="m45.5 17.275a.5.5 0 0 1 -.5-.5v-2.5a.5.5 0 1 1 1 0v2.5a.5.5 0 0 1 -.5.5z"/><path d="m41.2 17.275a.5.5 0 0 1 -.5-.5v-3.954a.5.5 0 1 1 1 0v3.954a.5.5 0 0 1 -.5.5z"/><path d="m36.913 17.275a.5.5 0 0 1 -.5-.5v-3.692a.5.5 0 1 1 1 0v3.692a.5.5 0 0 1 -.5.5z"/><path d="m32.44 17.275a.5.5 0 0 1 -.5-.5v-2.5a.5.5 0 0 1 1 0v2.5a.5.5 0 0 1 -.5.5z"/><path d="m45.5 37.505a.5.5 0 0 1 -.5-.5v-2.505a.5.5 0 0 1 1 0v2.5a.5.5 0 0 1 -.5.505z"/><path d="m41.2 38.955a.5.5 0 0 1 -.5-.5v-3.955a.5.5 0 0 1 1 0v3.954a.5.5 0 0 1 -.5.501z"/><path d="m36.913 38.693a.5.5 0 0 1 -.5-.5v-3.693a.5.5 0 0 1 1 0v3.692a.5.5 0 0 1 -.5.501z"/><path d="m32.44 37.505a.5.5 0 0 1 -.5-.5v-2.505a.5.5 0 0 1 1 0v2.5a.5.5 0 0 1 -.5.505z"/></g><ellipse cx="38.968" cy="25.638" fill="#eeefee" rx="3.979" ry="3.906"/><path d="m38.968 30.044a4.406 4.406 0 1 1 4.479-4.406 4.448 4.448 0 0 1 -4.479 4.406zm0-7.812a3.407 3.407 0 1 0 3.479 3.406 3.447 3.447 0 0 0 -3.479-3.406z" fill="#323c6b"/><path d="m12.1 61.712a.5.5 0 0 1 -.5-.5v-6.554a.5.5 0 0 1 .245-.43l6.3-3.728v-7.673a.5.5 0 0 1 1 0v7.958a.5.5 0 0 1 -.245.43l-6.3 3.728v6.269a.5.5 0 0 1 -.5.5z" fill="#323c6b"/><path d="m37.338 63.855a.5.5 0 0 1 -.5-.5v-20.528a.5.5 0 0 1 1 0v20.528a.5.5 0 0 1 -.5.5z" fill="#323c6b"/><path d="m26.767 54.677a.5.5 0 0 1 -.5-.5v-11.35a.5.5 0 0 1 1 0v11.35a.5.5 0 0 1 -.5.5z" fill="#323c6b"/><path d="m62.306 62.145a.5.5 0 0 1 -.5-.5v-5.045l-6.29-3.718a.5.5 0 0 1 -.245-.43v-9.62a.5.5 0 0 1 1 0v9.335l6.29 3.718a.5.5 0 0 1 .245.43v5.334a.5.5 0 0 1 -.5.496z" fill="#323c6b"/><path d="m47.65 56.417a.5.5 0 0 1 -.5-.5v-13.09a.5.5 0 0 1 1 0v13.09a.5.5 0 0 1 -.5.5z" fill="#323c6b"/><circle cx="62.306" cy="64.801" fill="#fe7058" r="3.158"/><circle cx="47.647" cy="59.077" fill="#27ccbc" r="3.158"/><circle cx="37.338" cy="66.512" fill="#9297ab" r="3.158"/><circle cx="26.763" cy="57.34" fill="#fe7058" r="3.158"/><circle cx="12.104" cy="64.408" fill="#27ccbc" r="3.158"/><path d="m65.46 64.8a3.139 3.139 0 0 1 -1.86 2.88 3.083 3.083 0 0 0 .36-1.45 3.158 3.158 0 0 0 -3.15-3.16 3.028 3.028 0 0 0 -1.31.29 3.152 3.152 0 0 1 5.96 1.44z" fill="#ea6453"/><path d="m50.81 59.08a3.165 3.165 0 0 1 -1.85 2.87 3.156 3.156 0 0 0 -2.81-4.6 3.027 3.027 0 0 0 -1.31.29 3.158 3.158 0 0 1 5.97 1.44z" fill="#21b3a9"/><path d="m40.5 66.51a3.15 3.15 0 0 1 -1.86 2.88 3.084 3.084 0 0 0 .36-1.45 3.167 3.167 0 0 0 -3.16-3.16 3.027 3.027 0 0 0 -1.31.29 3.158 3.158 0 0 1 5.97 1.44z" fill="#84879c"/><path d="m29.92 57.34a3.154 3.154 0 0 1 -1.85 2.87 3.036 3.036 0 0 0 .35-1.44 3.16 3.16 0 0 0 -4.46-2.88 3.155 3.155 0 0 1 5.96 1.45z" fill="#ea6453"/><path d="m15.26 64.41a3.154 3.154 0 0 1 -1.85 2.87 3.035 3.035 0 0 0 .35-1.44 3.16 3.16 0 0 0 -4.46-2.88 3.155 3.155 0 0 1 5.96 1.45z" fill="#21b3a9"/><path d="m57.791 43.327h-45.128a9.958 9.958 0 0 1 -.571-19.9c-.018-.225-.026-.466-.026-.727a10.067 10.067 0 0 1 10.055-10.054 9.937 9.937 0 0 1 2.715.373 17.81 17.81 0 0 1 15.747-9.6 17.611 17.611 0 0 1 16.789 12.081 13.919 13.919 0 1 1 .419 27.832zm-35.67-29.681a9.066 9.066 0 0 0 -9.056 9.054 6.843 6.843 0 0 0 .08 1.127.5.5 0 0 1 -.492.583 8.958 8.958 0 0 0 .01 17.916h45.128a12.919 12.919 0 0 0 0-25.839c-.252 0-.5.011-.755.021a.525.525 0 0 1 -.5-.352 16.619 16.619 0 0 0 -15.953-11.741 16.8 16.8 0 0 0 -15.039 9.424.5.5 0 0 1 -.608.256 8.888 8.888 0 0 0 -2.815-.449z" fill="#323c6b"/><path d="m45.93 35h-13.923a2.4 2.4 0 0 1 -2.4-2.4v-13.919a2.4 2.4 0 0 1 2.4-2.4h13.923a2.4 2.4 0 0 1 2.4 2.4v13.919a2.4 2.4 0 0 1 -2.4 2.4zm-13.923-17.721a1.4 1.4 0 0 0 -1.4 1.4v13.921a1.4 1.4 0 0 0 1.4 1.4h13.923a1.4 1.4 0 0 0 1.4-1.4v-13.919a1.4 1.4 0 0 0 -1.4-1.4z" fill="#323c6b"/><path d="m62.306 68.46a3.658 3.658 0 1 1 3.658-3.66 3.662 3.662 0 0 1 -3.658 3.66zm0-6.317a2.658 2.658 0 1 0 2.658 2.657 2.661 2.661 0 0 0 -2.658-2.657z" fill="#323c6b"/><path d="m47.647 62.735a3.658 3.658 0 1 1 3.658-3.658 3.662 3.662 0 0 1 -3.658 3.658zm0-6.316a2.658 2.658 0 1 0 2.658 2.658 2.661 2.661 0 0 0 -2.658-2.658z" fill="#323c6b"/><path d="m37.338 70.17a3.658 3.658 0 1 1 3.662-3.658 3.662 3.662 0 0 1 -3.662 3.658zm0-6.316a2.658 2.658 0 1 0 2.662 2.658 2.661 2.661 0 0 0 -2.662-2.658z" fill="#323c6b"/><path d="m26.763 61a3.658 3.658 0 1 1 3.658-3.659 3.662 3.662 0 0 1 -3.658 3.659zm0-6.317a2.658 2.658 0 1 0 2.658 2.658 2.661 2.661 0 0 0 -2.658-2.659z" fill="#323c6b"/><path d="m12.1 68.066a3.658 3.658 0 1 1 3.658-3.658 3.662 3.662 0 0 1 -3.658 3.658zm0-6.316a2.658 2.658 0 1 0 2.658 2.658 2.661 2.661 0 0 0 -2.658-2.658z" fill="#323c6b"/><path d="m22.357 40.027a.567.567 0 0 1 -.569.566l-6.973-.018a.567.567 0 0 1 0-1.135l6.973.018a.567.567 0 0 1 .569.569z" fill="#fff"/><path d="m24.875 40.033a.567.567 0 0 1 -.569.566h-.3a.567.567 0 1 1 0-1.135h.3a.567.567 0 0 1 .569.569z" fill="#fff"/><path d="m63.813 45.179a.5.5 0 0 1 -.185-.965 15.913 15.913 0 0 0 7.425-6.03.5.5 0 0 1 .834.553 16.912 16.912 0 0 1 -7.887 6.407.5.5 0 0 1 -.187.035z" fill="#323c6b"/><path d="m60.437 46.085a.5.5 0 0 1 -.081-.993l.277-.042c.131-.019.262-.037.391-.063a.505.505 0 0 1 .591.388.5.5 0 0 1 -.388.591c-.149.031-.3.053-.454.074l-.253.038a.476.476 0 0 1 -.083.007z" fill="#323c6b"/><path d="m36.937 1.759a.5.5 0 0 1 -.09-.992c.318-.059.639-.114.961-.159a.506.506 0 0 1 .563.428.5.5 0 0 1 -.428.563c-.307.042-.611.095-.914.151a.486.486 0 0 1 -.092.009z" fill="#323c6b"/><path d="m51.625 4.7a.494.494 0 0 1 -.272-.081 19.739 19.739 0 0 0 -9.813-3.163.5.5 0 0 1 .047-1 20.729 20.729 0 0 1 10.313 3.327.5.5 0 0 1 -.272.919z" fill="#323c6b"/></svg>