<svg id="color_line" height="512" viewBox="0 0 74 74" width="512" xmlns="http://www.w3.org/2000/svg" data-name="color line"><path d="m52.53 41.4c4.65 0 9.47 4.13 9.47 9.23s-4.82 9.24-9.47 9.24z" fill="#eeefee"/><path d="m13.63 59.87c-4.65 0-9.47-4.14-9.47-9.24s4.82-9.23 9.47-9.23z" fill="#eeefee"/><path d="m60.11 55.96a8.381 8.381 0 0 0 .69-3.31c0-4.66-4.03-8.51-8.27-9.13v-2.12c4.65 0 9.47 4.13 9.47 9.23a8.715 8.715 0 0 1 -1.89 5.33z" fill="#e1e6e9"/><path d="m13.47 41.4v18.47a6.727 6.727 0 0 1 -1-.07v-16.16a9.966 9.966 0 0 0 -8.15 4.74 9.95 9.95 0 0 1 9.15-6.98z" fill="#e1e6e9"/><circle cx="33.002" cy="22.142" fill="#9297ab" r="3.949"/><path d="m33 26.591a4.449 4.449 0 1 1 4.449-4.449 4.454 4.454 0 0 1 -4.449 4.449zm0-7.9a3.449 3.449 0 1 0 3.449 3.449 3.453 3.453 0 0 0 -3.449-3.448z" fill="#323c6b"/><path d="m33 34.826a.5.5 0 0 1 -.5-.5v-8.226a.5.5 0 0 1 1 0v8.228a.5.5 0 0 1 -.5.498z" fill="#323c6b"/><path d="m71 7.543v13.915a2.31 2.31 0 0 1 -2.31 2.31h-10.92l-9.1 4.851v-4.851h-.83a2.31 2.31 0 0 1 -2.31-2.31v-13.915a2.31 2.31 0 0 1 2.31-2.31h20.85a2.31 2.31 0 0 1 2.31 2.31z" fill="#27ccbc"/><path d="m71 7.54v13.92a2.31 2.31 0 0 1 -2.31 2.31h-.22v-14.58a1.65 1.65 0 0 0 -1.65-1.65h-21.29a2.317 2.317 0 0 1 2.31-2.31h20.85a2.31 2.31 0 0 1 2.31 2.31z" fill="#21b3a9"/><g fill="#323c6b"><path d="m50.346 18.692a.5.5 0 0 1 -.5-.5v-7.615a.5.5 0 1 1 1 0v7.616a.5.5 0 0 1 -.5.499z"/><path d="m66.188 18.692a.5.5 0 0 1 -.5-.5v-7.615a.5.5 0 0 1 1 0v7.616a.5.5 0 0 1 -.5.499z"/><path d="m56.065 18.692a2.946 2.946 0 0 1 -2.942-2.942v-2.731a2.942 2.942 0 1 1 5.885 0v2.731a2.946 2.946 0 0 1 -2.943 2.942zm0-7.616a1.945 1.945 0 0 0 -1.942 1.942v2.732a1.942 1.942 0 1 0 3.885 0v-2.731a1.945 1.945 0 0 0 -1.943-1.942z"/><path d="m61.786 18.692a.5.5 0 0 1 -.5-.5v-7.615a.5.5 0 0 1 1 0v7.616a.5.5 0 0 1 -.5.499z"/><path d="m52.53 60.37a.5.5 0 0 1 -.5-.5v-18.47a.5.5 0 0 1 .5-.5c4.706 0 9.97 4.161 9.97 9.73s-5.264 9.74-9.97 9.74zm.5-18.453v17.436c4.1-.278 8.47-3.917 8.47-8.723s-4.371-8.436-8.47-8.713z"/><path d="m13.63 60.37c-4.706 0-9.97-4.166-9.97-9.74s5.264-9.73 9.97-9.73a.5.5 0 0 1 .5.5v18.47a.5.5 0 0 1 -.5.5zm-.5-18.453c-4.1.277-8.47 3.912-8.47 8.713s4.371 8.445 8.47 8.723z"/></g><rect fill="#eeefee" height="34.434" rx="3.046" width="41.055" x="12.475" y="34.333"/><path d="m53.53 37.38v28.34a3.034 3.034 0 0 1 -2.7 3.02 2.676 2.676 0 0 0 .07-.64v-28.35a3.039 3.039 0 0 0 -3.04-3.04h-34.96a2.185 2.185 0 0 0 -.36.03 3.054 3.054 0 0 1 2.98-2.41h34.96a3.049 3.049 0 0 1 3.05 3.05z" fill="#e1e6e9"/><circle cx="24.032" cy="46.884" fill="#9297ab" r="3.462"/><path d="m24.032 50.846a3.962 3.962 0 1 1 3.962-3.961 3.966 3.966 0 0 1 -3.962 3.961zm0-6.923a2.962 2.962 0 1 0 2.962 2.962 2.965 2.965 0 0 0 -2.962-2.963z" fill="#323c6b"/><circle cx="41.972" cy="46.884" fill="#9297ab" r="3.462"/><path d="m41.973 50.846a3.962 3.962 0 1 1 3.961-3.961 3.966 3.966 0 0 1 -3.961 3.961zm0-6.923a2.962 2.962 0 1 0 2.961 2.962 2.965 2.965 0 0 0 -2.961-2.963z" fill="#323c6b"/><rect fill="#84879c" height="4.89" rx="2.445" width="18.252" x="23.876" y="57.523"/><path d="m39.683 62.914h-13.362a2.945 2.945 0 1 1 0-5.891h13.362a2.945 2.945 0 0 1 0 5.891zm-13.362-4.891a1.945 1.945 0 1 0 0 3.891h13.362a1.945 1.945 0 0 0 0-3.891z" fill="#323c6b"/><path d="m28.131 62.914a.5.5 0 0 1 -.5-.5v-4.891a.5.5 0 0 1 1 0v4.891a.5.5 0 0 1 -.5.5z" fill="#323c6b"/><path d="m33 62.914a.5.5 0 0 1 -.5-.5v-4.891a.5.5 0 0 1 1 0v4.891a.5.5 0 0 1 -.5.5z" fill="#323c6b"/><path d="m37.873 62.914a.5.5 0 0 1 -.5-.5v-4.891a.5.5 0 0 1 1 0v4.891a.5.5 0 0 1 -.5.5z" fill="#323c6b"/><path d="m50.483 69.267h-34.962a3.55 3.55 0 0 1 -3.546-3.546v-28.342a3.55 3.55 0 0 1 3.546-3.546h34.962a3.55 3.55 0 0 1 3.546 3.546v28.342a3.55 3.55 0 0 1 -3.546 3.546zm-34.962-34.434a2.548 2.548 0 0 0 -2.546 2.546v28.342a2.549 2.549 0 0 0 2.546 2.546h34.962a2.549 2.549 0 0 0 2.546-2.546v-28.342a2.548 2.548 0 0 0 -2.546-2.546z" fill="#323c6b"/><path d="m48.673 29.119a.5.5 0 0 1 -.5-.5v-4.351h-.329a2.813 2.813 0 0 1 -2.81-2.81v-13.915a2.813 2.813 0 0 1 2.81-2.81h20.846a2.813 2.813 0 0 1 2.81 2.81v13.915a2.813 2.813 0 0 1 -2.81 2.81h-10.79l-8.992 4.792a.5.5 0 0 1 -.235.059zm-.829-23.386a1.812 1.812 0 0 0 -1.81 1.81v13.915a1.811 1.811 0 0 0 1.81 1.81h.829a.5.5 0 0 1 .5.5v4.018l8.362-4.459a.5.5 0 0 1 .235-.059h10.92a1.811 1.811 0 0 0 1.81-1.81v-13.915a1.812 1.812 0 0 0 -1.81-1.81z" fill="#323c6b"/><path d="m56.7 7.88a.567.567 0 0 1 -.569.566l-6.146-.018a.567.567 0 0 1 0-1.135l6.146.018a.567.567 0 0 1 .569.569z" fill="#fff"/><path d="m59.219 7.886a.567.567 0 0 1 -.569.566h-.3a.567.567 0 1 1 0-1.135h.3a.567.567 0 0 1 .569.569z" fill="#fff"/><path d="m50.916 72.245a.5.5 0 0 1 -.034-1 5.561 5.561 0 0 0 5.147-5.526.5.5 0 0 1 1 0 6.564 6.564 0 0 1 -6.077 6.523z" fill="#323c6b"/><path d="m48.292 72.267h-.636a.5.5 0 0 1 0-1h.636a.5.5 0 0 1 0 1z" fill="#323c6b"/><path d="m9.5 37.417h-.04a.5.5 0 0 1 -.46-.539 6.572 6.572 0 0 1 6.521-6.045h.636a.5.5 0 0 1 0 1h-.636a5.566 5.566 0 0 0 -5.521 5.122.5.5 0 0 1 -.5.462z" fill="#323c6b"/><path d="m19.188 31.833h-.562a.5.5 0 0 1 0-1h.563a.5.5 0 0 1 0 1z" fill="#323c6b"/></svg>