<svg id="color_line" height="512" viewBox="0 0 74 74" width="512" xmlns="http://www.w3.org/2000/svg" data-name="color line"><rect fill="#fcd462" height="38.304" rx="4.059" width="38.319" x="17.841" y="17.848"/><path d="m56.16 21.91v30.18a4.059 4.059 0 0 1 -2.89 3.89 4.109 4.109 0 0 0 .14-1.06v-30.18a4.056 4.056 0 0 0 -4.06-4.06h-30.2a4.087 4.087 0 0 0 -1.17.17 4.068 4.068 0 0 1 3.92-3h30.2a4.056 4.056 0 0 1 4.06 4.06z" fill="#f7be56"/><path d="m50.63 37a13.586 13.586 0 0 1 -3.44 9.05v.01a.526.526 0 0 1 -.1.11 13.642 13.642 0 0 1 -20.16.02c-.04-.04-.07-.09-.11-.13a13.629 13.629 0 1 1 23.81-9.06z" fill="#eeefee"/><path d="m50.63 37a13.586 13.586 0 0 1 -3.44 9.05v.01a.526.526 0 0 1 -.1.11c-.2.22-.41.44-.63.64a13.488 13.488 0 0 0 2.5-7.85 13.628 13.628 0 0 0 -23.11-9.79 13.626 13.626 0 0 1 24.78 7.83z" fill="#e1e6e9"/><circle cx="37" cy="32.028" fill="#89c5cd" r="4.653"/><path d="m47.19 46.05v.01a.526.526 0 0 1 -.1.11 13.642 13.642 0 0 1 -20.16.02c-.04-.04-.07-.09-.11-.13a10.219 10.219 0 0 1 5.41-7.89 7.281 7.281 0 0 0 9.54 0 10.237 10.237 0 0 1 5.42 7.88z" fill="#89c5cd"/><path d="m41.65 32.03a4.643 4.643 0 0 1 -2.61 4.18 4.591 4.591 0 0 0 .82-2.64 4.652 4.652 0 0 0 -6.69-4.18 4.651 4.651 0 0 1 8.48 2.64z" fill="#6eaaad"/><path d="m41.77 38.17a7.293 7.293 0 0 1 -1.978 1.218v.112a10.233 10.233 0 0 1 5.358 7.84v.01a.522.522 0 0 1 -.1.11 14.353 14.353 0 0 1 -1.87 1.7 13.8 13.8 0 0 0 3.91-2.99.526.526 0 0 0 .1-.11v-.01a10.237 10.237 0 0 0 -5.42-7.88z" fill="#6eaaad"/><circle cx="22.889" cy="8.809" fill="#fe7058" r="2.873"/><circle cx="32.554" cy="5.936" fill="#89c5cd" r="2.873"/><circle cx="41.829" cy="5.936" fill="#fcd462" r="2.873"/><path d="m51.111 18.34a.5.5 0 0 1 -.5-.5v-6.221a.5.5 0 1 1 1 0v6.221a.5.5 0 0 1 -.5.5z" fill="#323c6b"/><path d="m41.829 18.341a.5.5 0 0 1 -.5-.5v-9.095a.5.5 0 0 1 1 0v9.095a.5.5 0 0 1 -.5.5z" fill="#323c6b"/><path d="m32.557 18.341a.5.5 0 0 1 -.5-.5v-8.789a.5.5 0 1 1 1 0v8.789a.5.5 0 0 1 -.5.5z" fill="#323c6b"/><path d="m22.889 18.34a.5.5 0 0 1 -.5-.5v-6.221a.5.5 0 0 1 1 0v6.221a.5.5 0 0 1 -.5.5z" fill="#323c6b"/><circle cx="22.889" cy="8.746" fill="#fe7058" r="2.873"/><circle cx="32.554" cy="5.873" fill="#89c5cd" r="2.873"/><circle cx="51.111" cy="8.746" fill="#9297ab" r="2.873"/><circle cx="41.829" cy="5.873" fill="#fcd462" r="2.873"/><path d="m51.111 62.882a.5.5 0 0 1 -.5-.5v-6.221a.5.5 0 0 1 1 0v6.221a.5.5 0 0 1 -.5.5z" fill="#323c6b"/><path d="m41.829 65.755a.5.5 0 0 1 -.5-.5v-9.095a.5.5 0 0 1 1 0v9.095a.5.5 0 0 1 -.5.5z" fill="#323c6b"/><path d="m32.557 65.449a.5.5 0 0 1 -.5-.5v-8.789a.5.5 0 0 1 1 0v8.789a.5.5 0 0 1 -.5.5z" fill="#323c6b"/><path d="m22.889 62.882a.5.5 0 0 1 -.5-.5v-6.221a.5.5 0 0 1 1 0v6.221a.5.5 0 0 1 -.5.5z" fill="#323c6b"/><circle cx="22.889" cy="65.255" fill="#9297ab" r="2.873"/><circle cx="32.554" cy="68.128" fill="#89c5cd" r="2.873"/><circle cx="51.111" cy="65.255" fill="#fe7058" r="2.873"/><circle cx="41.829" cy="68.128" fill="#fcd462" r="2.873"/><path d="m62.382 51.611h-6.222a.5.5 0 0 1 0-1h6.222a.5.5 0 0 1 0 1z" fill="#323c6b"/><path d="m65.254 42.33h-9.094a.5.5 0 0 1 0-1h9.094a.5.5 0 0 1 0 1z" fill="#323c6b"/><path d="m64.948 33.058h-8.788a.5.5 0 0 1 0-1h8.788a.5.5 0 0 1 0 1z" fill="#323c6b"/><path d="m62.382 23.39h-6.222a.5.5 0 0 1 0-1h6.222a.5.5 0 0 1 0 1z" fill="#323c6b"/><circle cx="65.254" cy="22.89" fill="#fe7058" r="2.873"/><circle cx="68.127" cy="32.555" fill="#fcd462" r="2.873"/><circle cx="65.254" cy="51.111" fill="#9297ab" r="2.873"/><circle cx="68.127" cy="41.83" fill="#89c5cd" r="2.873"/><path d="m17.84 51.611h-6.222a.5.5 0 1 1 0-1h6.222a.5.5 0 1 1 0 1z" fill="#323c6b"/><path d="m17.84 42.33h-9.094a.5.5 0 0 1 0-1h9.094a.5.5 0 0 1 0 1z" fill="#323c6b"/><path d="m17.84 33.058h-8.788a.5.5 0 0 1 0-1h8.788a.5.5 0 0 1 0 1z" fill="#323c6b"/><path d="m17.84 23.39h-6.222a.5.5 0 0 1 0-1h6.222a.5.5 0 0 1 0 1z" fill="#323c6b"/><circle cx="8.746" cy="22.89" fill="#9297ab" r="2.873"/><circle cx="5.873" cy="32.555" fill="#89c5cd" r="2.873"/><circle cx="8.746" cy="51.111" fill="#fe7058" r="2.873"/><circle cx="5.873" cy="41.83" fill="#fcd462" r="2.873"/><path d="m25.76 8.75a2.873 2.873 0 0 1 -1.96 2.72 2.787 2.787 0 0 0 .39-1.43 2.879 2.879 0 0 0 -2.87-2.88 2.714 2.714 0 0 0 -.91.15 2.865 2.865 0 0 1 5.35 1.44z" fill="#ea6453"/><path d="m35.43 5.87a2.885 2.885 0 0 1 -1.96 2.73 2.88 2.88 0 0 0 -2.49-4.31 2.755 2.755 0 0 0 -.91.15 2.871 2.871 0 0 1 5.36 1.43z" fill="#6eaaad"/><path d="m53.98 8.75a2.873 2.873 0 0 1 -1.96 2.72 2.787 2.787 0 0 0 .39-1.43 2.879 2.879 0 0 0 -2.87-2.88 2.756 2.756 0 0 0 -.91.15 2.865 2.865 0 0 1 5.35 1.44z" fill="#84879c"/><path d="m44.7 5.87a2.876 2.876 0 0 1 -1.95 2.73 2.88 2.88 0 0 0 -2.49-4.31 2.714 2.714 0 0 0 -.91.15 2.865 2.865 0 0 1 5.35 1.43z" fill="#f7be56"/><path d="m25.76 65.25a2.877 2.877 0 0 1 -1.95 2.73 2.88 2.88 0 0 0 -2.49-4.31 2.714 2.714 0 0 0 -.91.15 2.865 2.865 0 0 1 5.35 1.43z" fill="#84879c"/><path d="m35.43 68.13a2.882 2.882 0 0 1 -1.96 2.72 2.872 2.872 0 0 0 -2.49-4.3 2.815 2.815 0 0 0 -.92.15 2.874 2.874 0 0 1 5.37 1.43z" fill="#6eaaad"/><path d="m53.98 65.25a2.877 2.877 0 0 1 -1.95 2.73 2.88 2.88 0 0 0 -2.49-4.31 2.756 2.756 0 0 0 -.91.15 2.865 2.865 0 0 1 5.35 1.43z" fill="#ea6453"/><path d="m44.7 68.13a2.873 2.873 0 0 1 -1.95 2.72 2.872 2.872 0 0 0 -2.49-4.3 2.815 2.815 0 0 0 -.92.15 2.867 2.867 0 0 1 5.36 1.43z" fill="#f7be56"/><path d="m68.13 22.89a2.863 2.863 0 0 1 -1.96 2.72 2.872 2.872 0 0 0 -2.49-4.3 2.758 2.758 0 0 0 -.91.15 2.871 2.871 0 0 1 5.36 1.43z" fill="#ea6453"/><path d="m71 32.55a2.89 2.89 0 0 1 -1.95 2.73 2.88 2.88 0 0 0 -2.5-4.31 2.815 2.815 0 0 0 -.92.15 2.877 2.877 0 0 1 5.37 1.43z" fill="#f7be56"/><path d="m68.13 51.11a2.863 2.863 0 0 1 -1.96 2.72 2.872 2.872 0 0 0 -2.49-4.3 2.756 2.756 0 0 0 -.91.15 2.871 2.871 0 0 1 5.36 1.43z" fill="#84879c"/><path d="m71 41.83a2.867 2.867 0 0 1 -1.95 2.72 2.872 2.872 0 0 0 -2.5-4.3 2.817 2.817 0 0 0 -.92.15 2.877 2.877 0 0 1 5.37 1.43z" fill="#6eaaad"/><path d="m11.62 22.89a2.867 2.867 0 0 1 -1.95 2.72 2.872 2.872 0 0 0 -2.5-4.3 2.817 2.817 0 0 0 -.92.15 2.877 2.877 0 0 1 5.37 1.43z" fill="#84879c"/><path d="m8.75 32.55a2.885 2.885 0 0 1 -1.96 2.73 2.88 2.88 0 0 0 -2.49-4.31 2.756 2.756 0 0 0 -.91.15 2.871 2.871 0 0 1 5.36 1.43z" fill="#6eaaad"/><path d="m11.62 51.11a2.867 2.867 0 0 1 -1.95 2.72 2.872 2.872 0 0 0 -2.5-4.3 2.816 2.816 0 0 0 -.92.15 2.877 2.877 0 0 1 5.37 1.43z" fill="#ea6453"/><path d="m8.75 41.83a2.863 2.863 0 0 1 -1.96 2.72 2.872 2.872 0 0 0 -2.49-4.3 2.757 2.757 0 0 0 -.91.15 2.871 2.871 0 0 1 5.36 1.43z" fill="#f7be56"/><g fill="#323c6b"><path d="m52.1 56.652h-30.2a4.564 4.564 0 0 1 -4.559-4.559v-30.186a4.564 4.564 0 0 1 4.559-4.559h30.2a4.564 4.564 0 0 1 4.559 4.559v30.186a4.564 4.564 0 0 1 -4.559 4.559zm-30.2-38.3a3.563 3.563 0 0 0 -3.559 3.559v30.182a3.563 3.563 0 0 0 3.559 3.559h30.2a3.563 3.563 0 0 0 3.559-3.559v-30.186a3.563 3.563 0 0 0 -3.559-3.559z"/><path d="m37 51.13a14.158 14.158 0 0 1 -10.439-4.6c-.01-.01-.073-.085-.081-.1a14.13 14.13 0 1 1 21.133-.1l-.02.029a.974.974 0 0 1 -.2.216 14.066 14.066 0 0 1 -10.393 4.555zm0-27.26a13.127 13.127 0 0 0 -9.806 21.858l.076.091a13.139 13.139 0 0 0 19.449.014l.017.008a.488.488 0 0 1 .079-.124 13.128 13.128 0 0 0 -9.815-21.847z"/><path d="m37 37.181a5.153 5.153 0 1 1 5.153-5.153 5.159 5.159 0 0 1 -5.153 5.153zm0-9.306a4.153 4.153 0 1 0 4.153 4.153 4.158 4.158 0 0 0 -4.153-4.153z"/><path d="m37 51.13a14.158 14.158 0 0 1 -10.439-4.6c-.01-.01-.073-.085-.081-.1a.545.545 0 0 1 -.157-.43 10.709 10.709 0 0 1 5.677-8.272.5.5 0 0 1 .561.065 6.779 6.779 0 0 0 8.883 0 .5.5 0 0 1 .556-.065 10.739 10.739 0 0 1 5.685 8.265.569.569 0 0 1 0 .058v.01a.5.5 0 0 1 -.1.3.974.974 0 0 1 -.2.216 14.066 14.066 0 0 1 -10.385 4.553zm-9.656-5.23a13.139 13.139 0 0 0 19.321-.006 9.736 9.736 0 0 0 -4.838-7.122 7.78 7.78 0 0 1 -9.654 0 9.709 9.709 0 0 0 -4.829 7.128z"/><path d="m51.111 12.119a3.373 3.373 0 1 1 3.372-3.373 3.377 3.377 0 0 1 -3.372 3.373zm0-5.746a2.373 2.373 0 1 0 2.372 2.373 2.376 2.376 0 0 0 -2.372-2.372z"/><path d="m22.889 12.182a3.373 3.373 0 1 1 3.373-3.373 3.376 3.376 0 0 1 -3.373 3.373zm0-5.746a2.373 2.373 0 1 0 2.373 2.373 2.375 2.375 0 0 0 -2.373-2.373z"/><path d="m32.555 9.309a3.373 3.373 0 1 1 3.372-3.373 3.376 3.376 0 0 1 -3.372 3.373zm0-5.746a2.373 2.373 0 1 0 2.372 2.373 2.376 2.376 0 0 0 -2.372-2.373z"/><path d="m41.829 9.309a3.373 3.373 0 1 1 3.371-3.373 3.376 3.376 0 0 1 -3.371 3.373zm0-5.746a2.373 2.373 0 1 0 2.371 2.373 2.376 2.376 0 0 0 -2.371-2.373z"/><path d="m22.889 68.627a3.373 3.373 0 1 1 3.373-3.373 3.376 3.376 0 0 1 -3.373 3.373zm0-5.746a2.373 2.373 0 1 0 2.373 2.373 2.375 2.375 0 0 0 -2.373-2.372z"/><path d="m32.555 71.5a3.373 3.373 0 1 1 3.372-3.373 3.377 3.377 0 0 1 -3.372 3.373zm0-5.746a2.373 2.373 0 1 0 2.372 2.373 2.376 2.376 0 0 0 -2.372-2.372z"/><path d="m51.111 68.627a3.373 3.373 0 1 1 3.372-3.373 3.376 3.376 0 0 1 -3.372 3.373zm0-5.746a2.373 2.373 0 1 0 2.372 2.373 2.376 2.376 0 0 0 -2.372-2.372z"/><path d="m41.829 71.5a3.373 3.373 0 1 1 3.371-3.373 3.377 3.377 0 0 1 -3.371 3.373zm0-5.746a2.373 2.373 0 1 0 2.371 2.373 2.376 2.376 0 0 0 -2.371-2.372z"/><path d="m65.254 26.262a3.373 3.373 0 1 1 3.373-3.373 3.376 3.376 0 0 1 -3.373 3.373zm0-5.746a2.373 2.373 0 1 0 2.373 2.373 2.375 2.375 0 0 0 -2.373-2.372z"/><path d="m68.127 35.928a3.373 3.373 0 1 1 3.373-3.373 3.377 3.377 0 0 1 -3.373 3.373zm0-5.746a2.373 2.373 0 1 0 2.373 2.373 2.376 2.376 0 0 0 -2.373-2.373z"/><path d="m65.254 54.484a3.373 3.373 0 1 1 3.373-3.373 3.376 3.376 0 0 1 -3.373 3.373zm0-5.746a2.373 2.373 0 1 0 2.373 2.373 2.375 2.375 0 0 0 -2.373-2.372z"/><path d="m68.127 45.2a3.373 3.373 0 1 1 3.373-3.37 3.377 3.377 0 0 1 -3.373 3.37zm0-5.746a2.373 2.373 0 1 0 2.373 2.376 2.376 2.376 0 0 0 -2.373-2.373z"/><path d="m8.746 26.262a3.373 3.373 0 1 1 3.372-3.373 3.376 3.376 0 0 1 -3.372 3.373zm0-5.746a2.373 2.373 0 1 0 2.372 2.373 2.376 2.376 0 0 0 -2.372-2.372z"/><path d="m5.873 35.928a3.373 3.373 0 1 1 3.373-3.373 3.377 3.377 0 0 1 -3.373 3.373zm0-5.746a2.373 2.373 0 1 0 2.373 2.373 2.376 2.376 0 0 0 -2.373-2.373z"/><path d="m8.746 54.484a3.373 3.373 0 1 1 3.372-3.373 3.377 3.377 0 0 1 -3.372 3.373zm0-5.746a2.373 2.373 0 1 0 2.372 2.373 2.376 2.376 0 0 0 -2.372-2.372z"/><path d="m5.873 45.2a3.373 3.373 0 1 1 3.373-3.37 3.377 3.377 0 0 1 -3.373 3.37zm0-5.746a2.373 2.373 0 1 0 2.373 2.376 2.376 2.376 0 0 0 -2.373-2.373z"/></g><path d="m21.023 44.02a.567.567 0 0 1 .566.569l-.018 6.963a.567.567 0 1 1 -1.135 0l.018-6.963a.567.567 0 0 1 .569-.569z" fill="#fff"/><path d="m21.029 41.5a.567.567 0 0 1 .566.569v.3a.567.567 0 1 1 -1.135 0v-.3a.567.567 0 0 1 .569-.569z" fill="#fff"/></svg>