<svg id="color_line" height="512" viewBox="0 0 74 74" width="512" xmlns="http://www.w3.org/2000/svg" data-name="color line"><path d="m58.377 19.429h-47.052a3.3 3.3 0 0 0 -3.3 3.3v4.6h53.651v-4.6a3.3 3.3 0 0 0 -3.299-3.3z" fill="#9297ab"/><path d="m28.861 53.573v18.262l11.98-3.835v-14.427z" fill="#e1e6e9"/><path d="m8.026 27.328 20.835 26.245h11.98l20.835-26.245z" fill="#e1e6e9"/><path d="m40.841 53.575v14.42l-3.63 1.16v-15.58z" fill="#d5d6db"/><path d="m61.671 27.325-20.83 26.25h-3.63l20.84-26.25z" fill="#d5d6db"/><path d="m61.671 22.725v4.6h-3.56v-4.6a3.3 3.3 0 0 0 -3.3-3.3h3.57a3.3 3.3 0 0 1 3.29 3.3z" fill="#84879c"/><g fill="#323c6b"><path d="m20.465 34.8h-6.907a.5.5 0 0 1 0-1h6.907a.5.5 0 0 1 0 1z"/><path d="m24.371 40.954h-5.927a.5.5 0 0 1 0-1h5.927a.5.5 0 0 1 0 1z"/><path d="m28.278 47.111h-4.938a.5.5 0 0 1 0-1h4.938a.5.5 0 0 1 0 1z"/><path d="m20.2 15.359a.5.5 0 0 1 -.5-.5v-11.024a.5.5 0 0 1 1 0v11.024a.5.5 0 0 1 -.5.5z"/><path d="m43.131 15.359a.5.5 0 0 1 -.5-.5v-11.024a.5.5 0 1 1 1 0v11.024a.5.5 0 0 1 -.5.5z"/><path d="m49.5 15.359a.5.5 0 0 1 -.5-.5v-11.024a.5.5 0 1 1 1 0v11.024a.5.5 0 0 1 -.5.5z"/><path d="m28.478 15.359a4.04 4.04 0 0 1 -4.035-4.035v-3.953a4.035 4.035 0 0 1 8.071 0v3.953a4.04 4.04 0 0 1 -4.036 4.035zm0-11.023a3.038 3.038 0 0 0 -3.035 3.035v3.953a3.035 3.035 0 0 0 6.071 0v-3.953a3.039 3.039 0 0 0 -3.036-3.036z"/><path d="m36.758 15.359a.5.5 0 0 1 -.5-.5v-11.024a.5.5 0 1 1 1 0v11.024a.5.5 0 0 1 -.5.5z"/><path d="m28.861 72.335a.5.5 0 0 1 -.5-.5v-18.262a.5.5 0 0 1 .5-.5h11.98a.5.5 0 0 1 .5.5v14.427a.5.5 0 0 1 -.348.476l-11.98 3.836a.494.494 0 0 1 -.152.023zm.5-18.263v17.078l10.98-3.516v-13.561z"/><path d="m40.841 54.073h-11.98a.5.5 0 0 1 -.392-.189l-20.834-26.244a.5.5 0 0 1 .392-.811h53.648a.5.5 0 0 1 .392.811l-20.835 26.244a.5.5 0 0 1 -.391.189zm-11.738-1h11.497l20.04-25.244h-51.578z"/><path d="m61.675 27.829h-53.649a.5.5 0 0 1 -.5-.5v-4.6a3.8 3.8 0 0 1 3.8-3.8h47.05a3.8 3.8 0 0 1 3.8 3.8v4.6a.5.5 0 0 1 -.501.5zm-53.149-1h52.649v-4.1a2.8 2.8 0 0 0 -2.8-2.8h-47.05a2.8 2.8 0 0 0 -2.8 2.8z"/></g><path d="m52.123 24.136a.606.606 0 0 1 -.608.6l-6.584-.006a.606.606 0 0 1 0-1.213l6.584.006a.606.606 0 0 1 .608.613z" fill="#fff"/><path d="m54.681 24.143a.606.606 0 0 1 -.608.6h-.339a.606.606 0 0 1 0-1.213h.339a.607.607 0 0 1 .608.613z" fill="#fff"/><path d="m43.841 63.417a.5.5 0 0 1 -.5-.5v-8.125a.5.5 0 0 1 1 0v8.125a.5.5 0 0 1 -.5.5z" fill="#323c6b"/><path d="m43.841 66.292a.5.5 0 0 1 -.5-.5v-.5a.5.5 0 0 1 1 0v.5a.5.5 0 0 1 -.5.5z" fill="#323c6b"/><path d="m5.033 23.156h-.006a.5.5 0 0 1 -.494-.506 6.76 6.76 0 0 1 5.8-6.642.5.5 0 0 1 .146.989 5.765 5.765 0 0 0 -4.946 5.664.5.5 0 0 1 -.5.495z" fill="#323c6b"/><path d="m13.375 16.929h-.687a.5.5 0 1 1 0-1h.688a.5.5 0 0 1 0 1z" fill="#323c6b"/></svg>