<svg id="color_line" height="512" viewBox="0 0 74 74" width="512" xmlns="http://www.w3.org/2000/svg" data-name="color line"><path d="m58.375 65.58a5.424 5.424 0 0 1 -5.42 5.42h-31.91a5.418 5.418 0 0 1 -5.42-5.42v-57.16a5.418 5.418 0 0 1 5.42-5.42h31.91a5.424 5.424 0 0 1 5.42 5.42z" fill="#9297ab"/><path d="m58.38 8.42v57.16a5.389 5.389 0 0 1 -3.1 4.88 5.326 5.326 0 0 0 .26-1.65v-57.16a5.424 5.424 0 0 0 -5.42-5.42h-31.91a5.229 5.229 0 0 0 -2.34.54 5.425 5.425 0 0 1 5.17-3.77h31.92a5.431 5.431 0 0 1 5.42 5.42z" fill="#84879c"/><path d="m54.38 8.72v50.03a1.425 1.425 0 0 1 -1.42 1.42h-31.92a1.425 1.425 0 0 1 -1.42-1.42v-50.03a1.425 1.425 0 0 1 1.42-1.42h7.95l.92 2.03a1.37 1.37 0 0 0 1.24.81h11.7a1.37 1.37 0 0 0 1.24-.81l.92-2.03h7.95a1.425 1.425 0 0 1 1.42 1.42z" fill="#eeefee"/><path d="m54.38 8.72v50.03a1.425 1.425 0 0 1 -1.42 1.42h-2.56a1.425 1.425 0 0 0 1.42-1.42v-50.03a1.425 1.425 0 0 0 -1.42-1.42h2.56a1.425 1.425 0 0 1 1.42 1.42z" fill="#d5d6db"/><g fill="#323c6b"><path d="m42.916 65.5h-11.833a.5.5 0 1 1 0-1h11.833a.5.5 0 0 1 0 1z"/><path d="m42.51 46.054h-12a.5.5 0 0 1 0-1h12a.5.5 0 0 1 0 1z"/><path d="m46.524 32.4a.5.5 0 0 1 -.5-.5v-5.943a.5.5 0 0 1 1 0v5.943a.5.5 0 0 1 -.5.5z"/><path d="m43.122 23.753h-12.982a.5.5 0 0 1 0-1h12.982a.5.5 0 0 1 0 1z"/><path d="m27.595 43.137a.5.5 0 0 1 -.5-.5v-4.819a.5.5 0 0 1 1 0v4.818a.5.5 0 0 1 -.5.501z"/><path d="m43.392 35.3h-12.368a.5.5 0 0 1 0-1h12.368a.5.5 0 0 1 0 1z"/></g><circle cx="27.228" cy="23.252" fill="#27ccbc" r="2.912"/><path d="m27.228 26.664a3.412 3.412 0 1 1 3.412-3.412 3.415 3.415 0 0 1 -3.412 3.412zm0-5.823a2.412 2.412 0 1 0 2.412 2.412 2.415 2.415 0 0 0 -2.412-2.412z" fill="#323c6b"/><path d="m49.22 34.8a2.914 2.914 0 1 1 -2.91-2.91 1.935 1.935 0 0 1 .215.008 2.908 2.908 0 0 1 2.695 2.902z" fill="#fcd462"/><path d="m46.31 38.207a3.41 3.41 0 1 1 0-6.82 2.3 2.3 0 0 1 .272.012 3.409 3.409 0 0 1 -.272 6.808zm.034-5.82a2.419 2.419 0 1 0 .144.007 1.227 1.227 0 0 0 -.144-.007z" fill="#323c6b"/><path d="m30.512 45.554a2.914 2.914 0 1 1 -2.918-2.918 2.913 2.913 0 0 1 2.918 2.918z" fill="#05afd6"/><path d="m27.594 48.964a3.414 3.414 0 1 1 3.418-3.41 3.414 3.414 0 0 1 -3.418 3.41zm0-5.828a2.414 2.414 0 1 0 2.418 2.418 2.416 2.416 0 0 0 -2.418-2.418z" fill="#323c6b"/><path d="m43.122 20.542h6.368v5.414h-6.368z" fill="#05afd6"/><path d="m49.49 26.457h-6.368a.5.5 0 0 1 -.5-.5v-5.415a.5.5 0 0 1 .5-.5h6.368a.5.5 0 0 1 .5.5v5.415a.5.5 0 0 1 -.5.5zm-5.868-1h5.368v-4.415h-5.368z" fill="#323c6b"/><path d="m46.306 42.324-3.796 3.228 4.058 3.228 3.534-3.228z" fill="#89c5cd"/><path d="m46.568 49.279a.5.5 0 0 1 -.311-.109l-4.057-3.227a.5.5 0 0 1 -.013-.772l3.8-3.228a.5.5 0 0 1 .647 0l3.8 3.228a.5.5 0 0 1 .014.75l-3.534 3.228a.5.5 0 0 1 -.346.13zm-3.268-3.74 3.249 2.583 2.8-2.558-3.04-2.585z" fill="#323c6b"/><path d="m31.024 34.797-3.538 3.228-4.055-3.228 3.793-3.228z" fill="#fe7058"/><path d="m27.486 38.525a.5.5 0 0 1 -.312-.109l-4.054-3.228a.5.5 0 0 1 -.013-.772l3.793-3.228a.5.5 0 0 1 .648 0l3.8 3.228a.5.5 0 0 1 .013.75l-3.538 3.228a.5.5 0 0 1 -.337.131zm-3.268-3.741 3.246 2.584 2.8-2.558-3.043-2.585z" fill="#323c6b"/><path d="m52.955 71.5h-31.91a5.927 5.927 0 0 1 -5.92-5.92v-57.16a5.927 5.927 0 0 1 5.92-5.92h31.91a5.927 5.927 0 0 1 5.92 5.92v57.16a5.927 5.927 0 0 1 -5.92 5.92zm-31.91-68a4.925 4.925 0 0 0 -4.92 4.92v57.16a4.925 4.925 0 0 0 4.92 4.92h31.91a4.925 4.925 0 0 0 4.92-4.92v-57.16a4.925 4.925 0 0 0 -4.92-4.92z" fill="#323c6b"/><path d="m52.96 60.67h-31.92a1.922 1.922 0 0 1 -1.92-1.92v-50.03a1.922 1.922 0 0 1 1.92-1.92h7.95a.5.5 0 0 1 .456.293l.92 2.03a.876.876 0 0 0 .784.517h11.7a.876.876 0 0 0 .784-.515l.92-2.032a.5.5 0 0 1 .456-.293h7.95a1.922 1.922 0 0 1 1.92 1.92v50.03a1.922 1.922 0 0 1 -1.92 1.92zm-31.92-52.87a.921.921 0 0 0 -.92.92v50.03a.921.921 0 0 0 .92.92h31.92a.921.921 0 0 0 .92-.92v-50.03a.921.921 0 0 0 -.92-.92h-7.628l-.787 1.737a1.865 1.865 0 0 1 -1.7 1.1h-11.695a1.865 1.865 0 0 1 -1.7-1.105l-.782-1.732z" fill="#323c6b"/><path d="m30.265 67.65a.606.606 0 0 1 -.608.6l-7.542-.006a.606.606 0 0 1 0-1.213l7.542.006a.606.606 0 0 1 .608.613z" fill="#fff"/><path d="m32.822 67.656a.606.606 0 0 1 -.608.6h-.339a.606.606 0 1 1 0-1.213h.339a.607.607 0 0 1 .608.613z" fill="#fff"/><path d="m61.375 55.75a.5.5 0 0 1 -.5-.5v-9.417a.5.5 0 0 1 1 0v9.417a.5.5 0 0 1 -.5.5z" fill="#323c6b"/><path d="m61.375 59a.5.5 0 0 1 -.5-.5v-.667a.5.5 0 0 1 1 0v.667a.5.5 0 0 1 -.5.5z" fill="#323c6b"/><path d="m12.625 12.625a.5.5 0 0 1 -.5-.5v-.562a.5.5 0 0 1 1 0v.563a.5.5 0 0 1 -.5.499z" fill="#323c6b"/><path d="m12.625 9.875a.5.5 0 0 1 -.5-.5v-.955a8.856 8.856 0 0 1 2.489-6.167.5.5 0 0 1 .721.693 7.862 7.862 0 0 0 -2.21 5.474v.955a.5.5 0 0 1 -.5.5z" fill="#323c6b"/></svg>