<svg id="color_line" height="512" viewBox="0 0 74 74" width="512" xmlns="http://www.w3.org/2000/svg" data-name="color line"><path d="m24.361 20.774a6.015 6.015 0 0 1 -5.131-5.634 6 6 0 0 1 5.131-5.627" fill="#bbbbcd"/><path d="m24.362 21.274a.5.5 0 0 1 -.07 0 6.521 6.521 0 0 1 -5.562-6.129 6.517 6.517 0 0 1 5.562-6.122.5.5 0 0 1 .14.99 5.487 5.487 0 0 0 -4.7 5.132 5.491 5.491 0 0 0 4.7 5.139.5.5 0 0 1 -.069 1z" fill="#323c6b"/><path d="m49.759 20.774a6.015 6.015 0 0 0 5.131-5.634 6 6 0 0 0 -5.131-5.627" fill="#bbbbcd"/><path d="m49.759 21.274a.5.5 0 0 1 -.069-1 5.49 5.49 0 0 0 4.7-5.139 5.487 5.487 0 0 0 -4.7-5.132.5.5 0 0 1 .14-.99 6.517 6.517 0 0 1 5.561 6.122 6.521 6.521 0 0 1 -5.561 6.129.491.491 0 0 1 -.071.01z" fill="#323c6b"/><rect fill="#e1e6e9" height="22.295" rx="3.148" width="26.582" x="23.769" y="3.873"/><path d="m55.481 33.277v12.34a2.625 2.625 0 0 1 -5.25 0v-15.88h1.7a3.542 3.542 0 0 1 3.55 3.54z" fill="#bbbbcd"/><path d="m52.851 48.737a3.123 3.123 0 0 1 -3.12-3.12v-15.88a.5.5 0 0 1 .5-.5h1.7a4.05 4.05 0 0 1 4.05 4.04v12.34a3.129 3.129 0 0 1 -3.13 3.12zm-2.12-18.5v15.38a2.125 2.125 0 0 0 4.25 0v-12.34a3.049 3.049 0 0 0 -3.05-3.04z" fill="#323c6b"/><path d="m27.5 26.168h19.13a3.606 3.606 0 0 1 3.606 3.606v18.007a2.109 2.109 0 0 1 -2.109 2.109h-22.127a2.109 2.109 0 0 1 -2.109-2.109v-18.007a3.606 3.606 0 0 1 3.609-3.606z" fill="#e1e6e9"/><path d="m50.353 7.017v16a3.145 3.145 0 0 1 -2.49 3.08 2.416 2.416 0 0 0 .04-.47v-16a3.15 3.15 0 0 0 -3.15-3.15h-20.28a2.963 2.963 0 0 0 -.66.07 3.135 3.135 0 0 1 3.1-2.67h20.287a3.148 3.148 0 0 1 3.153 3.14z" fill="#d5d6db"/><path d="m50.233 29.777v18a2.11 2.11 0 0 1 -2.11 2.11h-2.95a2.1 2.1 0 0 0 2.11-2.11v-18a3.606 3.606 0 0 0 -3.6-3.61h2.94a3.615 3.615 0 0 1 3.61 3.61z" fill="#d5d6db"/><path d="m23.769 29.737v15.88a2.625 2.625 0 0 1 -5.25 0v-12.34a3.542 3.542 0 0 1 3.55-3.54z" fill="#bbbbcd"/><g fill="#323c6b"><path d="m21.149 48.737a3.128 3.128 0 0 1 -3.13-3.12v-12.34a4.05 4.05 0 0 1 4.05-4.04h1.7a.5.5 0 0 1 .5.5v15.88a3.124 3.124 0 0 1 -3.12 3.12zm.92-18.5a3.048 3.048 0 0 0 -3.05 3.04v12.34a2.125 2.125 0 0 0 4.25 0v-15.38z"/><path d="m23.769 39.243h-5.245a.5.5 0 1 1 0-1h5.244a.5.5 0 1 1 0 1z"/><path d="m23.769 43.59h-5.245a.5.5 0 1 1 0-1h5.244a.5.5 0 1 1 0 1z"/><path d="m55.476 39.243h-5.245a.5.5 0 0 1 0-1h5.244a.5.5 0 0 1 0 1z"/><path d="m23.769 34.9h-5.245a.5.5 0 1 1 0-1h5.244a.5.5 0 1 1 0 1z"/><path d="m55.476 34.9h-5.245a.5.5 0 0 1 0-1h5.244a.5.5 0 0 1 0 1z"/><path d="m55.476 43.59h-5.245a.5.5 0 0 1 0-1h5.244a.5.5 0 0 1 0 1z"/></g><path d="m34.117 49.89v6.559a3.8 3.8 0 0 0 -5.577 0v-6.559z" fill="#e1e6e9"/><path d="m34.117 56.949a.5.5 0 0 1 -.368-.161 3.3 3.3 0 0 0 -4.841 0 .5.5 0 0 1 -.868-.339v-6.559a.5.5 0 0 1 .5-.5h5.577a.5.5 0 0 1 .5.5v6.559a.5.5 0 0 1 -.5.5zm-2.789-2.219a4.307 4.307 0 0 1 2.289.66v-5h-4.577v5a4.308 4.308 0 0 1 2.288-.661z" fill="#323c6b"/><path d="m31.328 62.852a3.774 3.774 0 0 0 2.789-1.227v7.163a3.241 3.241 0 0 0 -1.035-.167h-3.515a3.267 3.267 0 0 0 -1.027.167v-7.163a3.774 3.774 0 0 0 2.788 1.227z" fill="#e1e6e9"/><path d="m34.117 69.288a.5.5 0 0 1 -.158-.025 2.736 2.736 0 0 0 -.877-.142h-3.515a2.785 2.785 0 0 0 -.869.141.5.5 0 0 1 -.658-.474v-7.163a.5.5 0 0 1 .87-.337 3.281 3.281 0 0 0 4.837 0 .5.5 0 0 1 .87.337v7.163a.5.5 0 0 1 -.5.5zm-4.55-1.167h3.515a3.83 3.83 0 0 1 .535.038v-5.469a4.4 4.4 0 0 1 -4.577 0v5.468a3.8 3.8 0 0 1 .527-.037z" fill="#323c6b"/><path d="m36.446 71.986v.6h-10.236v-.6a3.356 3.356 0 0 1 1.945-3.047 2.161 2.161 0 0 1 .384-.15 3.267 3.267 0 0 1 1.027-.167h3.515a3.241 3.241 0 0 1 1.035.167 3.057 3.057 0 0 1 .384.15 3.365 3.365 0 0 1 1.946 3.047z" fill="#bbbbcd"/><path d="m36.446 73.087h-10.236a.5.5 0 0 1 -.5-.5v-.6a3.861 3.861 0 0 1 2.236-3.5 2.626 2.626 0 0 1 .471-.181 3.648 3.648 0 0 1 1.149-.182h3.515a3.779 3.779 0 0 1 1.193.192 3.566 3.566 0 0 1 .438.172 3.88 3.88 0 0 1 2.234 3.5v.6a.5.5 0 0 1 -.5.499zm-9.736-1h9.236v-.1a2.876 2.876 0 0 0 -1.657-2.594 2.558 2.558 0 0 0 -.323-.126 2.753 2.753 0 0 0 -.885-.144h-3.514a2.785 2.785 0 0 0 -.869.141 1.785 1.785 0 0 0 -.33.129 2.859 2.859 0 0 0 -1.658 2.595z" fill="#323c6b"/><path d="m35.135 59.037a3.813 3.813 0 1 1 -1.019-2.588 3.781 3.781 0 0 1 1.019 2.588z" fill="#bbbbcd"/><path d="m31.328 63.352a4.327 4.327 0 1 1 3.155-1.387 4.279 4.279 0 0 1 -3.155 1.387zm0-7.623a3.3 3.3 0 1 0 3.307 3.307 3.265 3.265 0 0 0 -.883-2.246 3.3 3.3 0 0 0 -2.424-1.061z" fill="#323c6b"/><path d="m46.75 49.891v6.556a3.806 3.806 0 0 0 -5.58 0v-6.556z" fill="#e1e6e9"/><path d="m46.75 56.947a.5.5 0 0 1 -.367-.161 3.306 3.306 0 0 0 -4.845 0 .5.5 0 0 1 -.868-.339v-6.555a.5.5 0 0 1 .5-.5h5.58a.5.5 0 0 1 .5.5v6.556a.5.5 0 0 1 -.5.5zm-2.79-2.217a4.317 4.317 0 0 1 2.29.659v-5h-4.58v5a4.321 4.321 0 0 1 2.29-.659z" fill="#323c6b"/><path d="m43.959 62.852a3.774 3.774 0 0 0 2.789-1.227v7.163a3.241 3.241 0 0 0 -1.035-.167h-3.513a3.267 3.267 0 0 0 -1.027.167v-7.163a3.774 3.774 0 0 0 2.786 1.227z" fill="#e1e6e9"/><path d="m46.747 69.288a.5.5 0 0 1 -.158-.025 2.736 2.736 0 0 0 -.877-.142h-3.512a2.785 2.785 0 0 0 -.869.141.5.5 0 0 1 -.658-.474v-7.163a.5.5 0 0 1 .87-.337 3.281 3.281 0 0 0 4.837 0 .5.5 0 0 1 .87.337v7.163a.5.5 0 0 1 -.5.5zm-5.077-6.6v5.469a3.693 3.693 0 0 1 .527-.038h3.515a3.83 3.83 0 0 1 .535.038v-5.467a4.4 4.4 0 0 1 -4.577 0z" fill="#323c6b"/><path d="m49.077 71.986v.6h-10.236v-.6a3.356 3.356 0 0 1 1.945-3.047 2.161 2.161 0 0 1 .384-.15 3.267 3.267 0 0 1 1.027-.167h3.515a3.241 3.241 0 0 1 1.035.167 3.057 3.057 0 0 1 .384.15 3.365 3.365 0 0 1 1.946 3.047z" fill="#bbbbcd"/><path d="m49.077 73.087h-10.236a.5.5 0 0 1 -.5-.5v-.6a3.861 3.861 0 0 1 2.236-3.5 2.669 2.669 0 0 1 .471-.181 3.693 3.693 0 0 1 1.149-.182h3.515a3.779 3.779 0 0 1 1.193.192 3.566 3.566 0 0 1 .438.172 3.88 3.88 0 0 1 2.234 3.5v.6a.5.5 0 0 1 -.5.499zm-9.736-1h9.236v-.1a2.876 2.876 0 0 0 -1.657-2.594 2.558 2.558 0 0 0 -.323-.126 2.753 2.753 0 0 0 -.885-.144h-3.512a2.785 2.785 0 0 0 -.869.141 1.775 1.775 0 0 0 -.331.129 2.859 2.859 0 0 0 -1.657 2.594z" fill="#323c6b"/><path d="m47.766 59.037a3.813 3.813 0 1 1 -1.019-2.588 3.781 3.781 0 0 1 1.019 2.588z" fill="#bbbbcd"/><path d="m43.958 63.352a4.327 4.327 0 1 1 3.155-1.387 4.279 4.279 0 0 1 -3.155 1.387zm0-7.623a3.3 3.3 0 1 0 3.307 3.307 3.265 3.265 0 0 0 -.883-2.246 3.3 3.3 0 0 0 -2.424-1.061z" fill="#323c6b"/><circle cx="37.643" cy="38.029" fill="#9297ab" r="6.263"/><path d="m37.644 44.792a6.763 6.763 0 1 1 6.763-6.763 6.77 6.77 0 0 1 -6.763 6.763zm0-12.525a5.763 5.763 0 1 0 5.763 5.763 5.769 5.769 0 0 0 -5.763-5.763z" fill="#323c6b"/><circle cx="37.643" cy="38.029" fill="#9297ab" r="2.448"/><path d="m37.644 40.977a2.948 2.948 0 1 1 2.948-2.948 2.951 2.951 0 0 1 -2.948 2.948zm0-4.9a1.948 1.948 0 1 0 1.948 1.948 1.95 1.95 0 0 0 -1.948-1.943z" fill="#323c6b"/><path d="m28.31 8.233h17.5v13.574h-17.5z" fill="#89c5cd"/><path d="m45.811 22.308h-17.501a.5.5 0 0 1 -.5-.5v-13.575a.5.5 0 0 1 .5-.5h17.5a.5.5 0 0 1 .5.5v13.575a.5.5 0 0 1 -.499.5zm-17-1h16.5v-12.575h-16.501z" fill="#323c6b"/><path d="m36.632 18.9h-.027a.5.5 0 0 1 -.443-.33l-2-5.535-.731 1.806a.5.5 0 0 1 -.463.312h-1.549a.5.5 0 0 1 0-1h1.211l1.1-2.7a.482.482 0 0 1 .473-.312.5.5 0 0 1 .46.33l2.037 5.651 2.484-5.083a.5.5 0 0 1 .922.057l1.039 3.021h1.555a.5.5 0 0 1 0 1h-1.911a.5.5 0 0 1 -.473-.337l-.762-2.217-2.473 5.06a.5.5 0 0 1 -.449.277z" fill="#323c6b"/><path d="m48.122 50.391h-22.122a2.612 2.612 0 0 1 -2.609-2.609v-18.009a4.11 4.11 0 0 1 4.109-4.105h19.13a4.11 4.11 0 0 1 4.106 4.105v18.008a2.612 2.612 0 0 1 -2.614 2.61zm-20.622-23.723a3.109 3.109 0 0 0 -3.105 3.105v18.008a1.611 1.611 0 0 0 1.605 1.61h22.122a1.611 1.611 0 0 0 1.609-1.609v-18.009a3.109 3.109 0 0 0 -3.106-3.105z" fill="#323c6b"/><path d="m47.2 26.668h-20.283a3.652 3.652 0 0 1 -3.647-3.648v-16a3.652 3.652 0 0 1 3.648-3.648h20.282a3.652 3.652 0 0 1 3.648 3.648v16a3.653 3.653 0 0 1 -3.648 3.648zm-20.283-22.295a2.651 2.651 0 0 0 -2.647 2.648v16a2.651 2.651 0 0 0 2.648 2.648h20.282a2.651 2.651 0 0 0 2.648-2.648v-16a2.651 2.651 0 0 0 -2.648-2.648z" fill="#323c6b"/><path d="m20.855 6.545a.49.49 0 0 1 -.08-.006.5.5 0 0 1 -.415-.573 6.614 6.614 0 0 1 6.557-5.593h1.643a.5.5 0 0 1 0 1h-1.643a5.619 5.619 0 0 0 -5.569 4.751.5.5 0 0 1 -.493.421z" fill="#323c6b"/><path d="m31.852 1.373h-.583a.5.5 0 0 1 0-1h.583a.5.5 0 0 1 0 1z" fill="#323c6b"/></svg>