<?xml version="1.0"?>
<svg xmlns="http://www.w3.org/2000/svg" id="color_line" data-name="color line" viewBox="0 0 74 74" width="512" height="512"><path d="M63.21,39.927A12.346,12.346,0,0,0,52.719,19.19a100.49,100.49,0,0,1-21.822.5l-15.548,2.94a12.335,12.335,0,0,0-3.6,8.724v.166A12.312,12.312,0,0,0,15.4,40.286L33.268,43a95.737,95.737,0,0,1,12.066-.035" fill="#eeefee"/><path d="M63.21,39.927A12.346,12.346,0,0,0,52.719,19.19a100.49,100.49,0,0,1-21.822.5l-15.548,2.94a12.335,12.335,0,0,0-3.6,8.724v.166A12.312,12.312,0,0,0,15.4,40.286L33.268,43a95.737,95.737,0,0,1,12.066-.035" fill="#eeefee"/><path d="M33.268,43.5a.488.488,0,0,1-.075-.006L15.326,40.78a.5.5,0,0,1-.277-.139,12.763,12.763,0,0,1-3.8-9.123v-.166a12.778,12.778,0,0,1,3.742-9.077.5.5,0,0,1,.262-.138L30.8,19.2a.429.429,0,0,1,.135-.007,100.564,100.564,0,0,0,21.714-.5A12.683,12.683,0,0,1,62.688,21.74a12.875,12.875,0,0,1,.885,18.53.5.5,0,1,1-.727-.687,11.876,11.876,0,0,0-.816-17.091,11.7,11.7,0,0,0-9.245-2.807,101.666,101.666,0,0,1-21.863.507L15.6,23.091a11.781,11.781,0,0,0-3.344,8.261v.166a11.765,11.765,0,0,0,3.388,8.3L33.289,42.5a96.7,96.7,0,0,1,12.075-.032.5.5,0,1,1-.061,1,95.846,95.846,0,0,0-12,.035Z" fill="#323c6b"/><path d="M52.72,19.19a100.721,100.721,0,0,1-21.82.5l-.525.1v2.881A99.772,99.772,0,0,0,50.24,22.03,12.352,12.352,0,0,1,62.69,40.02l.52-.09A12.347,12.347,0,0,0,52.72,19.19Z" fill="#e1e6e9"/><path d="M33.268,43.5a.488.488,0,0,1-.075-.006L15.326,40.78a.5.5,0,0,1-.277-.139,12.763,12.763,0,0,1-3.8-9.123v-.166a12.778,12.778,0,0,1,3.742-9.077.5.5,0,0,1,.262-.138L30.8,19.2a.429.429,0,0,1,.135-.007,100.564,100.564,0,0,0,21.714-.5A12.683,12.683,0,0,1,62.688,21.74a12.875,12.875,0,0,1,.885,18.53.5.5,0,1,1-.727-.687,11.876,11.876,0,0,0-.816-17.091,11.7,11.7,0,0,0-9.245-2.807,101.666,101.666,0,0,1-21.863.507L15.6,23.091a11.781,11.781,0,0,0-3.344,8.261v.166a11.765,11.765,0,0,0,3.388,8.3L33.289,42.5a96.7,96.7,0,0,1,12.075-.032.5.5,0,1,1-.061,1,95.846,95.846,0,0,0-12,.035Z" fill="#323c6b"/><path d="M68.375,30.575H66.587a.5.5,0,0,1,0-1h1.788A2.127,2.127,0,0,0,70.5,27.45V18.373a2.127,2.127,0,0,0-2.125-2.125,3.743,3.743,0,0,0-3.5,2.452.5.5,0,0,1-.939-.343,4.746,4.746,0,0,1,4.444-3.109A3.129,3.129,0,0,1,71.5,18.373V27.45A3.129,3.129,0,0,1,68.375,30.575Z" fill="#323c6b"/><path d="M23.425,24.262a9.859,9.859,0,0,1-2.286.266A9.722,9.722,0,0,1,13.4,20.71H5.594a2.564,2.564,0,0,1-2.276-3.772,8.824,8.824,0,0,1,7.415-3.993h.834A9.753,9.753,0,0,1,30.9,14.78c0,.395-.028.789-.064,1.175" fill="#eeefee"/><path d="M10.73,12.94h.51a9.717,9.717,0,0,0-.76,2.34H9.65A9.2,9.2,0,0,0,3,18.2a2.439,2.439,0,0,1,.32-1.26A8.811,8.811,0,0,1,10.73,12.94Z" fill="#e1e6e9"/><path d="M30.9,14.78a11.506,11.506,0,0,1-.07,1.18L29.81,17.1a9.75,9.75,0,0,0-17.96-5.24A9.749,9.749,0,0,1,30.9,14.78Z" fill="#e1e6e9"/><path d="M22.856,21.095a8.677,8.677,0,0,0,4.063,7.45,2.667,2.667,0,0,0,3.974-2.469v-9.51a2.68,2.68,0,0,0-2.59-2.762H25.446a2.68,2.68,0,0,0-2.59,2.762Z" fill="#eeefee"/><path d="M30.89,16.57v9.51a2.66,2.66,0,0,1-3.97,2.46,8.138,8.138,0,0,1-1.83-1.53,2.671,2.671,0,0,0,3.87-2.53V14.97a2.942,2.942,0,0,0-.22-1.12A2.71,2.71,0,0,1,30.89,16.57Z" fill="#e1e6e9"/><path d="M22.453,63.5v3.815a1.645,1.645,0,0,1-1.645,1.654H12.05A1.647,1.647,0,0,1,10.4,67.314a3.927,3.927,0,0,1,3.929-3.92H15.9" fill="#bbbbcd"/><path d="M20.809,69.467H12.05A2.156,2.156,0,0,1,9.9,67.313a4.429,4.429,0,0,1,4.429-4.42H15.9a.5.5,0,1,1,0,1H14.325a3.428,3.428,0,0,0-3.429,3.42,1.141,1.141,0,0,0,1.153,1.154h8.759a1.151,1.151,0,0,0,1.145-1.154V63.5a.5.5,0,0,1,1,0v3.815A2.152,2.152,0,0,1,20.809,69.467Z" fill="#323c6b"/><path d="M27.8,49.035a9.1,9.1,0,1,0-6.352.1" fill="#bbbbcd"/><path d="M21.447,49.631a.5.5,0,0,1-.167-.029,9.615,9.615,0,1,1,6.7-.1.5.5,0,1,1-.359-.933,8.6,8.6,0,1,0-6.006.091.5.5,0,0,1-.167.971Z" fill="#323c6b"/><path d="M27.8,44.949a5.5,5.5,0,1,0-6.352.184" fill="#eeefee"/><path d="M21.447,45.633a.5.5,0,0,1-.276-.083,6.019,6.019,0,1,1,6.927-.2.5.5,0,0,1-.6-.8,4.928,4.928,0,0,0,2.011-4,5.012,5.012,0,1,0-7.789,4.168.5.5,0,0,1-.276.917Z" fill="#323c6b"/><path d="M59.832,66.579v.735a1.645,1.645,0,0,1-1.645,1.654H49.8a1.652,1.652,0,0,1-1.654-1.654,3.927,3.927,0,0,1,3.929-3.92h3.37" fill="#bbbbcd"/><path d="M58.188,69.467H49.8a2.156,2.156,0,0,1-2.153-2.154,4.429,4.429,0,0,1,4.428-4.42h3.37a.5.5,0,0,1,0,1h-3.37a3.428,3.428,0,0,0-3.428,3.42A1.155,1.155,0,0,0,49.8,68.467h8.384a1.151,1.151,0,0,0,1.145-1.154v-.735a.5.5,0,0,1,1,0v.735A2.152,2.152,0,0,1,58.188,69.467Z" fill="#323c6b"/><path d="M57.416,49.035a9.1,9.1,0,1,0-6.352.1" fill="#bbbbcd"/><path d="M51.063,49.631A.5.5,0,0,1,50.9,49.6a9.615,9.615,0,1,1,6.7-.1.5.5,0,1,1-.359-.933,8.6,8.6,0,1,0-6.006.091.5.5,0,0,1-.167.971Z" fill="#323c6b"/><path d="M57.416,44.949a5.5,5.5,0,1,0-6.352.184" fill="#eeefee"/><path d="M51.063,45.633a.5.5,0,0,1-.276-.083,6.02,6.02,0,1,1,6.927-.2.5.5,0,1,1-.6-.8,4.928,4.928,0,0,0,2.012-4,5.012,5.012,0,1,0-7.79,4.168.5.5,0,0,1-.276.917Z" fill="#323c6b"/><path d="M24.626,39.335a3.177,3.177,0,0,0-3.177,3.177V50A3.177,3.177,0,1,0,27.8,50V42.511A3.177,3.177,0,0,0,24.626,39.335Z" fill="#eeefee"/><path d="M24.364,53.293a3.177,3.177,0,0,0-4.277,1.374l-3.851,6.952a3.177,3.177,0,1,0,5.651,2.9l3.851-6.952A3.177,3.177,0,0,0,24.364,53.293Z" fill="#eeefee"/><path d="M54.243,39.335a3.177,3.177,0,0,0-3.177,3.177V50a3.177,3.177,0,1,0,6.353,0V42.511A3.177,3.177,0,0,0,54.243,39.335Z" fill="#eeefee"/><path d="M54.774,53.225a3.177,3.177,0,0,1,4.1,1.847l3.043,7.342a3.177,3.177,0,1,1-5.942,2.249L52.927,57.32A3.177,3.177,0,0,1,54.774,53.225Z" fill="#eeefee"/><path d="M27.8,42.51V50a3.171,3.171,0,0,1-3.17,3.17,3.224,3.224,0,0,1-.93-.14.075.075,0,0,1-.05-.01,3.249,3.249,0,0,1-.97-.52,3.169,3.169,0,0,0,3.02-3.17V41.84a3.166,3.166,0,0,0-1.22-2.5.757.757,0,0,1,.15-.01A3.18,3.18,0,0,1,27.8,42.51Z" fill="#e1e6e9"/><path d="M25.74,57.57l-3.85,6.95a3.184,3.184,0,0,1-4.28,1.38,2.4,2.4,0,0,1-.5-.33,3.163,3.163,0,0,0,2.67-1.71l3.85-6.96a3.156,3.156,0,0,0-.87-3.95,3.375,3.375,0,0,1,.89.07.075.075,0,0,0,.05.01,3.34,3.34,0,0,1,.66.26A3.187,3.187,0,0,1,25.74,57.57Z" fill="#e1e6e9"/><path d="M57.42,42.51V50a3.173,3.173,0,0,1-3.18,3.17,1.209,1.209,0,0,1-.19-.01,3.193,3.193,0,0,0,1.37-2.62V43.05a3.166,3.166,0,0,0-2.98-3.16,3.178,3.178,0,0,1,4.98,2.62Z" fill="#e1e6e9"/><path d="M60.07,66.51a3.061,3.061,0,0,1-1.36.19,3.158,3.158,0,0,0,1.2-3.75l-3.04-7.34a3.128,3.128,0,0,0-2.75-2.03,2.724,2.724,0,0,1,.65-.35,3.172,3.172,0,0,1,4.1,1.84l3.04,7.34A3.18,3.18,0,0,1,60.07,66.51Z" fill="#e1e6e9"/><path d="M21.14,25.028a10.172,10.172,0,0,1-7.98-3.818H5.594a3.07,3.07,0,0,1-2.672-1.537,2.969,2.969,0,0,1-.041-2.98,9.334,9.334,0,0,1,7.852-4.249h.429A10.253,10.253,0,0,1,31.4,14.78c0,.411-.028.821-.065,1.222a.5.5,0,1,1-1-.093c.035-.37.062-.749.062-1.128a9.253,9.253,0,0,0-18.339-1.742.5.5,0,0,1-.491.407h-.834a8.284,8.284,0,0,0-6.979,3.736,1.982,1.982,0,0,0,.03,1.987,2.081,2.081,0,0,0,1.81,1.042H13.4a.5.5,0,0,1,.4.2,9.184,9.184,0,0,0,7.341,3.623,9.418,9.418,0,0,0,2.171-.252.5.5,0,1,1,.23.973A10.409,10.409,0,0,1,21.14,25.028Z" fill="#323c6b"/><path d="M28.23,29.418a3.016,3.016,0,0,1-1.571-.446,9.211,9.211,0,0,1-4.3-7.877V16.567a3.183,3.183,0,0,1,3.09-3.262H28.3a3.183,3.183,0,0,1,3.09,3.262v9.509a3.365,3.365,0,0,1-1.68,2.948A3.019,3.019,0,0,1,28.23,29.418ZM25.446,14.305a2.183,2.183,0,0,0-2.09,2.262v4.528a8.207,8.207,0,0,0,3.822,7.023,1.975,1.975,0,0,0,2.045.035,2.334,2.334,0,0,0,1.17-2.077V16.567a2.183,2.183,0,0,0-2.09-2.262Z" fill="#323c6b"/><path d="M24.626,53.674A3.681,3.681,0,0,1,20.949,50V42.511a3.677,3.677,0,0,1,7.354,0V50A3.681,3.681,0,0,1,24.626,53.674Zm0-13.839a2.68,2.68,0,0,0-2.677,2.676V50A2.677,2.677,0,1,0,27.3,50V42.511A2.68,2.68,0,0,0,24.626,39.835Z" fill="#323c6b"/><path d="M19.058,66.748a3.676,3.676,0,0,1-3.266-5.357l3.857-6.966A3.676,3.676,0,0,1,26.182,57.8l-3.857,6.966A3.67,3.67,0,0,1,19.058,66.748Zm3.857-13.307A2.684,2.684,0,0,0,20.531,54.9l-3.857,6.966a2.677,2.677,0,0,0,4.769,2.433L25.3,57.329a2.679,2.679,0,0,0-2.385-3.888Z" fill="#323c6b"/><path d="M54.243,53.674A3.681,3.681,0,0,1,50.566,50V42.511a3.677,3.677,0,0,1,7.354,0V50A3.681,3.681,0,0,1,54.243,53.674Zm0-13.839a2.68,2.68,0,0,0-2.677,2.676V50a2.677,2.677,0,1,0,5.354,0V42.511A2.68,2.68,0,0,0,54.243,39.835Z" fill="#323c6b"/><path d="M58.945,67.214A3.684,3.684,0,0,1,55.5,64.839l-3.037-7.328A3.677,3.677,0,1,1,59.337,54.9l3.037,7.327a3.676,3.676,0,0,1-3.429,4.993ZM55.9,53.518a2.68,2.68,0,0,0-2.5,3.625l3.037,7.328a2.677,2.677,0,1,0,5.013-1.881l-3.037-7.327A2.682,2.682,0,0,0,55.9,53.518Z" fill="#323c6b"/><path d="M10.91,39.82a.5.5,0,0,1-.427-.239c-.094-.153-.187-.308-.273-.465a.5.5,0,0,1,.877-.482c.079.145.164.285.25.426a.5.5,0,0,1-.166.688A.5.5,0,0,1,10.91,39.82Z" fill="#323c6b"/><path d="M9.667,37.208a.5.5,0,0,1-.471-.33,15.749,15.749,0,0,1-.944-5.36v-.166A15.176,15.176,0,0,1,8.4,29.277a.5.5,0,0,1,.563-.427.5.5,0,0,1,.427.563,14.264,14.264,0,0,0-.134,1.938v.166a14.742,14.742,0,0,0,.886,5.021.5.5,0,0,1-.3.64A.5.5,0,0,1,9.667,37.208Z" fill="#323c6b"/><path d="M59,17.342a.5.5,0,0,1-.156-.025,14.619,14.619,0,0,0-6.454-.605c-.972.129-1.945.24-2.922.339a.509.509,0,0,1-.548-.447.5.5,0,0,1,.446-.548c.967-.1,1.931-.208,2.892-.335a15.627,15.627,0,0,1,6.9.646.5.5,0,0,1-.156.975Z" fill="#323c6b"/><path d="M46.668,17.29a.5.5,0,0,1-.022-1l.317-.018a.5.5,0,1,1,.074,1c-.115.009-.231.015-.347.02Z" fill="#323c6b"/></svg>
