<svg id="color_line" height="512" viewBox="0 0 74 74" width="512" xmlns="http://www.w3.org/2000/svg" data-name="color line"><path d="m67.03 34.832c0 10.8-8.76 36.52-19.56 36.52a19.415 19.415 0 0 1 -10.47-3.04 19.415 19.415 0 0 1 -10.47 3.04c-10.8 0-19.56-25.72-19.56-36.52a19.558 19.558 0 0 1 30.03-16.52 19.558 19.558 0 0 1 30.03 16.52z" fill="#fe7058"/><path d="m67.03 34.83c0 10.8-8.76 36.52-19.56 36.52a19.415 19.415 0 0 1 -10.47-3.04 19.415 19.415 0 0 1 -10.47 3.04c-3.36 0-6.53-2.49-9.29-6.25 2.21 2.28 4.61 3.67 7.12 3.67a19.415 19.415 0 0 0 10.47-3.04 19.414 19.414 0 0 0 10.47 3.04c10.8 0 19.56-25.72 19.56-36.52a19.444 19.444 0 0 0 -3.59-11.28 19.5 19.5 0 0 1 5.76 13.86z" fill="#ea6453"/><path d="m37 18.812a.5.5 0 0 1 -.5-.5c0-.12.1-11.978 10.813-14.962a.5.5 0 1 1 .268.963c-9.981 2.787-10.081 13.887-10.081 13.998a.5.5 0 0 1 -.5.5z" fill="#323c6b"/><path d="m24.553 3.3c.724 7.18 6.855 11.137 13.7 8.839-.727-7.178-6.859-11.139-13.7-8.839z" fill="#6fc666"/><path d="m36.6 12.57c-6.15 1.2-11.38-2.67-12.05-9.27a11.535 11.535 0 0 1 4.13-.64 11.828 11.828 0 0 0 -1.65.43c.58 5.69 4.55 9.35 9.57 9.48z" fill="#65b54e"/><rect fill="#fcd462" height="24.485" rx="2.964" width="24.494" x="24.753" y="31.07"/><path d="m46.283 56.054h-18.566a3.468 3.468 0 0 1 -3.464-3.464v-18.557a3.467 3.467 0 0 1 3.464-3.463h18.566a3.467 3.467 0 0 1 3.464 3.463v18.557a3.468 3.468 0 0 1 -3.464 3.464zm-18.566-24.484a2.466 2.466 0 0 0 -2.464 2.463v18.557a2.467 2.467 0 0 0 2.464 2.464h18.566a2.467 2.467 0 0 0 2.464-2.464v-18.557a2.466 2.466 0 0 0 -2.464-2.463z" fill="#323c6b"/><rect fill="#f7be56" height="16.484" rx="1.995" width="16.494" x="28.753" y="35.07"/><g fill="#323c6b"><path d="m24.752 34.792h-4.895a.5.5 0 0 1 0-1h4.895a.5.5 0 1 1 0 1z"/><path d="m24.753 40.725h-6.9a.5.5 0 1 1 0-1h6.9a.5.5 0 0 1 0 1z"/><path d="m24.753 46.652h-6.536a.5.5 0 0 1 0-1h6.536a.5.5 0 1 1 0 1z"/><path d="m24.752 52.832h-4.895a.5.5 0 0 1 0-1h4.895a.5.5 0 1 1 0 1z"/><path d="m54.143 34.792h-4.895a.5.5 0 1 1 0-1h4.895a.5.5 0 0 1 0 1z"/><path d="m56.146 40.725h-6.9a.5.5 0 0 1 0-1h6.9a.5.5 0 0 1 0 1z"/><path d="m55.783 46.652h-6.536a.5.5 0 0 1 0-1h6.536a.5.5 0 0 1 0 1z"/><path d="m54.143 52.832h-4.895a.5.5 0 0 1 0-1h4.895a.5.5 0 1 1 0 1z"/><path d="m46.021 31.564a.5.5 0 0 1 -.5-.5v-4.895a.5.5 0 1 1 1 0v4.895a.5.5 0 0 1 -.5.5z"/><path d="m40.087 31.564a.5.5 0 0 1 -.5-.5v-6.9a.5.5 0 0 1 1 0v6.9a.5.5 0 0 1 -.5.5z"/><path d="m34.16 31.564a.5.5 0 0 1 -.5-.5v-6.536a.5.5 0 1 1 1 0v6.536a.5.5 0 0 1 -.5.5z"/><path d="m27.979 31.564a.5.5 0 0 1 -.5-.5v-4.895a.5.5 0 0 1 1 0v4.895a.5.5 0 0 1 -.5.5z"/><path d="m46.021 60.954a.5.5 0 0 1 -.5-.5v-4.894a.5.5 0 0 1 1 0v4.895a.5.5 0 0 1 -.5.499z"/><path d="m40.087 62.957a.5.5 0 0 1 -.5-.5v-6.9a.5.5 0 0 1 1 0v6.9a.5.5 0 0 1 -.5.5z"/><path d="m34.16 62.595a.5.5 0 0 1 -.5-.5v-6.536a.5.5 0 0 1 1 0v6.536a.5.5 0 0 1 -.5.5z"/><path d="m27.979 60.954a.5.5 0 0 1 -.5-.5v-4.894a.5.5 0 0 1 1 0v4.895a.5.5 0 0 1 -.5.499z"/><path d="m32.8 38.505h-2.205a.5.5 0 1 1 0-1h2.205a.5.5 0 0 1 0 1z"/><path d="m43.405 38.505h-2.205a.5.5 0 0 1 0-1h2.209a.5.5 0 0 1 0 1z"/><path d="m32.8 49.119h-2.205a.5.5 0 1 1 0-1h2.205a.5.5 0 0 1 0 1z"/><path d="m43.405 49.119h-2.205a.5.5 0 0 1 0-1h2.209a.5.5 0 0 1 0 1z"/><path d="m47.47 71.852a19.953 19.953 0 0 1 -10.47-2.952 19.953 19.953 0 0 1 -10.47 2.95c-11.378 0-20.061-26.285-20.061-37.02a20.059 20.059 0 0 1 30.531-17.108 20.059 20.059 0 0 1 30.53 17.11c0 10.735-8.682 37.02-20.06 37.02zm-10.47-4.04a.5.5 0 0 1 .269.078 18.948 18.948 0 0 0 10.2 2.962c10.608 0 19.061-25.867 19.061-36.02a19.058 19.058 0 0 0 -29.262-16.1.5.5 0 0 1 -.537 0 19.058 19.058 0 0 0 -29.261 16.1c0 10.153 8.452 36.02 19.061 36.02a18.948 18.948 0 0 0 10.2-2.962.5.5 0 0 1 .269-.078z"/><path d="m34.394 13.3a10.143 10.143 0 0 1 -5.558-1.6 10.912 10.912 0 0 1 -4.779-8.343.5.5 0 0 1 .338-.524 10.92 10.92 0 0 1 9.571.919 10.915 10.915 0 0 1 4.78 8.344.5.5 0 0 1 -.338.524 12.614 12.614 0 0 1 -4.014.68zm-9.294-9.647a9.838 9.838 0 0 0 4.28 7.2 9.839 9.839 0 0 0 8.327.935 9.839 9.839 0 0 0 -4.281-7.2 9.838 9.838 0 0 0 -8.326-.935z"/></g><path d="m12.08 37.32.06.51a.73.73 0 0 1 -.65.8h-.07a.711.711 0 0 1 -.72-.65l-.06-.5a.722.722 0 0 1 .15-.53.713.713 0 0 1 .49-.27.671.671 0 0 1 .52.14.746.746 0 0 1 .28.5z" fill="#fff"/><path d="m16.12 25.15a16.226 16.226 0 0 0 -4.02 9.09.716.716 0 0 1 -.71.65h-.09a.712.712 0 0 1 -.48-.27.688.688 0 0 1 -.16-.53 17.6 17.6 0 0 1 4.37-9.9.715.715 0 0 1 1.02-.07.739.739 0 0 1 .07 1.03z" fill="#fff"/></svg>